<svg width="3981" height="4177" viewBox="0 0 3981 4177" fill="none" xmlns="http://www.w3.org/2000/svg">
<rect width="3981" height="4177" fill="white"/>
<path d="M3262.12 3627.19H1232.53C1236.83 3570.39 1244.83 3466.19 1253.83 3352.79C1254.43 3344.79 1255.12 3336.79 1255.72 3328.79C1256.12 3323.19 1256.62 3317.49 1257.12 3311.89C1257.12 3311.89 1257.12 3311.69 1257.12 3311.59C1268.02 3213.79 1280.03 3034.89 1288.43 2896.49C1288.93 2889.19 1289.32 2881.89 1289.72 2874.89C1292.82 2823.49 1295.33 2779.09 1297.03 2748.39C1246.93 2816.99 1195.53 2885.59 1146.83 2947.79C1137.23 2960.09 1127.73 2972.09 1118.43 2983.79C1057.83 3059.79 1002.72 3123.39 961.325 3161.39C961.225 3161.49 961.025 3161.59 960.925 3161.69C929.025 3187.89 887.525 3201.69 840.825 3201.69C794.125 3201.69 839.825 3201.69 839.325 3201.69C796.025 3201.39 749.525 3188.89 708.425 3166.59C667.425 3144.29 633.725 3113.69 610.925 3078.09C593.825 3051.29 583.425 3022.29 580.125 2992.49C578.625 2978.59 578.625 2964.39 580.125 2950.29C580.725 2944.89 581.425 2939.49 582.325 2934.09C587.625 2900.29 597.625 2867.29 611.825 2834.69C611.125 2832.59 611.125 2830.19 612.125 2827.99C678.625 2673.29 760.125 2515.19 847.725 2370.99C931.725 2232.79 1015.13 2118.39 1082.43 2048.99C1153.03 1976.29 1322.52 1889.09 1417.22 1843.49C1544.52 1782.29 1680.93 1727.09 1745.12 1710.49C1749.03 1702.49 1755.93 1691.69 1767.83 1677.19C1783.93 1657.59 1804.23 1637.19 1819.62 1625.39C1834.73 1613.79 1861.03 1606.59 1872.53 1603.79L1875.53 1493.09C1868.73 1484.39 1863.93 1477.09 1861.03 1472.39C1836.63 1432.19 1818.23 1332.39 1812.33 1297.69C1795.63 1303.69 1781.63 1303.49 1769.53 1297.19C1740.43 1282.09 1730.62 1234.69 1720.72 1174.29C1712.42 1123.19 1726.63 1097.29 1740.03 1084.49C1752.03 1073.09 1768.23 1067.39 1785.83 1068.19C1780.53 1015.99 1773.42 932.285 1776.62 881.885C1779.12 843.685 1782.93 802.985 1800.03 761.785C1819.23 715.485 1852.23 676.385 1900.93 642.285C1905.83 638.885 1911.03 635.585 1916.43 632.385C1916.43 623.785 1920.73 615.685 1938.12 605.385C2052.82 537.585 2236.33 570.485 2324.83 620.385C2363.23 641.985 2396.22 674.385 2420.42 714.185C2424.92 721.685 2429.23 729.385 2433.13 737.285C2433.53 738.085 2433.93 738.885 2434.33 739.785C2450.43 773.285 2460.93 810.685 2464.83 849.485C2471.93 919.485 2474.73 973.985 2468.63 1031.09C2468.63 1031.09 2468.63 1031.19 2468.63 1031.29C2468.23 1034.99 2467.83 1038.69 2467.33 1042.39C2467.33 1042.39 2467.33 1042.49 2467.33 1042.59C2466.03 1052.39 2464.52 1062.29 2462.72 1072.29C2462.52 1073.29 2462.32 1074.29 2462.22 1075.29C2462.42 1075.99 2462.63 1076.69 2462.63 1077.39C2462.63 1078.29 2462.62 1079.19 2462.42 1080.19V1080.79C2481.42 1079.89 2502.43 1085.89 2514.63 1102.39C2531.23 1124.79 2527.53 1176.49 2526.03 1191.79C2522.03 1232.29 2511.03 1268.19 2496.63 1287.89C2475.13 1317.29 2446.02 1319.39 2427.22 1315.09C2412.62 1385.19 2392.23 1440.29 2366.53 1478.89C2364.73 1481.59 2362.43 1484.69 2359.53 1488.09L2355.72 1595.09C2358.12 1595.69 2360.92 1596.49 2363.92 1597.59C2363.92 1597.59 2364.12 1597.59 2364.22 1597.59C2371.32 1600.29 2379.53 1604.99 2386.53 1612.69C2394.03 1620.99 2405.23 1640.99 2418.03 1665.59C2419.83 1669.09 2421.73 1672.69 2423.53 1676.29C2423.63 1676.49 2423.73 1676.69 2423.83 1676.79C2427.63 1684.19 2431.52 1691.89 2435.42 1699.69C2438.82 1706.49 2441.93 1712.59 2444.33 1717.29C2444.33 1717.29 2444.43 1717.29 2444.53 1717.29C2444.53 1717.29 2444.62 1717.29 2444.72 1717.29C2520.62 1738.49 2633.02 1790.09 2746.72 1856.19C2879.32 1933.29 2996.62 2020.09 3077.12 2100.79C3110.03 2133.79 3138.52 2174.49 3162.32 2222.39C3164.02 2225.79 3165.72 2229.29 3167.32 2232.69C3176.12 2251.19 3184.22 2270.79 3191.52 2291.29C3216.62 2361.19 3234.22 2442.59 3245.22 2540.09C3262.02 2688.59 3260.82 2851.39 3256.62 3012.89V3013.09C3255.73 3046.69 3254.72 3080.19 3253.72 3113.59C3252.62 3150.69 3251.72 3189.89 3251.22 3229.89C3249.32 3370.19 3251.62 3520.39 3262.32 3626.89L3262.12 3627.19Z" fill="white"/>
<path d="M2354.13 1056.69C2348.03 1054.59 2341.92 1052.79 2336.02 1051.29C2336.12 1051.29 2336.22 1051.09 2336.32 1051.09C2335.32 1050.99 2334.43 1050.79 2333.63 1050.69C2333.33 1050.69 2333.12 1050.69 2332.82 1050.59C2332.82 1050.59 2332.73 1050.59 2332.63 1050.59C2330.03 1049.89 2327.83 1048.19 2326.63 1045.89C2326.03 1045.79 2325.42 1045.69 2324.82 1045.59C2286.42 1039.39 2253.42 1043.39 2230.22 1048.69C2212.32 1052.79 2196.62 1058.69 2184.52 1064.69C2173.32 1070.29 2165.02 1076.19 2160.72 1081.19C2160.32 1081.59 2160.02 1081.99 2159.72 1082.39C2159.72 1082.39 2159.62 1082.59 2159.52 1082.69C2160.12 1083.49 2160.62 1084.29 2161.02 1085.09C2161.02 1085.29 2161.22 1085.49 2161.32 1085.69C2161.52 1086.09 2161.62 1086.39 2161.72 1086.79C2161.92 1087.29 2162.03 1087.89 2162.13 1088.39C2162.13 1088.79 2162.13 1089.19 2162.13 1089.69C2162.13 1090.19 2162.13 1090.19 2162.13 1090.39C2162.33 1088.99 2162.62 1087.79 2163.02 1086.59C2163.62 1084.49 2164.33 1082.59 2165.13 1081.09C2165.63 1080.19 2166.13 1079.39 2166.63 1078.69C2170.73 1073.19 2192.52 1059.69 2226.42 1051.89C2240.12 1048.69 2257.42 1046.09 2277.42 1046.09C2297.42 1046.09 2312.13 1047.89 2331.63 1052.59C2331.63 1052.59 2331.72 1052.59 2331.82 1052.59C2332.62 1052.79 2333.42 1052.99 2334.22 1053.19C2340.42 1054.79 2346.73 1056.59 2353.13 1058.79C2354.73 1059.29 2356.23 1060.09 2357.63 1060.89C2357.93 1060.89 2358.33 1060.99 2358.63 1061.09C2359.73 1061.29 2360.82 1061.39 2362.02 1061.59C2359.72 1059.39 2357.02 1057.79 2354.02 1056.79L2354.13 1056.69ZM2391.13 1091.69C2391.13 1091.09 2391.12 1090.59 2390.92 1089.99C2390.32 1082.99 2388.92 1076.39 2386.92 1070.49C2386.42 1069.19 2386.02 1067.99 2385.52 1066.79C2385.32 1066.29 2385.12 1065.89 2384.92 1065.39C2383.12 1061.39 2381.02 1057.89 2378.52 1054.69C2377.12 1052.89 2375.52 1051.19 2373.92 1049.69C2372.92 1048.69 2371.82 1047.79 2370.72 1046.99C2367.32 1044.39 2363.42 1042.29 2359.32 1040.89C2358.12 1040.49 2356.83 1040.09 2355.63 1039.69C2354.63 1039.39 2353.72 1039.09 2352.72 1038.79C2347.02 1036.99 2341.32 1035.39 2335.72 1034.09C2334.02 1033.69 2332.42 1033.29 2330.72 1032.99C2286.42 1023.29 2248.32 1027.49 2222.32 1033.49C2204.42 1037.59 2188.73 1043.49 2176.63 1049.49C2164.43 1055.59 2155.82 1061.99 2151.82 1067.19C2151.02 1068.29 2150.22 1069.39 2149.52 1070.69C2149.12 1071.29 2148.82 1071.99 2148.52 1072.59C2148.52 1072.59 2148.52 1072.59 2148.52 1072.69C2147.12 1075.59 2145.92 1078.89 2144.92 1082.59C2144.32 1084.79 2143.92 1087.09 2143.62 1089.49C2143.52 1090.39 2143.42 1091.29 2143.32 1092.09C2143.02 1095.09 2142.82 1098.39 2142.92 1101.69C2143.02 1123.19 2150.12 1151.29 2167.72 1183.49C2168.32 1184.59 2169.03 1185.69 2169.63 1186.79C2186.33 1213.89 2220.02 1229.69 2261.22 1229.69C2302.42 1229.69 2264.43 1229.69 2266.13 1229.69C2307.13 1228.49 2356.42 1210.49 2374.02 1172.99C2374.22 1172.49 2374.52 1171.99 2374.72 1171.49C2382.32 1154.99 2387.42 1137.99 2389.82 1121.89C2390.42 1118.29 2390.82 1114.79 2391.02 1111.39C2391.32 1107.99 2391.42 1104.69 2391.52 1101.39C2391.52 1100.89 2391.52 1100.49 2391.52 1099.99C2391.52 1097.09 2391.42 1094.29 2391.22 1091.49L2391.13 1091.69ZM2162.22 1113.99C2161.62 1109.39 2161.32 1105.09 2161.32 1101.29C2161.32 1097.49 2161.52 1095.09 2161.92 1092.39C2161.92 1092.19 2161.92 1092.09 2161.92 1091.89C2161.92 1091.89 2161.92 1091.79 2161.92 1091.69C2161.92 1091.19 2162.03 1090.79 2162.13 1090.29C2162.33 1088.89 2162.62 1087.59 2163.02 1086.39C2163.62 1084.29 2164.33 1082.39 2165.13 1080.89C2165.63 1079.99 2166.13 1079.19 2166.63 1078.49C2170.73 1072.99 2192.52 1059.49 2226.42 1051.69C2240.12 1048.49 2257.42 1045.89 2277.42 1045.89C2297.42 1045.89 2312.13 1047.69 2331.63 1052.39C2331.63 1052.39 2331.72 1052.39 2331.82 1052.39C2332.62 1052.59 2333.42 1052.79 2334.22 1052.99C2340.42 1054.59 2346.73 1056.39 2353.13 1058.59C2354.73 1059.09 2356.23 1059.89 2357.63 1060.69C2358.53 1061.19 2359.33 1061.89 2360.13 1062.49C2363.43 1065.29 2366.12 1069.09 2368.22 1073.89C2368.82 1075.19 2369.32 1076.69 2369.82 1078.09C2369.92 1078.49 2370.12 1078.99 2370.22 1079.49C2376.22 1100.59 2371.62 1132.89 2357.92 1162.89C2357.92 1162.89 2357.92 1162.89 2357.92 1162.99C2357.62 1163.59 2357.32 1164.29 2357.02 1164.89C2344.92 1190.69 2307.32 1209.59 2265.52 1210.79C2229.32 1211.89 2199.92 1199.49 2185.92 1177.59C2185.22 1176.59 2184.62 1175.49 2184.02 1174.39C2170.82 1150.19 2164.42 1129.69 2162.32 1113.69L2162.22 1113.99ZM2362.02 1061.49C2359.72 1059.29 2357.02 1057.69 2354.02 1056.69C2347.92 1054.59 2341.82 1052.79 2335.92 1051.29C2336.02 1051.29 2336.12 1051.09 2336.22 1051.09C2335.22 1050.99 2334.32 1050.79 2333.52 1050.69C2333.22 1050.69 2333.02 1050.69 2332.72 1050.59C2332.72 1050.59 2332.62 1050.59 2332.52 1050.59C2329.92 1049.89 2327.72 1048.19 2326.52 1045.89C2325.92 1045.79 2325.32 1045.69 2324.72 1045.59C2286.32 1039.39 2253.33 1043.39 2230.13 1048.69C2212.23 1052.79 2196.52 1058.69 2184.42 1064.69C2173.22 1070.29 2164.93 1076.19 2160.63 1081.19C2160.23 1081.59 2159.93 1081.99 2159.63 1082.39C2159.63 1082.39 2159.52 1082.59 2159.42 1082.69C2160.02 1083.49 2160.52 1084.29 2160.92 1085.09C2160.92 1085.29 2161.12 1085.49 2161.22 1085.69C2161.42 1086.09 2161.53 1086.39 2161.63 1086.79C2161.83 1087.29 2161.92 1087.89 2162.02 1088.39C2162.02 1088.79 2162.02 1089.19 2162.02 1089.69C2162.02 1090.19 2162.02 1090.19 2162.02 1090.39C2162.22 1088.99 2162.52 1087.79 2162.92 1086.59C2163.52 1084.49 2164.22 1082.59 2165.02 1081.09C2165.52 1080.19 2166.02 1079.39 2166.52 1078.69C2170.62 1073.19 2192.42 1059.69 2226.32 1051.89C2240.02 1048.69 2257.32 1046.09 2277.32 1046.09C2297.32 1046.09 2312.02 1047.89 2331.52 1052.59C2331.52 1052.59 2331.62 1052.59 2331.72 1052.59C2332.52 1052.79 2333.33 1052.99 2334.13 1053.19C2340.33 1054.79 2346.62 1056.59 2353.02 1058.79C2354.62 1059.29 2356.12 1060.09 2357.52 1060.89C2357.82 1060.89 2358.22 1060.99 2358.52 1061.09C2359.62 1061.29 2360.72 1061.39 2361.92 1061.59L2362.02 1061.49Z" fill="black"/>
<path d="M2334.02 1043.39C2334.02 1043.39 2388.72 1051.29 2403.02 1056.19C2417.32 1061.09 2453.42 1078.29 2453.42 1078.29L2450.32 1091.99H2416.82C2416.82 1091.89 2390.32 1085.79 2382.12 1097.59C2382.12 1097.59 2393.32 1051.09 2334.02 1043.39Z" fill="black"/>
<path d="M2462.33 1075.49C2461.53 1073.09 2459.82 1070.99 2457.42 1069.89C2457.22 1069.79 2456.32 1069.39 2455.02 1068.69C2455.02 1068.69 2454.82 1068.69 2454.72 1068.59C2454.52 1068.59 2454.33 1068.39 2454.13 1068.29C2453.23 1067.89 2452.12 1067.39 2450.92 1066.79C2449.32 1065.99 2447.43 1065.09 2445.33 1064.19C2445.23 1064.19 2445.03 1064.09 2444.83 1063.99C2443.53 1063.39 2442.03 1062.69 2440.63 1062.09C2440.63 1062.09 2440.42 1062.09 2440.42 1061.99C2438.22 1060.99 2435.92 1059.99 2433.52 1058.89C2432.32 1058.39 2431.03 1057.79 2429.83 1057.19C2429.73 1057.19 2429.62 1057.09 2429.42 1056.99C2427.02 1055.89 2424.53 1054.89 2422.13 1053.79C2420.83 1053.19 2419.52 1052.69 2418.22 1052.09C2413.52 1050.09 2409.22 1048.39 2406.02 1047.29C2397.82 1044.39 2378.53 1040.89 2362.13 1038.19C2359.23 1037.69 2356.32 1037.29 2353.72 1036.89C2351.72 1036.59 2349.93 1036.29 2348.13 1035.99C2344.43 1035.39 2341.22 1034.99 2338.92 1034.59C2337.82 1034.39 2336.82 1034.29 2335.72 1034.09C2335.52 1034.09 2335.42 1034.09 2335.22 1034.09C2331.42 1033.59 2327.92 1035.39 2326.02 1038.49C2325.32 1039.59 2324.92 1040.79 2324.72 1042.09C2324.52 1043.29 2324.72 1044.39 2324.92 1045.49C2325.22 1046.79 2325.83 1047.99 2326.63 1049.09C2327.83 1050.69 2329.62 1051.89 2331.72 1052.49C2331.72 1052.49 2331.82 1052.49 2331.92 1052.49C2332.22 1052.49 2332.42 1052.59 2332.72 1052.69C2333.22 1052.69 2333.82 1052.89 2334.52 1052.99C2335.02 1052.99 2335.62 1053.19 2336.22 1053.19C2345.42 1054.69 2352.92 1057.29 2358.72 1061.09C2359.82 1061.79 2360.92 1062.59 2361.92 1063.39C2364.32 1065.29 2366.32 1067.39 2368.02 1069.79C2368.12 1069.89 2368.23 1070.09 2368.33 1070.19C2370.73 1073.79 2372.13 1077.59 2372.83 1081.09C2373.03 1081.99 2373.12 1082.79 2373.22 1083.59C2373.72 1086.89 2373.62 1089.79 2373.42 1091.89C2373.22 1094.09 2373.02 1095.39 2373.02 1095.39C2372.52 1097.49 2372.83 1099.69 2373.63 1101.59C2374.53 1103.59 2376.12 1105.19 2378.22 1106.19C2378.92 1106.49 2379.63 1106.69 2380.33 1106.89C2380.73 1106.89 2381.02 1106.99 2381.42 1106.99C2381.62 1106.99 2381.93 1106.99 2382.13 1106.99C2385.13 1106.99 2388.03 1105.59 2389.83 1102.89C2390.03 1102.49 2390.42 1102.19 2390.92 1101.89C2391.12 1101.79 2391.32 1101.69 2391.52 1101.59C2391.82 1101.39 2392.12 1101.29 2392.42 1101.19C2394.02 1100.59 2396.02 1100.19 2398.42 1099.89C2403.32 1099.49 2409.53 1099.89 2414.83 1101.09C2415.53 1101.29 2416.22 1101.29 2416.92 1101.29H2425.63H2431.83H2435.92H2438.42H2441.63H2445.72H2447.72H2448.02H2450.63C2451.13 1101.29 2451.72 1101.29 2452.22 1101.19C2452.52 1101.19 2452.92 1101.09 2453.22 1100.99C2454.62 1100.59 2456.02 1099.79 2457.02 1098.79C2457.42 1098.39 2457.83 1097.99 2458.13 1097.59C2458.13 1097.59 2458.12 1097.49 2458.22 1097.39C2458.92 1096.39 2459.42 1095.29 2459.72 1094.09L2460.02 1092.69L2461.72 1085.19L2462.13 1083.39L2462.63 1080.99V1080.39C2462.93 1079.49 2463.02 1078.59 2462.92 1077.69C2462.92 1076.89 2462.72 1076.19 2462.52 1075.49H2462.33ZM2437.83 1082.59H2434.83H2430.63H2427.52H2426.72H2417.72C2416.22 1082.29 2413.92 1081.79 2411.22 1081.49C2406.82 1080.99 2401.13 1080.59 2395.33 1081.29C2394.63 1081.29 2393.92 1081.49 2393.22 1081.59C2392.72 1081.59 2392.33 1081.79 2391.83 1081.89C2391.63 1080.29 2391.32 1078.69 2391.02 1077.09C2390.22 1073.59 2389.02 1069.79 2387.22 1066.09C2386.52 1064.59 2385.73 1063.09 2384.83 1061.59C2385.63 1061.79 2386.43 1061.89 2387.13 1062.09C2392.63 1063.29 2397.13 1064.29 2399.83 1065.29C2405.63 1067.29 2415.43 1071.59 2424.83 1075.69C2426.33 1076.39 2427.73 1076.99 2429.13 1077.69C2430.93 1078.49 2432.62 1079.29 2434.22 1079.99C2434.82 1080.29 2435.33 1080.49 2435.83 1080.79C2437.43 1081.49 2438.92 1082.19 2440.22 1082.79H2437.63L2437.83 1082.59Z" fill="black"/>
<path d="M1904.72 1052.69C1904.32 1052.69 1904.02 1052.69 1903.62 1052.69C1903.42 1052.69 1903.22 1052.69 1903.02 1052.69C1902.72 1052.69 1902.42 1052.69 1902.22 1052.79C1901.72 1053.09 1901.22 1053.39 1900.72 1053.59C1899.92 1053.79 1899.02 1053.99 1898.22 1054.19C1891.72 1055.89 1884.92 1057.89 1878.12 1060.19C1874.32 1061.49 1871.12 1063.69 1868.32 1066.89C1868.12 1066.99 1867.92 1067.19 1867.72 1067.39C1867.72 1067.39 1867.82 1067.39 1867.92 1067.39C1866.02 1069.59 1864.42 1072.29 1863.12 1075.39C1864.72 1072.09 1866.72 1069.39 1869.02 1067.19C1871.42 1064.89 1874.12 1063.29 1877.22 1062.19C1884.12 1059.79 1890.82 1057.89 1897.32 1056.19C1898.12 1055.99 1898.92 1055.79 1899.72 1055.59C1902.72 1054.89 1905.62 1054.19 1908.52 1053.59C1907.42 1052.99 1906.12 1052.69 1904.82 1052.59L1904.72 1052.69ZM1857.62 1092.79C1857.32 1093.69 1857.02 1094.69 1856.72 1095.59C1856.92 1097.69 1857.12 1098.99 1857.22 1098.99C1857.42 1099.69 1857.52 1100.49 1857.52 1101.19C1857.52 1099.19 1857.72 1097.19 1857.92 1095.19C1858.02 1093.59 1858.22 1092.09 1858.52 1090.59C1858.22 1091.29 1857.92 1091.99 1857.72 1092.69L1857.62 1092.79ZM2079.22 1094.69C2079.22 1094.49 2079.22 1094.29 2079.22 1093.99C2079.22 1093.29 2079.12 1092.59 2079.02 1091.89C2078.62 1087.69 2077.82 1083.89 2076.82 1080.39C2076.22 1078.19 2075.42 1076.19 2074.62 1074.29C2074.42 1073.89 2074.32 1073.59 2074.12 1073.19C2073.02 1070.99 2071.82 1068.99 2070.52 1067.19C2056.72 1048.99 1990.82 1017.89 1905.22 1035.19C1903.72 1035.49 1902.12 1035.79 1900.62 1036.19C1898.42 1036.69 1896.12 1037.19 1893.92 1037.79C1890.92 1038.49 1887.92 1039.29 1884.92 1040.19C1880.32 1041.49 1875.72 1042.89 1871.12 1044.49C1867.02 1045.89 1863.22 1047.89 1859.82 1050.49C1858.82 1051.19 1857.92 1051.99 1857.02 1052.79C1854.32 1055.19 1852.02 1057.89 1849.82 1060.99C1848.42 1063.09 1847.12 1065.29 1846.02 1067.69C1845.62 1068.59 1845.22 1069.39 1844.82 1070.29C1844.62 1070.69 1844.42 1071.19 1844.32 1071.59C1843.02 1074.79 1842.02 1078.19 1841.22 1081.89C1840.52 1084.89 1840.02 1088.09 1839.62 1091.39C1839.62 1092.19 1839.42 1092.89 1839.42 1093.69C1839.42 1094.59 1839.22 1095.39 1839.22 1096.29C1839.12 1098.09 1839.02 1099.89 1839.02 1101.79C1839.02 1102.69 1839.02 1103.59 1839.02 1104.49C1839.02 1104.89 1839.02 1105.39 1839.02 1105.79C1839.02 1108.99 1839.22 1112.29 1839.52 1115.59C1841.22 1134.99 1847.02 1156.19 1856.52 1176.49C1858.12 1179.89 1859.92 1183.09 1862.12 1186.29C1879.92 1212.69 1915.82 1229.99 1957.02 1231.19C1958.52 1231.19 1960.12 1231.19 1961.62 1231.19C1985.72 1231.19 2007.42 1225.39 2024.52 1214.89C2024.72 1214.79 2024.92 1214.59 2025.22 1214.49C2031.02 1210.89 2036.32 1206.69 2041.02 1201.89C2046.22 1196.69 2050.62 1190.99 2054.22 1184.59C2054.42 1184.19 2054.72 1183.79 2054.92 1183.29C2054.92 1183.19 2055.02 1183.09 2055.12 1182.99C2055.12 1182.89 2055.22 1182.79 2055.32 1182.69C2058.12 1177.49 2060.62 1172.49 2062.92 1167.59C2071.92 1148.09 2076.92 1130.39 2078.82 1115.19C2079.42 1110.19 2079.72 1105.49 2079.72 1101.09C2079.72 1096.69 2079.72 1096.59 2079.52 1094.49L2079.22 1094.69ZM1857.42 1103.29C1857.42 1102.59 1857.42 1101.89 1857.42 1101.19C1857.42 1099.09 1857.62 1097.09 1857.82 1095.19C1857.92 1093.59 1858.12 1092.09 1858.42 1090.59C1859.12 1085.79 1860.32 1081.49 1861.92 1077.69C1862.22 1076.89 1862.62 1076.19 1862.92 1075.49C1864.52 1072.19 1866.52 1069.49 1868.82 1067.29C1871.22 1064.99 1873.92 1063.39 1877.02 1062.29C1883.92 1059.89 1890.62 1057.99 1897.12 1056.29C1897.92 1056.09 1898.72 1055.89 1899.52 1055.69C1902.52 1054.99 1905.42 1054.29 1908.32 1053.69C1925.32 1050.19 1941.02 1048.89 1955.02 1048.89C1969.02 1048.89 1987.72 1050.99 1999.62 1053.59C2016.12 1057.19 2029.12 1062.19 2038.42 1066.99C2047.72 1071.79 2053.42 1076.19 2055.22 1078.59C2057.22 1081.19 2058.82 1085.19 2059.72 1090.39C2062.22 1104.49 2059.92 1127.59 2046.32 1157.79C2046.12 1158.29 2045.92 1158.69 2045.62 1159.19C2043.82 1163.19 2041.82 1167.19 2039.62 1171.39C2039.12 1172.39 2038.52 1173.39 2038.02 1174.39C2038.02 1174.39 2038.02 1174.39 2038.02 1174.49C2024.42 1199.29 1994.22 1213.49 1957.22 1212.39C1923.22 1211.39 1893.02 1197.49 1878.22 1176.99C1876.22 1174.29 1874.52 1171.39 1873.12 1168.49C1866.32 1153.99 1861.62 1138.89 1859.22 1124.69C1857.92 1117.09 1857.32 1109.79 1857.32 1102.99L1857.42 1103.29ZM1904.72 1052.69C1904.32 1052.69 1904.02 1052.69 1903.62 1052.69C1903.42 1052.69 1903.22 1052.69 1903.02 1052.69C1902.72 1052.69 1902.42 1052.69 1902.22 1052.79C1901.72 1053.09 1901.22 1053.39 1900.72 1053.59C1899.92 1053.79 1899.02 1053.99 1898.22 1054.19C1891.72 1055.89 1884.92 1057.89 1878.12 1060.19C1874.32 1061.49 1871.12 1063.69 1868.32 1066.89C1868.12 1066.99 1867.92 1067.19 1867.72 1067.39C1865.62 1069.19 1863.82 1071.09 1862.32 1073.19C1861.52 1074.29 1860.82 1075.49 1860.32 1076.59C1857.72 1082.69 1857.52 1088.69 1857.72 1092.59C1857.72 1093.59 1857.82 1094.39 1857.92 1095.09C1858.02 1093.49 1858.22 1091.99 1858.52 1090.49C1859.22 1085.69 1860.42 1081.39 1862.02 1077.59C1862.32 1076.79 1862.72 1076.09 1863.02 1075.39C1864.62 1072.09 1866.62 1069.39 1868.92 1067.19C1871.32 1064.89 1874.02 1063.29 1877.12 1062.19C1884.02 1059.79 1890.72 1057.89 1897.22 1056.19C1898.02 1055.99 1898.82 1055.79 1899.62 1055.59C1902.62 1054.89 1905.52 1054.19 1908.42 1053.59C1907.32 1052.99 1906.02 1052.69 1904.72 1052.59V1052.69Z" fill="black"/>
<path d="M1905.52 1045.69C1905.12 1042.39 1903.02 1039.79 1900.22 1038.49C1898.62 1037.79 1896.82 1037.39 1895.02 1037.69C1894.62 1037.69 1894.22 1037.79 1893.82 1037.89C1891.92 1038.19 1888.32 1038.69 1883.92 1039.29C1883.02 1039.39 1882.12 1039.49 1881.12 1039.69C1865.22 1041.99 1840.02 1045.89 1826.62 1049.29C1826.32 1049.29 1826.12 1049.39 1825.82 1049.49C1824.02 1049.99 1822.52 1050.39 1821.22 1050.89C1819.62 1051.49 1818.02 1052.09 1816.52 1052.89C1816.32 1052.99 1816.12 1053.09 1815.92 1053.19C1815.92 1053.19 1815.92 1053.19 1815.82 1053.19C1811.82 1055.19 1808.32 1057.69 1805.52 1060.19C1804.12 1061.39 1802.82 1062.69 1801.62 1063.89C1801.62 1063.89 1801.52 1063.99 1801.42 1064.09C1799.42 1066.19 1797.92 1068.09 1796.72 1069.69C1796.42 1070.09 1796.12 1070.49 1795.82 1070.89C1795.22 1071.79 1794.82 1072.39 1794.62 1072.69C1794.62 1072.79 1794.52 1072.89 1794.52 1072.89C1793.92 1073.89 1793.52 1074.99 1793.32 1076.09C1793.32 1076.49 1793.22 1076.89 1793.22 1077.39C1793.22 1077.89 1793.22 1078.29 1793.22 1078.79L1793.72 1082.79V1083.39V1083.49L1794.32 1088.29L1794.82 1092.09C1794.82 1092.39 1794.82 1092.69 1795.02 1092.99C1795.52 1095.29 1796.92 1097.29 1798.72 1098.59C1799.52 1099.19 1800.52 1099.59 1801.52 1099.89C1801.62 1099.89 1801.82 1099.89 1801.92 1099.99C1802.92 1100.19 1803.92 1100.29 1804.92 1100.19H1805.12L1810.32 1099.69H1810.62H1810.82H1811.22H1811.72H1812.12L1819.82 1098.99H1820.12H1820.62C1824.32 1098.99 1833.72 1100.19 1838.72 1104.69C1839.12 1104.99 1839.42 1105.29 1839.72 1105.69C1839.92 1105.89 1840.12 1106.19 1840.32 1106.39C1840.32 1106.39 1840.32 1106.39 1840.32 1106.49C1841.92 1108.79 1844.42 1110.19 1847.02 1110.49C1847.42 1110.49 1847.72 1110.49 1848.12 1110.49C1848.72 1110.49 1849.22 1110.49 1849.82 1110.29C1850.52 1110.19 1851.22 1109.99 1851.92 1109.69C1853.22 1109.09 1854.32 1108.29 1855.22 1107.19C1856.02 1106.29 1856.62 1105.19 1857.02 1103.99C1857.32 1103.09 1857.52 1102.09 1857.52 1101.09C1857.52 1100.29 1857.52 1099.59 1857.22 1098.89C1857.22 1098.89 1856.92 1097.59 1856.72 1095.49C1856.42 1091.29 1856.52 1083.79 1860.12 1076.69C1860.72 1075.59 1861.42 1074.39 1862.12 1073.29C1863.62 1071.19 1865.42 1069.19 1867.52 1067.49C1867.72 1067.29 1867.92 1067.19 1868.12 1066.99C1874.72 1061.59 1884.22 1058.09 1896.32 1056.39C1896.62 1056.39 1896.92 1056.39 1897.12 1056.29H1897.32C1898.12 1056.29 1898.82 1055.99 1899.52 1055.69C1901.02 1055.09 1902.22 1054.19 1903.22 1053.09C1903.22 1052.99 1903.42 1052.89 1903.42 1052.79C1903.42 1052.79 1903.52 1052.59 1903.62 1052.49C1904.22 1051.69 1904.62 1050.89 1904.92 1049.99C1905.32 1048.69 1905.52 1047.29 1905.32 1045.79L1905.52 1045.69ZM1812.52 1080.79H1812.32V1079.99C1812.32 1079.89 1812.32 1079.79 1812.52 1079.69C1812.52 1079.69 1812.62 1079.49 1812.72 1079.39C1812.72 1079.39 1812.82 1079.29 1812.92 1079.19C1812.92 1079.09 1813.12 1078.89 1813.22 1078.79C1815.32 1076.29 1818.62 1072.99 1822.92 1070.59C1823.12 1070.49 1823.22 1070.39 1823.42 1070.29C1824.62 1069.59 1826.02 1068.99 1827.42 1068.49C1830.82 1067.29 1837.52 1065.89 1845.52 1064.39C1845.62 1064.39 1845.72 1064.39 1845.82 1064.39C1844.82 1065.89 1844.02 1067.39 1843.22 1068.89C1842.62 1069.99 1842.12 1071.19 1841.72 1072.29C1840.52 1075.29 1839.62 1078.29 1839.02 1081.19C1839.02 1081.69 1838.82 1082.09 1838.72 1082.59C1838.72 1082.89 1838.72 1083.09 1838.62 1083.39C1838.22 1083.29 1837.82 1083.09 1837.42 1082.99C1831.12 1080.89 1825.22 1080.39 1822.22 1080.29C1822.12 1080.29 1822.02 1080.29 1821.92 1080.29C1821.32 1080.29 1820.92 1080.29 1820.62 1080.29H1820.32C1820.12 1080.29 1819.82 1080.29 1819.62 1080.29L1812.82 1080.89H1812.72L1812.52 1080.79Z" fill="black"/>
<path d="M2070.32 1100.29C2068.52 1100.29 2066.72 1099.79 2065.22 1098.79C2060.92 1095.99 2059.72 1090.09 2062.52 1085.79C2073.62 1068.89 2098.62 1063.69 2116.62 1064.29C2137.62 1065.09 2154.22 1072.79 2161.02 1085.09C2163.52 1089.59 2161.92 1095.29 2157.42 1097.89C2152.92 1100.39 2147.22 1098.79 2144.62 1094.29C2141.12 1088.09 2129.62 1083.59 2115.92 1083.09C2099.12 1082.49 2083.52 1087.89 2078.12 1096.09C2076.32 1098.79 2073.32 1100.29 2070.32 1100.29Z" fill="black"/>
<path d="M2265.32 1134.49C2273.83 1134.49 2280.72 1125.26 2280.72 1113.89C2280.72 1102.51 2273.83 1093.29 2265.32 1093.29C2256.82 1093.29 2249.92 1102.51 2249.92 1113.89C2249.92 1125.26 2256.82 1134.49 2265.32 1134.49Z" fill="black"/>
<path d="M2290.02 1111.89C2290.02 1110.79 2289.92 1109.79 2289.72 1108.79C2288.62 1100.69 2285.02 1093.89 2279.82 1089.39C2275.72 1085.89 2270.72 1083.89 2265.32 1083.89C2259.92 1083.89 2257.12 1085.09 2253.62 1087.29C2248.03 1090.79 2243.82 1096.89 2241.82 1104.19C2241.02 1107.19 2240.52 1110.39 2240.52 1113.79C2240.52 1117.19 2240.62 1117.49 2240.92 1119.19C2241.92 1125.99 2244.72 1131.99 2248.72 1136.29C2253.12 1140.99 2258.82 1143.79 2265.32 1143.79C2271.82 1143.79 2281.82 1138.49 2286.12 1130.19C2288.62 1125.49 2290.02 1119.89 2290.02 1113.79C2290.02 1107.69 2290.02 1112.49 2290.02 1111.89ZM2261.42 1105.59C2262.62 1103.69 2264.12 1102.59 2265.32 1102.59C2266.52 1102.59 2268.83 1104.39 2270.12 1107.39C2270.62 1108.49 2270.92 1109.79 2271.22 1111.19C2271.32 1112.09 2271.42 1112.99 2271.42 1113.89C2271.42 1115.79 2271.12 1117.49 2270.72 1118.99C2269.52 1122.79 2267.12 1125.19 2265.42 1125.19C2263.72 1125.19 2260.82 1122.39 2259.82 1117.89C2259.52 1116.69 2259.42 1115.39 2259.42 1113.89C2259.42 1112.39 2259.42 1113.19 2259.42 1112.79C2259.62 1109.79 2260.42 1107.39 2261.52 1105.59H2261.42Z" fill="black"/>
<path d="M1979.82 1134.49C1988.33 1134.49 1995.22 1125.26 1995.22 1113.89C1995.22 1102.51 1988.33 1093.29 1979.82 1093.29C1971.32 1093.29 1964.42 1102.51 1964.42 1113.89C1964.42 1125.26 1971.32 1134.49 1979.82 1134.49Z" fill="black"/>
<path d="M2004.22 1108.79C2003.12 1100.79 1999.52 1093.89 1994.32 1089.39C1990.22 1085.89 1985.22 1083.89 1979.82 1083.89C1974.42 1083.89 1971.62 1085.09 1968.12 1087.29C1962.52 1090.79 1958.32 1096.79 1956.32 1104.19C1955.52 1106.99 1955.12 1109.99 1955.02 1113.09C1955.02 1113.29 1955.02 1113.59 1955.02 1113.79C1955.02 1120.39 1956.72 1126.39 1959.52 1131.19C1963.92 1138.79 1971.32 1143.79 1979.82 1143.79C1988.32 1143.79 1993.52 1140.19 1998.02 1134.39C2001.62 1129.69 2004.02 1123.59 2004.52 1116.69C2004.52 1115.69 2004.62 1114.79 2004.62 1113.79C2004.62 1112.09 2004.52 1110.39 2004.22 1108.69V1108.79ZM1975.92 1105.59C1977.12 1103.69 1978.62 1102.59 1979.82 1102.59C1981.02 1102.59 1983.32 1104.39 1984.62 1107.39C1985.12 1108.59 1985.52 1110.09 1985.72 1111.59C1985.72 1112.29 1985.82 1112.99 1985.82 1113.79C1985.82 1115.69 1985.52 1117.39 1985.12 1118.89C1983.92 1122.69 1981.52 1125.09 1979.82 1125.09C1978.12 1125.09 1975.22 1122.29 1974.22 1117.79C1973.92 1116.59 1973.82 1115.29 1973.82 1113.79C1973.82 1112.29 1973.82 1111.79 1974.02 1110.89C1974.42 1108.79 1975.12 1106.89 1975.92 1105.59Z" fill="black"/>
<path d="M2092.33 1283.79C2092.13 1283.79 2091.93 1283.79 2091.73 1283.79C2060.63 1281.89 2039.73 1272.39 2029.73 1255.69C2013.73 1229.19 2030.03 1192.79 2037.93 1175.39C2040.03 1170.69 2045.63 1168.59 2050.33 1170.69C2055.03 1172.79 2057.13 1178.39 2055.03 1183.09C2048.53 1197.69 2034.83 1227.99 2045.83 1246.09C2052.53 1257.19 2068.43 1263.59 2093.03 1265.19C2098.23 1265.49 2102.13 1269.99 2101.83 1275.09C2101.53 1280.09 2097.43 1283.89 2092.53 1283.89L2092.33 1283.79Z" fill="black"/>
<path d="M2025.93 1008.49C2032.63 1009.79 2037.13 1006.29 2042.53 1002.69C2047.93 999.085 2044.43 999.285 2042.73 998.285C2006.23 977.685 1909.63 962.785 1880.33 1016.39C1919.83 989.585 1978.73 996.885 2025.93 1008.59V1008.49Z" fill="black"/>
<path d="M2051.52 994.085C2050.52 992.485 2049.12 991.185 2047.32 990.185C2018.52 973.885 1962.02 963.585 1921.22 975.285C1900.12 981.285 1884.42 992.285 1874.52 1007.89C1873.62 1009.19 1872.92 1010.59 1872.12 1011.89C1870.02 1015.69 1870.82 1020.39 1874.02 1023.29C1875.82 1024.89 1878.02 1025.69 1880.32 1025.69C1882.62 1025.69 1883.92 1025.19 1885.52 1024.09C1885.52 1024.09 1885.52 1024.09 1885.62 1024.09C1891.52 1020.09 1898.02 1016.79 1905.32 1014.29C1926.52 1006.79 1953.52 1005.49 1986.12 1010.09C1994.92 1011.39 2004.12 1013.09 2013.82 1015.19C2017.02 1015.89 2020.32 1016.69 2023.62 1017.49C2023.82 1017.49 2024.02 1017.49 2024.12 1017.59C2029.82 1018.69 2034.52 1017.59 2038.52 1015.79C2038.62 1015.79 2038.72 1015.69 2038.82 1015.59C2041.72 1014.29 2044.22 1012.59 2046.52 1010.99L2047.62 1010.29C2049.32 1009.19 2050.72 1007.69 2051.62 1005.99C2051.92 1005.49 2052.12 1005.09 2052.32 1004.59C2052.92 1003.09 2053.32 1001.39 2053.22 999.685C2053.22 997.585 2052.52 995.585 2051.42 993.885L2051.52 994.085ZM1984.02 990.885C1976.72 989.885 1969.62 989.285 1962.92 988.885C1971.32 988.985 1979.72 989.785 1987.82 990.985C1993.52 991.785 1999.02 992.885 2004.22 994.185C1997.32 992.885 1990.62 991.785 1984.12 990.985L1984.02 990.885Z" fill="black"/>
<path d="M2207.62 1011.39C2200.92 1012.89 2196.32 1009.69 2190.72 1006.29C2185.12 1002.89 2188.62 1002.99 2190.32 1001.89C2225.92 979.685 2321.72 960.485 2353.42 1012.79C2312.82 987.785 2254.22 997.585 2207.62 1011.39Z" fill="black"/>
<path d="M2361.42 1007.89C2350.92 990.585 2333.82 978.985 2310.72 973.485C2269.32 963.585 2213.42 976.385 2185.32 993.985C2181.82 996.185 2179.72 999.885 2179.82 1003.99C2179.82 1005.39 2180.12 1006.79 2180.62 1008.09C2181.32 1009.99 2182.52 1011.59 2184.02 1012.99C2184.62 1013.49 2185.22 1013.99 2185.92 1014.39L2187.02 1015.09C2190.62 1017.29 2194.82 1019.89 2200.02 1020.89C2202.92 1021.49 2206.22 1021.49 2209.82 1020.69C2210.02 1020.69 2210.22 1020.69 2210.32 1020.59C2272.02 1002.39 2318.52 1002.49 2348.52 1020.99C2349.32 1021.49 2350.22 1021.89 2351.12 1022.09C2351.92 1022.29 2352.62 1022.39 2353.42 1022.39C2355.82 1022.39 2358.22 1021.49 2360.02 1019.69C2360.22 1019.49 2360.42 1019.29 2360.62 1019.09C2361.72 1017.79 2362.42 1016.19 2362.72 1014.49C2363.02 1012.39 2362.72 1010.09 2361.52 1008.19L2361.42 1007.89ZM2269.82 988.985C2257.02 990.185 2243.32 992.585 2228.72 995.985C2241.32 992.385 2255.62 989.785 2269.82 988.985Z" fill="black"/>
<path d="M2112.32 1395.19C2110.02 1395.19 2107.62 1395.19 2105.22 1395.19C2062.02 1394.39 2021.52 1385.59 1991.02 1370.69C1986.42 1368.39 1984.42 1362.79 1986.72 1358.19C1989.02 1353.59 1994.62 1351.59 1999.22 1353.89C2052.02 1379.79 2148.92 1388.09 2232.22 1353.69C2237.02 1351.69 2242.52 1353.99 2244.42 1358.79C2246.42 1363.59 2244.12 1369.09 2239.32 1370.99C2200.72 1386.99 2156.92 1395.29 2112.12 1395.29L2112.32 1395.19Z" fill="black"/>
<path d="M1800.43 1113.89C1800.43 1113.89 1781.23 958.485 1786.13 882.785C1791.03 807.085 1801.63 723.585 1906.43 650.185C1911.93 646.385 1917.63 642.785 1923.73 639.385C1931.23 635.185 1915.93 629.785 1943.03 613.685C2053.33 548.485 2232.53 579.285 2320.33 628.785C2395.73 671.285 2445.83 753.685 2455.63 850.685C2465.53 947.685 2468.03 1017.89 2444.33 1113.89C2444.33 1113.89 2429.23 1050.59 2414.33 1010.19C2399.43 969.785 2389.43 946.585 2387.03 896.885C2384.63 847.185 2383.03 842.185 2363.63 813.385C2349.53 792.285 2329.03 760.485 2299.83 766.585C2277.83 771.185 2215.13 797.485 2110.53 795.785C2005.93 794.085 1997.63 767.885 1972.83 762.685C1943.23 756.385 1890.53 790.385 1868.63 827.585C1846.73 864.785 1857.43 921.185 1844.93 940.785C1832.43 960.385 1809.13 977.785 1800.33 1113.99L1800.43 1113.89Z" fill="black"/>
<path d="M2439.83 1059.29C2439.83 1059.29 2439.83 1059.19 2439.83 1059.09C2439.83 1059.09 2439.83 1059.19 2439.83 1059.29C2440.03 1060.19 2440.23 1061.09 2440.33 1061.89C2440.33 1061.89 2440.53 1061.89 2440.53 1061.99C2440.33 1061.09 2440.03 1060.19 2439.73 1059.29H2439.83ZM2465.03 849.685C2461.13 810.885 2450.63 773.485 2434.53 739.985C2434.13 739.185 2433.73 738.385 2433.33 737.485C2429.43 729.585 2425.13 721.785 2420.63 714.385C2396.43 674.585 2363.33 642.185 2325.03 620.585C2236.63 570.685 2053.03 537.785 1938.33 605.585C1920.93 615.885 1916.63 623.985 1916.63 632.585C1911.23 635.685 1905.93 638.985 1901.13 642.485C1852.43 676.585 1819.43 715.685 1800.23 761.985C1783.13 803.185 1779.33 843.885 1776.83 882.085C1773.53 932.485 1780.63 1016.19 1786.03 1068.39C1786.53 1073.69 1787.13 1078.79 1787.63 1083.39C1787.63 1083.39 1787.63 1083.39 1787.63 1083.49C1787.73 1084.79 1787.93 1086.09 1788.03 1087.29C1788.63 1092.99 1789.23 1097.89 1789.73 1101.99V1102.09C1790.53 1109.29 1791.13 1113.89 1791.23 1114.89C1791.73 1118.79 1794.53 1121.79 1798.13 1122.79H1798.33C1799.03 1122.99 1799.73 1123.09 1800.53 1123.09C1801.33 1123.09 1800.73 1123.09 1800.83 1123.09C1803.33 1123.09 1805.63 1121.99 1807.23 1120.29L1807.43 1120.09C1808.03 1119.39 1808.63 1118.69 1809.03 1117.79C1809.13 1117.49 1809.23 1117.29 1809.33 1116.99C1809.53 1116.39 1809.73 1115.79 1809.83 1115.09C1809.83 1114.89 1809.83 1114.59 1809.83 1114.39C1810.13 1109.89 1810.43 1105.49 1810.73 1101.29C1810.73 1101.19 1810.73 1100.99 1810.73 1100.89C1810.73 1100.49 1810.73 1100.19 1810.73 1099.79C1810.73 1099.19 1810.83 1098.49 1810.83 1097.89C1810.83 1097.89 1810.83 1097.79 1810.83 1097.69C1811.03 1095.39 1811.23 1093.19 1811.43 1090.99C1811.43 1090.79 1811.43 1090.59 1811.43 1090.39C1811.43 1090.19 1811.43 1089.99 1811.43 1089.79C1811.43 1089.79 1811.43 1089.69 1811.43 1089.59C1811.43 1089.29 1811.43 1088.99 1811.43 1088.69C1811.43 1088.69 1811.43 1088.59 1811.43 1088.49C1811.63 1085.89 1811.93 1083.39 1812.13 1080.89C1812.13 1080.39 1812.13 1079.99 1812.23 1079.49C1812.33 1078.19 1812.53 1076.89 1812.63 1075.59C1813.03 1072.09 1813.33 1068.79 1813.73 1065.49C1813.73 1065.39 1813.73 1065.19 1813.73 1065.09C1813.73 1064.59 1813.83 1064.19 1813.93 1063.69C1814.33 1060.09 1814.83 1056.59 1815.23 1053.19C1815.23 1052.59 1815.33 1052.09 1815.43 1051.59C1818.03 1032.69 1821.03 1017.59 1824.13 1005.39V1005.19C1831.93 974.985 1840.83 962.485 1847.63 952.785C1849.33 950.385 1850.93 948.185 1852.43 945.785C1856.43 939.485 1858.43 931.085 1859.73 921.285C1859.73 921.285 1859.73 921.285 1859.73 921.185C1860.53 914.685 1861.03 907.585 1861.53 900.085C1861.73 897.085 1861.93 893.985 1862.23 890.885C1862.23 890.885 1862.23 890.885 1862.23 890.785C1863.83 870.585 1866.43 849.085 1876.33 832.485C1879.43 827.285 1883.13 822.085 1887.43 817.085C1910.93 789.585 1949.53 767.585 1970.53 771.985C1976.13 773.185 1980.83 775.785 1987.33 779.385C2005.23 789.185 2032.33 804.085 2110.03 805.385C2195.93 806.785 2253.83 789.685 2284.93 780.585C2292.03 778.485 2297.53 776.885 2301.43 776.085C2310.43 774.185 2318.73 777.385 2326.23 783.285C2337.23 791.785 2346.63 805.785 2354.33 817.285L2355.43 818.985C2362.73 829.885 2367.33 836.885 2370.33 844.685C2374.73 855.985 2375.73 868.885 2377.23 897.785C2379.53 944.885 2388.83 969.785 2401.63 1004.39C2402.73 1007.49 2403.93 1010.59 2405.13 1013.89C2409.13 1024.79 2413.13 1037.39 2416.93 1049.99C2417.23 1050.89 2417.43 1051.79 2417.73 1052.69C2418.63 1055.69 2419.43 1058.69 2420.33 1061.59C2420.53 1062.49 2420.83 1063.39 2421.13 1064.29C2421.33 1064.89 2421.43 1065.49 2421.63 1066.09C2422.33 1068.49 2422.93 1070.89 2423.63 1073.29C2423.83 1074.19 2424.13 1075.09 2424.43 1075.99C2424.53 1076.49 2424.73 1076.99 2424.83 1077.59C2425.33 1079.39 2425.83 1081.19 2426.23 1082.89C2426.23 1082.89 2426.23 1082.99 2426.23 1083.09C2426.83 1085.19 2427.33 1087.19 2427.83 1089.19C2428.13 1090.29 2428.43 1091.39 2428.63 1092.49C2428.63 1092.69 2428.73 1092.89 2428.83 1093.19C2429.33 1094.99 2429.73 1096.69 2430.13 1098.29C2430.43 1099.59 2430.73 1100.79 2431.03 1101.99C2431.13 1102.49 2431.33 1102.99 2431.43 1103.49C2431.83 1104.99 2432.13 1106.39 2432.53 1107.69C2433.93 1113.19 2434.73 1116.59 2434.73 1116.69C2434.73 1116.79 2434.73 1116.89 2434.73 1117.09C2435.53 1120.09 2437.73 1122.29 2440.53 1123.39C2440.73 1123.39 2440.93 1123.49 2441.03 1123.59C2441.83 1123.89 2442.73 1123.99 2443.63 1123.99C2445.93 1123.99 2448.03 1123.19 2449.63 1121.79C2449.73 1121.69 2449.93 1121.59 2450.03 1121.39C2451.23 1120.29 2452.13 1118.79 2452.53 1117.19C2452.53 1117.09 2452.53 1116.99 2452.63 1116.79C2452.63 1116.49 2452.73 1116.19 2452.83 1115.99C2453.43 1113.59 2454.03 1111.19 2454.53 1108.89C2454.53 1108.49 2454.73 1108.19 2454.83 1107.79C2455.33 1105.49 2455.93 1103.19 2456.43 1100.89C2456.43 1100.49 2456.63 1100.09 2456.73 1099.69C2456.83 1099.29 2456.93 1098.89 2457.03 1098.49C2457.03 1098.49 2457.03 1098.39 2457.03 1098.29C2457.03 1098.29 2457.03 1098.29 2457.03 1098.19C2457.43 1096.49 2457.83 1094.79 2458.13 1093.09C2458.83 1089.89 2459.43 1086.79 2460.03 1083.59C2460.13 1082.99 2460.23 1082.39 2460.43 1081.79C2460.83 1079.89 2461.13 1078.09 2461.53 1076.29C2461.73 1075.29 2461.93 1074.29 2462.03 1073.29C2463.83 1063.19 2465.33 1053.29 2466.63 1043.59C2466.63 1043.59 2466.63 1043.49 2466.63 1043.39C2467.13 1039.69 2467.53 1035.99 2467.93 1032.29C2467.93 1032.29 2467.93 1032.19 2467.93 1032.09C2474.03 974.985 2471.23 920.485 2464.13 850.485L2465.03 849.685ZM2387.73 835.885C2384.23 827.585 2379.13 819.485 2371.53 808.085L2370.43 806.385C2356.83 786.085 2336.83 756.285 2307.53 756.285C2278.23 756.285 2301.33 756.585 2298.13 757.285C2293.53 758.285 2287.63 759.985 2280.23 762.185C2250.13 771.085 2194.03 787.585 2110.93 786.285C2037.83 785.085 2014.23 772.085 1996.93 762.585C1989.93 758.685 1983.23 755.085 1974.93 753.285C1967.83 751.785 1959.83 752.085 1951.63 753.885C1924.23 759.785 1893.03 781.585 1872.73 805.785C1868.13 811.285 1864.03 816.985 1860.73 822.585C1847.13 845.585 1845.13 874.885 1843.43 898.485C1842.33 914.185 1841.33 929.085 1837.23 935.485C1835.93 937.485 1834.53 939.585 1832.93 941.785C1825.03 952.985 1814.63 967.585 1805.93 1003.19C1805.93 1003.49 1805.83 1003.69 1805.73 1003.99C1804.03 1010.79 1802.53 1018.19 1800.93 1026.59C1796.73 978.385 1793.13 920.585 1795.53 883.285C1795.93 876.485 1796.43 869.685 1797.13 862.885C1797.43 859.285 1797.83 855.685 1798.13 852.185C1805.53 783.685 1826.33 717.585 1911.83 657.785C1916.93 654.185 1922.53 650.685 1928.33 647.485C1936.13 643.085 1935.63 636.085 1935.43 633.485C1935.36 632.552 1935.46 631.852 1935.73 631.385C1936.63 629.985 1939.43 626.785 1947.93 621.785C2056.53 557.585 2231.43 589.285 2315.83 636.985C2317.13 637.785 2318.53 638.485 2319.83 639.285C2361.13 663.685 2394.43 701.185 2416.73 746.685C2417.13 747.485 2417.53 748.285 2417.93 749.085C2432.83 780.085 2442.63 814.785 2446.33 851.485C2454.13 928.685 2456.63 986.485 2447.43 1050.09C2446.83 1053.99 2446.23 1057.89 2445.63 1061.89C2445.53 1062.59 2445.43 1063.39 2445.23 1064.09C2445.23 1064.39 2445.23 1064.69 2445.13 1064.99C2444.73 1067.09 2444.43 1069.29 2444.03 1071.39C2444.03 1071.99 2443.83 1072.49 2443.73 1073.09C2443.53 1072.39 2443.33 1071.69 2443.13 1070.99C2442.33 1068.09 2441.53 1064.99 2440.63 1061.89C2440.43 1060.99 2440.13 1060.09 2439.83 1059.19C2439.83 1059.19 2439.83 1059.09 2439.83 1058.99C2434.93 1041.49 2429.13 1022.59 2423.33 1006.79C2422.13 1003.49 2420.93 1000.29 2419.83 997.285C2407.13 963.085 2398.73 940.585 2396.63 896.385C2395.03 864.385 2393.73 849.885 2387.93 835.885H2387.73ZM2439.83 1059.29C2439.83 1059.29 2439.83 1059.19 2439.83 1059.09C2439.83 1059.09 2439.83 1059.19 2439.83 1059.29C2440.03 1060.19 2440.23 1061.09 2440.33 1061.89C2440.33 1061.89 2440.53 1061.89 2440.53 1061.99C2440.33 1061.09 2440.03 1060.19 2439.73 1059.29H2439.83Z" fill="black"/>
<path d="M2526.03 1191.89C2522.03 1232.39 2511.03 1268.29 2496.63 1287.99C2475.13 1317.39 2446.03 1319.49 2427.23 1315.19C2412.63 1385.29 2392.23 1440.39 2366.53 1478.99C2364.73 1481.69 2362.43 1484.79 2359.53 1488.19C2354.53 1494.19 2348.03 1501.19 2340.03 1508.69C2296.83 1549.39 2212.23 1605.19 2110.33 1605.19H2110.03C2050.13 1605.19 1994.93 1588.99 1945.93 1557.09C1924.23 1542.99 1907.03 1527.89 1893.83 1514.19C1886.63 1506.69 1880.63 1499.59 1875.63 1493.29C1868.83 1484.59 1864.03 1477.29 1861.13 1472.59C1836.73 1432.39 1818.33 1332.59 1812.43 1297.89C1795.73 1303.89 1781.73 1303.69 1769.63 1297.39C1740.53 1282.29 1730.73 1234.89 1720.83 1174.49C1712.53 1123.39 1726.73 1097.49 1740.13 1084.69C1752.13 1073.29 1768.33 1067.59 1785.93 1068.39C1789.13 1068.49 1792.33 1068.89 1795.53 1069.49C1795.83 1069.49 1796.23 1069.59 1796.53 1069.69C1797.23 1069.79 1797.83 1069.99 1798.53 1070.09C1800.73 1070.59 1802.53 1071.79 1803.83 1073.39C1804.13 1073.79 1804.43 1074.19 1804.63 1074.49C1805.83 1076.49 1806.23 1078.79 1805.73 1081.19C1805.33 1082.89 1804.53 1084.39 1803.43 1085.59C1803.13 1085.89 1802.93 1086.19 1802.63 1086.39C1801.23 1087.59 1799.43 1088.29 1797.63 1088.59C1796.63 1088.69 1795.63 1088.59 1794.63 1088.39C1794.63 1088.39 1794.43 1088.39 1794.33 1088.39C1792.23 1087.99 1790.13 1087.59 1788.03 1087.39C1774.53 1086.09 1762.03 1089.89 1753.23 1098.29C1738.73 1112.09 1734.03 1137.39 1739.53 1171.49C1747.93 1222.79 1757.23 1269.79 1778.43 1280.79C1787.53 1285.49 1799.73 1283.99 1815.83 1276.19C1818.53 1274.89 1821.63 1274.99 1824.23 1276.29C1826.83 1277.69 1828.73 1280.19 1829.13 1283.19C1829.33 1284.49 1850.13 1418.09 1877.23 1462.79C1880.13 1467.59 1885.03 1474.99 1892.13 1483.89C1892.23 1484.09 1892.43 1484.19 1892.53 1484.39C1905.63 1500.69 1926.33 1521.89 1956.13 1541.39C2002.03 1571.19 2053.83 1586.39 2110.03 1586.49H2110.23C2220.83 1586.49 2311.83 1514.59 2343.03 1478.59C2343.03 1478.59 2343.03 1478.59 2343.03 1478.49C2346.23 1474.79 2348.83 1471.49 2350.63 1468.59C2376.23 1430.09 2396.43 1373.79 2410.63 1301.09C2411.23 1298.29 2413.03 1295.79 2415.63 1294.49C2418.23 1293.19 2421.23 1293.19 2423.83 1294.39C2425.13 1294.99 2457.43 1309.29 2481.23 1276.89C2493.53 1260.09 2503.43 1226.79 2507.13 1189.99C2510.63 1155.19 2507.43 1124.59 2499.33 1113.59C2490.13 1101.19 2471.92 1097.99 2456.92 1100.09C2455.42 1100.29 2453.93 1100.59 2452.53 1100.89C2452.33 1100.89 2452.23 1100.89 2452.03 1100.89C2451.83 1100.89 2451.63 1100.89 2451.53 1100.99C2450.93 1100.99 2450.42 1101.09 2449.92 1101.09C2448.92 1101.09 2448.03 1100.99 2447.13 1100.69C2444.03 1099.69 2441.63 1097.19 2440.83 1093.89C2440.63 1093.19 2440.63 1092.49 2440.63 1091.79C2440.63 1087.59 2443.53 1083.69 2447.83 1082.69C2448.93 1082.49 2450.03 1082.19 2451.13 1081.99C2451.53 1081.99 2451.83 1081.89 2452.23 1081.79C2455.03 1081.29 2457.92 1080.99 2460.92 1080.79C2461.32 1080.79 2461.73 1080.79 2462.03 1080.79C2481.23 1079.89 2502.13 1085.89 2514.33 1102.39C2530.93 1124.79 2527.23 1176.49 2525.73 1191.79L2526.03 1191.89Z" fill="black"/>
<path d="M1794.12 1250.89C1784.72 1250.89 1769.42 1246.59 1755.62 1223.19C1753.02 1218.79 1754.42 1212.99 1758.92 1210.39C1763.42 1207.79 1769.12 1209.19 1771.72 1213.69C1779.42 1226.69 1788.52 1233.59 1795.92 1232.09C1798.62 1231.49 1800.22 1229.99 1800.72 1228.99C1800.42 1228.79 1799.92 1228.59 1799.32 1228.49C1785.62 1224.49 1776.72 1211.69 1775.52 1194.09C1774.42 1177.49 1780.52 1157.49 1794.32 1151.39C1799.02 1149.29 1804.62 1151.39 1806.72 1156.19C1808.82 1160.99 1806.72 1166.49 1801.92 1168.59C1798.32 1170.19 1793.42 1180.69 1794.22 1192.89C1794.52 1197.39 1796.12 1208.09 1804.52 1210.49C1815.82 1213.69 1819.72 1221.99 1819.72 1228.69C1819.72 1238.19 1811.92 1247.19 1801.42 1250.09C1799.92 1250.49 1797.42 1250.99 1794.22 1250.99L1794.12 1250.89Z" fill="black"/>
<path d="M1759.43 1171.59C1754.43 1171.59 1750.23 1167.59 1750.03 1162.59C1748.93 1133.79 1754.63 1124.59 1769.93 1107.59C1773.43 1103.79 1779.33 1103.39 1783.13 1106.89C1786.93 1110.39 1787.33 1116.29 1783.83 1120.09C1771.13 1134.19 1767.93 1138.79 1768.73 1161.79C1768.93 1166.99 1764.93 1171.29 1759.73 1171.49C1759.63 1171.49 1759.53 1171.49 1759.33 1171.49L1759.43 1171.59Z" fill="black"/>
<path d="M2446.72 1254.39C2436.52 1254.39 2429.52 1250.69 2427.72 1244.19C2426.92 1241.49 2426.12 1234.59 2435.22 1229.09C2446.42 1222.29 2448.02 1196.29 2438.22 1179.39C2435.62 1174.89 2437.12 1169.19 2441.62 1166.59C2446.12 1163.99 2451.82 1165.49 2454.42 1169.99C2465.42 1188.89 2466.82 1216.89 2455.82 1234.19C2457.42 1233.69 2459.12 1233.09 2460.72 1232.29C2468.42 1228.49 2473.52 1222.29 2475.72 1213.89C2477.02 1208.89 2482.12 1205.89 2487.22 1207.19C2492.22 1208.49 2495.22 1213.59 2493.92 1218.69C2487.42 1243.09 2465.82 1254.29 2447.22 1254.49C2447.12 1254.49 2446.92 1254.49 2446.82 1254.49L2446.72 1254.39Z" fill="black"/>
<path d="M2484.22 1159.59C2483.62 1159.59 2483.02 1159.59 2482.42 1159.39C2477.32 1158.39 2474.02 1153.49 2475.02 1148.39C2478.02 1133.19 2465.12 1129.49 2465.02 1129.49C2460.02 1128.19 2456.92 1123.19 2458.22 1118.09C2459.52 1113.09 2464.53 1109.99 2469.63 1111.29C2481.33 1114.19 2498.12 1127.89 2493.42 1151.99C2492.52 1156.49 2488.62 1159.59 2484.22 1159.59Z" fill="black"/>
<path d="M2359.72 1484.99V1488.19C2359.62 1488.19 2355.72 1595.19 2355.72 1595.19L2355.02 1614.39V1617.99C2354.92 1617.99 2354.82 1619.49 2354.82 1619.49C2354.62 1624.59 2350.52 1628.49 2345.42 1628.49H2345.12C2341.22 1628.39 2337.92 1625.79 2336.62 1622.39C2336.62 1622.39 2336.62 1622.29 2336.62 1622.19C2336.62 1621.99 2336.42 1621.69 2336.42 1621.39C2336.42 1621.19 2336.32 1620.89 2336.22 1620.69C2336.22 1620.49 2336.22 1620.29 2336.22 1620.09C2336.22 1620.09 2336.22 1619.89 2336.22 1619.79C2336.22 1619.59 2336.22 1619.39 2336.22 1619.09C2336.22 1618.79 2336.22 1618.89 2336.22 1618.79L2340.22 1508.59L2341.12 1484.19C2341.12 1481.99 2342.02 1479.99 2343.32 1478.49C2343.32 1478.49 2343.32 1478.49 2343.32 1478.39C2345.12 1476.39 2347.82 1475.09 2350.72 1475.19C2355.92 1475.39 2359.92 1479.69 2359.72 1484.89V1484.99Z" fill="black"/>
<path d="M1894.52 1490.39L1893.92 1514.19L1890.12 1657.49C1890.12 1658.09 1890.02 1658.69 1889.92 1659.29C1889.92 1659.49 1889.82 1659.79 1889.72 1659.99C1889.72 1660.09 1889.72 1660.29 1889.62 1660.39C1889.62 1660.59 1889.52 1660.79 1889.42 1660.99C1889.42 1661.19 1889.32 1661.29 1889.22 1661.49C1889.22 1661.69 1889.02 1661.79 1888.92 1661.99C1888.92 1662.19 1888.72 1662.29 1888.62 1662.49C1888.62 1662.69 1888.42 1662.79 1888.32 1662.99C1888.22 1663.19 1888.12 1663.29 1887.92 1663.49C1887.82 1663.59 1887.72 1663.79 1887.52 1663.89C1887.12 1664.29 1886.62 1664.69 1886.22 1664.99C1886.22 1664.99 1886.12 1664.99 1886.02 1665.09C1884.52 1666.09 1882.82 1666.69 1880.82 1666.69C1878.82 1666.69 1880.62 1666.69 1880.52 1666.69C1875.32 1666.59 1871.32 1662.29 1871.42 1657.09V1652.59C1871.52 1652.59 1872.32 1623.59 1872.32 1623.59L1872.82 1604.09L1875.82 1493.39V1489.99C1876.02 1484.79 1880.32 1480.79 1885.52 1480.89C1888.22 1480.89 1890.62 1482.19 1892.32 1484.09C1892.42 1484.29 1892.62 1484.39 1892.72 1484.59C1894.02 1486.19 1894.72 1488.29 1894.62 1490.59L1894.52 1490.39Z" fill="black"/>
<path d="M2448.42 1731.79C2448.42 1727.69 2447.52 1724.19 2446.12 1721.39C2445.52 1720.29 2444.92 1719.09 2444.22 1717.79C2441.82 1713.09 2438.72 1706.99 2435.32 1700.19C2431.42 1692.39 2427.52 1684.69 2423.72 1677.29C2423.72 1677.09 2423.52 1676.99 2423.42 1676.79C2421.52 1673.09 2419.72 1669.59 2417.92 1666.09C2405.12 1641.49 2393.92 1621.39 2386.42 1613.19C2379.42 1605.39 2371.22 1600.79 2364.12 1598.09C2364.12 1598.09 2363.92 1598.09 2363.82 1598.09C2360.82 1596.99 2358.12 1596.19 2355.62 1595.59C2350.32 1594.39 2346.62 1594.19 2346.22 1594.19C2345.92 1594.19 2345.72 1594.19 2345.42 1594.19C2345.42 1594.19 2345.23 1594.19 2345.12 1594.19C2340.43 1594.59 2336.72 1598.39 2336.52 1603.19C2336.42 1606.59 2338.12 1609.69 2340.72 1611.39C2341.82 1612.09 2343.02 1612.59 2344.32 1612.79C2344.32 1612.79 2344.52 1612.79 2344.62 1612.79C2344.93 1612.79 2345.12 1612.79 2345.42 1612.79C2345.42 1612.79 2345.62 1612.79 2345.92 1612.79C2346.02 1612.79 2346.12 1612.79 2346.22 1612.79C2347.42 1612.89 2349.82 1613.29 2352.82 1614.09C2353.42 1614.29 2354.02 1614.39 2354.62 1614.69C2357.12 1615.49 2359.92 1616.59 2362.72 1618.29C2362.72 1618.29 2362.92 1618.29 2363.02 1618.49C2366.12 1620.29 2369.33 1622.69 2372.12 1625.79C2378.43 1632.79 2389.92 1653.69 2400.92 1674.89C2400.92 1674.89 2400.92 1674.99 2401.02 1675.09C2403.12 1679.09 2405.12 1683.09 2407.12 1686.99C2407.12 1687.19 2407.32 1687.29 2407.42 1687.49C2411.32 1695.09 2414.92 1702.39 2418.12 1708.69C2422.53 1717.49 2426.32 1724.99 2429.02 1730.19C2431.02 1735.59 2424.62 1763.59 2396.72 1801.09C2390.12 1809.99 2381.72 1820.19 2371.52 1830.89C2361.42 1841.49 2349.52 1852.69 2335.42 1864.09C2335.42 1864.09 2335.42 1864.09 2335.32 1864.19C2316.62 1879.39 2294.12 1894.89 2267.12 1909.59C2262.32 1912.29 2257.32 1914.89 2252.12 1917.49C2249.22 1918.99 2247.32 1921.79 2247.02 1924.89V1925.29C2247.02 1925.49 2247.02 1925.69 2247.02 1925.89C2247.02 1927.29 2247.32 1928.79 2248.02 1930.09C2249.32 1932.69 2251.72 1934.49 2254.42 1934.99C2255.02 1935.09 2255.72 1935.19 2256.32 1935.19C2257.72 1935.19 2259.22 1934.89 2260.52 1934.19C2262.12 1933.39 2263.62 1932.59 2265.22 1931.79C2295.82 1915.89 2323.62 1897.89 2348.12 1877.89L2348.32 1877.69C2361.32 1867.09 2373.43 1855.89 2384.62 1844.19C2386.62 1842.09 2388.62 1839.89 2390.62 1837.79C2416.52 1809.39 2436.02 1778.49 2444.12 1752.89C2444.33 1752.09 2444.62 1751.39 2444.82 1750.59C2446.12 1746.19 2447.02 1742.19 2447.42 1738.59C2447.72 1736.29 2447.82 1734.09 2447.82 1732.09L2448.42 1731.79Z" fill="black"/>
<path d="M2162.63 1822.89C2160.23 1822.89 2157.83 1821.99 2156.03 1820.19C2152.33 1816.49 2152.33 1810.59 2156.03 1806.89C2157.33 1805.59 2158.92 1804.69 2160.72 1804.39C2230.12 1787.39 2291.72 1723.99 2322.02 1668.59C2336.82 1641.49 2338.22 1626.69 2336.72 1622.29C2335.02 1617.39 2337.62 1612.09 2342.52 1610.39C2347.42 1608.69 2352.72 1611.29 2354.42 1616.19C2360.32 1633.39 2347.02 1662.09 2338.52 1677.59C2306.22 1736.59 2240.02 1804.39 2165.02 1822.59C2164.32 1822.79 2163.53 1822.89 2162.83 1822.89H2162.63Z" fill="black"/>
<path d="M2001.52 1826.39C2000.22 1826.39 1998.82 1826.09 1997.52 1825.49C1952.62 1804.39 1858.62 1743.59 1854.12 1690.69C1853.12 1679.29 1856.03 1662.89 1875.33 1649.49C1879.63 1646.49 1885.43 1647.59 1888.33 1651.79C1891.33 1655.99 1890.22 1661.89 1886.02 1664.79C1876.22 1671.69 1872.03 1679.39 1872.83 1689.09C1876.03 1727.29 1953.32 1783.99 2005.52 1808.49C2010.22 1810.69 2012.22 1816.29 2010.02 1820.99C2008.42 1824.39 2005.02 1826.39 2001.52 1826.39Z" fill="black"/>
<path d="M1910.03 1928.49C1908.23 1930.99 1905.33 1932.39 1902.43 1932.39C1899.53 1932.39 1898.63 1931.79 1896.93 1930.59C1892.13 1927.19 1887.33 1923.49 1882.43 1919.79C1824.63 1875.39 1758.33 1809.59 1740.93 1731.59C1740.93 1731.59 1740.93 1731.39 1740.93 1731.29C1740.33 1728.59 1739.43 1722.89 1745.43 1710.69C1749.33 1702.69 1756.22 1691.89 1768.12 1677.39C1784.22 1657.79 1804.53 1637.39 1819.93 1625.59C1835.03 1613.99 1861.33 1606.79 1872.83 1603.99C1876.03 1603.19 1878.13 1602.79 1878.43 1602.79C1883.53 1601.79 1888.43 1605.09 1889.43 1610.09C1890.43 1615.19 1887.12 1620.09 1882.12 1621.09C1879.72 1621.59 1876.33 1622.39 1872.33 1623.39C1859.73 1626.69 1841.33 1632.69 1831.43 1640.39C1817.43 1651.19 1798.63 1669.99 1783.53 1688.19C1769.93 1704.69 1763.63 1715.49 1761.03 1721.69C1761.03 1721.69 1761.03 1721.69 1761.03 1721.79C1760.93 1721.99 1760.82 1722.29 1760.72 1722.49C1759.62 1725.09 1759.33 1726.79 1759.43 1727.59C1777.53 1808.49 1856.62 1877.49 1904.72 1912.89C1905.92 1913.79 1907.02 1914.59 1908.12 1915.39C1912.32 1918.39 1913.22 1924.29 1910.22 1928.49H1910.03Z" fill="black"/>
<path d="M3262.13 3627.19H3243.33C3229.63 3489.09 3229.83 3280.59 3234.83 3113.39C3240.53 2920.29 3246.52 2720.69 3226.42 2542.59C3212.52 2419.69 3187.23 2319.49 3149.83 2240.39C3148.33 2237.19 3146.82 2233.99 3145.22 2230.89C3122.42 2184.79 3095.23 2146.09 3063.63 2114.39C2893.53 1943.69 2604.92 1787.39 2455.42 1740.49C2452.92 1739.69 2450.53 1738.99 2448.13 1738.29C2444.73 1737.29 2441.33 1736.29 2438.13 1735.39C2438.03 1735.39 2437.93 1735.39 2437.83 1735.39C2437.03 1735.19 2436.22 1734.99 2435.42 1734.79C2433.52 1734.29 2431.83 1733.19 2430.63 1731.69C2430.43 1731.39 2430.23 1731.19 2430.03 1730.89C2429.83 1730.59 2429.63 1730.29 2429.53 1729.99C2429.33 1729.59 2429.13 1729.29 2429.03 1728.89C2428.93 1728.59 2428.83 1728.19 2428.73 1727.89C2428.42 1726.39 2428.42 1724.89 2428.73 1723.29C2430.02 1718.29 2435.23 1715.29 2440.23 1716.69C2441.53 1717.09 2442.93 1717.39 2444.23 1717.79C2444.23 1717.79 2444.32 1717.79 2444.42 1717.79C2444.42 1717.79 2444.53 1717.79 2444.63 1717.79C2520.53 1738.99 2632.93 1790.59 2746.63 1856.69C2879.23 1933.79 2996.53 2020.59 3077.03 2101.29C3109.93 2134.29 3138.42 2174.99 3162.22 2222.89C3163.92 2226.29 3165.62 2229.79 3167.22 2233.19C3176.02 2251.69 3184.12 2271.29 3191.42 2291.79C3216.52 2361.69 3234.13 2443.09 3245.13 2540.59C3261.93 2689.09 3260.73 2851.89 3256.53 3013.39V3013.59C3255.63 3047.19 3254.63 3080.69 3253.63 3114.09C3252.53 3151.19 3251.63 3190.39 3251.13 3230.39C3249.23 3370.69 3251.52 3520.89 3262.22 3627.39L3262.13 3627.19Z" fill="black"/>
<path d="M2835.62 2262.59C2835.62 2262.59 2835.62 2262.69 2835.52 2262.79C2835.12 2263.29 2834.72 2263.69 2834.32 2264.09C2795.52 2297.69 2769.52 2380.29 2754.82 2516.49C2741.62 2638.89 2739.12 2788.99 2736.62 2934.09L2736.12 2963.89C2734.42 3060.39 2729.42 3159.89 2724.62 3256.09C2717.62 3394.59 2710.92 3526.39 2715.72 3627.29H2696.92C2692.22 3525.49 2698.92 3393.69 2705.92 3255.19C2710.72 3159.09 2715.82 3059.79 2717.42 2963.59L2717.92 2933.79C2720.32 2788.29 2722.92 2637.79 2736.22 2514.59C2751.62 2371.49 2778.92 2287.49 2822.02 2250.09C2825.92 2246.69 2831.82 2247.09 2835.22 2250.99C2838.12 2254.39 2838.22 2259.29 2835.62 2262.69V2262.59Z" fill="black"/>
<path d="M1921.62 1879.69C1917.12 1879.69 1913.12 1876.49 1912.42 1871.89C1912.12 1870.29 1912.02 1868.69 1912.02 1866.99C1912.02 1841.49 1943.92 1819.99 1999.52 1807.99C2027.12 1801.99 2058.92 1798.89 2091.52 1798.89C2124.12 1798.89 2141.02 1800.69 2163.72 1804.29C2163.92 1804.29 2164.12 1804.29 2164.32 1804.29C2231.12 1814.99 2271.02 1838.39 2271.02 1866.89V1867.09C2271.02 1867.09 2271.02 1867.09 2271.02 1867.19C2271.02 1868.59 2270.92 1870.09 2270.72 1871.39C2270.72 1871.49 2270.72 1871.59 2270.72 1871.69C2270.72 1871.79 2270.72 1871.99 2270.72 1872.09C2269.62 1877.19 2264.62 1880.39 2259.62 1879.29C2254.62 1878.19 2251.42 1873.39 2252.42 1868.39C2252.42 1867.99 2252.42 1867.49 2252.52 1866.99C2252.52 1852.19 2221.22 1832.29 2161.52 1822.79C2161.52 1822.79 2161.42 1822.79 2161.32 1822.79C2139.42 1819.29 2116.02 1817.49 2091.72 1817.49C2067.42 1817.49 2030.02 1820.49 2003.62 1826.19C1953.32 1836.99 1930.82 1854.49 1930.82 1866.89C1930.82 1879.29 1930.82 1868.09 1930.92 1868.69C1931.82 1873.79 1928.32 1878.59 1923.22 1879.49C1922.72 1879.49 1922.22 1879.59 1921.62 1879.59V1879.69Z" fill="black"/>
<path d="M2091.52 2247.49C2052.12 2247.49 2015.02 2242.19 1986.92 2232.49C1946.92 2218.69 1938.52 2200.99 1938.52 2188.59C1938.52 2176.19 1942.72 2179.19 1947.92 2179.19C1953.12 2179.19 1957.32 2183.39 1957.32 2188.59C1957.32 2193.79 1966.72 2205.69 1993.12 2214.79C2019.32 2223.79 2054.22 2228.79 2091.62 2228.79C2129.02 2228.79 2163.92 2223.79 2190.12 2214.79C2216.52 2205.69 2225.92 2195.29 2225.92 2188.59C2225.92 2181.89 2230.12 2179.19 2235.32 2179.19C2240.52 2179.19 2244.72 2183.39 2244.72 2188.59C2244.72 2200.99 2236.32 2218.69 2196.32 2232.49C2168.22 2242.19 2131.12 2247.49 2091.72 2247.49H2091.52Z" fill="black"/>
<path d="M2235.13 2197.89C2229.93 2197.89 2225.73 2193.69 2225.73 2188.49C2225.73 2183.29 2216.33 2171.39 2189.93 2162.29C2163.73 2153.29 2128.83 2148.29 2091.43 2148.29C2054.03 2148.29 2019.13 2153.29 1992.93 2162.29C1966.53 2171.39 1957.13 2181.79 1957.13 2188.49C1957.13 2195.19 1952.93 2197.89 1947.73 2197.89C1942.53 2197.89 1938.33 2193.69 1938.33 2188.49C1938.33 2176.09 1946.73 2158.39 1986.73 2144.59C2014.83 2134.89 2051.93 2129.59 2091.33 2129.59C2130.73 2129.59 2167.83 2134.89 2195.93 2144.59C2235.93 2158.39 2244.33 2176.09 2244.33 2188.49C2244.33 2200.89 2240.13 2197.89 2234.93 2197.89H2235.13Z" fill="black"/>
<path d="M1944.22 2152.69C1943.02 2152.69 1941.72 2152.49 1940.52 2151.89C1935.82 2149.79 1933.62 2144.29 1935.62 2139.59C1946.12 2115.39 1987.12 2103.29 2010.62 2098.19C2034.92 2092.89 2062.82 2090.19 2091.62 2090.19C2170.82 2090.19 2234.92 2110.49 2247.52 2139.59C2249.62 2144.29 2247.42 2149.89 2242.62 2151.89C2237.92 2153.99 2232.32 2151.79 2230.32 2146.99C2222.32 2128.69 2167.02 2108.89 2091.52 2108.89C2016.02 2108.89 2037.52 2111.49 2014.52 2116.49C1975.02 2124.99 1956.72 2137.89 1952.72 2146.99C1951.22 2150.49 1947.72 2152.59 1944.12 2152.59L1944.22 2152.69Z" fill="black"/>
<path d="M2235.13 2197.89C2234.83 2197.89 2234.63 2197.89 2234.33 2197.89C2229.13 2197.49 2225.33 2192.89 2225.73 2187.79L2252.33 1866.39C2252.63 1861.19 2257.13 1857.29 2262.33 1857.69C2267.53 1857.99 2271.43 1862.49 2271.03 1867.69V1867.89C2271.03 1867.89 2271.03 1867.99 2271.03 1868.09L2266.23 1926.59L2244.53 2189.49C2244.13 2194.39 2240.03 2198.09 2235.23 2198.09L2235.13 2197.89Z" fill="black"/>
<path d="M1947.92 2197.89C1943.12 2197.89 1939.02 2194.18 1938.62 2189.28L1912.02 1867.69C1911.62 1862.49 1915.42 1857.99 1920.62 1857.59C1925.72 1857.19 1930.32 1860.99 1930.72 1866.19L1957.33 2187.78C1957.73 2192.98 1953.92 2197.49 1948.72 2197.89C1948.42 2197.89 1948.22 2197.89 1947.92 2197.89Z" fill="black"/>
<path d="M1849.93 1961.39C1847.63 1961.39 1845.23 1960.49 1843.43 1958.79C1839.73 1955.19 1839.63 1949.29 1843.13 1945.59C1844.53 1944.19 1877.03 1910.79 1925.73 1910.79C1974.43 1910.79 1935.13 1914.99 1935.13 1920.19C1935.13 1925.39 1930.93 1929.59 1925.73 1929.59C1885.23 1929.59 1856.93 1958.29 1856.63 1958.59C1854.83 1960.49 1852.33 1961.49 1849.93 1961.49V1961.39Z" fill="black"/>
<path d="M1887.63 1989.99C1884.13 1989.99 1880.73 1987.99 1879.13 1984.59C1876.93 1979.89 1879.03 1974.29 1883.73 1972.19C1891.13 1968.79 1916.53 1957.89 1932.13 1961.69C1937.13 1962.89 1940.23 1967.99 1939.03 1972.99C1937.83 1977.99 1932.73 1981.09 1927.73 1979.89C1922.63 1978.69 1908.23 1981.49 1891.53 1989.19C1890.23 1989.79 1888.93 1990.09 1887.63 1990.09V1989.99Z" fill="black"/>
<path d="M1933.72 2130.49C1892.12 2130.49 1870.82 2099.19 1869.92 2097.69C1867.02 2093.39 1868.22 2087.59 1872.52 2084.69C1876.82 2081.79 1882.62 2082.99 1885.52 2087.29C1886.32 2088.39 1904.92 2115.29 1941.22 2111.19C1946.32 2110.59 1951.02 2114.29 1951.62 2119.49C1952.22 2124.69 1948.52 2129.29 1943.32 2129.89C1940.02 2130.29 1936.82 2130.39 1933.62 2130.39L1933.72 2130.49Z" fill="black"/>
<path d="M1945.02 2176.09C1944.82 2176.09 1944.72 2176.09 1944.52 2176.09C1938.32 2175.79 1883.32 2171.99 1860.02 2145.09C1856.62 2141.19 1857.03 2135.29 1860.93 2131.89C1864.83 2128.49 1870.72 2128.89 1874.12 2132.79C1889.02 2149.99 1927.32 2156.39 1945.52 2157.39C1950.72 2157.69 1954.63 2162.09 1954.33 2167.29C1954.03 2172.29 1949.92 2176.19 1945.02 2176.19V2176.09Z" fill="black"/>
<path d="M1994.22 2223.79C1993.52 2227.19 1992.72 2230.69 1992.02 2234.19C1989.42 2246.49 1986.92 2259.09 1984.42 2271.69C1981.02 2289.09 1977.82 2306.59 1974.82 2324.19C1972.52 2337.49 1970.32 2350.89 1968.22 2364.29C1957.82 2430.19 1949.92 2496.89 1944.42 2564.09C1943.92 2570.79 1943.32 2577.59 1942.82 2584.29C1942.82 2584.29 1942.82 2584.39 1942.82 2584.49C1942.22 2592.79 1941.62 2601.09 1941.12 2609.39C1940.92 2612.79 1940.72 2616.09 1940.52 2619.49C1940.32 2622.89 1940.12 2626.29 1939.92 2629.69C1939.62 2635.29 1939.32 2640.79 1939.02 2646.39C1938.82 2649.69 1938.72 2652.89 1938.52 2656.19C1938.32 2659.39 1938.22 2662.69 1938.02 2665.99C1937.82 2670.19 1937.72 2674.29 1937.52 2678.49C1937.52 2680.09 1932.72 2821.39 1929.02 2902.49C1928.62 2910.59 1928.32 2918.09 1927.92 2924.79C1927.92 2925.09 1927.92 2925.29 1927.92 2925.59C1927.82 2928.19 1927.62 2930.59 1927.52 2932.99C1927.52 2934.69 1927.32 2936.29 1927.22 2937.79C1927.22 2939.49 1927.02 2941.19 1926.92 2942.89C1926.92 2943.09 1926.92 2943.39 1926.92 2943.69C1926.52 2950.59 1926.12 2957.69 1925.72 2965.09C1915.92 3137.59 1901.72 3456.59 1901.92 3627.59H1883.12C1882.82 3446.69 1898.42 3106.09 1908.62 2936.69C1908.82 2933.39 1909.02 2929.79 1909.22 2925.89C1909.22 2925.49 1909.22 2925.19 1909.22 2924.79C1909.52 2919.99 1909.72 2914.79 1910.02 2909.19C1910.02 2908.09 1910.02 2907.09 1910.12 2905.99C1910.32 2902.49 1910.42 2898.79 1910.62 2895.09C1910.82 2889.99 1911.12 2884.79 1911.32 2879.29C1911.62 2873.19 1911.82 2866.99 1912.12 2860.59C1913.22 2832.79 1914.42 2802.49 1915.42 2774.69C1917.32 2722.29 1918.82 2678.79 1918.82 2677.89C1919.12 2671.39 1919.32 2664.89 1919.72 2658.49C1919.82 2655.09 1920.02 2651.69 1920.22 2648.29C1920.32 2645.19 1920.52 2642.19 1920.72 2639.09C1920.92 2635.39 1921.12 2631.69 1921.32 2628.09C1921.52 2624.49 1921.72 2620.89 1921.92 2617.39C1922.42 2609.39 1922.92 2601.39 1923.52 2593.49C1924.02 2586.19 1924.52 2578.99 1925.12 2571.69C1933.22 2469.19 1946.92 2367.59 1966.12 2268.49C1968.72 2254.89 1971.52 2241.19 1974.32 2227.89C1974.82 2225.29 1975.42 2222.79 1975.92 2220.29C1977.02 2215.19 1982.02 2211.99 1987.02 2213.09C1987.52 2213.19 1988.02 2213.39 1988.52 2213.49C1989.22 2213.79 1989.92 2214.19 1990.52 2214.59C1993.52 2216.69 1995.02 2220.39 1994.22 2224.19V2223.79Z" fill="black"/>
<path d="M1760.92 1721.69C1760.92 1721.69 1760.92 1721.69 1760.92 1721.79C1760.82 1721.99 1760.72 1722.29 1760.62 1722.49C1759.42 1724.99 1757.22 1726.99 1754.32 1727.69C1750.22 1728.69 1745.72 1729.89 1740.92 1731.19C1606.52 1769.39 1206.22 1948.69 1096.12 2062.09C975.425 2186.49 812.125 2446.79 685.625 2711.99C665.925 2753.19 647.225 2794.49 629.625 2835.39C628.125 2838.99 624.625 2841.09 621.025 2841.09C617.425 2841.09 618.525 2840.89 617.325 2840.29C614.825 2839.19 612.925 2837.09 612.125 2834.69C611.425 2832.59 611.425 2830.19 612.425 2827.99C678.925 2673.29 760.425 2515.19 848.025 2370.99C932.025 2232.79 1015.42 2118.39 1082.72 2048.99C1153.32 1976.29 1322.82 1889.09 1417.52 1843.49C1544.82 1782.29 1681.22 1727.09 1745.42 1710.49C1746.92 1710.09 1748.42 1709.69 1749.82 1709.39C1754.82 1708.19 1759.92 1711.29 1761.12 1716.29C1761.52 1718.09 1761.42 1719.89 1760.92 1721.59V1721.69Z" fill="black"/>
<path d="M1317.53 2717.69C1317.53 2718.59 1317.43 2719.59 1317.33 2720.59C1316.03 2745.49 1313.03 2798.89 1309.03 2865.19C1308.63 2871.79 1308.23 2878.39 1307.83 2885.19C1307.83 2885.69 1307.83 2886.29 1307.83 2886.79C1299.33 3026.69 1287.03 3212.79 1275.83 3313.59C1275.83 3314.09 1275.82 3314.69 1275.72 3315.19C1275.72 3316.29 1275.53 3317.29 1275.43 3318.39C1274.93 3325.39 1274.32 3332.39 1273.72 3339.29C1264.32 3457.49 1255.93 3567.59 1251.43 3627.29H1232.62C1236.93 3570.49 1244.93 3466.29 1253.93 3352.89C1254.53 3344.89 1255.23 3336.89 1255.83 3328.89C1256.23 3323.29 1256.72 3317.59 1257.22 3311.99C1257.22 3311.99 1257.22 3311.79 1257.22 3311.69C1268.12 3213.89 1280.13 3034.99 1288.53 2896.59C1289.03 2889.29 1289.43 2881.99 1289.83 2874.99C1292.93 2823.59 1295.42 2779.19 1297.12 2748.49C1297.53 2741.89 1297.82 2735.89 1298.12 2730.59C1298.43 2725.19 1298.63 2720.49 1298.93 2716.69C1298.93 2715.29 1299.43 2713.89 1300.03 2712.79C1300.43 2712.09 1300.93 2711.39 1301.43 2710.89C1303.23 2708.99 1305.92 2707.79 1308.72 2707.89C1309.52 2707.89 1310.32 2708.09 1311.12 2708.39C1311.93 2708.59 1312.63 2708.99 1313.33 2709.49C1316.03 2711.29 1317.73 2714.39 1317.53 2717.89V2717.69Z" fill="black"/>
<path d="M1876.42 2030.69C1872.32 2030.69 1868.52 2027.99 1867.42 2023.79C1866.02 2018.79 1869.02 2013.69 1874.02 2012.29C1877.52 2011.39 1879.62 2009.39 1880.82 2006.09C1883.72 1998.39 1881.02 1985.09 1874.52 1975.29C1865.82 1962.09 1842.82 1957.19 1786.62 1956.69C1724.72 1955.99 1703.32 1968.39 1696.22 1978.79C1693.32 1983.09 1687.52 1984.19 1683.22 1981.29C1678.92 1978.39 1677.82 1972.59 1680.72 1968.29C1694.92 1947.29 1729.52 1937.39 1786.82 1937.89C1843.92 1938.49 1875.52 1942.79 1890.22 1964.99C1898.52 1977.49 1904.22 1997.09 1898.42 2012.69C1895.12 2021.59 1888.22 2027.89 1879.02 2030.39C1878.22 2030.59 1877.32 2030.69 1876.52 2030.69H1876.42Z" fill="black"/>
<path d="M1891.93 2022.79C1887.03 2017.89 1881.12 2014.29 1874.52 2012.29C1874.42 2012.29 1874.32 2012.29 1874.12 2012.29C1863.12 2009.29 1825.62 2006.89 1791.62 2007.09C1719.32 2007.49 1710.42 2017.79 1707.02 2021.69C1703.62 2025.59 1704.03 2031.49 1707.93 2034.89C1711.83 2038.29 1717.72 2037.89 1721.12 2034.09C1724.22 2031.29 1743.22 2026.09 1793.22 2025.89C1830.22 2025.79 1862.53 2028.49 1869.33 2030.39C1883.53 2034.49 1888.52 2051.59 1888.52 2064.99C1888.52 2078.39 1885.62 2074.09 1883.22 2076.29C1878.42 2080.79 1871.22 2083.29 1863.22 2083.29C1862.52 2083.29 1861.82 2083.29 1861.12 2083.29C1855.92 2082.99 1851.52 2086.89 1851.22 2092.09C1850.92 2096.49 1853.72 2100.29 1857.72 2101.59C1858.42 2101.79 1859.23 2101.99 1859.93 2101.99C1860.33 2101.99 1860.62 2101.99 1861.02 2101.99C1861.82 2101.99 1862.63 2101.99 1863.43 2101.99C1866.53 2101.99 1869.52 2101.69 1872.52 2101.19C1875.02 2100.79 1877.53 2100.19 1879.83 2099.39C1883.83 2098.09 1887.62 2096.19 1891.02 2093.89C1892.82 2092.69 1894.42 2091.39 1896.02 2089.89C1903.22 2083.09 1907.22 2074.19 1907.22 2064.89C1907.22 2047.49 1901.53 2032.49 1891.93 2022.79Z" fill="black"/>
<path d="M1774.62 2168.39C1769.42 2168.39 1765.22 2164.19 1765.22 2158.99C1765.22 2153.79 1769.42 2149.59 1774.62 2149.59C1783.92 2149.39 1841.23 2144.19 1849.53 2139.39C1862.13 2129.79 1865.43 2112.89 1860.93 2101.69C1852.83 2100.39 1827.92 2102.29 1807.62 2103.79C1793.22 2104.89 1778.32 2105.99 1764.12 2106.59C1758.92 2106.79 1754.63 2102.79 1754.33 2097.59C1754.13 2092.39 1758.13 2088.09 1763.33 2087.79C1777.23 2087.19 1791.92 2086.09 1806.22 2084.99C1856.42 2081.19 1871.13 2080.49 1876.33 2090.29C1886.03 2108.19 1882.72 2137.79 1860.62 2154.39C1858.02 2156.39 1852.53 2160.49 1813.33 2164.89C1794.43 2166.99 1776.52 2168.19 1774.62 2168.19V2168.39Z" fill="black"/>
<path d="M1583.42 2294.99C1581.62 2294.99 1579.82 2294.49 1578.22 2293.39C1573.92 2290.49 1572.72 2284.69 1575.62 2280.39L1590.62 2257.99C1592.22 2255.59 1594.92 2253.99 1597.92 2253.89C1651.72 2250.79 1728.42 2231.59 1784.52 2207.09C1821.52 2190.89 1832.12 2174.39 1835.12 2165.99C1837.02 2160.79 1836.62 2156.89 1835.72 2155.09C1833.42 2150.49 1835.22 2144.79 1839.82 2142.49C1844.42 2140.19 1850.12 2141.99 1852.42 2146.59C1856.02 2153.59 1856.12 2162.99 1852.82 2172.29C1847.92 2186.09 1833.32 2206.19 1792.12 2224.29C1735.82 2248.89 1659.22 2268.39 1603.82 2272.29L1591.42 2290.79C1589.62 2293.49 1586.62 2294.99 1583.62 2294.99H1583.42Z" fill="black"/>
<path d="M1458.12 2041.59C1454.72 2041.59 1451.53 2039.79 1449.83 2036.59C1447.43 2031.99 1449.23 2026.39 1453.83 2023.99C1462.53 2019.39 1552.43 1952.89 1579.83 1929.29C1615.13 1898.99 1650.03 1880.19 1686.33 1871.99C1726.03 1862.99 1755.82 1871.99 1775.62 1877.89C1777.92 1878.59 1780.02 1879.19 1782.02 1879.79C1786.42 1880.99 1793.12 1882.49 1800.22 1884.09C1835.02 1891.79 1856.52 1897.39 1860.72 1909.49C1863.42 1917.19 1862.12 1926.19 1857.12 1934.89C1850.52 1946.49 1838.42 1955.79 1827.22 1958.09C1822.12 1959.09 1817.22 1955.79 1816.22 1950.69C1815.22 1945.59 1818.52 1940.69 1823.62 1939.69C1829.42 1938.59 1837.03 1932.39 1840.83 1925.59C1842.83 1922.09 1843.62 1918.79 1843.12 1916.39C1837.52 1911.49 1809.62 1905.29 1796.02 1902.29C1788.32 1900.59 1781.72 1899.09 1776.72 1897.69C1774.62 1897.09 1772.33 1896.39 1769.93 1895.69C1751.03 1889.99 1725.12 1882.19 1690.22 1890.19C1656.92 1897.79 1624.72 1915.19 1591.72 1943.49C1565.12 1966.29 1472.92 2034.89 1462.12 2040.59C1460.72 2041.29 1459.23 2041.69 1457.83 2041.69L1458.12 2041.59Z" fill="black"/>
<path d="M1325.02 2678.09C1320.62 2684.19 1316.23 2690.19 1311.83 2696.29C1308.33 2701.09 1304.83 2705.89 1301.33 2710.69C1300.83 2711.29 1300.32 2711.99 1299.92 2712.59C1235.32 2801.39 1167.92 2891.49 1106.32 2968.89C1117.12 2963.19 1128.03 2957.49 1138.83 2951.89L1298.12 2730.39L1305.52 2720.09L1310.92 2712.69C1310.52 2718.89 1310.12 2724.99 1309.72 2731.19C1312.32 2727.59 1314.92 2723.99 1317.52 2720.39C1321.82 2714.49 1326.13 2708.59 1330.33 2702.69C1330.53 2699.29 1330.72 2695.89 1330.92 2692.59C1331.12 2688.89 1331.32 2685.29 1331.62 2681.59C1331.92 2676.99 1332.12 2672.49 1332.42 2667.89C1330.02 2671.29 1327.52 2674.59 1325.12 2677.99L1325.02 2678.09ZM1606.52 2295.29C1603.32 2292.99 1599.52 2289.49 1595.22 2284.89C1591.42 2280.79 1587.22 2275.69 1582.72 2269.89C1563.22 2244.69 1538.22 2204.79 1513.42 2158.79C1509.32 2151.19 1505.42 2143.69 1501.62 2136.19C1498.22 2129.69 1495.02 2123.19 1492.02 2116.99C1484.22 2100.99 1477.42 2085.99 1472.02 2072.79C1466.12 2058.29 1462.73 2048.19 1460.83 2041.19C1458.43 2032.19 1458.42 2028.29 1458.52 2026.99C1460.12 2024.89 1460.73 2022.19 1460.33 2019.69C1460.03 2017.99 1459.32 2016.39 1458.12 2015.09C1454.72 2011.29 1448.72 2010.89 1444.92 2014.39C1332.82 2115.09 1226.72 2205.49 1133.02 2285.29C961.225 2431.69 820.925 2551.19 724.325 2664.09C710.525 2680.19 697.625 2696.19 685.725 2712.09C679.725 2720.09 673.925 2727.99 668.425 2735.99C666.925 2738.19 665.425 2740.39 663.925 2742.59C659.425 2749.19 655.125 2755.79 650.925 2762.39C635.725 2786.49 622.725 2810.59 612.225 2834.79C598.025 2867.49 588.025 2900.39 582.725 2934.19C581.825 2939.59 581.125 2944.99 580.525 2950.39C578.925 2964.49 578.925 2978.59 580.525 2992.59C583.825 3022.39 594.225 3051.39 611.325 3078.19C634.125 3113.79 667.825 3144.39 708.825 3166.69C749.925 3189.09 796.425 3201.49 839.725 3201.79C840.225 3201.79 840.725 3201.79 841.225 3201.79C887.925 3201.79 929.425 3187.99 961.325 3161.79C961.425 3161.69 961.625 3161.59 961.725 3161.49C1003.12 3123.49 1058.12 3059.89 1118.82 2983.89C1128.12 2972.19 1137.62 2960.19 1147.22 2947.89C1195.92 2885.59 1247.32 2816.99 1297.42 2748.39C1301.62 2742.69 1305.72 2736.99 1309.92 2731.29C1312.52 2727.69 1315.12 2724.09 1317.72 2720.49C1322.02 2714.59 1326.32 2708.69 1330.52 2702.79C1341.92 2686.99 1353.32 2671.29 1364.42 2655.69C1371.32 2645.99 1378.22 2636.49 1385.02 2626.89C1458.52 2523.99 1523.42 2430.49 1565.12 2370.39C1587.12 2338.69 1604.62 2313.49 1607.82 2309.49C1608.92 2308.39 1609.82 2307.09 1610.32 2305.49C1611.52 2301.59 1610.12 2297.39 1606.72 2295.09L1606.52 2295.29ZM1581.42 2314.09C1573.92 2324.79 1563.12 2340.29 1549.52 2359.89C1511.12 2415.19 1453.02 2498.89 1386.72 2592.09C1385.02 2594.49 1383.32 2596.89 1381.62 2599.29C1376.62 2606.39 1371.52 2613.49 1366.42 2620.59C1365.12 2622.39 1363.82 2624.19 1362.52 2625.99C1352.62 2639.89 1342.53 2653.89 1332.33 2668.09C1329.93 2671.49 1327.42 2674.79 1325.02 2678.19C1320.62 2684.29 1316.23 2690.29 1311.83 2696.39C1308.33 2701.19 1304.83 2705.99 1301.33 2710.79C1300.83 2711.39 1300.32 2712.09 1299.92 2712.69C1235.32 2801.49 1167.92 2891.59 1106.32 2968.99C1103.82 2972.19 1101.32 2975.29 1098.82 2978.39C1091.32 2987.79 1083.82 2996.99 1076.52 3005.89C1027.52 3065.89 983.325 3115.69 948.825 3147.39C892.325 3193.59 799.325 3194.79 717.325 3150.19C653.125 3115.29 588.325 3044.99 598.825 2952.59C599.325 2948.09 599.925 2943.69 600.625 2939.19C608.725 2885.89 629.025 2834.59 660.025 2782.99C663.825 2776.79 667.725 2770.49 671.825 2764.19C676.025 2757.69 680.525 2751.09 685.025 2744.59C777.625 2612.39 938.225 2475.59 1145.02 2299.49C1234.42 2223.39 1335.12 2137.49 1441.72 2042.19C1447.12 2064.89 1462.63 2100.29 1479.83 2134.59C1483.03 2140.99 1486.32 2147.39 1489.52 2153.69C1493.62 2161.49 1497.72 2169.09 1501.62 2176.39C1514.72 2200.29 1557.32 2275.69 1588.12 2304.39C1586.32 2306.89 1584.13 2310.09 1581.33 2313.99L1581.42 2314.09ZM1325.02 2678.09C1320.62 2684.19 1316.23 2690.19 1311.83 2696.29C1308.33 2701.09 1304.83 2705.89 1301.33 2710.69C1300.83 2711.29 1300.32 2711.99 1299.92 2712.59C1235.32 2801.39 1167.92 2891.49 1106.32 2968.89C1117.12 2963.19 1128.03 2957.49 1138.83 2951.89L1298.12 2730.39L1305.52 2720.09L1310.92 2712.69C1310.52 2718.89 1310.12 2724.99 1309.72 2731.19C1312.32 2727.59 1314.92 2723.99 1317.52 2720.39C1321.82 2714.49 1326.13 2708.59 1330.33 2702.69C1330.53 2699.29 1330.72 2695.89 1330.92 2692.59C1331.12 2688.89 1331.32 2685.29 1331.62 2681.59C1331.92 2676.99 1332.12 2672.49 1332.42 2667.89C1330.02 2671.29 1327.52 2674.59 1325.12 2677.99L1325.02 2678.09Z" fill="black"/>
</svg>
