<svg width="4070" height="3130" viewBox="0 0 4070 3130" fill="none" xmlns="http://www.w3.org/2000/svg">
<circle cx="2035.5" cy="1487.5" r="1487.5" fill="white"/>
<path d="M3201.25 3129.09H1174.25C1179.05 3065.99 1187.15 2960.49 1196.05 2848.29C1110.55 2906.79 1009.55 2974.39 892.246 3050.29C849.646 3077.89 801.346 3092.29 751.446 3092.29C701.546 3092.29 737.346 3091.99 730.346 3091.39C675.346 3086.99 621.846 3065.59 575.546 3029.59C516.546 2983.69 474.446 2918.69 453.846 2841.59C430.946 2755.99 436.546 2658.59 469.946 2559.89C530.746 2380.09 624.046 2175.29 732.646 1983.29C834.246 1803.69 940.146 1651.49 1023.25 1565.89C1093.85 1493.19 1263.35 1405.99 1358.05 1360.39C1485.35 1299.19 1621.65 1243.99 1685.95 1227.39C1689.85 1219.39 1696.75 1208.59 1708.65 1194.09C1724.75 1174.49 1745.05 1154.09 1760.45 1142.29C1775.55 1130.69 1801.75 1123.49 1813.25 1120.79L1816.25 1010.09C1809.45 1001.39 1804.65 994.091 1801.75 989.391C1777.35 949.191 1758.95 849.391 1753.05 814.691C1736.35 820.691 1722.25 820.491 1710.25 814.191C1681.15 799.091 1671.35 751.691 1661.45 691.291C1653.15 640.191 1667.35 614.291 1680.75 601.491C1692.75 590.091 1708.95 584.391 1726.55 585.191C1726.55 584.991 1726.55 584.791 1726.55 584.591C1726.35 582.791 1726.15 580.991 1726.05 579.191C1725.75 576.491 1725.45 573.691 1725.25 570.791C1720.15 518.591 1714.55 444.891 1717.55 398.891C1718.45 384.391 1719.65 369.591 1721.65 354.491C1724.85 329.791 1730.35 304.391 1740.95 278.791C1760.15 232.491 1793.15 193.391 1841.85 159.291C1846.75 155.891 1851.95 152.591 1857.35 149.391C1857.35 140.791 1861.65 132.691 1879.05 122.391C1987.55 58.1906 2157.75 84.2906 2250.65 129.491C2252.35 130.291 2254.05 131.191 2255.75 131.991C2256.35 132.291 2256.85 132.591 2257.35 132.791C2260.15 134.291 2262.95 135.791 2265.65 137.291C2303.95 158.891 2337.05 191.391 2361.25 231.091C2363.35 234.591 2365.45 238.091 2367.45 241.691C2387.95 278.891 2401.15 321.691 2405.65 366.391C2414.15 450.491 2416.55 512.191 2404.55 582.791C2404.05 585.791 2403.55 588.691 2402.95 591.691C2402.55 593.691 2402.25 595.691 2401.85 597.591C2421.35 596.491 2442.85 602.291 2455.25 619.091C2471.85 641.491 2468.15 693.191 2466.55 708.491C2462.55 748.991 2451.55 784.891 2437.15 804.591C2415.65 833.991 2386.55 836.091 2367.75 831.791C2353.25 901.891 2332.75 956.991 2307.05 995.591C2305.25 998.291 2302.95 1001.39 2300.15 1004.79L2296.25 1111.79C2296.25 1111.79 2296.45 1111.79 2296.55 1111.79C2300.35 1112.69 2305.05 1114.19 2309.85 1116.59C2310.15 1116.79 2310.45 1116.89 2310.85 1117.09C2311.55 1117.49 2312.35 1117.89 2313.05 1118.29C2313.35 1118.49 2313.65 1118.59 2313.95 1118.79C2318.35 1121.39 2322.85 1124.89 2326.95 1129.39C2333.95 1137.19 2344.35 1155.39 2356.25 1178.09C2356.35 1178.29 2356.45 1178.49 2356.55 1178.59C2362.65 1190.29 2369.15 1203.19 2375.85 1216.49C2376.35 1217.39 2376.75 1218.29 2377.25 1219.19C2380.15 1224.89 2382.65 1229.99 2384.75 1234.09H2384.95C2427.05 1245.79 2480.45 1266.99 2539.15 1294.79C2540.85 1295.59 2542.55 1296.39 2544.25 1297.19C2549.25 1299.59 2554.25 1301.99 2559.35 1304.49C2559.35 1304.49 2559.55 1304.49 2559.65 1304.59C2568.25 1308.79 2576.85 1313.09 2585.65 1317.59C2613.55 1331.79 2642.15 1347.19 2671.05 1363.69C2676.45 1366.79 2681.95 1369.89 2687.35 1373.09C2819.95 1450.19 2937.25 1536.99 3017.75 1617.69C3031.05 1630.99 3043.65 1645.59 3055.45 1661.49C3055.65 1661.69 3055.75 1661.89 3055.95 1662.09C3057.05 1663.49 3058.05 1664.99 3059.15 1666.49C3072.05 1684.29 3084.15 1703.59 3095.25 1724.29C3109.05 1750.09 3121.35 1778.09 3132.25 1808.19C3139.25 1827.79 3145.75 1848.29 3151.65 1869.79C3151.65 1869.79 3151.65 1869.89 3151.65 1869.99C3166.75 1925.09 3177.95 1986.89 3185.85 2056.99C3206.05 2236.39 3200.15 2436.69 3194.35 2630.39C3189.55 2791.69 3189.15 2991.89 3201.55 3128.69L3201.25 3129.09Z" fill="white"/>
<path d="M2306.59 586.039C2306.49 585.239 2306.29 584.339 2306.19 583.539C2305.79 583.239 2305.49 582.839 2305.09 582.539C2305.29 583.239 2305.39 583.939 2305.59 584.639C2306.19 587.739 2306.69 590.939 2306.89 594.439C2307.09 592.339 2307.09 589.439 2306.69 586.139L2306.59 586.039ZM2266.99 553.139C2266.69 553.139 2266.49 553.139 2266.19 553.039C2267.29 553.339 2268.29 553.539 2269.39 553.839C2269.49 553.839 2269.59 553.639 2269.69 553.639C2268.69 553.539 2267.79 553.339 2266.99 553.239V553.139ZM2325.49 593.839C2325.49 593.239 2325.49 592.739 2325.39 592.139C2324.99 586.739 2324.19 581.639 2322.99 576.939C2322.19 573.939 2321.29 571.039 2320.19 568.339C2320.09 568.039 2319.89 567.739 2319.79 567.339C2318.29 563.839 2316.59 560.639 2314.59 557.739C2313.39 556.039 2312.19 554.439 2310.79 552.939C2309.99 552.039 2309.09 551.139 2308.19 550.339C2304.09 546.439 2299.29 543.539 2293.89 541.639C2293.79 541.639 2293.69 541.639 2293.49 541.539C2291.29 540.839 2289.19 540.139 2287.09 539.439C2284.29 538.539 2281.49 537.739 2278.69 536.939C2275.79 536.139 2272.89 535.439 2270.09 534.739C2223.69 523.639 2183.59 527.839 2156.69 534.039C2138.79 538.139 2123.09 544.039 2110.99 550.039C2098.79 556.139 2090.19 562.539 2086.19 567.739C2084.99 569.339 2083.89 571.139 2082.89 573.139C2082.59 573.839 2082.29 574.439 2081.99 575.139C2081.99 575.139 2081.99 575.139 2081.99 575.239C2080.69 578.239 2079.59 581.539 2078.89 585.239C2078.39 587.539 2077.99 590.039 2077.69 592.639C2077.69 593.539 2077.49 594.439 2077.49 595.439C2077.29 598.339 2077.19 601.439 2077.29 604.639C2077.79 622.139 2082.79 643.739 2094.09 668.339C2096.39 673.439 2099.09 678.739 2101.99 684.039C2117.89 713.239 2152.69 730.339 2195.59 730.339C2197.19 730.339 2198.79 730.339 2200.49 730.339C2241.29 729.139 2290.39 711.239 2308.19 674.139C2308.19 673.939 2308.39 673.839 2308.39 673.639C2315.99 657.339 2321.29 640.539 2323.89 624.439C2324.49 620.639 2324.99 616.839 2325.39 613.039C2325.69 609.839 2325.89 606.639 2325.89 603.439C2325.89 602.939 2325.89 602.439 2325.89 601.839C2325.89 599.039 2325.89 596.339 2325.69 593.639L2325.49 593.839ZM2306.99 603.939C2306.49 622.739 2300.99 644.739 2291.29 665.539C2291.29 665.539 2291.29 665.539 2291.29 665.639C2279.19 691.439 2241.59 710.239 2199.89 711.539C2161.89 712.639 2131.49 699.039 2118.39 675.139C2115.69 670.239 2113.29 665.439 2111.19 660.839C2103.19 643.639 2098.79 628.639 2096.89 616.139C2096.09 610.839 2095.69 606.039 2095.69 601.639C2095.69 597.239 2095.79 596.739 2096.09 594.639C2096.09 593.839 2096.29 593.139 2096.39 592.439C2096.39 591.939 2096.59 591.339 2096.69 590.839C2097.19 588.039 2097.89 585.639 2098.79 583.539C2099.49 581.839 2100.29 580.339 2101.19 579.139C2105.29 573.639 2127.09 560.139 2160.99 552.339C2174.69 549.139 2191.99 546.539 2211.99 546.539C2231.99 546.539 2242.89 547.939 2260.09 551.639C2262.09 552.039 2264.09 552.539 2266.09 553.039C2266.09 553.039 2266.19 553.039 2266.29 553.039C2267.39 553.339 2268.39 553.539 2269.49 553.839C2275.39 555.339 2281.49 557.139 2287.59 559.239C2290.59 560.239 2293.19 561.839 2295.59 564.039C2296.59 564.939 2297.49 565.939 2298.29 567.039C2299.59 568.739 2300.79 570.539 2301.79 572.639C2302.09 573.239 2302.39 573.939 2302.69 574.639C2303.69 577.039 2304.59 579.639 2305.19 582.539C2305.39 583.239 2305.49 583.939 2305.69 584.639C2306.29 587.739 2306.79 590.939 2306.99 594.439C2307.19 597.539 2307.29 600.839 2307.19 604.139L2306.99 603.939ZM2266.99 553.139C2266.69 553.139 2266.49 553.139 2266.19 553.039C2267.29 553.339 2268.29 553.539 2269.39 553.839C2269.49 553.839 2269.59 553.639 2269.69 553.639C2268.69 553.539 2267.79 553.339 2266.99 553.239V553.139ZM2306.59 586.039C2306.49 585.239 2306.29 584.339 2306.19 583.539C2305.79 583.239 2305.49 582.839 2305.09 582.539C2305.29 583.239 2305.39 583.939 2305.59 584.639C2306.19 587.739 2306.69 590.939 2306.89 594.439C2307.09 592.339 2307.09 589.439 2306.69 586.139L2306.59 586.039Z" fill="black"/>
<path d="M2268.29 543.84C2268.29 543.84 2322.99 551.74 2337.29 556.64C2351.49 561.64 2387.69 578.74 2387.69 578.74L2391.39 601.54L2351.09 592.34C2351.09 592.34 2324.59 586.24 2316.39 598.04C2316.39 598.04 2327.59 551.54 2268.29 543.84Z" fill="black"/>
<path d="M2400.69 600.04L2400.49 598.64V598.44L2398.69 587.24L2398.09 583.24L2397.09 577.14C2397.09 577.14 2397.09 576.94 2397.09 576.84C2397.09 576.64 2396.99 576.34 2396.89 576.14C2396.79 575.64 2396.59 575.24 2396.39 574.74C2395.49 572.74 2393.89 571.04 2391.89 570.14C2391.69 570.04 2390.59 569.54 2388.89 568.74C2388.89 568.74 2388.69 568.74 2388.69 568.64C2388.49 568.64 2388.29 568.44 2388.09 568.34C2386.89 567.84 2385.59 567.14 2383.99 566.44C2382.59 565.74 2380.99 565.04 2379.29 564.24C2378.79 564.04 2378.19 563.74 2377.59 563.44C2376.29 562.84 2374.89 562.24 2373.39 561.54C2371.09 560.44 2368.69 559.44 2366.19 558.34C2365.09 557.84 2363.89 557.34 2362.79 556.84C2362.59 556.84 2362.39 556.64 2362.19 556.54C2359.69 555.44 2357.29 554.34 2354.89 553.34C2353.59 552.74 2352.29 552.24 2350.99 551.74C2346.99 550.04 2343.39 548.64 2340.49 547.64C2332.49 544.84 2313.89 541.44 2297.69 538.74C2289.29 537.34 2281.59 536.14 2276.29 535.34C2275.19 535.14 2274.29 535.04 2273.39 534.94C2272.39 534.74 2271.29 534.64 2270.19 534.44C2269.99 534.44 2269.79 534.44 2269.59 534.44C2267.69 534.24 2265.79 534.54 2264.19 535.34C2261.99 536.44 2260.29 538.34 2259.49 540.84C2259.29 541.34 2259.19 541.94 2259.09 542.44C2258.79 544.44 2259.19 546.44 2260.09 548.14C2261.29 550.44 2263.39 552.14 2266.09 552.84C2266.09 552.84 2266.19 552.84 2266.29 552.84C2266.59 552.84 2266.79 552.94 2267.09 552.94C2267.89 553.04 2268.79 553.14 2269.79 553.34C2270.09 553.34 2270.29 553.34 2270.59 553.44C2281.89 555.24 2290.69 558.84 2296.89 564.04C2298.39 565.24 2299.69 566.64 2300.89 568.04C2301.49 568.74 2301.99 569.34 2302.49 570.04C2305.99 575.04 2307.39 580.44 2307.89 584.94C2307.99 585.94 2308.09 586.94 2308.09 587.94C2308.19 592.44 2307.59 595.54 2307.59 595.64C2306.49 600.04 2308.79 604.54 2312.89 606.44C2313.19 606.54 2313.49 606.64 2313.79 606.74C2314.29 606.94 2314.79 607.04 2315.19 607.04C2318.69 607.64 2322.29 606.14 2324.39 603.14C2324.59 602.94 2324.79 602.64 2324.99 602.44C2325.29 602.24 2325.59 602.04 2325.89 601.84C2327.29 601.14 2329.19 600.64 2331.49 600.34C2336.59 599.74 2343.39 600.14 2349.09 601.44L2358.89 603.64L2365.49 605.14L2369.79 606.14L2372.09 606.64L2375.69 607.44L2379.69 608.34H2380.09L2381.99 608.84H2382.29L2383.99 609.24L2388.79 610.34H2389.29C2389.59 610.54 2389.89 610.54 2390.19 610.64C2390.19 610.64 2390.39 610.64 2390.49 610.64C2390.79 610.64 2391.09 610.64 2391.39 610.64C2393.79 610.64 2395.99 609.74 2397.79 608.14C2399.59 606.44 2400.59 604.14 2400.69 601.74C2400.69 601.04 2400.69 600.44 2400.59 599.74L2400.69 600.04ZM2378.49 589.04L2376.39 588.54L2374.59 588.14L2370.39 587.14L2368.49 586.74L2364.19 585.74L2360.89 584.94L2359.99 584.74L2353.09 583.14C2350.79 582.64 2344.29 581.24 2336.69 581.24H2336.39C2333.59 581.24 2330.69 581.44 2327.79 581.84C2327.19 581.84 2326.59 582.04 2325.99 582.14C2325.49 577.94 2324.39 573.34 2322.49 568.64C2321.89 567.14 2321.19 565.74 2320.39 564.24C2319.99 563.44 2319.49 562.64 2318.99 561.74C2325.49 563.04 2330.89 564.34 2333.99 565.44C2339.49 567.34 2348.49 571.24 2357.29 575.14C2358.69 575.74 2360.19 576.44 2361.59 577.04C2363.39 577.84 2365.29 578.74 2366.99 579.54C2367.49 579.74 2367.89 579.94 2368.39 580.14C2369.89 580.84 2371.39 581.54 2372.79 582.14C2374.49 582.94 2376.09 583.64 2377.39 584.24C2377.99 584.54 2378.49 584.74 2378.99 585.04V585.94C2379.09 585.94 2379.59 588.74 2379.59 588.74V589.14L2378.09 588.84L2378.49 589.04Z" fill="black"/>
<path d="M1837.19 554.839C1836.69 554.939 1836.19 555.039 1835.69 555.239C1835.19 555.439 1835.29 555.239 1835.09 555.339C1835.09 555.339 1835.09 555.339 1835.19 555.339C1835.29 555.339 1835.39 555.339 1835.49 555.339C1834.99 555.639 1834.49 555.939 1833.99 556.139C1834.89 555.939 1835.79 555.739 1836.69 555.539C1837.19 555.439 1837.59 555.339 1838.09 555.239C1856.89 551.039 1874.09 549.439 1889.49 549.439C1904.89 549.439 1922.19 551.539 1934.09 554.139C1950.59 557.739 1963.59 562.739 1972.99 567.539C1982.29 572.339 1987.99 576.739 1989.79 579.139C1991.89 581.939 1993.59 586.239 1994.49 592.039C1994.69 590.839 1995.09 589.639 1995.79 588.639C1995.79 588.539 1995.79 588.439 1995.89 588.239C1995.89 588.039 1995.99 587.839 1996.09 587.739C1996.29 587.239 1996.59 586.839 1996.79 586.439C1996.99 586.139 1997.29 585.739 1997.49 585.439C1997.69 585.239 1997.79 585.039 1997.99 584.739C1997.99 584.739 1997.99 584.739 1997.99 584.639C1998.19 584.339 1998.39 584.139 1998.59 583.839C1998.69 583.639 1998.79 583.539 1998.99 583.339C1999.59 582.539 2000.29 581.839 2000.89 581.139L2001.09 580.939C2001.59 580.439 2002.19 579.839 2002.69 579.339C2002.69 579.339 2002.89 579.139 2002.99 579.139C2002.99 579.139 2003.09 579.039 2003.19 578.939C2003.59 578.639 2003.89 578.339 2004.29 578.039C1980.59 559.339 1916.49 536.039 1836.89 555.139L1837.19 554.839ZM1800.99 569.939C1800.99 569.939 1801.09 569.939 1801.19 569.939C1801.29 569.739 1801.39 569.639 1801.59 569.539C1801.39 569.639 1801.19 569.839 1800.99 570.039V569.939ZM2013.59 596.039C2013.59 595.739 2013.59 595.439 2013.59 595.139C2013.59 594.639 2013.59 594.039 2013.49 593.539C2013.19 590.639 2012.79 587.939 2012.29 585.339C2011.59 581.839 2010.59 578.739 2009.39 575.839C2009.19 575.439 2009.09 575.039 2008.89 574.739C2007.69 572.139 2006.29 569.739 2004.79 567.739C1991.29 549.839 1927.19 519.439 1843.59 534.939C1838.49 535.839 1833.39 536.939 1828.19 538.239C1824.49 539.139 1820.79 540.139 1817.09 541.239C1816.29 541.439 1815.39 541.739 1814.59 542.039C1811.59 542.939 1808.49 543.939 1805.39 545.039C1800.19 546.839 1795.39 549.639 1791.29 553.339C1790.49 554.039 1789.79 554.739 1788.99 555.539C1786.69 557.939 1784.59 560.639 1782.79 563.639C1781.49 565.739 1780.39 567.939 1779.39 570.239C1779.39 570.439 1779.19 570.639 1779.09 570.839C1778.59 571.939 1778.19 573.039 1777.79 574.139C1776.59 577.339 1775.69 580.739 1774.99 584.339C1774.29 587.539 1773.89 590.839 1773.59 594.239C1773.59 595.039 1773.39 595.839 1773.39 596.639C1773.39 597.439 1773.29 598.239 1773.29 599.039C1773.19 601.039 1773.19 603.039 1773.19 605.139C1773.19 606.139 1773.19 607.139 1773.19 608.139C1773.19 608.339 1773.19 608.539 1773.19 608.739C1773.29 612.039 1773.49 615.339 1773.89 618.739C1775.79 637.339 1781.49 657.639 1790.59 677.039C1790.59 677.039 1790.59 677.239 1790.69 677.239C1805.69 709.039 1845.09 730.539 1891.19 731.939C1892.69 731.939 1894.19 731.939 1895.79 731.939C1919.59 731.939 1940.99 726.339 1958.09 716.039C1958.29 715.939 1958.49 715.739 1958.69 715.639C1964.69 711.939 1970.19 707.639 1974.99 702.839C1979.69 698.139 1983.79 693.039 1987.19 687.439C1987.79 686.539 1988.29 685.639 1988.79 684.639C1988.79 684.439 1988.99 684.339 1989.09 684.139C1989.09 684.039 1989.19 683.939 1989.29 683.839C1991.79 679.239 1994.09 674.739 1996.09 670.339C2005.29 650.839 2010.49 633.139 2012.69 617.839C2013.79 609.939 2014.09 602.639 2013.69 596.039H2013.59ZM1979.99 660.239C1979.79 660.739 1979.59 661.139 1979.29 661.639C1977.29 665.939 1974.99 670.439 1972.49 675.139C1958.89 700.039 1928.69 714.239 1891.59 713.139C1853.39 712.039 1819.89 694.639 1807.79 669.839C1807.79 669.639 1807.59 669.439 1807.49 669.239C1800.89 655.239 1796.29 640.639 1793.79 626.939C1792.19 618.039 1791.49 609.539 1791.69 601.639C1791.79 597.939 1792.09 594.339 1792.69 590.939C1793.39 586.239 1794.59 581.939 1796.19 578.139V577.939C1797.59 574.839 1799.09 572.139 1800.99 569.939C1801.09 569.739 1801.19 569.639 1801.39 569.539C1804.09 566.339 1807.39 564.139 1811.19 562.839C1818.09 560.439 1824.79 558.539 1831.29 556.839C1832.09 556.639 1832.99 556.439 1833.79 556.239C1834.69 556.039 1835.59 555.839 1836.49 555.639C1836.99 555.539 1837.39 555.439 1837.89 555.339C1856.69 551.139 1873.89 549.539 1889.29 549.539C1904.69 549.539 1921.99 551.639 1933.89 554.239C1950.39 557.839 1963.39 562.839 1972.79 567.639C1982.09 572.439 1987.79 576.839 1989.59 579.239C1991.69 582.039 1993.39 586.339 1994.29 592.139C1994.39 592.839 1994.49 593.439 1994.59 594.239C1994.59 595.139 1994.79 596.039 1994.89 597.039C1995.89 611.639 1992.39 633.239 1979.89 660.539L1979.99 660.239ZM2003.79 569.739C1989.99 551.539 1924.09 520.439 1838.49 537.739C1836.99 538.039 1835.39 538.339 1833.89 538.739C1831.69 539.239 1829.39 539.739 1827.19 540.339C1827.59 540.339 1827.99 540.239 1828.39 540.139C1830.29 539.939 1831.99 540.139 1833.59 540.939C1836.39 542.239 1838.49 544.939 1838.89 548.139C1839.09 549.539 1838.89 551.039 1838.49 552.339C1837.79 553.539 1836.79 554.539 1835.69 555.239C1835.49 555.239 1835.29 555.239 1835.09 555.339C1835.09 555.339 1835.09 555.339 1835.19 555.339C1835.29 555.339 1835.39 555.339 1835.49 555.339C1834.99 555.639 1834.49 555.939 1833.99 556.139C1834.89 555.939 1835.79 555.739 1836.69 555.539C1837.19 555.439 1837.59 555.339 1838.09 555.239C1856.89 551.039 1874.09 549.439 1889.49 549.439C1904.89 549.439 1922.19 551.539 1934.09 554.139C1950.59 557.739 1963.59 562.739 1972.99 567.539C1982.29 572.339 1987.99 576.739 1989.79 579.139C1991.89 581.939 1993.59 586.239 1994.49 592.039C1994.69 590.839 1995.09 589.639 1995.79 588.639C1995.79 588.539 1995.79 588.439 1995.89 588.239C1995.89 588.039 1995.99 587.839 1996.09 587.739C1996.29 587.239 1996.59 586.839 1996.79 586.439C1996.99 586.139 1997.29 585.739 1997.49 585.439C1997.69 585.239 1997.79 585.039 1997.99 584.739C1997.99 584.739 1997.99 584.739 1997.99 584.639C1998.19 584.339 1998.39 584.139 1998.59 583.839C1998.69 583.639 1998.79 583.539 1998.99 583.339C1999.59 582.539 2000.29 581.839 2000.89 581.139L2001.09 580.939C2001.59 580.439 2002.19 579.839 2002.69 579.339C2002.69 579.339 2002.89 579.139 2002.99 579.139C2002.99 579.139 2003.09 579.039 2003.19 578.939C2003.59 578.639 2003.89 578.339 2004.29 578.039C2004.49 577.839 2004.69 577.639 2004.89 577.539C2005.09 577.339 2005.29 577.239 2005.49 577.039C2005.99 576.639 2006.49 576.239 2006.99 575.939C2005.89 573.739 2004.69 571.739 2003.39 569.939L2003.79 569.739Z" fill="black"/>
<path d="M1830.49 547.439C1830.49 547.439 1772.79 555.139 1758.59 560.139C1744.39 565.139 1736.79 578.139 1736.79 578.139L1738.39 591.539L1754.59 590.14C1754.59 590.14 1774.29 589.94 1782.39 601.74C1782.39 601.74 1771.19 555.239 1830.49 547.539V547.439Z" fill="black"/>
<path d="M1839.79 546.239C1839.39 543.439 1837.79 541.039 1835.59 539.639C1835.09 539.339 1834.49 539.039 1833.89 538.739C1832.49 538.139 1830.89 537.939 1829.29 538.139C1828.89 538.139 1828.49 538.239 1828.09 538.339C1825.89 538.639 1821.59 539.239 1816.19 540.039C1800.09 542.339 1773.69 546.439 1760.29 549.939C1759.99 549.939 1759.69 550.039 1759.49 550.139C1757.99 550.539 1756.59 550.939 1755.49 551.339C1753.59 552.039 1751.79 552.739 1750.09 553.639C1749.89 553.739 1749.59 553.839 1749.39 553.939C1749.39 553.939 1749.29 553.939 1749.19 553.939C1745.09 556.039 1741.69 558.639 1738.79 561.239C1737.19 562.639 1735.89 564.039 1734.69 565.339C1734.69 565.339 1734.59 565.539 1734.49 565.539C1732.09 568.239 1730.39 570.539 1729.49 571.939C1729.29 572.239 1729.09 572.539 1728.99 572.739C1728.79 573.039 1728.69 573.239 1728.59 573.339C1728.29 573.939 1727.99 574.539 1727.79 575.139C1727.39 576.439 1727.19 577.839 1727.39 579.239L1728.19 585.939C1728.19 586.039 1728.79 591.039 1728.79 591.039L1728.99 592.64C1729.29 594.74 1730.19 596.639 1731.59 598.039C1732.49 598.939 1733.59 599.739 1734.79 600.239C1735.79 600.639 1736.79 600.839 1737.89 600.839H1738.09C1738.39 600.839 1738.69 600.839 1738.99 600.839L1743.79 600.439H1744.09H1744.19L1746.09 600.239H1746.39L1753.19 599.64H1753.49L1754.69 599.539C1758.19 599.539 1766.69 600.639 1771.89 604.439C1772.19 604.639 1772.49 604.939 1772.79 605.239C1773.39 605.839 1773.99 606.439 1774.39 607.039C1775.79 609.139 1777.99 610.439 1780.29 610.939C1780.89 611.039 1781.49 611.14 1782.09 611.14C1783.39 611.14 1784.69 610.839 1785.89 610.339C1786.79 609.939 1787.59 609.439 1788.29 608.839C1788.99 608.239 1789.59 607.539 1790.09 606.739C1790.29 606.439 1790.39 606.239 1790.49 605.939C1791.09 604.639 1791.49 603.239 1791.49 601.839C1791.49 600.439 1791.49 600.34 1791.19 599.64C1791.19 599.64 1790.99 598.939 1790.89 597.839C1790.89 597.139 1790.69 596.339 1790.69 595.439C1790.49 591.539 1790.69 585.439 1793.29 579.439C1794.09 577.639 1794.99 575.839 1796.29 574.039C1797.19 572.739 1798.19 571.539 1799.29 570.439C1801.29 568.339 1803.69 566.439 1806.39 564.839C1811.99 561.439 1819.19 558.939 1827.79 557.539C1828.69 557.339 1829.59 557.239 1830.49 557.139C1830.79 557.139 1831.09 557.139 1831.29 557.039H1831.49C1832.29 556.939 1833.09 556.739 1833.79 556.439C1834.29 556.239 1834.79 555.939 1835.29 555.639C1835.29 555.639 1835.29 555.639 1835.39 555.639C1836.59 554.839 1837.49 553.839 1838.19 552.739C1839.29 550.939 1839.79 548.839 1839.49 546.639L1839.79 546.239ZM1772.39 583.64C1766.89 581.74 1761.59 581.039 1758.19 580.839C1757.19 580.839 1756.39 580.739 1755.79 580.739H1755.39C1755.19 580.739 1754.99 580.739 1754.79 580.739H1754.49C1754.29 580.739 1753.99 580.739 1753.79 580.739L1746.59 581.339C1746.59 581.239 1746.59 580.539 1746.59 580.539C1748.49 578.139 1751.89 574.339 1756.59 571.439C1756.79 571.339 1756.89 571.239 1757.09 571.139C1758.49 570.339 1760.09 569.539 1761.79 568.939C1765.29 567.739 1772.09 566.239 1780.19 564.739C1779.79 565.439 1779.39 566.139 1778.99 566.739C1778.19 568.239 1777.39 569.739 1776.79 571.239C1776.29 572.339 1775.89 573.539 1775.49 574.639C1774.39 577.839 1773.59 580.839 1773.19 583.739C1772.99 583.739 1772.79 583.639 1772.69 583.539L1772.39 583.64Z" fill="black"/>
<path d="M2004.59 600.739C2002.79 600.739 2000.99 600.239 1999.49 599.239C1995.19 596.439 1993.99 590.539 1996.79 586.239C2007.89 569.339 2032.89 564.139 2050.89 564.739C2071.89 565.539 2088.49 573.239 2095.29 585.539C2097.79 590.039 2096.19 595.739 2091.69 598.339C2087.19 600.839 2081.49 599.239 2078.89 594.739C2075.39 588.539 2063.89 584.039 2050.19 583.539C2033.39 582.939 2017.79 588.339 2012.39 596.539C2010.59 599.239 2007.59 600.739 2004.59 600.739Z" fill="black"/>
<path d="M2026.59 784.24C2026.39 784.24 2026.19 784.24 2025.99 784.24C1994.89 782.34 1973.99 772.84 1963.99 756.14C1947.99 729.64 1964.29 693.24 1972.19 675.84C1974.29 671.14 1979.89 669.04 1984.59 671.14C1989.29 673.24 1991.39 678.84 1989.29 683.54C1982.79 698.14 1969.09 728.44 1980.09 746.54C1986.79 757.64 2002.69 764.04 2027.29 765.64C2032.49 765.94 2036.39 770.44 2036.09 775.54C2035.79 780.54 2031.69 784.34 2026.79 784.34L2026.59 784.24Z" fill="black"/>
<path d="M1958.59 521.139C1965.19 522.839 1969.89 519.639 1975.59 516.339C1981.29 513.039 1977.79 513.039 1976.09 511.939C1940.89 489.039 1845.59 467.939 1812.89 519.639C1853.99 495.439 1912.29 506.439 1958.69 521.039L1958.59 521.139Z" fill="black"/>
<path d="M1986.09 510.939C1985.89 510.139 1985.59 509.339 1985.19 508.639C1984.69 507.639 1984.09 506.839 1983.29 506.039C1982.69 505.339 1981.89 504.739 1981.09 504.239C1979.79 503.439 1978.49 502.539 1977.09 501.739C1972.39 499.039 1967.09 496.439 1961.39 493.939C1961.39 493.939 1961.29 493.939 1961.19 493.939C1952.89 490.439 1943.69 487.439 1933.99 484.939C1908.69 478.539 1880.09 476.039 1856.19 481.339C1835.09 485.939 1818.79 495.639 1807.89 510.339C1806.79 511.739 1805.79 513.239 1804.79 514.739C1802.49 518.439 1802.99 523.139 1805.99 526.239C1808.99 529.339 1813.79 530.039 1817.49 527.839C1817.79 527.639 1818.19 527.439 1818.49 527.239C1823.69 524.239 1829.29 521.839 1835.39 520.039C1847.09 516.439 1860.49 514.739 1875.49 515.039C1891.39 515.339 1909.19 517.839 1928.69 522.639C1937.29 524.739 1946.29 527.239 1955.59 530.239C1955.79 530.239 1955.89 530.339 1956.09 530.339C1958.19 530.839 1960.19 531.139 1961.99 531.139C1966.99 531.139 1971.19 529.539 1974.79 527.639C1976.19 526.839 1977.59 526.039 1978.89 525.339L1979.99 524.639C1983.79 522.439 1986.09 518.639 1986.19 514.339C1986.19 513.139 1986.09 512.039 1985.79 511.039L1986.09 510.939ZM1931.69 503.939C1930.79 503.739 1929.89 503.539 1928.99 503.339C1917.69 500.739 1906.99 498.839 1896.79 497.639C1908.39 498.539 1919.99 500.639 1930.69 503.439C1931.39 503.639 1932.19 503.839 1932.89 504.039C1934.49 504.539 1936.09 504.939 1937.69 505.439C1935.69 504.939 1933.69 504.439 1931.69 503.939Z" fill="black"/>
<path d="M2141.39 521.139C2134.79 522.839 2130.09 519.639 2124.39 516.339C2118.69 513.039 2122.19 513.039 2123.89 511.939C2159.09 489.039 2254.39 467.939 2287.09 519.639C2245.99 495.439 2187.69 506.439 2141.29 521.039L2141.39 521.139Z" fill="black"/>
<path d="M2295.99 516.74C2295.79 516.04 2295.49 515.34 2294.99 514.74C2284.09 497.64 2266.89 486.34 2243.69 481.34C2202.19 472.34 2146.49 486.24 2118.79 504.24C2116.49 505.74 2114.79 508.04 2113.99 510.54C2113.59 511.74 2113.39 513.04 2113.49 514.34C2113.59 518.54 2115.89 522.34 2119.59 524.54C2119.59 524.54 2119.69 524.54 2119.79 524.54L2120.89 525.24C2125.39 527.94 2130.79 531.04 2137.79 531.04C2144.79 531.04 2141.59 530.84 2143.69 530.24C2143.89 530.24 2144.09 530.24 2144.19 530.14C2176.19 520.04 2204.19 514.94 2227.99 514.94C2249.69 514.94 2267.89 519.24 2282.39 527.84C2284.09 528.84 2285.99 529.24 2287.89 529.14C2290.09 528.94 2292.29 528.04 2293.89 526.34C2294.59 525.54 2295.19 524.74 2295.69 523.84C2296.69 521.64 2296.89 519.14 2296.09 516.84L2295.99 516.74ZM2203.09 497.54C2190.29 499.04 2176.69 501.64 2162.19 505.34C2174.69 501.54 2188.89 498.54 2203.09 497.54Z" fill="black"/>
<path d="M2051.29 894.84C2000.89 894.84 1956.39 884.64 1925.39 869.44C1920.79 867.14 1918.79 861.54 1921.09 856.94C1923.39 852.34 1928.99 850.34 1933.59 852.64C1987.19 878.94 2084.39 889.04 2180.79 852.34C2185.59 850.54 2191.09 852.94 2192.89 857.74C2194.69 862.54 2192.29 868.04 2187.49 869.84C2140.89 887.64 2093.99 894.94 2051.29 894.94V894.84Z" fill="black"/>
<path d="M1741.49 631.24C1741.49 631.24 1722.29 475.84 1727.19 400.14C1732.09 324.44 1742.69 240.94 1847.49 167.54C1852.99 163.74 1858.69 160.14 1864.79 156.74C1870.89 153.34 1856.99 147.14 1884.09 131.04C1994.39 65.8398 2173.59 96.6398 2261.39 146.14C2336.79 188.64 2386.89 271.04 2396.69 368.04C2406.49 465.04 2409.09 535.24 2385.39 631.24C2385.39 631.24 2371.89 540.34 2357.09 500.04C2342.19 459.64 2332.19 436.44 2329.79 386.74C2327.39 337.04 2325.79 332.04 2306.39 303.24C2292.29 282.14 2271.79 250.34 2242.59 256.44C2220.59 261.04 2157.89 287.34 2053.29 285.64C1948.69 283.94 1940.39 257.74 1915.59 252.54C1885.99 246.24 1833.29 280.24 1811.39 317.44C1789.49 354.64 1800.19 411.04 1787.69 430.64C1775.19 450.24 1750.29 495.14 1741.39 631.34L1741.49 631.24Z" fill="black"/>
<path d="M2384.29 569.24C2384.09 568.34 2383.99 567.44 2383.79 566.54C2382.89 561.94 2381.89 557.24 2380.89 552.54C2376.49 531.84 2371.39 511.24 2365.99 496.74C2364.79 493.44 2363.59 490.24 2362.49 487.24C2349.79 453.04 2341.39 430.54 2339.29 386.24C2336.79 335.24 2334.89 328.64 2314.39 297.94L2313.29 296.24C2299.69 275.94 2279.69 246.14 2250.39 246.14C2221.09 246.14 2244.19 246.44 2240.89 247.14C2236.29 248.14 2230.49 249.84 2222.99 252.04C2192.89 260.94 2136.79 277.44 2053.69 276.14C1980.69 274.94 1956.99 261.94 1939.69 252.44C1932.69 248.54 1925.99 244.94 1917.69 243.14C1882.89 235.74 1829.79 271.84 1806.09 308.14C1826.39 283.94 1857.59 262.14 1884.99 256.24C1893.29 254.44 1901.19 254.14 1908.29 255.64C1916.59 257.44 1923.19 261.04 1930.29 264.94C1947.59 274.44 1971.19 287.44 2044.29 288.64C2127.39 290.04 2183.39 273.44 2213.59 264.54C2220.99 262.34 2226.89 260.64 2231.49 259.64C2234.69 258.94 2237.89 258.64 2240.89 258.64C2270.19 258.64 2290.19 288.44 2303.79 308.74L2304.89 310.44C2312.59 321.84 2317.69 329.94 2321.09 338.24C2326.89 352.24 2328.29 366.74 2329.79 398.74C2331.99 442.94 2340.29 465.54 2352.99 499.64C2354.19 502.74 2355.29 505.84 2356.49 509.14C2362.29 524.84 2368.09 543.84 2372.99 561.34C2372.99 561.34 2372.99 561.44 2372.99 561.54C2373.19 562.44 2373.39 563.34 2373.49 564.14C2373.49 564.14 2373.69 564.14 2373.69 564.24C2374.59 567.34 2375.39 570.34 2376.19 573.34C2376.49 573.44 2376.79 573.64 2377.09 573.74C2378.29 574.34 2379.49 574.84 2380.49 575.34C2380.89 575.54 2381.19 575.64 2381.49 575.84C2381.89 576.04 2382.19 576.14 2382.59 576.34C2382.89 576.44 2383.19 576.64 2383.49 576.74C2383.69 576.74 2383.79 576.94 2383.99 576.94C2384.59 577.24 2385.19 577.54 2385.69 577.74C2385.19 574.84 2384.59 571.94 2383.99 569.04L2384.29 569.24ZM2406.09 367.14C2401.59 322.44 2388.39 279.64 2367.89 242.44C2365.89 238.84 2363.89 235.34 2361.69 231.84C2337.49 192.04 2304.39 159.64 2266.09 138.04C2263.39 136.54 2260.69 135.04 2257.79 133.54C2257.29 133.24 2256.69 132.94 2256.19 132.74C2254.49 131.94 2252.89 131.04 2251.09 130.24C2158.19 85.0396 1987.99 59.0395 1879.49 123.14C1862.09 133.44 1857.79 141.54 1857.79 150.14C1852.39 153.24 1847.09 156.54 1842.29 160.04C1793.59 194.14 1760.59 233.24 1741.39 279.54C1730.79 305.14 1725.29 330.54 1722.09 355.24C1720.09 370.34 1718.99 385.14 1717.99 399.64C1714.99 445.64 1720.69 519.24 1725.69 571.54C1725.99 574.44 1726.29 577.24 1726.49 579.94C1726.69 581.74 1726.89 583.54 1726.99 585.34C1726.99 585.54 1726.99 585.74 1726.99 585.94C1726.99 585.94 1726.99 585.939 1726.99 586.039C1727.19 587.639 1727.29 589.24 1727.49 590.84C1727.99 595.84 1728.49 600.54 1728.99 604.84C1728.99 604.84 1728.99 604.84 1728.99 604.94C1729.89 613.64 1730.79 620.64 1731.29 625.44C1731.79 629.34 1732.09 631.839 1732.19 632.539C1732.59 635.739 1734.59 638.34 1737.29 639.74C1737.49 639.74 1737.59 639.94 1737.79 639.94C1738.99 640.44 1740.19 640.74 1741.59 640.74C1742.99 640.74 1741.79 640.74 1741.89 640.74C1746.69 640.64 1750.69 636.84 1750.99 631.94C1751.29 626.94 1751.69 622.14 1751.99 617.44C1752.19 614.24 1752.49 611.04 1752.79 607.94C1752.99 605.74 1753.19 603.64 1753.39 601.44C1753.39 600.84 1753.49 600.139 1753.59 599.539C1753.59 599.039 1753.59 598.539 1753.69 598.039C1753.69 597.839 1753.69 597.64 1753.69 597.44C1753.89 595.64 1754.09 593.739 1754.19 592.039C1754.19 591.339 1754.29 590.739 1754.39 590.039C1754.59 587.639 1754.89 585.24 1755.19 582.94V582.74C1755.19 582.04 1755.39 581.44 1755.39 580.74C1755.69 578.14 1755.99 575.54 1756.29 573.04C1756.29 572.54 1756.39 572.04 1756.49 571.44C1756.49 571.24 1756.49 571.14 1756.49 570.94C1756.89 567.94 1757.29 564.94 1757.69 562.04C1757.69 561.44 1757.89 560.84 1757.89 560.34C1758.29 557.44 1758.69 554.64 1759.09 551.84C1759.09 551.24 1759.29 550.64 1759.39 550.04C1765.09 512.84 1772.29 486.94 1779.49 468.24C1783.59 457.54 1787.69 449.14 1791.59 442.34C1792.99 439.84 1794.39 437.64 1795.69 435.54C1802.29 425.14 1803.49 408.74 1804.79 389.74C1805.89 374.74 1806.99 358.44 1810.89 343.54C1812.89 335.84 1815.69 328.54 1819.49 322.04C1820.09 321.04 1820.69 320.14 1821.29 319.14C1824.39 314.24 1828.09 309.44 1832.29 304.74C1847.59 287.44 1868.69 272.54 1887.19 265.44C1897.19 261.64 1906.49 260.04 1913.69 261.54C1919.29 262.74 1923.99 265.34 1930.49 268.94C1948.39 278.74 1975.49 293.64 2053.19 294.94C2139.19 296.34 2196.99 279.24 2228.09 270.14C2235.09 268.04 2240.69 266.44 2244.59 265.64C2261.99 261.94 2276.69 277.44 2288.39 293.64C2291.59 298.14 2294.69 302.64 2297.49 306.84L2298.59 308.54C2310.69 326.54 2315.29 333.94 2317.79 351.64C2318.99 360.24 2319.69 371.34 2320.39 387.34C2322.19 423.14 2327.89 446.14 2336.19 470.24C2338.79 477.84 2341.69 485.64 2344.79 493.94C2345.89 497.04 2347.09 500.14 2348.29 503.44C2350.79 510.24 2353.19 518.44 2355.59 527.54C2357.99 536.84 2360.39 546.94 2362.49 557.14C2362.69 558.04 2362.89 558.94 2363.09 559.74C2363.39 561.14 2363.69 562.54 2363.99 563.94C2364.29 565.44 2364.59 566.94 2364.89 568.34C2365.09 569.24 2365.19 570.14 2365.39 570.94C2365.39 571.44 2365.59 571.94 2365.69 572.34C2366.19 574.74 2366.59 577.14 2367.09 579.54C2367.29 580.44 2367.39 581.34 2367.59 582.14C2367.59 582.54 2367.79 583.04 2367.79 583.44C2367.89 583.94 2367.99 584.44 2368.09 584.94C2368.09 585.54 2368.29 586.04 2368.39 586.64C2368.89 589.24 2369.29 591.84 2369.79 594.34C2369.79 594.44 2369.79 594.54 2369.79 594.74C2369.89 595.44 2369.99 596.04 2370.19 596.74C2370.39 597.84 2370.59 598.94 2370.79 600.14C2370.99 601.34 2371.19 602.64 2371.39 603.84C2371.59 604.84 2371.69 605.84 2371.89 606.84C2372.09 607.74 2372.19 608.639 2372.39 609.539C2372.99 612.939 2373.49 616.14 2373.89 618.94C2374.29 621.34 2374.69 623.54 2374.89 625.34C2375.29 627.64 2375.49 629.44 2375.69 630.64C2375.89 631.84 2375.99 632.64 2375.99 632.64C2376.39 635.64 2378.29 638.239 2380.89 639.539C2382.09 640.139 2383.39 640.539 2384.69 640.539C2389.19 640.739 2393.19 637.74 2394.19 633.44C2394.39 632.44 2394.69 631.439 2394.89 630.539C2395.99 626.239 2396.99 621.94 2397.89 617.74C2397.89 617.74 2397.89 617.639 2397.89 617.539C2398.09 616.839 2398.19 616.139 2398.29 615.539C2398.39 614.839 2398.59 614.24 2398.69 613.64C2399.49 609.74 2400.29 605.839 2401.09 602.039C2401.29 600.839 2401.59 599.639 2401.79 598.539V598.34C2402.19 596.34 2402.59 594.34 2402.89 592.44C2403.39 589.44 2403.99 586.439 2404.49 583.539C2416.39 512.939 2414.09 451.24 2405.59 367.14H2406.09ZM1786.19 388.44C1785.09 404.14 1783.99 419.04 1779.99 425.44C1770.39 440.44 1758.69 463.44 1748.89 505.64C1748.89 505.84 1748.89 505.94 1748.79 506.14C1746.39 516.44 1744.09 528.04 1741.99 540.84C1741.99 541.14 1741.89 541.54 1741.79 541.84C1741.79 541.54 1741.79 541.34 1741.79 541.04C1740.79 529.84 1739.89 518.24 1739.09 506.54C1736.39 468.24 1734.89 428.74 1736.69 400.84C1741.79 321.34 1754.59 244.24 1852.99 175.34C1858.09 171.74 1863.69 168.24 1869.49 165.04C1877.29 160.64 1876.79 153.64 1876.59 151.04C1876.52 150.106 1876.62 149.406 1876.89 148.94C1877.79 147.54 1880.59 144.34 1888.99 139.34C1990.59 79.2396 2150.19 103.24 2239.49 145.54C2240.29 145.94 2241.09 146.34 2241.89 146.64C2241.89 146.64 2242.09 146.64 2242.19 146.74C2243.99 147.64 2245.69 148.44 2247.39 149.34C2250.69 151.04 2253.89 152.74 2256.99 154.44C2296.29 176.54 2328.59 210.44 2351.49 251.74C2370.69 286.44 2383.29 326.34 2387.59 369.14C2394.49 436.74 2397.19 489.54 2391.59 544.34C2391.59 544.34 2391.59 544.54 2391.59 544.64C2390.79 552.74 2389.69 560.74 2388.49 568.94C2388.39 569.74 2388.29 570.44 2388.09 571.24C2387.69 573.74 2387.29 576.14 2386.89 578.64C2386.79 579.44 2386.69 580.14 2386.49 580.94C2386.49 580.94 2386.49 581.04 2386.49 581.14C2386.49 581.14 2386.49 580.94 2386.49 580.84C2386.39 580.14 2386.19 579.44 2386.09 578.74C2386.09 578.54 2386.09 578.34 2385.99 578.24C2385.49 575.34 2384.89 572.44 2384.29 569.54C2384.09 568.64 2383.99 567.74 2383.79 566.84C2382.89 562.24 2381.89 557.54 2380.89 552.84C2376.49 532.14 2371.39 511.54 2365.99 497.04C2364.79 493.74 2363.59 490.54 2362.49 487.54C2349.79 453.34 2341.39 430.84 2339.29 386.54C2336.79 335.54 2334.89 328.94 2314.39 298.24L2313.29 296.54C2299.69 276.24 2279.69 246.44 2250.39 246.44C2221.09 246.44 2244.19 246.74 2240.89 247.44C2236.29 248.44 2230.49 250.14 2222.99 252.34C2192.89 261.24 2136.79 277.74 2053.69 276.44C1980.69 275.24 1956.99 262.24 1939.69 252.74C1932.69 248.84 1925.99 245.24 1917.69 243.44C1882.89 236.04 1829.79 272.14 1806.09 308.44C1805.19 309.84 1804.29 311.34 1803.39 312.74C1789.79 335.74 1787.79 365.04 1786.09 388.64L1786.19 388.44ZM2384.29 569.24C2384.09 568.34 2383.99 567.44 2383.79 566.54C2382.89 561.94 2381.89 557.24 2380.89 552.54C2376.49 531.84 2371.39 511.24 2365.99 496.74C2364.79 493.44 2363.59 490.24 2362.49 487.24C2349.79 453.04 2341.39 430.54 2339.29 386.24C2336.79 335.24 2334.89 328.64 2314.39 297.94L2313.29 296.24C2299.69 275.94 2279.69 246.14 2250.39 246.14C2221.09 246.14 2244.19 246.44 2240.89 247.14C2236.29 248.14 2230.49 249.84 2222.99 252.04C2192.89 260.94 2136.79 277.44 2053.69 276.14C1980.69 274.94 1956.99 261.94 1939.69 252.44C1932.69 248.54 1925.99 244.94 1917.69 243.14C1882.89 235.74 1829.79 271.84 1806.09 308.14C1805.19 309.54 1804.29 311.04 1803.39 312.44C1789.79 335.44 1787.79 364.74 1786.09 388.34C1784.99 404.04 1783.89 418.94 1779.89 425.34C1770.29 440.34 1758.59 463.34 1748.79 505.54C1749.19 503.84 1749.69 502.24 1750.09 500.64C1750.29 499.84 1750.59 498.94 1750.79 498.14C1751.19 496.74 1751.59 495.34 1751.99 494.04C1752.19 493.54 1752.29 493.04 1752.49 492.44C1752.69 491.94 1752.79 491.44 1752.99 490.94C1753.19 490.44 1753.29 489.94 1753.49 489.44C1753.99 487.84 1754.59 486.24 1755.09 484.74C1755.39 484.04 1755.59 483.24 1755.89 482.54C1756.09 482.04 1756.19 481.64 1756.39 481.14C1756.69 480.34 1757.09 479.44 1757.39 478.64C1757.39 478.44 1757.49 478.34 1757.59 478.14C1757.79 477.64 1757.99 477.04 1758.29 476.54C1758.69 475.54 1759.09 474.64 1759.49 473.74C1759.69 473.14 1759.99 472.64 1760.29 472.04C1761.19 470.24 1761.99 468.44 1762.89 466.84C1762.99 466.54 1763.19 466.24 1763.39 465.94C1765.19 462.64 1766.89 459.84 1768.59 457.24C1768.69 457.04 1768.79 456.84 1768.99 456.64C1769.79 455.54 1770.49 454.44 1771.19 453.34C1771.29 453.14 1771.39 452.94 1771.59 452.84C1773.69 449.84 1775.59 447.14 1777.39 444.54C1777.49 444.34 1777.69 444.14 1777.79 443.94C1777.79 443.94 1777.79 443.74 1777.89 443.74C1778.09 443.44 1778.29 443.14 1778.49 442.84C1780.19 440.14 1781.49 436.64 1782.49 432.64C1782.59 432.24 1782.69 431.74 1782.79 431.24C1782.79 430.74 1782.99 430.34 1783.09 429.84C1783.09 429.54 1783.19 429.34 1783.29 429.04C1783.29 428.74 1783.39 428.54 1783.49 428.24C1783.79 426.34 1784.09 424.44 1784.39 422.34C1784.59 421.14 1784.69 419.94 1784.79 418.74C1784.89 417.64 1784.99 416.54 1785.09 415.34C1785.29 413.54 1785.39 411.74 1785.59 409.84C1785.69 408.14 1785.89 406.44 1785.99 404.74C1786.19 401.94 1786.39 399.04 1786.59 396.04C1786.59 395.34 1786.59 394.64 1786.79 394.04C1786.79 393.44 1786.79 392.74 1786.89 392.14C1786.89 392.14 1786.89 392.14 1786.89 392.04C1788.99 374.34 1792.89 355.74 1802.09 340.04C1802.09 339.94 1802.29 339.84 1802.29 339.64C1802.59 338.54 1802.89 337.44 1803.29 336.24C1803.39 335.94 1803.49 335.54 1803.59 335.14C1803.79 334.44 1803.99 333.84 1804.29 333.14C1804.29 333.14 1804.29 333.04 1804.29 332.94C1804.29 332.84 1804.29 332.74 1804.39 332.54C1804.59 331.94 1804.79 331.34 1804.99 330.74C1805.19 330.24 1805.39 329.74 1805.49 329.34C1805.89 328.44 1806.19 327.44 1806.59 326.54C1806.79 326.04 1806.99 325.64 1807.19 325.14C1807.29 324.84 1807.49 324.54 1807.59 324.24C1807.79 323.74 1807.99 323.34 1808.19 322.84C1808.29 322.54 1808.49 322.24 1808.69 321.94C1808.89 321.54 1809.09 321.14 1809.29 320.74C1809.59 320.14 1809.99 319.44 1810.29 318.84C1810.59 318.24 1810.99 317.64 1811.29 317.04C1811.69 316.44 1812.09 315.74 1812.49 315.14C1812.89 314.54 1813.29 313.84 1813.69 313.24C1814.29 312.54 1814.89 311.84 1815.49 311.14C1816.19 310.34 1816.89 309.54 1817.69 308.74C1818.19 308.14 1818.79 307.54 1819.29 307.04C1819.89 306.34 1820.59 305.74 1821.19 305.04C1821.59 304.64 1821.99 304.14 1822.49 303.74C1822.89 303.34 1823.19 303.04 1823.59 302.64C1824.29 301.94 1824.89 301.34 1825.59 300.74C1827.59 298.84 1829.59 297.04 1831.69 295.24C1832.09 294.94 1832.39 294.64 1832.79 294.34C1833.39 293.84 1833.89 293.44 1834.49 292.94C1834.99 292.54 1835.49 292.14 1835.99 291.74C1836.19 291.64 1836.29 291.44 1836.49 291.34C1836.79 291.14 1837.09 290.84 1837.39 290.64C1837.89 290.24 1838.49 289.84 1838.99 289.34C1843.29 286.04 1847.79 282.94 1852.19 280.24C1852.99 279.74 1853.79 279.24 1854.59 278.74C1854.59 278.74 1854.59 278.74 1854.69 278.74C1855.29 278.44 1855.79 278.14 1856.29 277.74C1856.89 277.44 1857.39 277.14 1857.99 276.74C1860.79 275.14 1863.69 273.74 1866.49 272.34C1866.99 272.14 1867.49 271.84 1867.89 271.64C1868.79 271.24 1869.69 270.84 1870.59 270.44C1871.29 270.14 1871.99 269.84 1872.59 269.64C1872.59 269.64 1872.59 269.64 1872.69 269.64C1873.09 269.54 1873.49 269.34 1873.89 269.14C1875.49 268.54 1877.09 267.94 1878.69 267.44C1879.39 267.24 1880.19 266.94 1880.89 266.74C1882.49 266.24 1883.99 265.84 1885.49 265.54C1885.89 265.54 1886.29 265.34 1886.59 265.34C1896.59 261.54 1905.89 259.94 1913.09 261.44C1918.69 262.64 1923.39 265.24 1929.89 268.84C1947.79 278.64 1974.89 293.54 2052.59 294.84C2138.59 296.24 2196.39 279.14 2227.49 270.04C2234.49 267.94 2240.09 266.34 2243.99 265.54C2261.39 261.84 2276.09 277.34 2287.79 293.54C2290.99 298.04 2294.09 302.54 2296.89 306.74L2297.99 308.44C2310.09 326.44 2314.69 333.84 2317.19 351.54C2318.39 360.14 2319.09 371.24 2319.79 387.24C2321.59 423.04 2327.29 446.04 2335.59 470.14C2338.19 477.74 2341.09 485.54 2344.19 493.84C2345.29 496.94 2346.49 500.04 2347.69 503.34C2350.19 510.14 2352.59 518.34 2354.99 527.44C2357.39 536.74 2359.79 546.84 2361.89 557.04C2362.09 557.94 2362.29 558.84 2362.49 559.64C2362.79 561.04 2363.09 562.44 2363.39 563.84C2363.79 565.44 2364.29 566.94 2364.69 568.44C2365.19 568.64 2365.69 568.84 2366.09 569.04C2366.99 569.44 2367.99 569.84 2368.89 570.34C2370.99 571.24 2372.89 572.14 2374.79 573.04C2374.19 570.14 2373.69 567.24 2373.09 564.34C2373.09 564.34 2373.29 564.34 2373.29 564.44C2374.19 567.54 2374.99 570.54 2375.79 573.54C2376.09 573.64 2376.39 573.84 2376.69 573.94C2377.89 574.54 2379.09 575.04 2380.09 575.54C2380.49 575.74 2380.79 575.84 2381.09 576.04C2381.49 576.24 2381.79 576.34 2382.19 576.54C2382.49 576.64 2382.79 576.84 2383.09 576.94C2383.29 576.94 2383.39 577.14 2383.59 577.14C2384.19 577.44 2384.79 577.74 2385.29 577.94C2384.79 575.04 2384.19 572.14 2383.59 569.24H2384.29Z" fill="black"/>
<path d="M2467.09 709.34C2463.09 749.84 2452.09 785.74 2437.69 805.44C2416.19 834.84 2387.09 836.94 2368.29 832.64C2353.79 902.74 2333.29 957.84 2307.59 996.44C2305.79 999.14 2303.49 1002.24 2300.69 1005.64C2295.69 1011.64 2289.19 1018.64 2281.19 1026.14C2237.99 1066.84 2153.39 1122.64 2051.49 1122.64H2051.19C1991.29 1122.64 1936.09 1106.44 1887.09 1074.54C1865.39 1060.44 1848.19 1045.34 1834.99 1031.64C1827.79 1024.14 1821.79 1017.04 1816.79 1010.74C1809.99 1002.04 1805.19 994.74 1802.29 990.04C1777.89 949.84 1759.49 850.04 1753.59 815.34C1736.89 821.34 1722.79 821.14 1710.79 814.84C1681.69 799.74 1671.89 752.34 1661.99 691.94C1653.69 640.84 1667.89 614.94 1681.29 602.14C1693.29 590.74 1709.49 585.04 1727.09 585.84C1727.49 585.84 1727.89 585.84 1728.29 585.84C1731.09 586.04 1733.89 586.34 1736.69 586.84C1737.09 586.84 1737.49 586.94 1737.89 587.04C1738.49 587.04 1739.09 587.24 1739.69 587.34C1741.89 587.84 1743.69 589.04 1744.99 590.54C1744.99 590.54 1744.99 590.64 1745.09 590.74C1746.79 592.84 1747.49 595.64 1746.89 598.44C1746.79 599.04 1746.59 599.54 1746.39 600.04C1745.79 601.44 1744.89 602.74 1743.69 603.64C1742.29 604.84 1740.49 605.54 1738.69 605.74C1737.69 605.84 1736.69 605.74 1735.69 605.54C1733.49 605.04 1731.29 604.74 1729.09 604.54C1715.59 603.24 1703.09 607.04 1694.29 615.44C1679.79 629.24 1674.99 654.54 1680.59 688.64C1688.99 739.94 1698.29 786.94 1719.49 797.94C1728.59 802.64 1740.79 801.14 1756.89 793.34C1759.59 792.04 1762.69 792.14 1765.29 793.44C1767.89 794.84 1769.79 797.34 1770.19 800.34C1770.39 801.64 1791.19 935.14 1818.29 979.94C1821.19 984.74 1826.09 992.14 1833.19 1001.04C1833.39 1001.24 1833.59 1001.44 1833.79 1001.74C1846.99 1018.04 1867.49 1039.14 1897.29 1058.54C1943.19 1088.34 1994.99 1103.54 2051.19 1103.64H2051.39C2161.69 1103.64 2252.49 1032.24 2283.89 996.14C2284.09 995.94 2284.29 995.74 2284.49 995.44C2287.59 991.84 2290.09 988.64 2291.89 985.84C2317.49 947.34 2337.69 891.04 2351.89 818.34C2352.49 815.54 2354.29 813.04 2356.89 811.74C2359.49 810.44 2362.49 810.44 2365.09 811.64C2366.39 812.24 2398.69 826.54 2422.49 794.14C2434.79 777.34 2444.69 744.04 2448.39 707.34C2451.89 672.54 2448.69 641.84 2440.59 630.94C2431.39 618.54 2413.09 615.34 2398.19 617.54C2396.59 617.74 2394.89 618.04 2393.39 618.44C2391.69 618.84 2389.99 618.74 2388.49 618.24C2385.69 617.34 2383.39 615.14 2382.39 612.24C2382.39 611.94 2382.19 611.64 2382.19 611.44C2381.99 610.74 2381.99 610.04 2381.99 609.34C2381.99 608.64 2381.99 609.04 2381.99 608.94C2382.09 605.34 2384.39 602.04 2387.79 600.64C2388.29 600.44 2388.79 600.24 2389.29 600.14C2389.89 600.04 2390.49 599.84 2391.09 599.74C2391.59 599.64 2392.09 599.54 2392.49 599.44C2394.99 598.94 2397.69 598.64 2400.29 598.34C2400.89 598.34 2401.59 598.34 2402.29 598.24C2421.79 597.14 2443.29 602.94 2455.69 619.74C2472.29 642.14 2468.59 693.84 2466.99 709.14L2467.09 709.34Z" fill="black"/>
<path d="M1735.29 768.239C1725.89 768.239 1710.59 763.939 1696.79 740.539C1694.19 736.139 1695.59 730.339 1700.09 727.739C1704.59 725.139 1710.29 726.539 1712.89 731.039C1720.59 744.039 1729.69 750.939 1737.09 749.439C1739.79 748.839 1741.39 747.339 1741.89 746.339C1741.59 746.139 1741.09 745.939 1740.49 745.839C1726.79 741.839 1717.89 729.039 1716.69 711.439C1715.59 694.839 1721.69 674.839 1735.49 668.739C1740.19 666.639 1745.79 668.739 1747.89 673.539C1749.99 678.239 1747.89 683.839 1743.09 685.939C1739.49 687.539 1734.59 698.039 1735.39 710.239C1735.69 714.739 1737.29 725.439 1745.69 727.839C1756.99 731.039 1760.89 739.339 1760.89 746.039C1760.89 755.539 1753.09 764.539 1742.59 767.439C1741.09 767.839 1738.59 768.339 1735.39 768.339L1735.29 768.239Z" fill="black"/>
<path d="M1700.49 688.939C1695.49 688.939 1691.29 684.939 1691.09 679.939C1689.99 651.139 1695.69 641.939 1710.99 624.939C1714.49 621.039 1720.39 620.739 1724.19 624.239C1727.99 627.739 1728.39 633.639 1724.89 637.439C1712.19 651.539 1708.99 656.139 1709.79 679.139C1709.99 684.339 1705.99 688.639 1700.79 688.839C1700.69 688.839 1700.59 688.839 1700.39 688.839L1700.49 688.939Z" fill="black"/>
<path d="M2434.59 730.039C2433.89 728.439 2432.79 726.939 2431.39 725.939C2431.19 725.839 2430.99 725.639 2430.79 725.539C2430.09 725.139 2429.29 724.839 2428.49 724.639C2427.79 724.439 2427.19 724.339 2426.49 724.339C2422.19 724.139 2418.19 726.939 2417.09 731.339C2414.89 739.739 2409.89 745.939 2402.09 749.739C2400.59 750.539 2399.09 751.039 2397.59 751.539C2397.39 751.539 2397.29 751.539 2397.19 751.639C2401.69 744.539 2404.09 735.639 2404.59 726.339C2405.39 712.939 2402.19 698.539 2395.69 687.439C2395.09 686.339 2394.29 685.539 2393.39 684.739C2393.19 684.639 2392.99 684.439 2392.89 684.339C2392.69 684.239 2392.49 684.039 2392.29 683.939C2392.19 683.939 2392.09 683.839 2391.99 683.739C2389.29 682.339 2385.89 682.339 2382.99 683.939C2378.49 686.539 2376.99 692.239 2379.59 696.739C2389.39 713.639 2387.79 739.639 2376.59 746.439C2372.19 749.139 2370.09 752.139 2369.19 754.839C2368.29 757.639 2368.69 760.139 2369.09 761.539C2369.99 764.639 2372.09 767.139 2375.09 768.939C2375.39 769.139 2375.69 769.339 2376.09 769.439C2379.29 770.939 2383.29 771.739 2388.09 771.739H2388.49C2403.19 771.639 2419.79 764.639 2429.29 749.639C2431.79 745.639 2433.89 741.139 2435.19 735.939C2435.69 733.839 2435.59 731.839 2434.79 729.939L2434.59 730.039Z" fill="black"/>
<path d="M2425.29 677.04C2424.69 677.04 2424.09 677.04 2423.49 676.84C2418.39 675.84 2415.09 670.94 2416.09 665.84C2419.09 650.64 2406.19 646.94 2406.09 646.94C2401.09 645.64 2397.99 640.64 2399.29 635.54C2400.59 630.54 2405.59 627.44 2410.69 628.74C2422.39 631.64 2439.19 645.34 2434.49 669.44C2433.59 673.94 2429.69 677.04 2425.29 677.04Z" fill="black"/>
<path d="M2300.79 1002.34V1005.54C2300.69 1005.54 2296.79 1112.54 2296.79 1112.54L2296.09 1131.74V1135.34C2295.99 1135.34 2295.89 1136.84 2295.89 1136.84C2295.69 1141.94 2291.59 1145.84 2286.49 1145.84C2281.39 1145.84 2286.29 1145.84 2286.19 1145.84C2282.29 1145.74 2279.09 1143.24 2277.79 1139.94C2277.79 1139.94 2277.79 1139.94 2277.79 1139.84V1139.64C2277.79 1139.44 2277.59 1139.14 2277.59 1138.94C2277.59 1138.64 2277.49 1138.44 2277.39 1138.14C2277.39 1137.94 2277.39 1137.64 2277.39 1137.34C2277.39 1136.94 2277.39 1136.64 2277.39 1136.24L2277.99 1120.54C2277.99 1120.44 2277.99 1120.34 2277.99 1120.24L2281.39 1026.04L2282.29 1001.64C2282.29 999.64 2283.09 997.74 2284.19 996.24C2284.39 996.04 2284.59 995.84 2284.79 995.54C2286.59 993.64 2289.09 992.54 2291.89 992.64C2297.09 992.84 2301.09 997.14 2300.89 1002.34H2300.79Z" fill="black"/>
<path d="M1835.59 1007.74L1834.99 1031.54L1831.19 1174.84C1831.19 1175.44 1831.19 1176.04 1830.99 1176.64C1830.99 1176.84 1830.89 1177.14 1830.79 1177.34C1830.79 1177.44 1830.79 1177.64 1830.69 1177.74C1830.69 1177.94 1830.59 1178.14 1830.49 1178.34C1830.49 1178.44 1830.49 1178.54 1830.29 1178.64C1830.09 1179.04 1829.89 1179.44 1829.59 1179.74C1829.59 1179.84 1829.39 1179.94 1829.39 1180.04C1829.29 1180.24 1829.19 1180.34 1828.99 1180.54C1828.99 1180.54 1828.79 1180.74 1828.69 1180.84C1828.49 1181.04 1828.29 1181.24 1827.99 1181.44C1827.79 1181.64 1827.49 1181.84 1827.29 1182.04C1825.79 1183.14 1823.79 1183.84 1821.79 1183.84H1821.59C1816.39 1183.74 1812.29 1179.44 1812.49 1174.24V1169.74C1812.59 1169.74 1813.39 1140.74 1813.39 1140.74L1813.89 1121.34L1816.89 1010.64V1007.24C1817.09 1002.04 1821.49 998.04 1826.59 998.14C1829.29 998.14 1831.69 999.439 1833.39 1001.34C1833.59 1001.54 1833.79 1001.74 1833.99 1002.04C1835.19 1003.64 1835.89 1005.64 1835.79 1007.84L1835.59 1007.74Z" fill="black"/>
<path d="M2388.89 1243.44C2388.89 1243.24 2388.89 1243.14 2388.79 1242.94C2388.39 1241.44 2387.89 1239.94 2387.19 1238.64C2386.59 1237.54 2385.99 1236.44 2385.39 1235.14C2383.29 1231.04 2380.69 1225.94 2377.89 1220.24C2377.49 1219.34 2376.99 1218.44 2376.49 1217.54C2369.79 1204.34 2363.29 1191.34 2357.19 1179.64C2357.19 1179.44 2356.99 1179.34 2356.89 1179.14C2344.99 1156.44 2334.59 1138.24 2327.59 1130.44C2323.49 1125.94 2318.99 1122.44 2314.59 1119.84C2314.29 1119.64 2313.99 1119.54 2313.69 1119.34C2312.89 1118.94 2312.19 1118.54 2311.49 1118.14C2311.19 1117.94 2310.89 1117.84 2310.49 1117.64C2305.59 1115.24 2300.99 1113.74 2297.19 1112.84C2297.19 1112.84 2296.99 1112.84 2296.89 1112.84C2293.19 1111.94 2290.19 1111.64 2288.69 1111.54C2287.99 1111.54 2287.59 1111.54 2287.49 1111.54C2285.39 1111.54 2283.49 1112.04 2281.99 1113.14C2281.09 1113.74 2280.29 1114.44 2279.69 1115.34C2278.99 1116.24 2278.49 1117.24 2278.19 1118.34C2277.99 1119.04 2277.89 1119.84 2277.89 1120.64C2277.89 1120.74 2277.89 1120.84 2277.89 1120.94C2277.89 1121.54 2277.89 1122.24 2278.09 1122.84C2278.59 1125.34 2280.09 1127.44 2282.19 1128.84C2282.19 1128.84 2282.39 1128.84 2282.39 1128.94C2282.69 1129.14 2283.09 1129.34 2283.39 1129.44C2283.49 1129.44 2283.59 1129.44 2283.69 1129.54C2283.79 1129.54 2283.99 1129.64 2284.09 1129.64C2284.99 1129.94 2285.89 1130.14 2286.89 1130.14C2286.89 1130.14 2287.79 1130.14 2289.19 1130.34C2290.49 1130.54 2292.29 1130.84 2294.29 1131.44C2294.29 1131.44 2294.39 1131.44 2294.49 1131.44C2294.99 1131.54 2295.59 1131.74 2296.09 1131.94C2296.09 1131.94 2296.29 1131.94 2296.39 1131.94C2298.69 1132.74 2301.29 1133.74 2303.99 1135.24C2304.29 1135.44 2304.59 1135.54 2304.89 1135.74C2305.29 1135.94 2305.69 1136.24 2305.99 1136.44C2308.59 1138.14 2311.29 1140.24 2313.69 1142.94C2319.79 1149.64 2330.49 1168.94 2340.99 1189.14C2340.99 1189.34 2341.19 1189.44 2341.29 1189.64C2347.99 1202.44 2354.49 1215.44 2359.69 1225.84C2360.59 1227.74 2361.49 1229.54 2362.39 1231.24C2362.79 1231.94 2363.09 1232.54 2363.39 1233.24C2366.09 1238.54 2368.39 1243.14 2370.29 1246.74C2370.39 1246.94 2370.49 1247.14 2370.59 1247.34C2371.29 1249.24 2371.49 1260.24 2360.59 1282.44C2337.69 1329.14 2284.89 1386.84 2199.49 1431.54C2195.89 1433.44 2192.19 1435.34 2188.49 1437.14C2185.69 1438.54 2182.79 1439.94 2179.89 1441.24C2158.09 1451.54 2134.39 1460.94 2108.79 1469.24C2108.79 1466.74 2108.79 1463.94 2108.79 1460.84C2108.79 1449.54 2108.49 1434.74 2107.59 1419.14C2105.39 1382.64 2100.69 1357.34 2093.19 1342.64C2091.59 1339.44 2089.89 1336.84 2087.99 1334.64C2087.49 1334.04 2087.09 1333.54 2086.59 1333.04C2080.99 1327.34 2075.09 1326.04 2071.09 1326.04H2070.99C2070.79 1326.04 2070.59 1326.04 2070.49 1326.04C2070.29 1326.04 2070.09 1326.04 2069.99 1326.04C2069.79 1326.04 2069.49 1326.04 2069.29 1326.04C2069.09 1326.04 2068.89 1326.04 2068.69 1326.24C2068.49 1326.24 2068.29 1326.34 2068.09 1326.44C2067.89 1326.44 2067.59 1326.64 2067.39 1326.74C2067.09 1326.84 2066.89 1326.94 2066.59 1327.14C2066.39 1327.24 2066.19 1327.34 2065.99 1327.54C2065.79 1327.64 2065.69 1327.74 2065.49 1327.94C2065.29 1328.14 2065.09 1328.34 2064.79 1328.54C2064.39 1328.94 2063.99 1329.44 2063.59 1329.84C2061.79 1332.24 2051.09 1346.54 2035.29 1376.84C2026.89 1392.94 2017.09 1413.44 2006.29 1439.04C2004.79 1442.54 2003.29 1446.24 2001.79 1449.94C1996.79 1462.14 1991.69 1475.44 1986.39 1489.94C1986.39 1490.14 1986.29 1490.34 1986.19 1490.54C1985.99 1491.24 1985.69 1491.84 1985.49 1492.54C1974.89 1521.64 1963.29 1557.04 1951.39 1599.04C1949.49 1605.64 1947.69 1612.44 1945.79 1619.34C1943.89 1626.44 1941.89 1633.74 1939.99 1641.24C1938.19 1648.04 1936.49 1654.94 1934.69 1662.04C1930.49 1678.94 1926.29 1696.74 1922.09 1715.34C1920.69 1721.44 1919.39 1727.54 1918.09 1733.84C1898.39 1825.44 1879.69 1936.94 1865.49 2070.74C1865.29 2072.64 1865.09 2074.54 1864.89 2076.44C1864.59 2079.14 1865.49 2081.64 1867.09 2083.54C1868.59 2085.24 1870.79 2086.44 1873.19 2086.74C1873.49 2086.74 1873.89 2086.74 1874.19 2086.74C1874.99 2086.74 1875.79 2086.74 1876.49 2086.44C1880.19 2085.54 1883.09 2082.34 1883.49 2078.34C1883.99 2073.54 1884.49 2068.84 1884.99 2064.14C1891.69 2002.54 1899.29 1945.84 1907.49 1893.74C1912.69 1860.84 1918.09 1829.74 1923.69 1800.44C1927.69 1779.14 1931.89 1758.74 1935.99 1739.34C1937.29 1733.14 1938.69 1727.04 1939.99 1721.04C1944.99 1698.44 1950.09 1677.04 1955.19 1656.94C1956.89 1650.14 1958.59 1643.44 1960.39 1636.94C1962.29 1629.54 1964.29 1622.44 1966.19 1615.44C1968.09 1608.74 1969.89 1602.14 1971.79 1595.74C1978.99 1570.94 1985.99 1548.54 1992.69 1528.54C1996.29 1517.84 1999.79 1507.94 2003.19 1498.54C2003.19 1498.34 2003.39 1498.04 2003.49 1497.84C2004.09 1496.24 2004.69 1494.64 2005.19 1493.04C2022.99 1444.84 2039.29 1409.54 2052.09 1385.14C2060.09 1369.84 2066.69 1358.84 2071.29 1351.64C2072.39 1349.84 2073.39 1348.34 2074.29 1347.04C2078.29 1352.24 2085.99 1368.74 2088.99 1419.94C2090.89 1451.74 2089.99 1481.24 2089.99 1481.54C2089.99 1481.84 2089.99 1482.04 2089.99 1482.34C2090.09 1485.04 2091.39 1487.64 2093.59 1489.34C2095.99 1491.14 2099.09 1491.74 2101.99 1490.94C2128.79 1482.94 2154.29 1473.54 2178.19 1462.84C2184.79 1459.84 2191.39 1456.84 2197.79 1453.64C2235.39 1435.14 2268.99 1413.14 2298.49 1387.84C2336.89 1354.84 2367.29 1316.04 2381.89 1281.24C2385.09 1273.54 2388.29 1264.24 2389.39 1255.64C2389.99 1251.24 2389.99 1247.04 2389.09 1243.34L2388.89 1243.44Z" fill="black"/>
<path d="M2070.89 1344.84C2065.89 1344.84 2061.69 1340.84 2061.49 1335.74C2061.29 1330.54 2065.39 1326.24 2070.59 1326.04C2143.89 1323.84 2210.39 1264.64 2248.09 1210.04C2274.29 1172.14 2280.19 1146.74 2277.69 1139.54C2275.99 1134.64 2278.59 1129.34 2283.49 1127.64C2288.39 1125.94 2293.69 1128.54 2295.39 1133.44C2302.29 1153.64 2283.49 1191.74 2263.49 1220.64C2223.19 1279.04 2151.49 1342.24 2071.09 1344.64C2071.09 1344.64 2070.89 1344.64 2070.79 1344.64L2070.89 1344.84Z" fill="black"/>
<path d="M1994.29 1504.34C1993.79 1504.34 1993.39 1504.34 1992.89 1504.24C1987.79 1503.44 1984.29 1498.74 1984.99 1493.54C1995.19 1425.94 1975.39 1356.84 1957.99 1351.04C1933.39 1342.74 1894.59 1320.44 1863.69 1296.94C1834.99 1275.14 1799.89 1242.44 1795.39 1210.94C1793.69 1198.64 1795.89 1181.04 1816.29 1166.84C1820.49 1163.84 1826.39 1164.94 1829.29 1169.14C1832.29 1173.34 1831.19 1179.24 1826.99 1182.14C1816.59 1189.34 1812.49 1197.64 1813.99 1208.14C1816.79 1227.54 1838.99 1254.44 1875.09 1281.84C1909.49 1308.04 1945.29 1326.74 1963.99 1333.04C1997.79 1344.44 2013.19 1431.54 2003.49 1496.14C2002.79 1500.74 1998.79 1504.14 1994.19 1504.14L1994.29 1504.34Z" fill="black"/>
<path d="M1966.39 1349.84C1964.19 1351.44 1961.49 1351.84 1958.99 1351.24C1953.49 1356.24 1940.79 1373.34 1927.09 1401.64C1912.39 1432.04 1904.39 1459.74 1906.29 1473.94C1906.69 1477.44 1905.19 1480.94 1902.29 1482.84C1900.69 1483.94 1898.89 1484.44 1896.99 1484.44C1895.09 1484.44 1893.89 1484.04 1892.49 1483.24C1890.69 1482.24 1846.99 1457.94 1798.99 1417.04C1733.99 1361.64 1694.69 1305.04 1682.09 1248.74C1682.09 1248.74 1682.09 1248.54 1682.09 1248.44C1681.49 1245.74 1680.59 1240.04 1686.59 1227.84C1690.49 1219.84 1697.39 1209.04 1709.29 1194.54C1725.39 1174.94 1745.69 1154.54 1761.09 1142.74C1776.19 1131.14 1802.39 1123.94 1813.89 1121.24C1817.09 1120.44 1819.19 1120.04 1819.49 1119.94C1824.59 1118.94 1829.49 1122.24 1830.49 1127.24C1831.49 1132.34 1828.19 1137.24 1823.09 1138.24C1820.79 1138.74 1817.29 1139.54 1813.29 1140.54C1800.69 1143.84 1782.29 1149.84 1772.39 1157.54C1758.39 1168.34 1739.59 1187.14 1724.49 1205.44C1710.89 1221.94 1704.59 1232.74 1701.99 1238.94C1701.99 1238.94 1701.99 1238.94 1701.99 1239.04C1701.89 1239.24 1701.79 1239.54 1701.69 1239.74C1700.59 1242.34 1700.29 1244.04 1700.39 1244.74C1714.89 1309.54 1768.49 1366.34 1810.89 1402.54C1841.89 1428.94 1871.59 1448.54 1888.09 1458.84C1891.39 1434.34 1904.39 1405.34 1910.89 1392.14C1914.09 1385.54 1927.29 1359.34 1940.59 1343.64C1945.19 1338.14 1949.79 1333.94 1954.09 1332.34C1955.99 1331.64 1957.89 1331.34 1959.69 1331.44C1962.19 1331.54 1964.49 1332.44 1966.49 1333.94C1967.39 1334.64 1968.29 1335.54 1968.99 1336.64C1971.99 1340.84 1970.89 1346.74 1966.69 1349.64L1966.39 1349.84Z" fill="black"/>
<path d="M3201.79 3129.64H3182.99C3170.69 2991.84 3171.09 2792.04 3175.89 2630.84C3181.69 2437.74 3187.59 2238.14 3167.49 2060.04C3158.89 1983.74 3145.89 1916.14 3128.29 1856.94C3128.29 1856.94 3128.29 1856.94 3128.29 1856.84C3114.59 1810.64 3097.99 1769.54 3078.69 1733.34C3065.79 1709.14 3051.49 1687.14 3035.99 1667.24C3035.19 1666.14 3034.29 1665.04 3033.49 1664.04C3024.39 1652.64 3014.89 1641.84 3004.89 1631.84C2911.69 1538.34 2782.89 1449.04 2660.89 1379.84C2633.69 1364.34 2606.79 1349.94 2580.69 1336.64C2506.79 1298.94 2439.39 1270.64 2389.29 1255.64C2388.69 1255.44 2387.99 1255.24 2387.39 1255.04C2384.49 1254.14 2381.69 1253.34 2378.89 1252.64C2378.09 1252.44 2377.29 1252.24 2376.59 1252.04C2375.89 1251.84 2375.29 1251.64 2374.69 1251.24C2374.49 1251.14 2374.29 1250.94 2373.99 1250.84C2372.59 1249.94 2371.49 1248.74 2370.79 1247.34C2370.69 1247.14 2370.59 1246.94 2370.49 1246.64C2370.39 1246.34 2370.29 1246.04 2370.19 1245.74C2369.69 1244.14 2369.59 1242.34 2370.19 1240.64C2370.49 1239.64 2370.89 1238.64 2371.49 1237.84C2373.69 1234.64 2377.69 1233.04 2381.69 1234.04C2381.89 1234.04 2381.99 1234.04 2382.19 1234.14C2383.39 1234.44 2384.49 1234.74 2385.69 1235.14H2385.89C2427.99 1246.84 2481.39 1268.04 2540.09 1295.84C2541.79 1296.64 2543.49 1297.44 2545.19 1298.24C2550.19 1300.64 2555.19 1303.04 2560.29 1305.54C2560.29 1305.54 2560.49 1305.54 2560.59 1305.64C2569.19 1309.84 2577.79 1314.14 2586.59 1318.64C2614.49 1332.84 2643.09 1348.24 2671.99 1364.74C2677.39 1367.84 2682.89 1370.94 2688.29 1374.14C2820.89 1451.24 2938.19 1538.04 3018.69 1618.74C3031.99 1632.04 3044.59 1646.64 3056.39 1662.54C3056.59 1662.74 3056.69 1662.94 3056.89 1663.14C3057.99 1664.54 3058.99 1666.04 3060.09 1667.54C3072.99 1685.34 3085.09 1704.64 3096.19 1725.34C3109.99 1751.14 3122.29 1779.14 3133.19 1809.24C3140.19 1828.84 3146.69 1849.34 3152.59 1870.84C3152.59 1870.84 3152.59 1870.94 3152.59 1871.04C3167.69 1926.14 3178.89 1987.94 3186.79 2058.04C3206.99 2237.44 3201.09 2437.74 3195.29 2631.44C3190.49 2792.74 3190.09 2992.94 3202.49 3129.74L3201.79 3129.64Z" fill="black"/>
<path d="M2154.19 2140.54C2128.89 2162.04 2067.79 2177.24 1996.49 2177.24C1925.19 2177.24 1863.99 2162.04 1838.69 2140.54C1863.99 2119.04 1925.09 2103.84 1996.49 2103.84C2067.89 2103.84 2128.99 2119.04 2154.19 2140.54Z" fill="black"/>
<path d="M1883.69 2108.84C1884.19 2108.64 1884.79 2108.54 1885.29 2108.44C1884.79 2108.54 1884.19 2108.74 1883.69 2108.84ZM1864.19 2115.44C1864.19 2115.44 1864.29 2115.44 1864.39 2115.44C1864.39 2115.44 1864.29 2115.44 1864.19 2115.44ZM1855.19 2119.34C1854.69 2119.54 1854.29 2119.74 1853.79 2120.04C1853.09 2120.34 1852.49 2120.64 1851.89 2120.94C1851.19 2121.24 1850.49 2121.64 1849.79 2121.94C1848.89 2122.44 1847.99 2122.84 1847.19 2123.34C1846.29 2123.84 1845.49 2124.34 1844.69 2124.84C1844.09 2125.14 1843.59 2125.54 1842.99 2125.84C1842.39 2126.14 1841.89 2126.54 1841.39 2126.84C1840.99 2127.14 1840.59 2127.34 1840.19 2127.64C1839.99 2127.74 1839.79 2127.84 1839.69 2128.04C1837.69 2125.44 1836.39 2122.94 1835.89 2120.54L1836.59 2129.34V2130.14L1838.29 2149.74C1840.59 2149.84 1842.89 2149.14 1844.79 2147.54C1845.39 2147.04 1845.89 2146.54 1846.49 2146.14C1848.69 2144.34 1851.19 2142.64 1853.99 2141.04C1854.19 2137.34 1854.39 2133.64 1854.59 2130.04C1854.79 2126.44 1854.99 2122.84 1855.19 2119.34C1855.89 2118.94 1856.69 2118.64 1857.39 2118.34C1856.59 2118.64 1855.89 2119.04 1855.19 2119.34ZM1883.69 2108.84C1884.19 2108.64 1884.79 2108.54 1885.29 2108.34C1884.79 2108.44 1884.19 2108.64 1883.69 2108.74V2108.84ZM1864.39 2115.44C1864.39 2115.44 1864.29 2115.44 1864.19 2115.44C1864.19 2115.44 1864.29 2115.44 1864.39 2115.44ZM1853.79 2120.04C1854.29 2119.84 1854.69 2119.64 1855.19 2119.34C1855.89 2118.94 1856.69 2118.64 1857.39 2118.34C1856.59 2118.64 1855.89 2119.04 1855.19 2119.34C1854.69 2119.54 1854.29 2119.74 1853.79 2120.04ZM1836.49 2129.44V2130.24C1837.49 2129.54 1838.49 2128.84 1839.49 2128.14C1837.49 2125.54 1836.19 2123.04 1835.69 2120.64L1836.39 2129.44H1836.49ZM2175.99 2117.94C2175.39 2073.94 2083.19 2050.24 1996.39 2050.24C1909.59 2050.24 1919.19 2054.84 1887.29 2063.64C1886.39 2063.84 1885.59 2064.14 1884.69 2064.34C1882.29 2065.04 1879.99 2065.74 1877.69 2066.44C1874.29 2067.54 1870.99 2068.64 1867.89 2069.84C1866.99 2070.24 1865.99 2070.54 1865.09 2070.94C1862.79 2071.84 1860.49 2072.74 1858.29 2073.74C1832.99 2084.84 1816.69 2099.84 1816.69 2118.44C1816.69 2137.04 1816.79 2121.54 1817.09 2123.14C1818.39 2131.74 1823.49 2139.94 1832.09 2147.34C1832.19 2147.44 1832.29 2147.54 1832.49 2147.64C1834.09 2149.04 1836.09 2149.74 1838.09 2149.84C1840.39 2149.94 1842.69 2149.24 1844.59 2147.64C1845.19 2147.14 1845.69 2146.64 1846.29 2146.24C1848.49 2144.44 1850.99 2142.74 1853.79 2141.14C1854.19 2140.94 1854.49 2140.74 1854.89 2140.54C1856.09 2139.84 1857.29 2139.14 1858.59 2138.54C1859.09 2138.24 1859.69 2137.94 1860.19 2137.74C1860.59 2137.54 1860.99 2137.34 1861.39 2137.14C1861.89 2136.84 1862.39 2136.64 1862.99 2136.34C1864.49 2135.64 1865.99 2134.94 1867.49 2134.34C1868.09 2134.14 1868.59 2133.84 1869.19 2133.64C1869.79 2133.34 1870.49 2133.14 1871.09 2132.84C1871.69 2132.54 1872.39 2132.34 1872.99 2132.04C1874.99 2131.24 1876.99 2130.54 1879.09 2129.84C1879.79 2129.64 1880.49 2129.34 1881.19 2129.14C1881.49 2129.14 1881.79 2128.94 1882.09 2128.84C1882.49 2128.74 1882.99 2128.54 1883.39 2128.44C1884.09 2128.24 1884.89 2127.94 1885.59 2127.74C1886.29 2127.54 1887.09 2127.24 1887.79 2127.04C1890.79 2126.14 1893.89 2125.34 1897.09 2124.54C1897.89 2124.34 1898.69 2124.14 1899.49 2123.94C1901.89 2123.34 1904.39 2122.74 1906.99 2122.24C1907.79 2122.04 1908.59 2121.84 1909.39 2121.74C1910.29 2121.54 1911.19 2121.34 1912.09 2121.14C1912.99 2120.94 1913.79 2120.84 1914.69 2120.64C1915.59 2120.44 1916.39 2120.34 1917.29 2120.14C1918.19 2119.94 1918.99 2119.84 1919.89 2119.64C1922.59 2119.14 1925.29 2118.74 1928.09 2118.34C1928.69 2118.24 1929.29 2118.14 1929.89 2118.04C1930.99 2117.84 1932.19 2117.74 1933.29 2117.54C1934.09 2117.44 1934.89 2117.34 1935.79 2117.24C1936.19 2117.24 1936.69 2117.14 1937.09 2117.04C1937.79 2117.04 1938.59 2116.84 1939.29 2116.74C1945.59 2115.94 1952.09 2115.24 1958.69 2114.74C1959.59 2114.74 1960.39 2114.64 1961.29 2114.54C1962.09 2114.54 1962.89 2114.44 1963.69 2114.34C1964.59 2114.34 1965.59 2114.24 1966.49 2114.14C1967.39 2114.14 1968.29 2114.04 1969.09 2113.94C1972.99 2113.74 1976.99 2113.54 1981.09 2113.44C1981.99 2113.44 1982.89 2113.44 1983.79 2113.44C1984.79 2113.44 1985.79 2113.44 1986.79 2113.44C1989.89 2113.44 1993.09 2113.44 1996.19 2113.44C1999.29 2113.44 2002.49 2113.44 2005.59 2113.44C2006.59 2113.44 2007.59 2113.44 2008.59 2113.44C2009.49 2113.44 2010.39 2113.44 2011.29 2113.44C2013.49 2113.44 2015.69 2113.64 2017.79 2113.64C2018.49 2113.64 2019.29 2113.64 2019.99 2113.74C2021.09 2113.74 2022.19 2113.84 2023.19 2113.94C2024.09 2113.94 2024.99 2113.94 2025.79 2114.14C2026.79 2114.14 2027.69 2114.24 2028.59 2114.34C2029.39 2114.34 2030.19 2114.44 2030.99 2114.54C2031.89 2114.54 2032.69 2114.64 2033.59 2114.74C2038.39 2115.14 2043.09 2115.54 2047.69 2116.14C2048.49 2116.14 2049.39 2116.34 2050.19 2116.44C2051.19 2116.54 2052.09 2116.64 2052.99 2116.84C2053.69 2116.84 2054.39 2117.04 2055.19 2117.14C2055.59 2117.14 2056.09 2117.24 2056.49 2117.34C2057.29 2117.44 2058.19 2117.54 2058.99 2117.64C2060.19 2117.84 2061.29 2117.94 2062.39 2118.14C2062.99 2118.14 2063.59 2118.34 2064.19 2118.44C2072.99 2119.74 2081.29 2121.34 2089.19 2123.24C2089.89 2123.44 2090.59 2123.54 2091.29 2123.74C2096.69 2125.04 2101.79 2126.44 2106.69 2127.94C2107.39 2128.14 2108.19 2128.34 2108.89 2128.64C2109.59 2128.84 2110.29 2129.14 2111.09 2129.34C2111.79 2129.54 2112.49 2129.84 2113.19 2130.04C2115.99 2131.04 2118.69 2132.04 2121.29 2133.04C2121.89 2133.34 2122.59 2133.54 2123.19 2133.84C2123.79 2134.04 2124.29 2134.34 2124.89 2134.54C2126.99 2135.44 2128.99 2136.34 2130.99 2137.34C2131.39 2137.54 2131.79 2137.74 2132.19 2137.94C2132.69 2138.24 2133.29 2138.54 2133.79 2138.74C2135.09 2139.44 2136.29 2140.04 2137.49 2140.74C2140.69 2142.54 2143.49 2144.44 2145.99 2146.44C2146.59 2146.94 2147.19 2147.34 2147.69 2147.84C2149.49 2149.34 2151.59 2150.04 2153.79 2150.04C2155.99 2150.04 2154.09 2150.04 2154.19 2150.04C2156.19 2150.04 2158.19 2149.24 2159.79 2147.84C2159.89 2147.74 2159.99 2147.64 2160.19 2147.54C2168.89 2140.04 2173.89 2131.94 2175.19 2123.24C2175.39 2121.64 2175.49 2120.14 2175.49 2118.64C2175.49 2117.14 2175.49 2118.34 2175.49 2118.14L2175.99 2117.94ZM1856.79 2095.44C1859.69 2093.84 1862.79 2092.34 1866.29 2090.84C1869.39 2089.44 1872.69 2088.14 1876.29 2086.84C1879.29 2085.74 1882.39 2084.64 1885.69 2083.64C1913.09 2075.04 1950.69 2068.94 1996.49 2068.94C2095.59 2068.94 2156.69 2097.44 2157.29 2118.04C2157.29 2118.14 2157.29 2118.24 2157.29 2118.34C2157.29 2119.04 2157.29 2119.74 2157.09 2120.54C2156.59 2123.04 2155.39 2125.54 2153.29 2128.04C2153.09 2127.94 2152.89 2127.84 2152.79 2127.64C2152.39 2127.34 2151.99 2127.14 2151.59 2126.84C2151.09 2126.44 2150.49 2126.14 2149.99 2125.84C2149.49 2125.54 2148.89 2125.14 2148.29 2124.84C2147.49 2124.34 2146.59 2123.84 2145.79 2123.34C2144.89 2122.84 2144.09 2122.34 2143.19 2121.94C2142.49 2121.54 2141.79 2121.24 2141.09 2120.94C2140.49 2120.64 2139.79 2120.34 2139.19 2120.04C2138.19 2119.54 2137.29 2119.14 2136.29 2118.64C2135.29 2118.14 2134.29 2117.74 2133.29 2117.34C2132.09 2116.84 2130.79 2116.24 2129.49 2115.74C2129.39 2115.74 2129.19 2115.64 2129.09 2115.54C2128.39 2115.24 2127.69 2114.94 2126.89 2114.64C2125.99 2114.34 2125.19 2113.94 2124.29 2113.64C2123.69 2113.44 2123.09 2113.14 2122.39 2112.94C2120.89 2112.34 2119.29 2111.84 2117.79 2111.34C2117.09 2111.14 2116.39 2110.94 2115.69 2110.64C2114.59 2110.34 2113.59 2109.94 2112.49 2109.64C2109.39 2108.74 2106.19 2107.74 2102.99 2106.94C2100.39 2106.24 2097.79 2105.54 2095.09 2104.94C2094.29 2104.74 2093.39 2104.54 2092.49 2104.34C2086.09 2102.84 2079.49 2101.54 2072.69 2100.44C2071.69 2100.24 2070.79 2100.14 2069.79 2099.94C2068.09 2099.64 2066.39 2099.44 2064.59 2099.14C2064.19 2099.14 2063.79 2099.04 2063.49 2098.94C2062.59 2098.84 2061.79 2098.74 2060.89 2098.54C2059.89 2098.44 2058.89 2098.24 2057.89 2098.14C2057.09 2098.04 2056.19 2097.94 2055.39 2097.84C2054.19 2097.74 2052.99 2097.54 2051.79 2097.44C2050.79 2097.34 2049.69 2097.24 2048.69 2097.14C2046.49 2096.94 2044.29 2096.64 2041.99 2096.44C2040.39 2096.34 2038.69 2096.14 2037.09 2096.04C2034.29 2095.84 2031.59 2095.64 2028.79 2095.44C2027.99 2095.44 2027.29 2095.34 2026.59 2095.34C2025.89 2095.34 2025.09 2095.34 2024.39 2095.24C2023.59 2095.24 2022.79 2095.24 2021.99 2095.14C2021.29 2095.14 2020.59 2095.14 2019.89 2095.14C2018.89 2095.14 2017.79 2095.14 2016.79 2095.04C2014.59 2095.04 2012.39 2094.84 2010.19 2094.84C2009.49 2094.84 2008.69 2094.84 2007.99 2094.84C2007.39 2094.84 2006.79 2094.84 2006.09 2094.84C2005.09 2094.84 2003.99 2094.84 2002.99 2094.84C2000.99 2094.84 1998.89 2094.84 1996.79 2094.84C1994.69 2094.84 1992.69 2094.84 1990.59 2094.84C1989.59 2094.84 1988.49 2094.84 1987.49 2094.84C1986.89 2094.84 1986.29 2094.84 1985.69 2094.84C1984.89 2094.84 1984.19 2094.84 1983.49 2094.84C1981.29 2094.84 1979.09 2094.94 1976.89 2095.04C1975.89 2095.04 1974.89 2095.04 1973.89 2095.14C1973.19 2095.14 1972.49 2095.14 1971.69 2095.14C1970.89 2095.14 1970.09 2095.14 1969.29 2095.24C1968.49 2095.24 1967.79 2095.24 1967.09 2095.34C1966.29 2095.34 1965.49 2095.34 1964.79 2095.44C1962.09 2095.64 1959.39 2095.84 1956.79 2096.04C1955.09 2096.14 1953.39 2096.34 1951.59 2096.44C1949.39 2096.64 1947.09 2096.84 1944.89 2097.14C1943.89 2097.24 1942.79 2097.34 1941.79 2097.44C1940.59 2097.54 1939.39 2097.74 1938.09 2097.84C1937.29 2097.94 1936.49 2098.04 1935.69 2098.14C1934.69 2098.24 1933.69 2098.44 1932.59 2098.54C1931.79 2098.64 1931.09 2098.74 1930.29 2098.84C1929.79 2098.84 1929.29 2098.94 1928.89 2099.04C1927.19 2099.34 1925.39 2099.54 1923.69 2099.84C1922.89 2099.94 1922.09 2100.04 1921.39 2100.24C1914.29 2101.44 1907.49 2102.74 1900.99 2104.24C1900.09 2104.44 1899.29 2104.64 1898.39 2104.84C1895.69 2105.44 1893.09 2106.14 1890.49 2106.84C1889.39 2107.14 1888.29 2107.44 1887.19 2107.74C1886.69 2107.84 1886.09 2108.04 1885.59 2108.24C1885.09 2108.34 1884.49 2108.54 1883.99 2108.64C1882.99 2108.94 1881.89 2109.24 1880.89 2109.54C1879.79 2109.84 1878.79 2110.24 1877.69 2110.54C1876.99 2110.74 1876.29 2110.94 1875.59 2111.24C1875.29 2111.24 1874.99 2111.44 1874.69 2111.54C1873.39 2111.94 1872.19 2112.44 1870.89 2112.84C1870.29 2113.04 1869.69 2113.24 1868.99 2113.54C1868.09 2113.84 1867.19 2114.14 1866.39 2114.54C1865.79 2114.74 1865.19 2115.04 1864.59 2115.24C1864.59 2115.24 1864.49 2115.24 1864.39 2115.24H1864.19C1864.09 2115.24 1863.89 2115.34 1863.79 2115.44C1862.49 2115.94 1861.19 2116.44 1859.99 2117.04C1859.19 2117.34 1858.49 2117.74 1857.69 2118.04C1856.89 2118.34 1856.19 2118.74 1855.49 2119.04C1854.99 2119.24 1854.59 2119.44 1854.09 2119.74C1853.39 2120.04 1852.79 2120.34 1852.19 2120.64C1851.49 2120.94 1850.79 2121.34 1850.09 2121.64C1849.19 2122.14 1848.29 2122.54 1847.49 2123.04C1846.59 2123.54 1845.79 2124.04 1844.99 2124.54C1844.39 2124.84 1843.89 2125.24 1843.29 2125.54C1842.69 2125.84 1842.19 2126.24 1841.69 2126.54C1841.29 2126.84 1840.89 2127.04 1840.49 2127.34C1840.29 2127.44 1840.09 2127.54 1839.99 2127.74C1837.99 2125.14 1836.69 2122.64 1836.19 2120.24C1836.09 2119.44 1835.99 2118.74 1835.99 2118.04C1835.99 2117.34 1835.99 2117.84 1835.99 2117.74C1836.19 2110.64 1843.59 2102.64 1857.19 2095.14L1856.79 2095.44ZM1835.79 2120.64L1836.49 2129.44V2130.24C1837.49 2129.54 1838.49 2128.84 1839.49 2128.14C1837.49 2125.54 1836.19 2123.04 1835.69 2120.64H1835.79ZM1855.19 2119.34C1854.69 2119.54 1854.29 2119.74 1853.79 2120.04C1854.29 2119.84 1854.69 2119.64 1855.19 2119.34C1855.89 2118.94 1856.69 2118.64 1857.39 2118.34C1856.59 2118.64 1855.89 2119.04 1855.19 2119.34ZM1864.19 2115.44C1864.19 2115.44 1864.29 2115.44 1864.39 2115.44C1864.39 2115.44 1864.29 2115.44 1864.19 2115.44ZM1883.69 2108.84C1884.19 2108.64 1884.79 2108.54 1885.29 2108.44C1884.79 2108.54 1884.19 2108.74 1883.69 2108.84ZM1855.19 2119.34C1854.69 2119.54 1854.29 2119.74 1853.79 2120.04C1853.09 2120.34 1852.49 2120.64 1851.89 2120.94C1851.19 2121.24 1850.49 2121.64 1849.79 2121.94C1848.89 2122.44 1847.99 2122.84 1847.19 2123.34C1846.29 2123.84 1845.49 2124.34 1844.69 2124.84C1844.09 2125.14 1843.59 2125.54 1842.99 2125.84C1842.39 2126.14 1841.89 2126.54 1841.39 2126.84C1840.99 2127.14 1840.59 2127.34 1840.19 2127.64C1839.99 2127.74 1839.79 2127.84 1839.69 2128.04C1837.69 2125.44 1836.39 2122.94 1835.89 2120.54L1836.59 2129.34V2130.14L1838.29 2149.74C1840.59 2149.84 1842.89 2149.14 1844.79 2147.54C1845.39 2147.04 1845.89 2146.54 1846.49 2146.14C1848.69 2144.34 1851.19 2142.64 1853.99 2141.04C1854.19 2137.34 1854.39 2133.64 1854.59 2130.04C1854.79 2126.44 1854.99 2122.84 1855.19 2119.34C1855.89 2118.94 1856.69 2118.64 1857.39 2118.34C1856.59 2118.64 1855.89 2119.04 1855.19 2119.34ZM1864.19 2115.44C1864.19 2115.44 1864.29 2115.44 1864.39 2115.44C1864.39 2115.44 1864.29 2115.44 1864.19 2115.44ZM1883.69 2108.84C1884.19 2108.64 1884.79 2108.54 1885.29 2108.44C1884.79 2108.54 1884.19 2108.74 1883.69 2108.84Z" fill="black"/>
<path d="M1996.39 2498.94C1956.99 2498.94 1919.89 2493.64 1891.79 2483.94C1851.79 2470.14 1843.39 2452.44 1843.39 2440.04C1843.39 2427.64 1847.59 2430.64 1852.79 2430.64C1857.99 2430.64 1862.19 2434.84 1862.19 2440.04C1862.19 2445.24 1871.59 2457.14 1897.99 2466.24C1924.19 2475.24 1959.09 2480.24 1996.49 2480.24C2033.89 2480.24 2068.79 2475.24 2094.99 2466.24C2121.39 2457.14 2130.79 2446.74 2130.79 2440.04C2130.79 2433.34 2134.99 2430.64 2140.19 2430.64C2145.39 2430.64 2149.59 2434.84 2149.59 2440.04C2149.59 2452.44 2141.19 2470.14 2101.19 2483.94C2073.09 2493.64 2035.99 2498.94 1996.59 2498.94H1996.39Z" fill="black"/>
<path d="M1996.39 2454.44C1921.19 2454.44 1859.09 2436.34 1841.89 2409.44C1839.09 2405.04 1840.39 2399.24 1844.79 2396.54C1849.19 2393.74 1854.99 2395.04 1857.69 2399.44C1868.89 2417.04 1921.29 2435.74 1996.39 2435.74C2071.49 2435.74 2123.79 2417.04 2135.09 2399.44C2137.89 2395.04 2143.69 2393.74 2147.99 2396.54C2152.39 2399.34 2153.59 2405.14 2150.89 2409.44C2133.79 2436.34 2071.69 2454.44 1996.39 2454.44Z" fill="black"/>
<path d="M2139.99 2449.34C2139.69 2449.34 2139.49 2449.34 2139.19 2449.34C2133.99 2448.94 2130.19 2444.34 2130.59 2439.24L2157.19 2117.64C2157.59 2112.44 2162.19 2108.64 2167.29 2109.04C2172.49 2109.44 2176.29 2114.04 2175.89 2119.14L2149.29 2440.74C2148.89 2445.64 2144.79 2449.34 2139.99 2449.34Z" fill="black"/>
<path d="M1852.79 2449.34C1847.99 2449.34 1843.89 2445.64 1843.49 2440.74L1816.89 2119.14C1816.49 2113.94 1820.29 2109.44 1825.49 2109.04C1830.69 2108.64 1835.19 2112.44 1835.59 2117.64L1862.19 2439.24C1862.59 2444.44 1858.79 2448.94 1853.59 2449.34C1853.29 2449.34 1853.09 2449.34 1852.79 2449.34Z" fill="black"/>
<path d="M1749.49 2314.94C1744.89 2314.94 1740.89 2311.54 1740.19 2306.84C1739.49 2301.74 1743.09 2296.94 1748.19 2296.24C1758.29 2294.84 1764.79 2291.24 1767.49 2285.44C1771.49 2276.84 1767.49 2263.94 1764.39 2258.94C1760.79 2253.14 1753.39 2241.04 1712.19 2244.14C1648.89 2248.94 1602.79 2257.84 1596.39 2263.44C1592.49 2266.84 1586.59 2266.44 1583.19 2262.54C1579.79 2258.64 1580.19 2252.74 1584.09 2249.34C1600.69 2234.84 1685.29 2227.44 1710.79 2225.44C1757.39 2221.94 1772.39 2236.24 1780.39 2249.04C1786.09 2258.24 1791.89 2277.64 1784.49 2293.34C1780.69 2301.54 1771.69 2311.84 1750.79 2314.74C1750.39 2314.74 1749.89 2314.74 1749.49 2314.74V2314.94Z" fill="black"/>
<path d="M1771.49 2389.74C1767.59 2389.74 1763.89 2387.24 1762.59 2383.34C1760.99 2378.44 1763.59 2373.14 1768.49 2371.54C1773.09 2370.04 1776.49 2366.24 1779.29 2363.24C1779.69 2362.84 1780.09 2362.44 1780.39 2362.04C1786.79 2355.14 1789.99 2344.54 1788.29 2334.94C1787.59 2330.54 1785.19 2322.64 1777.19 2318.44C1776.29 2317.94 1766.79 2313.74 1713.79 2314.64C1682.19 2315.14 1643.79 2317.34 1611.29 2320.54C1606.19 2321.04 1601.59 2317.24 1601.09 2312.14C1600.59 2306.94 1604.39 2302.44 1609.49 2301.94C1658.09 2297.24 1765.19 2290.94 1785.99 2301.94C1796.99 2307.74 1804.59 2318.64 1806.79 2331.84C1809.39 2347.24 1804.49 2363.74 1793.99 2374.84C1793.69 2375.14 1793.39 2375.54 1792.99 2375.94C1789.39 2379.84 1783.49 2386.24 1774.29 2389.34C1773.29 2389.64 1772.29 2389.84 1771.29 2389.84L1771.49 2389.74Z" fill="black"/>
<path d="M1677.79 2468.54C1673.39 2468.54 1669.49 2465.44 1668.59 2461.04C1667.59 2455.94 1670.89 2451.04 1675.89 2450.04C1676.39 2449.94 1726.59 2439.74 1755.29 2427.04C1768.39 2421.24 1774.09 2409.74 1775.09 2400.74C1775.79 2394.84 1774.29 2391.54 1773.59 2390.84C1765.19 2389.64 1731.29 2387.24 1640.49 2405.94C1635.39 2407.04 1630.49 2403.74 1629.39 2398.64C1628.39 2393.54 1631.59 2388.64 1636.69 2387.54C1701.39 2374.24 1752.29 2368.64 1776.59 2372.24C1785.69 2373.64 1792.29 2381.44 1793.79 2392.64C1796.19 2410.34 1786.39 2433.74 1762.99 2444.04C1732.39 2457.54 1681.89 2467.84 1679.69 2468.24C1679.09 2468.34 1678.39 2468.44 1677.79 2468.44V2468.54Z" fill="black"/>
<path d="M1554.49 2572.94C1550.09 2572.94 1546.19 2569.84 1545.29 2565.34C1544.29 2560.24 1547.59 2555.34 1552.69 2554.34C1590.49 2546.94 1626.99 2533.24 1660.89 2519.44C1678.59 2512.24 1703.09 2496.04 1721.79 2479.24C1743.59 2459.54 1751.69 2444.34 1749.99 2437.94C1748.69 2432.94 1751.69 2427.84 1756.69 2426.54C1761.69 2425.24 1766.79 2428.24 1768.09 2433.24C1777.29 2468.54 1702.99 2522.54 1667.89 2536.84C1633.19 2550.94 1595.59 2565.14 1556.19 2572.74C1555.59 2572.84 1554.99 2572.94 1554.39 2572.94H1554.49Z" fill="black"/>
<path d="M1417.89 2314.54C1415.49 2314.54 1413.09 2313.64 1411.19 2311.74C1407.59 2308.04 1407.59 2302.14 1411.19 2298.44C1438.19 2271.74 1496.79 2197.54 1526.99 2156.44C1560.29 2111.14 1608.59 2108.14 1651.29 2108.94C1679.99 2109.54 1699.29 2123.14 1714.79 2134.14C1722.29 2139.44 1728.69 2144.04 1734.09 2145.44C1736.69 2146.14 1739.39 2146.84 1742.09 2147.54C1759.29 2151.84 1778.79 2156.74 1786.19 2170.14C1788.49 2174.34 1790.59 2181.34 1787.49 2190.74C1780.29 2212.44 1751.79 2234.54 1704.39 2234.94C1675.79 2235.24 1657.29 2228.14 1646.39 2221.84C1643.59 2230.74 1639.29 2242.24 1633.49 2250.64C1630.59 2254.94 1624.79 2256.04 1620.49 2253.14C1616.19 2250.24 1615.09 2244.44 1617.99 2240.14C1625.09 2229.64 1630.39 2210.54 1631.79 2204.04C1632.59 2200.54 1635.29 2197.64 1638.79 2196.84C1642.29 2196.04 1645.89 2197.24 1648.09 2200.04C1648.99 2201.04 1663.99 2216.24 1702.79 2216.24C1741.59 2216.24 1703.69 2216.24 1704.19 2216.24C1747.89 2215.84 1766.09 2195.54 1769.69 2184.94C1770.89 2181.34 1770.09 2179.84 1769.69 2179.34C1766.29 2173.04 1749.59 2168.94 1737.49 2165.94C1734.59 2165.24 1731.79 2164.54 1729.09 2163.84C1720.49 2161.54 1712.39 2155.74 1703.79 2149.74C1689.69 2139.74 1673.79 2128.44 1650.79 2128.04C1611.09 2127.24 1569.99 2129.74 1541.99 2167.84C1510.69 2210.54 1452.39 2284.34 1424.29 2312.04C1422.49 2313.84 1420.09 2314.74 1417.69 2314.74L1417.89 2314.54Z" fill="black"/>
<path d="M1778.69 2197.14C1775.39 2197.14 1772.19 2195.34 1770.49 2192.24C1767.99 2187.74 1769.69 2182.04 1774.19 2179.54C1775.39 2178.94 1802.69 2164.04 1829.99 2162.24C1835.19 2161.84 1839.59 2165.84 1839.99 2170.94C1840.39 2176.04 1836.39 2180.54 1831.29 2180.94C1808.09 2182.54 1783.49 2195.84 1783.19 2195.94C1781.79 2196.74 1780.19 2197.14 1778.69 2197.14Z" fill="black"/>
<path d="M1768.39 2257.84C1766.79 2257.84 1765.09 2257.44 1763.59 2256.54C1759.19 2253.94 1757.69 2248.24 1760.29 2243.74C1766.39 2233.34 1786.19 2224.34 1794.39 2220.94C1802.79 2217.44 1823.69 2209.74 1836.99 2213.04C1841.99 2214.24 1845.09 2219.34 1843.89 2224.34C1842.69 2229.34 1837.59 2232.44 1832.59 2231.24C1828.39 2230.24 1816.89 2231.94 1801.69 2238.24C1786.49 2244.54 1777.79 2251.04 1776.49 2253.24C1774.69 2256.14 1771.59 2257.84 1768.39 2257.84Z" fill="black"/>
<path d="M1846.99 2381.44C1822.19 2381.44 1791.39 2368.04 1790.09 2367.44C1785.39 2365.34 1783.19 2359.84 1785.29 2355.14C1787.39 2350.44 1792.89 2348.24 1797.69 2350.34C1797.99 2350.44 1826.19 2362.74 1847.09 2362.74C1867.99 2362.74 1847.09 2362.74 1847.19 2362.74C1852.39 2362.74 1856.59 2366.94 1856.59 2372.04C1856.59 2377.24 1852.39 2381.44 1847.29 2381.44H1847.09H1846.99Z" fill="black"/>
<path d="M1849.89 2427.54C1849.69 2427.54 1849.59 2427.54 1849.39 2427.54C1827.59 2426.34 1797.59 2416.44 1780.39 2407.64C1775.79 2405.34 1773.99 2399.64 1776.29 2395.04C1778.59 2390.44 1784.29 2388.64 1788.89 2390.94C1804.59 2398.94 1831.89 2407.84 1850.39 2408.84C1855.59 2409.14 1859.49 2413.54 1859.19 2418.74C1858.89 2423.74 1854.79 2427.64 1849.89 2427.64V2427.54Z" fill="black"/>
<path d="M1868.19 2455.04C1867.69 2460.74 1867.29 2466.64 1866.79 2472.64C1854.19 2641.74 1842.29 2953.24 1842.49 3129.64H1823.79C1823.59 2947.54 1836.19 2622.84 1849.19 2457.24C1849.19 2456.04 1849.39 2454.74 1849.49 2453.54C1849.49 2452.84 1849.69 2452.14 1849.89 2451.54C1850.09 2450.74 1850.49 2449.94 1850.99 2449.14C1852.79 2446.34 1856.09 2444.64 1859.59 2444.94C1859.79 2444.94 1859.99 2444.94 1860.19 2444.94C1860.29 2444.94 1860.49 2444.94 1860.59 2444.94C1862.59 2445.34 1864.29 2446.34 1865.59 2447.64C1865.79 2447.84 1865.89 2448.04 1866.09 2448.24C1866.09 2448.24 1866.09 2448.24 1866.19 2448.34C1867.59 2450.14 1868.29 2452.34 1868.09 2454.74L1868.19 2455.04Z" fill="black"/>
<path d="M1701.99 1239.14C1701.99 1239.14 1701.99 1239.14 1701.99 1239.24C1701.89 1239.44 1701.79 1239.74 1701.69 1239.94C1700.49 1242.44 1698.29 1244.44 1695.39 1245.14C1691.29 1246.14 1686.79 1247.34 1681.99 1248.64C1547.59 1286.84 1147.29 1466.24 1037.19 1579.54C877.692 1743.84 618.992 2179.64 488.192 2566.44C414.792 2783.34 491.492 2940.54 587.592 3015.34C637.392 3054.04 695.092 3073.74 751.892 3073.74C797.592 3073.74 842.792 3060.94 882.592 3035.14C1292.49 2769.64 1503.69 2607.04 1546.49 2573.44C1471.49 2497.64 1437.99 2426.54 1422.99 2379.64C1412.69 2347.44 1409.49 2322.24 1408.59 2306.94C1408.59 2306.74 1408.59 2306.54 1408.59 2306.34C1341.49 2338.94 1037.29 2487.74 850.992 2596.24C846.492 2598.84 840.792 2597.34 838.192 2592.84C835.592 2588.34 837.092 2582.64 841.592 2580.04C898.492 2546.84 966.392 2509.94 1035.19 2473.74C1047.49 2467.24 1059.89 2460.84 1072.19 2454.34C1128.19 2425.14 1183.59 2397.04 1232.99 2372.24C1239.59 2368.94 1246.09 2365.64 1252.39 2362.54C1345.09 2316.14 1412.29 2283.74 1413.79 2283.04C1416.79 2281.64 1420.39 2281.84 1423.09 2283.74C1423.49 2284.04 1423.89 2284.34 1424.19 2284.64C1426.19 2286.54 1427.29 2289.34 1427.09 2292.14C1427.09 2292.24 1426.69 2298.14 1427.49 2308.54C1428.59 2322.94 1431.79 2346.04 1441.09 2374.94C1455.09 2418.34 1485.99 2483.54 1553.69 2553.94C1557.99 2558.44 1562.39 2562.84 1566.99 2567.34C1567.69 2568.04 1568.29 2568.94 1568.79 2569.84C1569.49 2571.24 1569.89 2572.84 1569.79 2574.54C1569.69 2577.24 1568.39 2579.74 1566.29 2581.34C1564.79 2582.54 1453.59 2671.84 1216.29 2835.04C1209.79 2839.54 1203.09 2844.04 1196.39 2848.64C1110.89 2907.24 1009.89 2974.74 892.592 3050.74C849.992 3078.34 801.692 3092.74 751.792 3092.74C701.892 3092.74 737.692 3092.44 730.692 3091.84C675.692 3087.44 622.192 3066.04 575.892 3030.04C516.892 2984.14 474.792 2919.14 454.192 2842.04C431.292 2756.44 436.892 2659.04 470.292 2560.34C531.092 2380.54 624.392 2175.74 732.992 1983.74C834.592 1804.14 940.492 1651.94 1023.59 1566.34C1094.19 1493.64 1263.69 1406.44 1358.39 1360.84C1485.69 1299.64 1621.99 1244.44 1686.29 1227.84C1687.79 1227.44 1689.29 1227.04 1690.69 1226.74C1695.69 1225.54 1700.79 1228.64 1701.99 1233.64C1702.39 1235.44 1702.29 1237.24 1701.79 1238.94L1701.99 1239.14Z" fill="black"/>
<path d="M1216.89 2830.84C1216.79 2832.34 1216.69 2833.74 1216.59 2835.24C1207.29 2952.14 1198.69 3063.64 1193.69 3129.74H1174.89C1179.69 3066.64 1187.79 2961.14 1196.69 2848.94C1197.19 2842.44 1197.69 2835.94 1198.29 2829.44C1198.69 2824.24 1203.19 2820.44 1208.39 2820.84C1208.59 2820.84 1208.69 2820.84 1208.89 2820.84C1213.79 2821.44 1217.39 2825.84 1216.99 2830.84H1216.89Z" fill="black"/>
<path d="M1241.99 2387.64C1241.79 2387.64 1241.59 2387.64 1241.39 2387.64C1236.19 2387.34 1232.29 2382.84 1232.59 2377.74C1233.99 2354.54 1235.99 2327.34 1238.19 2298.54C1247.09 2179.54 1259.19 2016.54 1238.79 1964.54C1236.89 1959.74 1239.29 1954.24 1244.09 1952.44C1248.89 1950.54 1254.39 1952.94 1256.19 1957.74C1278.19 2013.64 1266.39 2172.44 1256.89 2299.94C1254.79 2328.64 1252.69 2355.74 1251.29 2378.84C1250.99 2383.84 1246.89 2387.64 1241.99 2387.64Z" fill="black"/>
<path d="M1041.49 2490.44C1039.59 2490.44 1037.69 2489.84 1035.99 2488.64C1031.79 2485.64 1030.79 2479.74 1033.89 2475.54L1244.79 2182.24C1247.79 2178.04 1253.69 2177.04 1257.89 2180.14C1262.09 2183.14 1263.09 2189.04 1259.99 2193.24L1049.09 2486.54C1047.29 2489.04 1044.39 2490.44 1041.49 2490.44Z" fill="black"/>
<rect y="1661" width="4070" height="1469" fill="black"/>
</svg>
