<svg width="3981" height="4177" viewBox="0 0 3981 4177" fill="none" xmlns="http://www.w3.org/2000/svg">
<rect width="3981" height="4177" fill="white"/>
<path d="M3262.12 3627.19H1232.53C1236.83 3570.39 1244.83 3466.19 1253.83 3352.79C1254.43 3344.79 1255.12 3336.79 1255.72 3328.79C1256.12 3323.19 1256.62 3317.49 1257.12 3311.89C1257.12 3311.89 1257.12 3311.69 1257.12 3311.59C1268.02 3213.79 1280.03 3034.89 1288.43 2896.49C1288.93 2889.19 1289.32 2881.89 1289.72 2874.89C1292.82 2823.49 1295.33 2779.09 1297.03 2748.39C1246.93 2816.99 1195.53 2885.59 1146.83 2947.79C1137.23 2960.09 1127.73 2972.09 1118.43 2983.79C1057.83 3059.79 1002.72 3123.39 961.325 3161.39C961.225 3161.49 961.025 3161.59 960.925 3161.69C929.025 3187.89 887.525 3201.69 840.825 3201.69C794.125 3201.69 839.825 3201.69 839.325 3201.69C796.025 3201.39 749.525 3188.89 708.425 3166.59C667.425 3144.29 633.725 3113.69 610.925 3078.09C593.825 3051.29 583.425 3022.29 580.125 2992.49C578.625 2978.59 578.625 2964.39 580.125 2950.29C580.725 2944.89 581.425 2939.49 582.325 2934.09C587.625 2900.29 597.625 2867.29 611.825 2834.69C611.125 2832.59 611.125 2830.19 612.125 2827.99C678.625 2673.29 760.125 2515.19 847.725 2370.99C931.725 2232.79 1015.13 2118.39 1082.43 2048.99C1153.03 1976.29 1322.52 1889.09 1417.22 1843.49C1544.52 1782.29 1680.93 1727.09 1745.12 1710.49C1749.03 1702.49 1755.93 1691.69 1767.83 1677.19C1783.93 1657.59 1804.23 1637.19 1819.62 1625.39C1834.73 1613.79 1861.03 1606.59 1872.53 1603.79L1875.53 1493.09C1868.73 1484.39 1863.93 1477.09 1861.03 1472.39C1836.63 1432.19 1818.23 1332.39 1812.33 1297.69C1795.63 1303.69 1781.63 1303.49 1769.53 1297.19C1740.43 1282.09 1730.62 1234.69 1720.72 1174.29C1712.42 1123.19 1726.63 1097.29 1740.03 1084.49C1752.03 1073.09 1768.23 1067.39 1785.83 1068.19C1780.53 1015.99 1773.42 932.285 1776.62 881.885C1779.12 843.685 1782.93 802.985 1800.03 761.785C1819.23 715.485 1852.23 676.385 1900.93 642.285C1905.83 638.885 1911.03 635.585 1916.43 632.385C1916.43 623.785 1920.73 615.685 1938.12 605.385C2052.82 537.585 2236.33 570.485 2324.83 620.385C2363.23 641.985 2396.22 674.385 2420.42 714.185C2424.92 721.685 2429.23 729.385 2433.13 737.285C2433.53 738.085 2433.93 738.885 2434.33 739.785C2450.43 773.285 2460.93 810.685 2464.83 849.485C2471.93 919.485 2474.73 973.985 2468.63 1031.09C2468.63 1031.09 2468.63 1031.19 2468.63 1031.29C2468.23 1034.99 2467.83 1038.69 2467.33 1042.39C2467.33 1042.39 2467.33 1042.49 2467.33 1042.59C2466.03 1052.39 2464.52 1062.29 2462.72 1072.29C2462.52 1073.29 2462.32 1074.29 2462.22 1075.29C2462.42 1075.99 2462.63 1076.69 2462.63 1077.39C2462.63 1078.29 2462.62 1079.19 2462.42 1080.19V1080.79C2481.42 1079.89 2502.43 1085.89 2514.63 1102.39C2531.23 1124.79 2527.53 1176.49 2526.03 1191.79C2522.03 1232.29 2511.03 1268.19 2496.63 1287.89C2475.13 1317.29 2446.02 1319.39 2427.22 1315.09C2412.62 1385.19 2392.23 1440.29 2366.53 1478.89C2364.73 1481.59 2362.43 1484.69 2359.53 1488.09L2355.72 1595.09C2358.12 1595.69 2360.92 1596.49 2363.92 1597.59C2363.92 1597.59 2364.12 1597.59 2364.22 1597.59C2371.32 1600.29 2379.53 1604.99 2386.53 1612.69C2394.03 1620.99 2405.23 1640.99 2418.03 1665.59C2419.83 1669.09 2421.73 1672.69 2423.53 1676.29C2423.63 1676.49 2423.73 1676.69 2423.83 1676.79C2427.63 1684.19 2431.52 1691.89 2435.42 1699.69C2438.82 1706.49 2441.93 1712.59 2444.33 1717.29C2444.33 1717.29 2444.43 1717.29 2444.53 1717.29C2444.53 1717.29 2444.62 1717.29 2444.72 1717.29C2520.62 1738.49 2633.02 1790.09 2746.72 1856.19C2879.32 1933.29 2996.62 2020.09 3077.12 2100.79C3110.03 2133.79 3138.52 2174.49 3162.32 2222.39C3164.02 2225.79 3165.72 2229.29 3167.32 2232.69C3176.12 2251.19 3184.22 2270.79 3191.52 2291.29C3216.62 2361.19 3234.22 2442.59 3245.22 2540.09C3262.02 2688.59 3260.82 2851.39 3256.62 3012.89V3013.09C3255.73 3046.69 3254.72 3080.19 3253.72 3113.59C3252.62 3150.69 3251.72 3189.89 3251.22 3229.89C3249.32 3370.19 3251.62 3520.39 3262.32 3626.89L3262.12 3627.19Z" fill="white"/>
<path d="M2354.13 1056.69C2348.03 1054.59 2341.93 1052.79 2336.03 1051.29C2336.13 1051.29 2336.23 1051.09 2336.33 1051.09C2335.33 1050.99 2334.43 1050.79 2333.63 1050.69C2333.33 1050.69 2333.13 1050.69 2332.83 1050.59C2332.83 1050.59 2332.73 1050.59 2332.63 1050.59C2330.03 1049.89 2327.83 1048.19 2326.63 1045.89C2326.03 1045.79 2325.43 1045.69 2324.83 1045.59C2286.43 1039.39 2253.43 1043.39 2230.23 1048.69C2212.33 1052.79 2196.63 1058.69 2184.53 1064.69C2173.33 1070.29 2165.03 1076.19 2160.73 1081.19C2160.33 1081.59 2160.03 1081.99 2159.73 1082.39C2159.73 1082.39 2159.63 1082.59 2159.53 1082.69C2160.13 1083.49 2160.63 1084.29 2161.03 1085.09C2161.03 1085.29 2161.23 1085.49 2161.33 1085.69C2161.53 1086.09 2161.63 1086.39 2161.73 1086.79C2161.93 1087.29 2162.03 1087.89 2162.13 1088.39C2162.13 1088.79 2162.13 1089.19 2162.13 1089.69C2162.13 1090.19 2162.13 1090.19 2162.13 1090.39C2162.33 1088.99 2162.63 1087.79 2163.03 1086.59C2163.63 1084.49 2164.33 1082.59 2165.13 1081.09C2165.63 1080.19 2166.13 1079.39 2166.63 1078.69C2170.73 1073.19 2192.53 1059.69 2226.43 1051.89C2240.13 1048.69 2257.43 1046.09 2277.43 1046.09C2297.43 1046.09 2312.13 1047.89 2331.63 1052.59C2331.63 1052.59 2331.73 1052.59 2331.83 1052.59C2332.63 1052.79 2333.43 1052.99 2334.23 1053.19C2340.43 1054.79 2346.73 1056.59 2353.13 1058.79C2354.73 1059.29 2356.23 1060.09 2357.63 1060.89C2357.93 1060.89 2358.33 1060.99 2358.63 1061.09C2359.73 1061.29 2360.83 1061.39 2362.03 1061.59C2359.73 1059.39 2357.03 1057.79 2354.03 1056.79L2354.13 1056.69ZM2391.13 1091.69C2391.13 1091.09 2391.13 1090.59 2390.93 1089.99C2390.33 1082.99 2388.93 1076.39 2386.93 1070.49C2386.43 1069.19 2386.03 1067.99 2385.53 1066.79C2385.33 1066.29 2385.13 1065.89 2384.93 1065.39C2383.13 1061.39 2381.03 1057.89 2378.53 1054.69C2377.13 1052.89 2375.53 1051.19 2373.93 1049.69C2372.93 1048.69 2371.83 1047.79 2370.73 1046.99C2367.33 1044.39 2363.43 1042.29 2359.33 1040.89C2358.13 1040.49 2356.83 1040.09 2355.63 1039.69C2354.63 1039.39 2353.73 1039.09 2352.73 1038.79C2347.03 1036.99 2341.33 1035.39 2335.73 1034.09C2334.03 1033.69 2332.43 1033.29 2330.73 1032.99C2286.43 1023.29 2248.33 1027.49 2222.33 1033.49C2204.43 1037.59 2188.73 1043.49 2176.63 1049.49C2164.43 1055.59 2155.83 1061.99 2151.83 1067.19C2151.03 1068.29 2150.23 1069.39 2149.53 1070.69C2149.13 1071.29 2148.83 1071.99 2148.53 1072.59C2148.53 1072.59 2148.53 1072.59 2148.53 1072.69C2147.13 1075.59 2145.93 1078.89 2144.93 1082.59C2144.33 1084.79 2143.93 1087.09 2143.63 1089.49C2143.53 1090.39 2143.43 1091.29 2143.33 1092.09C2143.03 1095.09 2142.83 1098.39 2142.93 1101.69C2143.03 1123.19 2150.13 1151.29 2167.73 1183.49C2168.33 1184.59 2169.03 1185.69 2169.63 1186.79C2186.33 1213.89 2220.03 1229.69 2261.23 1229.69C2302.43 1229.69 2264.43 1229.69 2266.13 1229.69C2307.13 1228.49 2356.43 1210.49 2374.03 1172.99C2374.23 1172.49 2374.53 1171.99 2374.73 1171.49C2382.33 1154.99 2387.43 1137.99 2389.83 1121.89C2390.43 1118.29 2390.83 1114.79 2391.03 1111.39C2391.33 1107.99 2391.43 1104.69 2391.53 1101.39C2391.53 1100.89 2391.53 1100.49 2391.53 1099.99C2391.53 1097.09 2391.43 1094.29 2391.23 1091.49L2391.13 1091.69ZM2162.23 1113.99C2161.63 1109.39 2161.33 1105.09 2161.33 1101.29C2161.33 1097.49 2161.53 1095.09 2161.93 1092.39C2161.93 1092.19 2161.93 1092.09 2161.93 1091.89C2161.93 1091.89 2161.93 1091.79 2161.93 1091.69C2161.93 1091.19 2162.03 1090.79 2162.13 1090.29C2162.33 1088.89 2162.63 1087.59 2163.03 1086.39C2163.63 1084.29 2164.33 1082.39 2165.13 1080.89C2165.63 1079.99 2166.13 1079.19 2166.63 1078.49C2170.73 1072.99 2192.53 1059.49 2226.43 1051.69C2240.13 1048.49 2257.43 1045.89 2277.43 1045.89C2297.43 1045.89 2312.13 1047.69 2331.63 1052.39C2331.63 1052.39 2331.73 1052.39 2331.83 1052.39C2332.63 1052.59 2333.43 1052.79 2334.23 1052.99C2340.43 1054.59 2346.73 1056.39 2353.13 1058.59C2354.73 1059.09 2356.23 1059.89 2357.63 1060.69C2358.53 1061.19 2359.33 1061.89 2360.13 1062.49C2363.43 1065.29 2366.13 1069.09 2368.23 1073.89C2368.83 1075.19 2369.33 1076.69 2369.83 1078.09C2369.93 1078.49 2370.13 1078.99 2370.23 1079.49C2376.23 1100.59 2371.63 1132.89 2357.93 1162.89C2357.93 1162.89 2357.93 1162.89 2357.93 1162.99C2357.63 1163.59 2357.33 1164.29 2357.03 1164.89C2344.93 1190.69 2307.33 1209.59 2265.53 1210.79C2229.33 1211.89 2199.93 1199.49 2185.93 1177.59C2185.23 1176.59 2184.63 1175.49 2184.03 1174.39C2170.83 1150.19 2164.43 1129.69 2162.33 1113.69L2162.23 1113.99ZM2362.03 1061.49C2359.73 1059.29 2357.03 1057.69 2354.03 1056.69C2347.93 1054.59 2341.83 1052.79 2335.93 1051.29C2336.03 1051.29 2336.13 1051.09 2336.23 1051.09C2335.23 1050.99 2334.33 1050.79 2333.53 1050.69C2333.23 1050.69 2333.03 1050.69 2332.73 1050.59C2332.73 1050.59 2332.63 1050.59 2332.53 1050.59C2329.93 1049.89 2327.73 1048.19 2326.53 1045.89C2325.93 1045.79 2325.33 1045.69 2324.73 1045.59C2286.33 1039.39 2253.33 1043.39 2230.13 1048.69C2212.23 1052.79 2196.53 1058.69 2184.43 1064.69C2173.23 1070.29 2164.93 1076.19 2160.63 1081.19C2160.23 1081.59 2159.93 1081.99 2159.63 1082.39C2159.63 1082.39 2159.53 1082.59 2159.43 1082.69C2160.03 1083.49 2160.53 1084.29 2160.93 1085.09C2160.93 1085.29 2161.13 1085.49 2161.23 1085.69C2161.43 1086.09 2161.53 1086.39 2161.63 1086.79C2161.83 1087.29 2161.93 1087.89 2162.03 1088.39C2162.03 1088.79 2162.03 1089.19 2162.03 1089.69C2162.03 1090.19 2162.03 1090.19 2162.03 1090.39C2162.23 1088.99 2162.53 1087.79 2162.93 1086.59C2163.53 1084.49 2164.23 1082.59 2165.03 1081.09C2165.53 1080.19 2166.03 1079.39 2166.53 1078.69C2170.63 1073.19 2192.43 1059.69 2226.33 1051.89C2240.03 1048.69 2257.33 1046.09 2277.33 1046.09C2297.33 1046.09 2312.03 1047.89 2331.53 1052.59C2331.53 1052.59 2331.63 1052.59 2331.73 1052.59C2332.53 1052.79 2333.33 1052.99 2334.13 1053.19C2340.33 1054.79 2346.63 1056.59 2353.03 1058.79C2354.63 1059.29 2356.13 1060.09 2357.53 1060.89C2357.83 1060.89 2358.23 1060.99 2358.53 1061.09C2359.63 1061.29 2360.73 1061.39 2361.93 1061.59L2362.03 1061.49Z" fill="black"/>
<path d="M2334.03 1043.39C2334.03 1043.39 2388.73 1051.29 2403.03 1056.19C2417.33 1061.09 2453.43 1078.29 2453.43 1078.29L2450.33 1091.99H2416.83C2416.83 1091.89 2390.33 1085.79 2382.13 1097.59C2382.13 1097.59 2393.33 1051.09 2334.03 1043.39Z" fill="black"/>
<path d="M2462.33 1075.49C2461.53 1073.09 2459.83 1070.99 2457.43 1069.89C2457.23 1069.79 2456.33 1069.39 2455.03 1068.69C2455.03 1068.69 2454.83 1068.69 2454.73 1068.59C2454.53 1068.59 2454.33 1068.39 2454.13 1068.29C2453.23 1067.89 2452.13 1067.39 2450.93 1066.79C2449.33 1065.99 2447.43 1065.09 2445.33 1064.19C2445.23 1064.19 2445.03 1064.09 2444.83 1063.99C2443.53 1063.39 2442.03 1062.69 2440.63 1062.09C2440.63 1062.09 2440.43 1062.09 2440.43 1061.99C2438.23 1060.99 2435.93 1059.99 2433.53 1058.89C2432.33 1058.39 2431.03 1057.79 2429.83 1057.19C2429.73 1057.19 2429.63 1057.09 2429.43 1056.99C2427.03 1055.89 2424.53 1054.89 2422.13 1053.79C2420.83 1053.19 2419.53 1052.69 2418.23 1052.09C2413.53 1050.09 2409.23 1048.39 2406.03 1047.29C2397.83 1044.39 2378.53 1040.89 2362.13 1038.19C2359.23 1037.69 2356.33 1037.29 2353.73 1036.89C2351.73 1036.59 2349.93 1036.29 2348.13 1035.99C2344.43 1035.39 2341.23 1034.99 2338.93 1034.59C2337.83 1034.39 2336.83 1034.29 2335.73 1034.09C2335.53 1034.09 2335.43 1034.09 2335.23 1034.09C2331.43 1033.59 2327.93 1035.39 2326.03 1038.49C2325.33 1039.59 2324.93 1040.79 2324.73 1042.09C2324.53 1043.29 2324.73 1044.39 2324.93 1045.49C2325.23 1046.79 2325.83 1047.99 2326.63 1049.09C2327.83 1050.69 2329.63 1051.89 2331.73 1052.49C2331.73 1052.49 2331.83 1052.49 2331.93 1052.49C2332.23 1052.49 2332.43 1052.59 2332.73 1052.69C2333.23 1052.69 2333.83 1052.89 2334.53 1052.99C2335.03 1052.99 2335.63 1053.19 2336.23 1053.19C2345.43 1054.69 2352.93 1057.29 2358.73 1061.09C2359.83 1061.79 2360.93 1062.59 2361.93 1063.39C2364.33 1065.29 2366.33 1067.39 2368.03 1069.79C2368.13 1069.89 2368.23 1070.09 2368.33 1070.19C2370.73 1073.79 2372.13 1077.59 2372.83 1081.09C2373.03 1081.99 2373.13 1082.79 2373.23 1083.59C2373.73 1086.89 2373.63 1089.79 2373.43 1091.89C2373.23 1094.09 2373.03 1095.39 2373.03 1095.39C2372.53 1097.49 2372.83 1099.69 2373.63 1101.59C2374.53 1103.59 2376.13 1105.19 2378.23 1106.19C2378.93 1106.49 2379.63 1106.69 2380.33 1106.89C2380.73 1106.89 2381.03 1106.99 2381.43 1106.99C2381.63 1106.99 2381.93 1106.99 2382.13 1106.99C2385.13 1106.99 2388.03 1105.59 2389.83 1102.89C2390.03 1102.49 2390.43 1102.19 2390.93 1101.89C2391.13 1101.79 2391.33 1101.69 2391.53 1101.59C2391.83 1101.39 2392.13 1101.29 2392.43 1101.19C2394.03 1100.59 2396.03 1100.19 2398.43 1099.89C2403.33 1099.49 2409.53 1099.89 2414.83 1101.09C2415.53 1101.29 2416.23 1101.29 2416.93 1101.29H2425.63H2431.83H2435.93H2438.43H2441.63H2445.73H2447.73H2448.03H2450.63C2451.13 1101.29 2451.73 1101.29 2452.23 1101.19C2452.53 1101.19 2452.93 1101.09 2453.23 1100.99C2454.63 1100.59 2456.03 1099.79 2457.03 1098.79C2457.43 1098.39 2457.83 1097.99 2458.13 1097.59C2458.13 1097.59 2458.13 1097.49 2458.23 1097.39C2458.93 1096.39 2459.43 1095.29 2459.73 1094.09L2460.03 1092.69L2461.73 1085.19L2462.13 1083.39L2462.63 1080.99V1080.39C2462.93 1079.49 2463.03 1078.59 2462.93 1077.69C2462.93 1076.89 2462.73 1076.19 2462.53 1075.49H2462.33ZM2437.83 1082.59H2434.83H2430.63H2427.53H2426.73H2417.73C2416.23 1082.29 2413.93 1081.79 2411.23 1081.49C2406.83 1080.99 2401.13 1080.59 2395.33 1081.29C2394.63 1081.29 2393.93 1081.49 2393.23 1081.59C2392.73 1081.59 2392.33 1081.79 2391.83 1081.89C2391.63 1080.29 2391.33 1078.69 2391.03 1077.09C2390.23 1073.59 2389.03 1069.79 2387.23 1066.09C2386.53 1064.59 2385.73 1063.09 2384.83 1061.59C2385.63 1061.79 2386.43 1061.89 2387.13 1062.09C2392.63 1063.29 2397.13 1064.29 2399.83 1065.29C2405.63 1067.29 2415.43 1071.59 2424.83 1075.69C2426.33 1076.39 2427.73 1076.99 2429.13 1077.69C2430.93 1078.49 2432.63 1079.29 2434.23 1079.99C2434.83 1080.29 2435.33 1080.49 2435.83 1080.79C2437.43 1081.49 2438.93 1082.19 2440.23 1082.79H2437.63L2437.83 1082.59Z" fill="black"/>
<path d="M1904.73 1052.69C1904.33 1052.69 1904.03 1052.69 1903.63 1052.69C1903.43 1052.69 1903.23 1052.69 1903.03 1052.69C1902.73 1052.69 1902.43 1052.69 1902.23 1052.79C1901.73 1053.09 1901.23 1053.39 1900.73 1053.59C1899.93 1053.79 1899.03 1053.99 1898.23 1054.19C1891.73 1055.89 1884.93 1057.89 1878.13 1060.19C1874.33 1061.49 1871.13 1063.69 1868.33 1066.89C1868.13 1066.99 1867.93 1067.19 1867.73 1067.39C1867.73 1067.39 1867.83 1067.39 1867.93 1067.39C1866.03 1069.59 1864.43 1072.29 1863.13 1075.39C1864.73 1072.09 1866.73 1069.39 1869.03 1067.19C1871.43 1064.89 1874.13 1063.29 1877.23 1062.19C1884.13 1059.79 1890.83 1057.89 1897.33 1056.19C1898.13 1055.99 1898.93 1055.79 1899.73 1055.59C1902.73 1054.89 1905.63 1054.19 1908.53 1053.59C1907.43 1052.99 1906.13 1052.69 1904.83 1052.59L1904.73 1052.69ZM1857.63 1092.79C1857.33 1093.69 1857.03 1094.69 1856.73 1095.59C1856.93 1097.69 1857.13 1098.99 1857.23 1098.99C1857.43 1099.69 1857.53 1100.49 1857.53 1101.19C1857.53 1099.19 1857.73 1097.19 1857.93 1095.19C1858.03 1093.59 1858.23 1092.09 1858.53 1090.59C1858.23 1091.29 1857.93 1091.99 1857.73 1092.69L1857.63 1092.79ZM2079.23 1094.69C2079.23 1094.49 2079.23 1094.29 2079.23 1093.99C2079.23 1093.29 2079.13 1092.59 2079.03 1091.89C2078.63 1087.69 2077.83 1083.89 2076.83 1080.39C2076.23 1078.19 2075.43 1076.19 2074.63 1074.29C2074.43 1073.89 2074.33 1073.59 2074.13 1073.19C2073.03 1070.99 2071.83 1068.99 2070.53 1067.19C2056.73 1048.99 1990.83 1017.89 1905.23 1035.19C1903.73 1035.49 1902.13 1035.79 1900.63 1036.19C1898.43 1036.69 1896.13 1037.19 1893.93 1037.79C1890.93 1038.49 1887.93 1039.29 1884.93 1040.19C1880.33 1041.49 1875.73 1042.89 1871.13 1044.49C1867.03 1045.89 1863.23 1047.89 1859.83 1050.49C1858.83 1051.19 1857.93 1051.99 1857.03 1052.79C1854.33 1055.19 1852.03 1057.89 1849.83 1060.99C1848.43 1063.09 1847.13 1065.29 1846.03 1067.69C1845.63 1068.59 1845.23 1069.39 1844.83 1070.29C1844.63 1070.69 1844.43 1071.19 1844.33 1071.59C1843.03 1074.79 1842.03 1078.19 1841.23 1081.89C1840.53 1084.89 1840.03 1088.09 1839.63 1091.39C1839.63 1092.19 1839.43 1092.89 1839.43 1093.69C1839.43 1094.59 1839.23 1095.39 1839.23 1096.29C1839.13 1098.09 1839.03 1099.89 1839.03 1101.79C1839.03 1102.69 1839.03 1103.59 1839.03 1104.49C1839.03 1104.89 1839.03 1105.39 1839.03 1105.79C1839.03 1108.99 1839.23 1112.29 1839.53 1115.59C1841.23 1134.99 1847.03 1156.19 1856.53 1176.49C1858.13 1179.89 1859.93 1183.09 1862.13 1186.29C1879.93 1212.69 1915.83 1229.99 1957.03 1231.19C1958.53 1231.19 1960.13 1231.19 1961.63 1231.19C1985.73 1231.19 2007.43 1225.39 2024.53 1214.89C2024.73 1214.79 2024.93 1214.59 2025.23 1214.49C2031.03 1210.89 2036.33 1206.69 2041.03 1201.89C2046.23 1196.69 2050.63 1190.99 2054.23 1184.59C2054.43 1184.19 2054.73 1183.79 2054.93 1183.29C2054.93 1183.19 2055.03 1183.09 2055.13 1182.99C2055.13 1182.89 2055.23 1182.79 2055.33 1182.69C2058.13 1177.49 2060.63 1172.49 2062.93 1167.59C2071.93 1148.09 2076.93 1130.39 2078.83 1115.19C2079.43 1110.19 2079.73 1105.49 2079.73 1101.09C2079.73 1096.69 2079.73 1096.59 2079.53 1094.49L2079.23 1094.69ZM1857.43 1103.29C1857.43 1102.59 1857.43 1101.89 1857.43 1101.19C1857.43 1099.09 1857.63 1097.09 1857.83 1095.19C1857.93 1093.59 1858.13 1092.09 1858.43 1090.59C1859.13 1085.79 1860.33 1081.49 1861.93 1077.69C1862.23 1076.89 1862.63 1076.19 1862.93 1075.49C1864.53 1072.19 1866.53 1069.49 1868.83 1067.29C1871.23 1064.99 1873.93 1063.39 1877.03 1062.29C1883.93 1059.89 1890.63 1057.99 1897.13 1056.29C1897.93 1056.09 1898.73 1055.89 1899.53 1055.69C1902.53 1054.99 1905.43 1054.29 1908.33 1053.69C1925.33 1050.19 1941.03 1048.89 1955.03 1048.89C1969.03 1048.89 1987.73 1050.99 1999.63 1053.59C2016.13 1057.19 2029.13 1062.19 2038.43 1066.99C2047.73 1071.79 2053.43 1076.19 2055.23 1078.59C2057.23 1081.19 2058.83 1085.19 2059.73 1090.39C2062.23 1104.49 2059.93 1127.59 2046.33 1157.79C2046.13 1158.29 2045.93 1158.69 2045.63 1159.19C2043.83 1163.19 2041.83 1167.19 2039.63 1171.39C2039.13 1172.39 2038.53 1173.39 2038.03 1174.39C2038.03 1174.39 2038.03 1174.39 2038.03 1174.49C2024.43 1199.29 1994.23 1213.49 1957.23 1212.39C1923.23 1211.39 1893.03 1197.49 1878.23 1176.99C1876.23 1174.29 1874.53 1171.39 1873.13 1168.49C1866.33 1153.99 1861.63 1138.89 1859.23 1124.69C1857.93 1117.09 1857.33 1109.79 1857.33 1102.99L1857.43 1103.29ZM1904.73 1052.69C1904.33 1052.69 1904.03 1052.69 1903.63 1052.69C1903.43 1052.69 1903.23 1052.69 1903.03 1052.69C1902.73 1052.69 1902.43 1052.69 1902.23 1052.79C1901.73 1053.09 1901.23 1053.39 1900.73 1053.59C1899.93 1053.79 1899.03 1053.99 1898.23 1054.19C1891.73 1055.89 1884.93 1057.89 1878.13 1060.19C1874.33 1061.49 1871.13 1063.69 1868.33 1066.89C1868.13 1066.99 1867.93 1067.19 1867.73 1067.39C1865.63 1069.19 1863.83 1071.09 1862.33 1073.19C1861.53 1074.29 1860.83 1075.49 1860.33 1076.59C1857.73 1082.69 1857.53 1088.69 1857.73 1092.59C1857.73 1093.59 1857.83 1094.39 1857.93 1095.09C1858.03 1093.49 1858.23 1091.99 1858.53 1090.49C1859.23 1085.69 1860.43 1081.39 1862.03 1077.59C1862.33 1076.79 1862.73 1076.09 1863.03 1075.39C1864.63 1072.09 1866.63 1069.39 1868.93 1067.19C1871.33 1064.89 1874.03 1063.29 1877.13 1062.19C1884.03 1059.79 1890.73 1057.89 1897.23 1056.19C1898.03 1055.99 1898.83 1055.79 1899.63 1055.59C1902.63 1054.89 1905.53 1054.19 1908.43 1053.59C1907.33 1052.99 1906.03 1052.69 1904.73 1052.59V1052.69Z" fill="black"/>
<path d="M1905.52 1045.69C1905.12 1042.39 1903.02 1039.79 1900.22 1038.49C1898.62 1037.79 1896.82 1037.39 1895.02 1037.69C1894.62 1037.69 1894.22 1037.79 1893.82 1037.89C1891.92 1038.19 1888.32 1038.69 1883.92 1039.29C1883.02 1039.39 1882.12 1039.49 1881.12 1039.69C1865.22 1041.99 1840.02 1045.89 1826.62 1049.29C1826.32 1049.29 1826.12 1049.39 1825.82 1049.49C1824.02 1049.99 1822.52 1050.39 1821.22 1050.89C1819.62 1051.49 1818.02 1052.09 1816.52 1052.89C1816.32 1052.99 1816.12 1053.09 1815.92 1053.19C1815.92 1053.19 1815.92 1053.19 1815.82 1053.19C1811.82 1055.19 1808.32 1057.69 1805.52 1060.19C1804.12 1061.39 1802.82 1062.69 1801.62 1063.89C1801.62 1063.89 1801.52 1063.99 1801.42 1064.09C1799.42 1066.19 1797.92 1068.09 1796.72 1069.69C1796.42 1070.09 1796.12 1070.49 1795.82 1070.89C1795.22 1071.79 1794.82 1072.39 1794.62 1072.69C1794.62 1072.79 1794.52 1072.89 1794.52 1072.89C1793.92 1073.89 1793.52 1074.99 1793.32 1076.09C1793.32 1076.49 1793.22 1076.89 1793.22 1077.39C1793.22 1077.89 1793.22 1078.29 1793.22 1078.79L1793.72 1082.79V1083.39V1083.49L1794.32 1088.29L1794.82 1092.09C1794.82 1092.39 1794.82 1092.69 1795.02 1092.99C1795.52 1095.29 1796.92 1097.29 1798.72 1098.59C1799.52 1099.19 1800.52 1099.59 1801.52 1099.89C1801.62 1099.89 1801.82 1099.89 1801.92 1099.99C1802.92 1100.19 1803.92 1100.29 1804.92 1100.19H1805.12L1810.32 1099.69H1810.62H1810.82H1811.22H1811.72H1812.12L1819.82 1098.99H1820.12H1820.62C1824.32 1098.99 1833.72 1100.19 1838.72 1104.69C1839.12 1104.99 1839.42 1105.29 1839.72 1105.69C1839.92 1105.89 1840.12 1106.19 1840.32 1106.39C1840.32 1106.39 1840.32 1106.39 1840.32 1106.49C1841.92 1108.79 1844.42 1110.19 1847.02 1110.49C1847.42 1110.49 1847.72 1110.49 1848.12 1110.49C1848.72 1110.49 1849.22 1110.49 1849.82 1110.29C1850.52 1110.19 1851.22 1109.99 1851.92 1109.69C1853.22 1109.09 1854.32 1108.29 1855.22 1107.19C1856.02 1106.29 1856.62 1105.19 1857.02 1103.99C1857.32 1103.09 1857.52 1102.09 1857.52 1101.09C1857.52 1100.29 1857.52 1099.59 1857.22 1098.89C1857.22 1098.89 1856.92 1097.59 1856.72 1095.49C1856.42 1091.29 1856.52 1083.79 1860.12 1076.69C1860.72 1075.59 1861.42 1074.39 1862.12 1073.29C1863.62 1071.19 1865.42 1069.19 1867.52 1067.49C1867.72 1067.29 1867.92 1067.19 1868.12 1066.99C1874.72 1061.59 1884.22 1058.09 1896.32 1056.39C1896.62 1056.39 1896.92 1056.39 1897.12 1056.29H1897.32C1898.12 1056.29 1898.82 1055.99 1899.52 1055.69C1901.02 1055.09 1902.22 1054.19 1903.22 1053.09C1903.22 1052.99 1903.42 1052.89 1903.42 1052.79C1903.42 1052.79 1903.52 1052.59 1903.62 1052.49C1904.22 1051.69 1904.62 1050.89 1904.92 1049.99C1905.32 1048.69 1905.52 1047.29 1905.32 1045.79L1905.52 1045.69ZM1812.52 1080.79H1812.32V1079.99C1812.32 1079.89 1812.32 1079.79 1812.52 1079.69C1812.52 1079.69 1812.62 1079.49 1812.72 1079.39C1812.72 1079.39 1812.82 1079.29 1812.92 1079.19C1812.92 1079.09 1813.12 1078.89 1813.22 1078.79C1815.32 1076.29 1818.62 1072.99 1822.92 1070.59C1823.12 1070.49 1823.22 1070.39 1823.42 1070.29C1824.62 1069.59 1826.02 1068.99 1827.42 1068.49C1830.82 1067.29 1837.52 1065.89 1845.52 1064.39C1845.62 1064.39 1845.72 1064.39 1845.82 1064.39C1844.82 1065.89 1844.02 1067.39 1843.22 1068.89C1842.62 1069.99 1842.12 1071.19 1841.72 1072.29C1840.52 1075.29 1839.62 1078.29 1839.02 1081.19C1839.02 1081.69 1838.82 1082.09 1838.72 1082.59C1838.72 1082.89 1838.72 1083.09 1838.62 1083.39C1838.22 1083.29 1837.82 1083.09 1837.42 1082.99C1831.12 1080.89 1825.22 1080.39 1822.22 1080.29C1822.12 1080.29 1822.02 1080.29 1821.92 1080.29C1821.32 1080.29 1820.92 1080.29 1820.62 1080.29H1820.32C1820.12 1080.29 1819.82 1080.29 1819.62 1080.29L1812.82 1080.89H1812.72L1812.52 1080.79Z" fill="black"/>
<path d="M2070.32 1100.29C2068.52 1100.29 2066.72 1099.79 2065.22 1098.79C2060.92 1095.99 2059.72 1090.09 2062.52 1085.79C2073.62 1068.89 2098.62 1063.69 2116.62 1064.29C2137.62 1065.09 2154.22 1072.79 2161.02 1085.09C2163.52 1089.59 2161.92 1095.29 2157.42 1097.89C2152.92 1100.39 2147.22 1098.79 2144.62 1094.29C2141.12 1088.09 2129.62 1083.59 2115.92 1083.09C2099.12 1082.49 2083.52 1087.89 2078.12 1096.09C2076.32 1098.79 2073.32 1100.29 2070.32 1100.29Z" fill="black"/>
<path d="M2265.33 1134.49C2273.83 1134.49 2280.73 1125.26 2280.73 1113.89C2280.73 1102.51 2273.83 1093.29 2265.33 1093.29C2256.82 1093.29 2249.93 1102.51 2249.93 1113.89C2249.93 1125.26 2256.82 1134.49 2265.33 1134.49Z" fill="black"/>
<path d="M2290.03 1111.89C2290.03 1110.79 2289.93 1109.79 2289.73 1108.79C2288.63 1100.69 2285.03 1093.89 2279.83 1089.39C2275.73 1085.89 2270.73 1083.89 2265.33 1083.89C2259.93 1083.89 2257.13 1085.09 2253.63 1087.29C2248.03 1090.79 2243.83 1096.89 2241.83 1104.19C2241.03 1107.19 2240.53 1110.39 2240.53 1113.79C2240.53 1117.19 2240.63 1117.49 2240.93 1119.19C2241.93 1125.99 2244.73 1131.99 2248.73 1136.29C2253.13 1140.99 2258.83 1143.79 2265.33 1143.79C2271.83 1143.79 2281.83 1138.49 2286.13 1130.19C2288.63 1125.49 2290.03 1119.89 2290.03 1113.79C2290.03 1107.69 2290.03 1112.49 2290.03 1111.89ZM2261.43 1105.59C2262.63 1103.69 2264.13 1102.59 2265.33 1102.59C2266.53 1102.59 2268.83 1104.39 2270.13 1107.39C2270.63 1108.49 2270.93 1109.79 2271.23 1111.19C2271.33 1112.09 2271.43 1112.99 2271.43 1113.89C2271.43 1115.79 2271.13 1117.49 2270.73 1118.99C2269.53 1122.79 2267.13 1125.19 2265.43 1125.19C2263.73 1125.19 2260.83 1122.39 2259.83 1117.89C2259.53 1116.69 2259.43 1115.39 2259.43 1113.89C2259.43 1112.39 2259.43 1113.19 2259.43 1112.79C2259.63 1109.79 2260.43 1107.39 2261.53 1105.59H2261.43Z" fill="black"/>
<path d="M1979.83 1134.49C1988.33 1134.49 1995.23 1125.26 1995.23 1113.89C1995.23 1102.51 1988.33 1093.29 1979.83 1093.29C1971.32 1093.29 1964.43 1102.51 1964.43 1113.89C1964.43 1125.26 1971.32 1134.49 1979.83 1134.49Z" fill="black"/>
<path d="M2004.23 1108.79C2003.13 1100.79 1999.53 1093.89 1994.33 1089.39C1990.23 1085.89 1985.23 1083.89 1979.83 1083.89C1974.43 1083.89 1971.63 1085.09 1968.13 1087.29C1962.53 1090.79 1958.33 1096.79 1956.33 1104.19C1955.53 1106.99 1955.13 1109.99 1955.03 1113.09C1955.03 1113.29 1955.03 1113.59 1955.03 1113.79C1955.03 1120.39 1956.73 1126.39 1959.53 1131.19C1963.93 1138.79 1971.33 1143.79 1979.83 1143.79C1988.33 1143.79 1993.53 1140.19 1998.03 1134.39C2001.63 1129.69 2004.03 1123.59 2004.53 1116.69C2004.53 1115.69 2004.63 1114.79 2004.63 1113.79C2004.63 1112.09 2004.53 1110.39 2004.23 1108.69V1108.79ZM1975.93 1105.59C1977.13 1103.69 1978.63 1102.59 1979.83 1102.59C1981.03 1102.59 1983.33 1104.39 1984.63 1107.39C1985.13 1108.59 1985.53 1110.09 1985.73 1111.59C1985.73 1112.29 1985.83 1112.99 1985.83 1113.79C1985.83 1115.69 1985.53 1117.39 1985.13 1118.89C1983.93 1122.69 1981.53 1125.09 1979.83 1125.09C1978.13 1125.09 1975.23 1122.29 1974.23 1117.79C1973.93 1116.59 1973.83 1115.29 1973.83 1113.79C1973.83 1112.29 1973.83 1111.79 1974.03 1110.89C1974.43 1108.79 1975.13 1106.89 1975.93 1105.59Z" fill="black"/>
<path d="M2092.33 1283.79C2092.13 1283.79 2091.93 1283.79 2091.73 1283.79C2060.63 1281.89 2039.73 1272.39 2029.73 1255.69C2013.73 1229.19 2030.03 1192.79 2037.93 1175.39C2040.03 1170.69 2045.63 1168.59 2050.33 1170.69C2055.03 1172.79 2057.13 1178.39 2055.03 1183.09C2048.53 1197.69 2034.83 1227.99 2045.83 1246.09C2052.53 1257.19 2068.43 1263.59 2093.03 1265.19C2098.23 1265.49 2102.13 1269.99 2101.83 1275.09C2101.53 1280.09 2097.43 1283.89 2092.53 1283.89L2092.33 1283.79Z" fill="black"/>
<path d="M2025.93 1008.49C2032.63 1009.79 2037.13 1006.29 2042.53 1002.69C2047.93 999.085 2044.43 999.285 2042.73 998.285C2006.23 977.685 1909.63 962.785 1880.33 1016.39C1919.83 989.585 1978.73 996.885 2025.93 1008.59V1008.49Z" fill="black"/>
<path d="M2051.53 994.085C2050.53 992.485 2049.13 991.185 2047.33 990.185C2018.53 973.885 1962.03 963.585 1921.23 975.285C1900.13 981.285 1884.43 992.285 1874.53 1007.89C1873.63 1009.19 1872.93 1010.59 1872.13 1011.89C1870.03 1015.69 1870.83 1020.39 1874.03 1023.29C1875.83 1024.89 1878.03 1025.69 1880.33 1025.69C1882.63 1025.69 1883.93 1025.19 1885.53 1024.09C1885.53 1024.09 1885.53 1024.09 1885.63 1024.09C1891.53 1020.09 1898.03 1016.79 1905.33 1014.29C1926.53 1006.79 1953.53 1005.49 1986.13 1010.09C1994.93 1011.39 2004.13 1013.09 2013.83 1015.19C2017.03 1015.89 2020.33 1016.69 2023.63 1017.49C2023.83 1017.49 2024.03 1017.49 2024.13 1017.59C2029.83 1018.69 2034.53 1017.59 2038.53 1015.79C2038.63 1015.79 2038.73 1015.69 2038.83 1015.59C2041.73 1014.29 2044.23 1012.59 2046.53 1010.99L2047.63 1010.29C2049.33 1009.19 2050.73 1007.69 2051.63 1005.99C2051.93 1005.49 2052.13 1005.09 2052.33 1004.59C2052.93 1003.09 2053.33 1001.39 2053.23 999.685C2053.23 997.585 2052.53 995.585 2051.43 993.885L2051.53 994.085ZM1984.03 990.885C1976.73 989.885 1969.63 989.285 1962.93 988.885C1971.33 988.985 1979.73 989.785 1987.83 990.985C1993.53 991.785 1999.03 992.885 2004.23 994.185C1997.33 992.885 1990.63 991.785 1984.13 990.985L1984.03 990.885Z" fill="black"/>
<path d="M2207.63 1011.39C2200.93 1012.89 2196.33 1009.69 2190.73 1006.29C2185.13 1002.89 2188.63 1002.99 2190.33 1001.89C2225.93 979.685 2321.73 960.485 2353.43 1012.79C2312.83 987.785 2254.23 997.585 2207.63 1011.39Z" fill="black"/>
<path d="M2361.43 1007.89C2350.93 990.585 2333.83 978.985 2310.73 973.485C2269.33 963.585 2213.43 976.385 2185.33 993.985C2181.83 996.185 2179.73 999.885 2179.83 1003.99C2179.83 1005.39 2180.13 1006.79 2180.63 1008.09C2181.33 1009.99 2182.53 1011.59 2184.03 1012.99C2184.63 1013.49 2185.23 1013.99 2185.93 1014.39L2187.03 1015.09C2190.63 1017.29 2194.83 1019.89 2200.03 1020.89C2202.93 1021.49 2206.23 1021.49 2209.83 1020.69C2210.03 1020.69 2210.23 1020.69 2210.33 1020.59C2272.03 1002.39 2318.53 1002.49 2348.53 1020.99C2349.33 1021.49 2350.23 1021.89 2351.13 1022.09C2351.93 1022.29 2352.63 1022.39 2353.43 1022.39C2355.83 1022.39 2358.23 1021.49 2360.03 1019.69C2360.23 1019.49 2360.43 1019.29 2360.63 1019.09C2361.73 1017.79 2362.43 1016.19 2362.73 1014.49C2363.03 1012.39 2362.73 1010.09 2361.53 1008.19L2361.43 1007.89ZM2269.83 988.985C2257.03 990.185 2243.33 992.585 2228.73 995.985C2241.33 992.385 2255.63 989.785 2269.83 988.985Z" fill="black"/>
<path d="M2112.33 1395.19C2110.03 1395.19 2107.63 1395.19 2105.23 1395.19C2062.03 1394.39 2021.53 1385.59 1991.03 1370.69C1986.43 1368.39 1984.43 1362.79 1986.73 1358.19C1989.03 1353.59 1994.63 1351.59 1999.23 1353.89C2052.03 1379.79 2148.93 1388.09 2232.23 1353.69C2237.03 1351.69 2242.53 1353.99 2244.43 1358.79C2246.43 1363.59 2244.13 1369.09 2239.33 1370.99C2200.73 1386.99 2156.93 1395.29 2112.13 1395.29L2112.33 1395.19Z" fill="black"/>
<path d="M1800.43 1113.89C1800.43 1113.89 1781.23 958.485 1786.13 882.785C1791.03 807.085 1801.63 723.585 1906.43 650.185C1911.93 646.385 1917.63 642.785 1923.73 639.385C1931.23 635.185 1915.93 629.785 1943.03 613.685C2053.33 548.485 2232.53 579.285 2320.33 628.785C2395.73 671.285 2445.83 753.685 2455.63 850.685C2465.53 947.685 2468.03 1017.89 2444.33 1113.89C2444.33 1113.89 2429.23 1050.59 2414.33 1010.19C2399.43 969.785 2389.43 946.585 2387.03 896.885C2384.63 847.185 2383.03 842.185 2363.63 813.385C2349.53 792.285 2329.03 760.485 2299.83 766.585C2277.83 771.185 2215.13 797.485 2110.53 795.785C2005.93 794.085 1997.63 767.885 1972.83 762.685C1943.23 756.385 1890.53 790.385 1868.63 827.585C1846.73 864.785 1857.43 921.185 1844.93 940.785C1832.43 960.385 1809.13 977.785 1800.33 1113.99L1800.43 1113.89Z" fill="black"/>
<path d="M2439.83 1059.29C2439.83 1059.29 2439.83 1059.19 2439.83 1059.09C2439.83 1059.09 2439.83 1059.19 2439.83 1059.29C2440.03 1060.19 2440.23 1061.09 2440.33 1061.89C2440.33 1061.89 2440.53 1061.89 2440.53 1061.99C2440.33 1061.09 2440.03 1060.19 2439.73 1059.29H2439.83ZM2465.03 849.685C2461.13 810.885 2450.63 773.485 2434.53 739.985C2434.13 739.185 2433.73 738.385 2433.33 737.485C2429.43 729.585 2425.13 721.785 2420.63 714.385C2396.43 674.585 2363.33 642.185 2325.03 620.585C2236.63 570.685 2053.03 537.785 1938.33 605.585C1920.93 615.885 1916.63 623.985 1916.63 632.585C1911.23 635.685 1905.93 638.985 1901.13 642.485C1852.43 676.585 1819.43 715.685 1800.23 761.985C1783.13 803.185 1779.33 843.885 1776.83 882.085C1773.53 932.485 1780.63 1016.19 1786.03 1068.39C1786.53 1073.69 1787.13 1078.79 1787.63 1083.39C1787.63 1083.39 1787.63 1083.39 1787.63 1083.49C1787.73 1084.79 1787.93 1086.09 1788.03 1087.29C1788.63 1092.99 1789.23 1097.89 1789.73 1101.99V1102.09C1790.53 1109.29 1791.13 1113.89 1791.23 1114.89C1791.73 1118.79 1794.53 1121.79 1798.13 1122.79H1798.33C1799.03 1122.99 1799.73 1123.09 1800.53 1123.09C1801.33 1123.09 1800.73 1123.09 1800.83 1123.09C1803.33 1123.09 1805.63 1121.99 1807.23 1120.29L1807.43 1120.09C1808.03 1119.39 1808.63 1118.69 1809.03 1117.79C1809.13 1117.49 1809.23 1117.29 1809.33 1116.99C1809.53 1116.39 1809.73 1115.79 1809.83 1115.09C1809.83 1114.89 1809.83 1114.59 1809.83 1114.39C1810.13 1109.89 1810.43 1105.49 1810.73 1101.29C1810.73 1101.19 1810.73 1100.99 1810.73 1100.89C1810.73 1100.49 1810.73 1100.19 1810.73 1099.79C1810.73 1099.19 1810.83 1098.49 1810.83 1097.89C1810.83 1097.89 1810.83 1097.79 1810.83 1097.69C1811.03 1095.39 1811.23 1093.19 1811.43 1090.99C1811.43 1090.79 1811.43 1090.59 1811.43 1090.39C1811.43 1090.19 1811.43 1089.99 1811.43 1089.79C1811.43 1089.79 1811.43 1089.69 1811.43 1089.59C1811.43 1089.29 1811.43 1088.99 1811.43 1088.69C1811.43 1088.69 1811.43 1088.59 1811.43 1088.49C1811.63 1085.89 1811.93 1083.39 1812.13 1080.89C1812.13 1080.39 1812.13 1079.99 1812.23 1079.49C1812.33 1078.19 1812.53 1076.89 1812.63 1075.59C1813.03 1072.09 1813.33 1068.79 1813.73 1065.49C1813.73 1065.39 1813.73 1065.19 1813.73 1065.09C1813.73 1064.59 1813.83 1064.19 1813.93 1063.69C1814.33 1060.09 1814.83 1056.59 1815.23 1053.19C1815.23 1052.59 1815.33 1052.09 1815.43 1051.59C1818.03 1032.69 1821.03 1017.59 1824.13 1005.39V1005.19C1831.93 974.985 1840.83 962.485 1847.63 952.785C1849.33 950.385 1850.93 948.185 1852.43 945.785C1856.43 939.485 1858.43 931.085 1859.73 921.285C1859.73 921.285 1859.73 921.285 1859.73 921.185C1860.53 914.685 1861.03 907.585 1861.53 900.085C1861.73 897.085 1861.93 893.985 1862.23 890.885C1862.23 890.885 1862.23 890.885 1862.23 890.785C1863.83 870.585 1866.43 849.085 1876.33 832.485C1879.43 827.285 1883.13 822.085 1887.43 817.085C1910.93 789.585 1949.53 767.585 1970.53 771.985C1976.13 773.185 1980.83 775.785 1987.33 779.385C2005.23 789.185 2032.33 804.085 2110.03 805.385C2195.93 806.785 2253.83 789.685 2284.93 780.585C2292.03 778.485 2297.53 776.885 2301.43 776.085C2310.43 774.185 2318.73 777.385 2326.23 783.285C2337.23 791.785 2346.63 805.785 2354.33 817.285L2355.43 818.985C2362.73 829.885 2367.33 836.885 2370.33 844.685C2374.73 855.985 2375.73 868.885 2377.23 897.785C2379.53 944.885 2388.83 969.785 2401.63 1004.39C2402.73 1007.49 2403.93 1010.59 2405.13 1013.89C2409.13 1024.79 2413.13 1037.39 2416.93 1049.99C2417.23 1050.89 2417.43 1051.79 2417.73 1052.69C2418.63 1055.69 2419.43 1058.69 2420.33 1061.59C2420.53 1062.49 2420.83 1063.39 2421.13 1064.29C2421.33 1064.89 2421.43 1065.49 2421.63 1066.09C2422.33 1068.49 2422.93 1070.89 2423.63 1073.29C2423.83 1074.19 2424.13 1075.09 2424.43 1075.99C2424.53 1076.49 2424.73 1076.99 2424.83 1077.59C2425.33 1079.39 2425.83 1081.19 2426.23 1082.89C2426.23 1082.89 2426.23 1082.99 2426.23 1083.09C2426.83 1085.19 2427.33 1087.19 2427.83 1089.19C2428.13 1090.29 2428.43 1091.39 2428.63 1092.49C2428.63 1092.69 2428.73 1092.89 2428.83 1093.19C2429.33 1094.99 2429.73 1096.69 2430.13 1098.29C2430.43 1099.59 2430.73 1100.79 2431.03 1101.99C2431.13 1102.49 2431.33 1102.99 2431.43 1103.49C2431.83 1104.99 2432.13 1106.39 2432.53 1107.69C2433.93 1113.19 2434.73 1116.59 2434.73 1116.69C2434.73 1116.79 2434.73 1116.89 2434.73 1117.09C2435.53 1120.09 2437.73 1122.29 2440.53 1123.39C2440.73 1123.39 2440.93 1123.49 2441.03 1123.59C2441.83 1123.89 2442.73 1123.99 2443.63 1123.99C2445.93 1123.99 2448.03 1123.19 2449.63 1121.79C2449.73 1121.69 2449.93 1121.59 2450.03 1121.39C2451.23 1120.29 2452.13 1118.79 2452.53 1117.19C2452.53 1117.09 2452.53 1116.99 2452.63 1116.79C2452.63 1116.49 2452.73 1116.19 2452.83 1115.99C2453.43 1113.59 2454.03 1111.19 2454.53 1108.89C2454.53 1108.49 2454.73 1108.19 2454.83 1107.79C2455.33 1105.49 2455.93 1103.19 2456.43 1100.89C2456.43 1100.49 2456.63 1100.09 2456.73 1099.69C2456.83 1099.29 2456.93 1098.89 2457.03 1098.49C2457.03 1098.49 2457.03 1098.39 2457.03 1098.29C2457.03 1098.29 2457.03 1098.29 2457.03 1098.19C2457.43 1096.49 2457.83 1094.79 2458.13 1093.09C2458.83 1089.89 2459.43 1086.79 2460.03 1083.59C2460.13 1082.99 2460.23 1082.39 2460.43 1081.79C2460.83 1079.89 2461.13 1078.09 2461.53 1076.29C2461.73 1075.29 2461.93 1074.29 2462.03 1073.29C2463.83 1063.19 2465.33 1053.29 2466.63 1043.59C2466.63 1043.59 2466.63 1043.49 2466.63 1043.39C2467.13 1039.69 2467.53 1035.99 2467.93 1032.29C2467.93 1032.29 2467.93 1032.19 2467.93 1032.09C2474.03 974.985 2471.23 920.485 2464.13 850.485L2465.03 849.685ZM2387.73 835.885C2384.23 827.585 2379.13 819.485 2371.53 808.085L2370.43 806.385C2356.83 786.085 2336.83 756.285 2307.53 756.285C2278.23 756.285 2301.33 756.585 2298.13 757.285C2293.53 758.285 2287.63 759.985 2280.23 762.185C2250.13 771.085 2194.03 787.585 2110.93 786.285C2037.83 785.085 2014.23 772.085 1996.93 762.585C1989.93 758.685 1983.23 755.085 1974.93 753.285C1967.83 751.785 1959.83 752.085 1951.63 753.885C1924.23 759.785 1893.03 781.585 1872.73 805.785C1868.13 811.285 1864.03 816.985 1860.73 822.585C1847.13 845.585 1845.13 874.885 1843.43 898.485C1842.33 914.185 1841.33 929.085 1837.23 935.485C1835.93 937.485 1834.53 939.585 1832.93 941.785C1825.03 952.985 1814.63 967.585 1805.93 1003.19C1805.93 1003.49 1805.83 1003.69 1805.73 1003.99C1804.03 1010.79 1802.53 1018.19 1800.93 1026.59C1796.73 978.385 1793.13 920.585 1795.53 883.285C1795.93 876.485 1796.43 869.685 1797.13 862.885C1797.43 859.285 1797.83 855.685 1798.13 852.185C1805.53 783.685 1826.33 717.585 1911.83 657.785C1916.93 654.185 1922.53 650.685 1928.33 647.485C1936.13 643.085 1935.63 636.085 1935.43 633.485C1935.36 632.552 1935.46 631.852 1935.73 631.385C1936.63 629.985 1939.43 626.785 1947.93 621.785C2056.53 557.585 2231.43 589.285 2315.83 636.985C2317.13 637.785 2318.53 638.485 2319.83 639.285C2361.13 663.685 2394.43 701.185 2416.73 746.685C2417.13 747.485 2417.53 748.285 2417.93 749.085C2432.83 780.085 2442.63 814.785 2446.33 851.485C2454.13 928.685 2456.63 986.485 2447.43 1050.09C2446.83 1053.99 2446.23 1057.89 2445.63 1061.89C2445.53 1062.59 2445.43 1063.39 2445.23 1064.09C2445.23 1064.39 2445.23 1064.69 2445.13 1064.99C2444.73 1067.09 2444.43 1069.29 2444.03 1071.39C2444.03 1071.99 2443.83 1072.49 2443.73 1073.09C2443.53 1072.39 2443.33 1071.69 2443.13 1070.99C2442.33 1068.09 2441.53 1064.99 2440.63 1061.89C2440.43 1060.99 2440.13 1060.09 2439.83 1059.19C2439.83 1059.19 2439.83 1059.09 2439.83 1058.99C2434.93 1041.49 2429.13 1022.59 2423.33 1006.79C2422.13 1003.49 2420.93 1000.29 2419.83 997.285C2407.13 963.085 2398.73 940.585 2396.63 896.385C2395.03 864.385 2393.73 849.885 2387.93 835.885H2387.73ZM2439.83 1059.29C2439.83 1059.29 2439.83 1059.19 2439.83 1059.09C2439.83 1059.09 2439.83 1059.19 2439.83 1059.29C2440.03 1060.19 2440.23 1061.09 2440.33 1061.89C2440.33 1061.89 2440.53 1061.89 2440.53 1061.99C2440.33 1061.09 2440.03 1060.19 2439.73 1059.29H2439.83Z" fill="black"/>
<path d="M2526.03 1191.89C2522.03 1232.39 2511.03 1268.29 2496.63 1287.99C2475.13 1317.39 2446.03 1319.49 2427.23 1315.19C2412.63 1385.29 2392.23 1440.39 2366.53 1478.99C2364.73 1481.69 2362.43 1484.79 2359.53 1488.19C2354.53 1494.19 2348.03 1501.19 2340.03 1508.69C2296.83 1549.39 2212.23 1605.19 2110.33 1605.19H2110.03C2050.13 1605.19 1994.93 1588.99 1945.93 1557.09C1924.23 1542.99 1907.03 1527.89 1893.83 1514.19C1886.63 1506.69 1880.63 1499.59 1875.63 1493.29C1868.83 1484.59 1864.03 1477.29 1861.13 1472.59C1836.73 1432.39 1818.33 1332.59 1812.43 1297.89C1795.73 1303.89 1781.73 1303.69 1769.63 1297.39C1740.53 1282.29 1730.73 1234.89 1720.83 1174.49C1712.53 1123.39 1726.73 1097.49 1740.13 1084.69C1752.13 1073.29 1768.33 1067.59 1785.93 1068.39C1789.13 1068.49 1792.33 1068.89 1795.53 1069.49C1795.83 1069.49 1796.23 1069.59 1796.53 1069.69C1797.23 1069.79 1797.83 1069.99 1798.53 1070.09C1800.73 1070.59 1802.53 1071.79 1803.83 1073.39C1804.13 1073.79 1804.43 1074.19 1804.63 1074.49C1805.83 1076.49 1806.23 1078.79 1805.73 1081.19C1805.33 1082.89 1804.53 1084.39 1803.43 1085.59C1803.13 1085.89 1802.93 1086.19 1802.63 1086.39C1801.23 1087.59 1799.43 1088.29 1797.63 1088.59C1796.63 1088.69 1795.63 1088.59 1794.63 1088.39C1794.63 1088.39 1794.43 1088.39 1794.33 1088.39C1792.23 1087.99 1790.13 1087.59 1788.03 1087.39C1774.53 1086.09 1762.03 1089.89 1753.23 1098.29C1738.73 1112.09 1734.03 1137.39 1739.53 1171.49C1747.93 1222.79 1757.23 1269.79 1778.43 1280.79C1787.53 1285.49 1799.73 1283.99 1815.83 1276.19C1818.53 1274.89 1821.63 1274.99 1824.23 1276.29C1826.83 1277.69 1828.73 1280.19 1829.13 1283.19C1829.33 1284.49 1850.13 1418.09 1877.23 1462.79C1880.13 1467.59 1885.03 1474.99 1892.13 1483.89C1892.23 1484.09 1892.43 1484.19 1892.53 1484.39C1905.63 1500.69 1926.33 1521.89 1956.13 1541.39C2002.03 1571.19 2053.83 1586.39 2110.03 1586.49H2110.23C2220.83 1586.49 2311.83 1514.59 2343.03 1478.59C2343.03 1478.59 2343.03 1478.59 2343.03 1478.49C2346.23 1474.79 2348.83 1471.49 2350.63 1468.59C2376.23 1430.09 2396.43 1373.79 2410.63 1301.09C2411.23 1298.29 2413.03 1295.79 2415.63 1294.49C2418.23 1293.19 2421.23 1293.19 2423.83 1294.39C2425.13 1294.99 2457.43 1309.29 2481.23 1276.89C2493.53 1260.09 2503.43 1226.79 2507.13 1189.99C2510.63 1155.19 2507.43 1124.59 2499.33 1113.59C2490.13 1101.19 2471.92 1097.99 2456.92 1100.09C2455.42 1100.29 2453.93 1100.59 2452.53 1100.89C2452.33 1100.89 2452.23 1100.89 2452.03 1100.89C2451.83 1100.89 2451.63 1100.89 2451.53 1100.99C2450.93 1100.99 2450.42 1101.09 2449.92 1101.09C2448.92 1101.09 2448.03 1100.99 2447.13 1100.69C2444.03 1099.69 2441.63 1097.19 2440.83 1093.89C2440.63 1093.19 2440.63 1092.49 2440.63 1091.79C2440.63 1087.59 2443.53 1083.69 2447.83 1082.69C2448.93 1082.49 2450.03 1082.19 2451.13 1081.99C2451.53 1081.99 2451.83 1081.89 2452.23 1081.79C2455.03 1081.29 2457.92 1080.99 2460.92 1080.79C2461.32 1080.79 2461.73 1080.79 2462.03 1080.79C2481.23 1079.89 2502.13 1085.89 2514.33 1102.39C2530.93 1124.79 2527.23 1176.49 2525.73 1191.79L2526.03 1191.89Z" fill="black"/>
<path d="M1794.13 1250.89C1784.73 1250.89 1769.43 1246.59 1755.63 1223.19C1753.03 1218.79 1754.43 1212.99 1758.93 1210.39C1763.43 1207.79 1769.13 1209.19 1771.73 1213.69C1779.43 1226.69 1788.53 1233.59 1795.93 1232.09C1798.63 1231.49 1800.23 1229.99 1800.73 1228.99C1800.43 1228.79 1799.93 1228.59 1799.33 1228.49C1785.63 1224.49 1776.73 1211.69 1775.53 1194.09C1774.43 1177.49 1780.53 1157.49 1794.33 1151.39C1799.03 1149.29 1804.63 1151.39 1806.73 1156.19C1808.83 1160.99 1806.73 1166.49 1801.93 1168.59C1798.33 1170.19 1793.43 1180.69 1794.23 1192.89C1794.53 1197.39 1796.13 1208.09 1804.53 1210.49C1815.83 1213.69 1819.73 1221.99 1819.73 1228.69C1819.73 1238.19 1811.93 1247.19 1801.43 1250.09C1799.93 1250.49 1797.43 1250.99 1794.23 1250.99L1794.13 1250.89Z" fill="black"/>
<path d="M1759.43 1171.59C1754.43 1171.59 1750.23 1167.59 1750.03 1162.59C1748.93 1133.79 1754.63 1124.59 1769.93 1107.59C1773.43 1103.79 1779.33 1103.39 1783.13 1106.89C1786.93 1110.39 1787.33 1116.29 1783.83 1120.09C1771.13 1134.19 1767.93 1138.79 1768.73 1161.79C1768.93 1166.99 1764.93 1171.29 1759.73 1171.49C1759.63 1171.49 1759.53 1171.49 1759.33 1171.49L1759.43 1171.59Z" fill="black"/>
<path d="M2446.73 1254.39C2436.53 1254.39 2429.53 1250.69 2427.73 1244.19C2426.93 1241.49 2426.13 1234.59 2435.23 1229.09C2446.43 1222.29 2448.03 1196.29 2438.23 1179.39C2435.63 1174.89 2437.13 1169.19 2441.63 1166.59C2446.13 1163.99 2451.83 1165.49 2454.43 1169.99C2465.43 1188.89 2466.83 1216.89 2455.83 1234.19C2457.43 1233.69 2459.13 1233.09 2460.73 1232.29C2468.43 1228.49 2473.53 1222.29 2475.73 1213.89C2477.03 1208.89 2482.13 1205.89 2487.23 1207.19C2492.23 1208.49 2495.23 1213.59 2493.93 1218.69C2487.43 1243.09 2465.83 1254.29 2447.23 1254.49C2447.13 1254.49 2446.93 1254.49 2446.83 1254.49L2446.73 1254.39Z" fill="black"/>
<path d="M2484.23 1159.59C2483.63 1159.59 2483.03 1159.59 2482.43 1159.39C2477.33 1158.39 2474.03 1153.49 2475.03 1148.39C2478.03 1133.19 2465.13 1129.49 2465.03 1129.49C2460.03 1128.19 2456.93 1123.19 2458.23 1118.09C2459.53 1113.09 2464.53 1109.99 2469.63 1111.29C2481.33 1114.19 2498.13 1127.89 2493.43 1151.99C2492.53 1156.49 2488.63 1159.59 2484.23 1159.59Z" fill="black"/>
<path d="M2359.72 1484.99V1488.19C2359.62 1488.19 2355.72 1595.19 2355.72 1595.19L2355.02 1614.39V1617.99C2354.92 1617.99 2354.82 1619.49 2354.82 1619.49C2354.62 1624.59 2350.52 1628.49 2345.42 1628.49H2345.12C2341.22 1628.39 2337.92 1625.79 2336.62 1622.39C2336.62 1622.39 2336.62 1622.29 2336.62 1622.19C2336.62 1621.99 2336.42 1621.69 2336.42 1621.39C2336.42 1621.19 2336.32 1620.89 2336.22 1620.69C2336.22 1620.49 2336.22 1620.29 2336.22 1620.09C2336.22 1620.09 2336.22 1619.89 2336.22 1619.79C2336.22 1619.59 2336.22 1619.39 2336.22 1619.09C2336.22 1618.79 2336.22 1618.89 2336.22 1618.79L2340.22 1508.59L2341.12 1484.19C2341.12 1481.99 2342.02 1479.99 2343.32 1478.49C2343.32 1478.49 2343.32 1478.49 2343.32 1478.39C2345.12 1476.39 2347.82 1475.09 2350.72 1475.19C2355.92 1475.39 2359.92 1479.69 2359.72 1484.89V1484.99Z" fill="black"/>
<path d="M1894.53 1490.39L1893.93 1514.19L1890.13 1657.49C1890.13 1658.09 1890.03 1658.69 1889.93 1659.29C1889.93 1659.49 1889.83 1659.79 1889.73 1659.99C1889.73 1660.09 1889.73 1660.29 1889.63 1660.39C1889.63 1660.59 1889.53 1660.79 1889.43 1660.99C1889.43 1661.19 1889.33 1661.29 1889.23 1661.49C1889.23 1661.69 1889.03 1661.79 1888.93 1661.99C1888.93 1662.19 1888.73 1662.29 1888.63 1662.49C1888.63 1662.69 1888.43 1662.79 1888.33 1662.99C1888.23 1663.19 1888.13 1663.29 1887.93 1663.49C1887.83 1663.59 1887.73 1663.79 1887.53 1663.89C1887.13 1664.29 1886.63 1664.69 1886.23 1664.99C1886.23 1664.99 1886.13 1664.99 1886.03 1665.09C1884.53 1666.09 1882.83 1666.69 1880.83 1666.69C1878.83 1666.69 1880.63 1666.69 1880.53 1666.69C1875.33 1666.59 1871.33 1662.29 1871.43 1657.09V1652.59C1871.53 1652.59 1872.33 1623.59 1872.33 1623.59L1872.83 1604.09L1875.83 1493.39V1489.99C1876.03 1484.79 1880.33 1480.79 1885.53 1480.89C1888.23 1480.89 1890.63 1482.19 1892.33 1484.09C1892.43 1484.29 1892.63 1484.39 1892.73 1484.59C1894.03 1486.19 1894.73 1488.29 1894.63 1490.59L1894.53 1490.39Z" fill="black"/>
<path d="M2448.43 1731.79C2448.43 1727.69 2447.53 1724.19 2446.13 1721.39C2445.53 1720.29 2444.93 1719.09 2444.23 1717.79C2441.83 1713.09 2438.73 1706.99 2435.33 1700.19C2431.43 1692.39 2427.53 1684.69 2423.73 1677.29C2423.73 1677.09 2423.53 1676.99 2423.43 1676.79C2421.53 1673.09 2419.73 1669.59 2417.93 1666.09C2405.13 1641.49 2393.93 1621.39 2386.43 1613.19C2379.43 1605.39 2371.23 1600.79 2364.13 1598.09C2364.13 1598.09 2363.93 1598.09 2363.83 1598.09C2360.83 1596.99 2358.13 1596.19 2355.63 1595.59C2350.33 1594.39 2346.63 1594.19 2346.23 1594.19C2345.93 1594.19 2345.73 1594.19 2345.43 1594.19C2345.43 1594.19 2345.23 1594.19 2345.13 1594.19C2340.43 1594.59 2336.73 1598.39 2336.53 1603.19C2336.43 1606.59 2338.13 1609.69 2340.73 1611.39C2341.83 1612.09 2343.03 1612.59 2344.33 1612.79C2344.33 1612.79 2344.53 1612.79 2344.63 1612.79C2344.93 1612.79 2345.13 1612.79 2345.43 1612.79C2345.43 1612.79 2345.63 1612.79 2345.93 1612.79C2346.03 1612.79 2346.13 1612.79 2346.23 1612.79C2347.43 1612.89 2349.83 1613.29 2352.83 1614.09C2353.43 1614.29 2354.03 1614.39 2354.63 1614.69C2357.13 1615.49 2359.93 1616.59 2362.73 1618.29C2362.73 1618.29 2362.93 1618.29 2363.03 1618.49C2366.13 1620.29 2369.33 1622.69 2372.13 1625.79C2378.43 1632.79 2389.93 1653.69 2400.93 1674.89C2400.93 1674.89 2400.93 1674.99 2401.03 1675.09C2403.13 1679.09 2405.13 1683.09 2407.13 1686.99C2407.13 1687.19 2407.33 1687.29 2407.43 1687.49C2411.33 1695.09 2414.93 1702.39 2418.13 1708.69C2422.53 1717.49 2426.33 1724.99 2429.03 1730.19C2431.03 1735.59 2424.63 1763.59 2396.73 1801.09C2390.13 1809.99 2381.73 1820.19 2371.53 1830.89C2361.43 1841.49 2349.53 1852.69 2335.43 1864.09C2335.43 1864.09 2335.43 1864.09 2335.33 1864.19C2316.63 1879.39 2294.13 1894.89 2267.13 1909.59C2262.33 1912.29 2257.33 1914.89 2252.13 1917.49C2249.23 1918.99 2247.33 1921.79 2247.03 1924.89V1925.29C2247.03 1925.49 2247.03 1925.69 2247.03 1925.89C2247.03 1927.29 2247.33 1928.79 2248.03 1930.09C2249.33 1932.69 2251.73 1934.49 2254.43 1934.99C2255.03 1935.09 2255.73 1935.19 2256.33 1935.19C2257.73 1935.19 2259.23 1934.89 2260.53 1934.19C2262.13 1933.39 2263.63 1932.59 2265.23 1931.79C2295.83 1915.89 2323.63 1897.89 2348.13 1877.89L2348.33 1877.69C2361.33 1867.09 2373.43 1855.89 2384.63 1844.19C2386.63 1842.09 2388.63 1839.89 2390.63 1837.79C2416.53 1809.39 2436.03 1778.49 2444.13 1752.89C2444.33 1752.09 2444.63 1751.39 2444.83 1750.59C2446.13 1746.19 2447.03 1742.19 2447.43 1738.59C2447.73 1736.29 2447.83 1734.09 2447.83 1732.09L2448.43 1731.79Z" fill="black"/>
<path d="M2162.63 1822.89C2160.23 1822.89 2157.83 1821.99 2156.03 1820.19C2152.33 1816.49 2152.33 1810.59 2156.03 1806.89C2157.33 1805.59 2158.92 1804.69 2160.72 1804.39C2230.12 1787.39 2291.72 1723.99 2322.02 1668.59C2336.82 1641.49 2338.22 1626.69 2336.72 1622.29C2335.02 1617.39 2337.62 1612.09 2342.52 1610.39C2347.42 1608.69 2352.72 1611.29 2354.42 1616.19C2360.32 1633.39 2347.02 1662.09 2338.52 1677.59C2306.22 1736.59 2240.02 1804.39 2165.02 1822.59C2164.32 1822.79 2163.53 1822.89 2162.83 1822.89H2162.63Z" fill="black"/>
<path d="M2001.52 1826.39C2000.22 1826.39 1998.82 1826.09 1997.52 1825.49C1952.62 1804.39 1858.62 1743.59 1854.12 1690.69C1853.12 1679.29 1856.03 1662.89 1875.33 1649.49C1879.63 1646.49 1885.43 1647.59 1888.33 1651.79C1891.33 1655.99 1890.22 1661.89 1886.02 1664.79C1876.22 1671.69 1872.03 1679.39 1872.83 1689.09C1876.03 1727.29 1953.32 1783.99 2005.52 1808.49C2010.22 1810.69 2012.22 1816.29 2010.02 1820.99C2008.42 1824.39 2005.02 1826.39 2001.52 1826.39Z" fill="black"/>
<path d="M1910.03 1928.49C1908.23 1930.99 1905.33 1932.39 1902.43 1932.39C1899.53 1932.39 1898.63 1931.79 1896.93 1930.59C1892.13 1927.19 1887.33 1923.49 1882.43 1919.79C1824.63 1875.39 1758.33 1809.59 1740.93 1731.59C1740.93 1731.59 1740.93 1731.39 1740.93 1731.29C1740.33 1728.59 1739.43 1722.89 1745.43 1710.69C1749.33 1702.69 1756.23 1691.89 1768.13 1677.39C1784.23 1657.79 1804.53 1637.39 1819.93 1625.59C1835.03 1613.99 1861.33 1606.79 1872.83 1603.99C1876.03 1603.19 1878.13 1602.79 1878.43 1602.79C1883.53 1601.79 1888.43 1605.09 1889.43 1610.09C1890.43 1615.19 1887.13 1620.09 1882.13 1621.09C1879.73 1621.59 1876.33 1622.39 1872.33 1623.39C1859.73 1626.69 1841.33 1632.69 1831.43 1640.39C1817.43 1651.19 1798.63 1669.99 1783.53 1688.19C1769.93 1704.69 1763.63 1715.49 1761.03 1721.69C1761.03 1721.69 1761.03 1721.69 1761.03 1721.79C1760.93 1721.99 1760.83 1722.29 1760.73 1722.49C1759.63 1725.09 1759.33 1726.79 1759.43 1727.59C1777.53 1808.49 1856.63 1877.49 1904.73 1912.89C1905.93 1913.79 1907.03 1914.59 1908.13 1915.39C1912.33 1918.39 1913.23 1924.29 1910.23 1928.49H1910.03Z" fill="black"/>
<path d="M3262.13 3627.19H3243.33C3229.63 3489.09 3229.83 3280.59 3234.83 3113.39C3240.53 2920.29 3246.52 2720.69 3226.42 2542.59C3212.52 2419.69 3187.23 2319.49 3149.83 2240.39C3148.33 2237.19 3146.82 2233.99 3145.22 2230.89C3122.42 2184.79 3095.23 2146.09 3063.63 2114.39C2893.53 1943.69 2604.92 1787.39 2455.42 1740.49C2452.92 1739.69 2450.53 1738.99 2448.13 1738.29C2444.73 1737.29 2441.33 1736.29 2438.13 1735.39C2438.03 1735.39 2437.93 1735.39 2437.83 1735.39C2437.03 1735.19 2436.22 1734.99 2435.42 1734.79C2433.52 1734.29 2431.83 1733.19 2430.63 1731.69C2430.43 1731.39 2430.23 1731.19 2430.03 1730.89C2429.83 1730.59 2429.63 1730.29 2429.53 1729.99C2429.33 1729.59 2429.13 1729.29 2429.03 1728.89C2428.93 1728.59 2428.83 1728.19 2428.73 1727.89C2428.42 1726.39 2428.42 1724.89 2428.73 1723.29C2430.02 1718.29 2435.23 1715.29 2440.23 1716.69C2441.53 1717.09 2442.93 1717.39 2444.23 1717.79C2444.23 1717.79 2444.32 1717.79 2444.42 1717.79C2444.42 1717.79 2444.53 1717.79 2444.63 1717.79C2520.53 1738.99 2632.93 1790.59 2746.63 1856.69C2879.23 1933.79 2996.53 2020.59 3077.03 2101.29C3109.93 2134.29 3138.42 2174.99 3162.22 2222.89C3163.92 2226.29 3165.62 2229.79 3167.22 2233.19C3176.02 2251.69 3184.12 2271.29 3191.42 2291.79C3216.52 2361.69 3234.13 2443.09 3245.13 2540.59C3261.93 2689.09 3260.73 2851.89 3256.53 3013.39V3013.59C3255.63 3047.19 3254.63 3080.69 3253.63 3114.09C3252.53 3151.19 3251.63 3190.39 3251.13 3230.39C3249.23 3370.69 3251.52 3520.89 3262.22 3627.39L3262.13 3627.19Z" fill="black"/>
<path d="M2835.62 2262.59C2835.62 2262.59 2835.62 2262.69 2835.52 2262.79C2835.12 2263.29 2834.72 2263.69 2834.32 2264.09C2795.52 2297.69 2769.52 2380.29 2754.82 2516.49C2741.62 2638.89 2739.12 2788.99 2736.62 2934.09L2736.12 2963.89C2734.42 3060.39 2729.42 3159.89 2724.62 3256.09C2717.62 3394.59 2710.92 3526.39 2715.72 3627.29H2696.92C2692.22 3525.49 2698.92 3393.69 2705.92 3255.19C2710.72 3159.09 2715.82 3059.79 2717.42 2963.59L2717.92 2933.79C2720.32 2788.29 2722.92 2637.79 2736.22 2514.59C2751.62 2371.49 2778.92 2287.49 2822.02 2250.09C2825.92 2246.69 2831.82 2247.09 2835.22 2250.99C2838.12 2254.39 2838.22 2259.29 2835.62 2262.69V2262.59Z" fill="black"/>
<path d="M1921.63 1879.69C1917.13 1879.69 1913.13 1876.49 1912.43 1871.89C1912.13 1870.29 1912.03 1868.69 1912.03 1866.99C1912.03 1841.49 1943.93 1819.99 1999.53 1807.99C2027.13 1801.99 2058.93 1798.89 2091.53 1798.89C2124.13 1798.89 2141.03 1800.69 2163.73 1804.29C2163.93 1804.29 2164.13 1804.29 2164.33 1804.29C2231.13 1814.99 2271.03 1838.39 2271.03 1866.89V1867.09C2271.03 1867.09 2271.03 1867.09 2271.03 1867.19C2271.03 1868.59 2270.93 1870.09 2270.73 1871.39C2270.73 1871.49 2270.73 1871.59 2270.73 1871.69C2270.73 1871.79 2270.73 1871.99 2270.73 1872.09C2269.63 1877.19 2264.63 1880.39 2259.63 1879.29C2254.63 1878.19 2251.43 1873.39 2252.43 1868.39C2252.43 1867.99 2252.43 1867.49 2252.53 1866.99C2252.53 1852.19 2221.23 1832.29 2161.53 1822.79C2161.53 1822.79 2161.43 1822.79 2161.33 1822.79C2139.43 1819.29 2116.03 1817.49 2091.73 1817.49C2067.43 1817.49 2030.03 1820.49 2003.63 1826.19C1953.33 1836.99 1930.83 1854.49 1930.83 1866.89C1930.83 1879.29 1930.83 1868.09 1930.93 1868.69C1931.83 1873.79 1928.33 1878.59 1923.23 1879.49C1922.73 1879.49 1922.23 1879.59 1921.63 1879.59V1879.69Z" fill="black"/>
<path d="M2091.53 2247.49C2052.13 2247.49 2015.03 2242.19 1986.93 2232.49C1946.93 2218.69 1938.53 2200.99 1938.53 2188.59C1938.53 2176.19 1942.73 2179.19 1947.93 2179.19C1953.13 2179.19 1957.33 2183.39 1957.33 2188.59C1957.33 2193.79 1966.73 2205.69 1993.13 2214.79C2019.33 2223.79 2054.23 2228.79 2091.63 2228.79C2129.03 2228.79 2163.93 2223.79 2190.13 2214.79C2216.53 2205.69 2225.93 2195.29 2225.93 2188.59C2225.93 2181.89 2230.13 2179.19 2235.33 2179.19C2240.53 2179.19 2244.73 2183.39 2244.73 2188.59C2244.73 2200.99 2236.33 2218.69 2196.33 2232.49C2168.23 2242.19 2131.13 2247.49 2091.73 2247.49H2091.53Z" fill="black"/>
<path d="M2235.13 2197.89C2229.93 2197.89 2225.73 2193.69 2225.73 2188.49C2225.73 2183.29 2216.33 2171.39 2189.93 2162.29C2163.73 2153.29 2128.83 2148.29 2091.43 2148.29C2054.03 2148.29 2019.13 2153.29 1992.93 2162.29C1966.53 2171.39 1957.13 2181.79 1957.13 2188.49C1957.13 2195.19 1952.93 2197.89 1947.73 2197.89C1942.53 2197.89 1938.33 2193.69 1938.33 2188.49C1938.33 2176.09 1946.73 2158.39 1986.73 2144.59C2014.83 2134.89 2051.93 2129.59 2091.33 2129.59C2130.73 2129.59 2167.83 2134.89 2195.93 2144.59C2235.93 2158.39 2244.33 2176.09 2244.33 2188.49C2244.33 2200.89 2240.13 2197.89 2234.93 2197.89H2235.13Z" fill="black"/>
<path d="M1944.23 2152.69C1943.03 2152.69 1941.73 2152.49 1940.53 2151.89C1935.83 2149.79 1933.63 2144.29 1935.63 2139.59C1946.13 2115.39 1987.13 2103.29 2010.63 2098.19C2034.93 2092.89 2062.83 2090.19 2091.63 2090.19C2170.83 2090.19 2234.93 2110.49 2247.53 2139.59C2249.63 2144.29 2247.43 2149.89 2242.63 2151.89C2237.93 2153.99 2232.33 2151.79 2230.33 2146.99C2222.33 2128.69 2167.03 2108.89 2091.53 2108.89C2016.03 2108.89 2037.53 2111.49 2014.53 2116.49C1975.03 2124.99 1956.73 2137.89 1952.73 2146.99C1951.23 2150.49 1947.73 2152.59 1944.13 2152.59L1944.23 2152.69Z" fill="black"/>
<path d="M2235.13 2197.89C2234.83 2197.89 2234.63 2197.89 2234.33 2197.89C2229.13 2197.49 2225.33 2192.89 2225.73 2187.79L2252.33 1866.39C2252.63 1861.19 2257.13 1857.29 2262.33 1857.69C2267.53 1857.99 2271.43 1862.49 2271.03 1867.69V1867.89C2271.03 1867.89 2271.03 1867.99 2271.03 1868.09L2266.23 1926.59L2244.53 2189.49C2244.13 2194.39 2240.03 2198.09 2235.23 2198.09L2235.13 2197.89Z" fill="black"/>
<path d="M1947.92 2197.89C1943.12 2197.89 1939.02 2194.18 1938.62 2189.28L1912.02 1867.69C1911.62 1862.49 1915.42 1857.99 1920.62 1857.59C1925.72 1857.19 1930.32 1860.99 1930.72 1866.19L1957.33 2187.78C1957.73 2192.98 1953.92 2197.49 1948.72 2197.89C1948.42 2197.89 1948.22 2197.89 1947.92 2197.89Z" fill="black"/>
<path d="M1849.93 1961.39C1847.63 1961.39 1845.23 1960.49 1843.43 1958.79C1839.73 1955.19 1839.63 1949.29 1843.13 1945.59C1844.53 1944.19 1877.03 1910.79 1925.73 1910.79C1974.43 1910.79 1935.13 1914.99 1935.13 1920.19C1935.13 1925.39 1930.93 1929.59 1925.73 1929.59C1885.23 1929.59 1856.93 1958.29 1856.63 1958.59C1854.83 1960.49 1852.33 1961.49 1849.93 1961.49V1961.39Z" fill="black"/>
<path d="M1887.63 1989.99C1884.13 1989.99 1880.73 1987.99 1879.13 1984.59C1876.93 1979.89 1879.03 1974.29 1883.73 1972.19C1891.13 1968.79 1916.53 1957.89 1932.13 1961.69C1937.13 1962.89 1940.23 1967.99 1939.03 1972.99C1937.83 1977.99 1932.73 1981.09 1927.73 1979.89C1922.63 1978.69 1908.23 1981.49 1891.53 1989.19C1890.23 1989.79 1888.93 1990.09 1887.63 1990.09V1989.99Z" fill="black"/>
<path d="M1933.73 2130.49C1892.13 2130.49 1870.83 2099.19 1869.93 2097.69C1867.03 2093.39 1868.23 2087.59 1872.53 2084.69C1876.83 2081.79 1882.63 2082.99 1885.53 2087.29C1886.33 2088.39 1904.93 2115.29 1941.23 2111.19C1946.33 2110.59 1951.03 2114.29 1951.63 2119.49C1952.23 2124.69 1948.53 2129.29 1943.33 2129.89C1940.03 2130.29 1936.83 2130.39 1933.63 2130.39L1933.73 2130.49Z" fill="black"/>
<path d="M1945.02 2176.09C1944.82 2176.09 1944.72 2176.09 1944.52 2176.09C1938.32 2175.79 1883.32 2171.99 1860.02 2145.09C1856.62 2141.19 1857.03 2135.29 1860.93 2131.89C1864.83 2128.49 1870.72 2128.89 1874.12 2132.79C1889.02 2149.99 1927.32 2156.39 1945.52 2157.39C1950.72 2157.69 1954.63 2162.09 1954.33 2167.29C1954.03 2172.29 1949.92 2176.19 1945.02 2176.19V2176.09Z" fill="black"/>
<path d="M1994.23 2223.79C1993.53 2227.19 1992.73 2230.69 1992.03 2234.19C1989.43 2246.49 1986.93 2259.09 1984.43 2271.69C1981.03 2289.09 1977.83 2306.59 1974.83 2324.19C1972.53 2337.49 1970.33 2350.89 1968.23 2364.29C1957.83 2430.19 1949.93 2496.89 1944.43 2564.09C1943.93 2570.79 1943.33 2577.59 1942.83 2584.29C1942.83 2584.29 1942.83 2584.39 1942.83 2584.49C1942.23 2592.79 1941.63 2601.09 1941.13 2609.39C1940.93 2612.79 1940.73 2616.09 1940.53 2619.49C1940.33 2622.89 1940.13 2626.29 1939.93 2629.69C1939.63 2635.29 1939.33 2640.79 1939.03 2646.39C1938.83 2649.69 1938.73 2652.89 1938.53 2656.19C1938.33 2659.39 1938.23 2662.69 1938.03 2665.99C1937.83 2670.19 1937.73 2674.29 1937.53 2678.49C1937.53 2680.09 1932.73 2821.39 1929.03 2902.49C1928.63 2910.59 1928.33 2918.09 1927.93 2924.79C1927.93 2925.09 1927.93 2925.29 1927.93 2925.59C1927.83 2928.19 1927.63 2930.59 1927.53 2932.99C1927.53 2934.69 1927.33 2936.29 1927.23 2937.79C1927.23 2939.49 1927.03 2941.19 1926.93 2942.89C1926.93 2943.09 1926.93 2943.39 1926.93 2943.69C1926.53 2950.59 1926.13 2957.69 1925.73 2965.09C1915.93 3137.59 1901.73 3456.59 1901.93 3627.59H1883.13C1882.83 3446.69 1898.43 3106.09 1908.63 2936.69C1908.83 2933.39 1909.03 2929.79 1909.23 2925.89C1909.23 2925.49 1909.23 2925.19 1909.23 2924.79C1909.53 2919.99 1909.73 2914.79 1910.03 2909.19C1910.03 2908.09 1910.03 2907.09 1910.13 2905.99C1910.33 2902.49 1910.43 2898.79 1910.63 2895.09C1910.83 2889.99 1911.13 2884.79 1911.33 2879.29C1911.63 2873.19 1911.83 2866.99 1912.13 2860.59C1913.23 2832.79 1914.43 2802.49 1915.43 2774.69C1917.33 2722.29 1918.83 2678.79 1918.83 2677.89C1919.13 2671.39 1919.33 2664.89 1919.73 2658.49C1919.83 2655.09 1920.03 2651.69 1920.23 2648.29C1920.33 2645.19 1920.53 2642.19 1920.73 2639.09C1920.93 2635.39 1921.13 2631.69 1921.33 2628.09C1921.53 2624.49 1921.73 2620.89 1921.93 2617.39C1922.43 2609.39 1922.93 2601.39 1923.53 2593.49C1924.03 2586.19 1924.53 2578.99 1925.13 2571.69C1933.23 2469.19 1946.93 2367.59 1966.13 2268.49C1968.73 2254.89 1971.53 2241.19 1974.33 2227.89C1974.83 2225.29 1975.43 2222.79 1975.93 2220.29C1977.03 2215.19 1982.03 2211.99 1987.03 2213.09C1987.53 2213.19 1988.03 2213.39 1988.53 2213.49C1989.23 2213.79 1989.93 2214.19 1990.53 2214.59C1993.53 2216.69 1995.03 2220.39 1994.23 2224.19V2223.79Z" fill="black"/>
<path d="M1760.93 1721.69C1760.93 1721.69 1760.93 1721.69 1760.93 1721.79C1760.83 1721.99 1760.73 1722.29 1760.63 1722.49C1759.43 1724.99 1757.23 1726.99 1754.33 1727.69C1750.23 1728.69 1745.73 1729.89 1740.93 1731.19C1606.53 1769.39 1206.23 1948.69 1096.13 2062.09C975.425 2186.49 812.125 2446.79 685.625 2711.99C665.925 2753.19 647.225 2794.49 629.625 2835.39C628.125 2838.99 624.625 2841.09 621.025 2841.09C617.425 2841.09 618.525 2840.89 617.325 2840.29C614.825 2839.19 612.925 2837.09 612.125 2834.69C611.425 2832.59 611.425 2830.19 612.425 2827.99C678.925 2673.29 760.425 2515.19 848.025 2370.99C932.025 2232.79 1015.43 2118.39 1082.73 2048.99C1153.33 1976.29 1322.83 1889.09 1417.53 1843.49C1544.83 1782.29 1681.23 1727.09 1745.43 1710.49C1746.93 1710.09 1748.43 1709.69 1749.83 1709.39C1754.83 1708.19 1759.93 1711.29 1761.13 1716.29C1761.53 1718.09 1761.43 1719.89 1760.93 1721.59V1721.69Z" fill="black"/>
<path d="M1317.53 2717.69C1317.53 2718.59 1317.43 2719.59 1317.33 2720.59C1316.03 2745.49 1313.03 2798.89 1309.03 2865.19C1308.63 2871.79 1308.23 2878.39 1307.83 2885.19C1307.83 2885.69 1307.83 2886.29 1307.83 2886.79C1299.33 3026.69 1287.03 3212.79 1275.83 3313.59C1275.83 3314.09 1275.82 3314.69 1275.72 3315.19C1275.72 3316.29 1275.53 3317.29 1275.43 3318.39C1274.93 3325.39 1274.32 3332.39 1273.72 3339.29C1264.32 3457.49 1255.93 3567.59 1251.43 3627.29H1232.62C1236.93 3570.49 1244.93 3466.29 1253.93 3352.89C1254.53 3344.89 1255.23 3336.89 1255.83 3328.89C1256.23 3323.29 1256.72 3317.59 1257.22 3311.99C1257.22 3311.99 1257.22 3311.79 1257.22 3311.69C1268.12 3213.89 1280.13 3034.99 1288.53 2896.59C1289.03 2889.29 1289.43 2881.99 1289.83 2874.99C1292.93 2823.59 1295.42 2779.19 1297.12 2748.49C1297.53 2741.89 1297.82 2735.89 1298.12 2730.59C1298.43 2725.19 1298.63 2720.49 1298.93 2716.69C1298.93 2715.29 1299.43 2713.89 1300.03 2712.79C1300.43 2712.09 1300.93 2711.39 1301.43 2710.89C1303.23 2708.99 1305.92 2707.79 1308.72 2707.89C1309.52 2707.89 1310.32 2708.09 1311.12 2708.39C1311.93 2708.59 1312.63 2708.99 1313.33 2709.49C1316.03 2711.29 1317.73 2714.39 1317.53 2717.89V2717.69Z" fill="black"/>
<path d="M1876.42 2030.69C1872.32 2030.69 1868.52 2027.99 1867.42 2023.79C1866.02 2018.79 1869.02 2013.69 1874.02 2012.29C1877.52 2011.39 1879.62 2009.39 1880.82 2006.09C1883.72 1998.39 1881.02 1985.09 1874.52 1975.29C1865.82 1962.09 1842.82 1957.19 1786.62 1956.69C1724.72 1955.99 1703.32 1968.39 1696.22 1978.79C1693.32 1983.09 1687.52 1984.19 1683.22 1981.29C1678.92 1978.39 1677.82 1972.59 1680.72 1968.29C1694.92 1947.29 1729.52 1937.39 1786.82 1937.89C1843.92 1938.49 1875.52 1942.79 1890.22 1964.99C1898.52 1977.49 1904.22 1997.09 1898.42 2012.69C1895.12 2021.59 1888.22 2027.89 1879.02 2030.39C1878.22 2030.59 1877.32 2030.69 1876.52 2030.69H1876.42Z" fill="black"/>
<path d="M1891.93 2022.79C1887.03 2017.89 1881.12 2014.29 1874.52 2012.29C1874.42 2012.29 1874.32 2012.29 1874.12 2012.29C1863.12 2009.29 1825.62 2006.89 1791.62 2007.09C1719.32 2007.49 1710.42 2017.79 1707.02 2021.69C1703.62 2025.59 1704.03 2031.49 1707.93 2034.89C1711.83 2038.29 1717.72 2037.89 1721.12 2034.09C1724.22 2031.29 1743.22 2026.09 1793.22 2025.89C1830.22 2025.79 1862.53 2028.49 1869.33 2030.39C1883.53 2034.49 1888.52 2051.59 1888.52 2064.99C1888.52 2078.39 1885.62 2074.09 1883.22 2076.29C1878.42 2080.79 1871.22 2083.29 1863.22 2083.29C1862.52 2083.29 1861.82 2083.29 1861.12 2083.29C1855.92 2082.99 1851.52 2086.89 1851.22 2092.09C1850.92 2096.49 1853.72 2100.29 1857.72 2101.59C1858.42 2101.79 1859.23 2101.99 1859.93 2101.99C1860.33 2101.99 1860.62 2101.99 1861.02 2101.99C1861.82 2101.99 1862.63 2101.99 1863.43 2101.99C1866.53 2101.99 1869.52 2101.69 1872.52 2101.19C1875.02 2100.79 1877.53 2100.19 1879.83 2099.39C1883.83 2098.09 1887.62 2096.19 1891.02 2093.89C1892.82 2092.69 1894.42 2091.39 1896.02 2089.89C1903.22 2083.09 1907.22 2074.19 1907.22 2064.89C1907.22 2047.49 1901.53 2032.49 1891.93 2022.79Z" fill="black"/>
<path d="M1774.63 2168.39C1769.43 2168.39 1765.23 2164.19 1765.23 2158.99C1765.23 2153.79 1769.43 2149.59 1774.63 2149.59C1783.93 2149.39 1841.23 2144.19 1849.53 2139.39C1862.13 2129.79 1865.43 2112.89 1860.93 2101.69C1852.83 2100.39 1827.93 2102.29 1807.63 2103.79C1793.23 2104.89 1778.33 2105.99 1764.13 2106.59C1758.93 2106.79 1754.63 2102.79 1754.33 2097.59C1754.13 2092.39 1758.13 2088.09 1763.33 2087.79C1777.23 2087.19 1791.93 2086.09 1806.23 2084.99C1856.43 2081.19 1871.13 2080.49 1876.33 2090.29C1886.03 2108.19 1882.73 2137.79 1860.63 2154.39C1858.03 2156.39 1852.53 2160.49 1813.33 2164.89C1794.43 2166.99 1776.53 2168.19 1774.63 2168.19V2168.39Z" fill="black"/>
<path d="M1583.42 2294.99C1581.62 2294.99 1579.82 2294.49 1578.22 2293.39C1573.92 2290.49 1572.72 2284.69 1575.62 2280.39L1590.62 2257.99C1592.22 2255.59 1594.92 2253.99 1597.92 2253.89C1651.72 2250.79 1728.42 2231.59 1784.52 2207.09C1821.52 2190.89 1832.12 2174.39 1835.12 2165.99C1837.02 2160.79 1836.62 2156.89 1835.72 2155.09C1833.42 2150.49 1835.22 2144.79 1839.82 2142.49C1844.42 2140.19 1850.12 2141.99 1852.42 2146.59C1856.02 2153.59 1856.12 2162.99 1852.82 2172.29C1847.92 2186.09 1833.32 2206.19 1792.12 2224.29C1735.82 2248.89 1659.22 2268.39 1603.82 2272.29L1591.42 2290.79C1589.62 2293.49 1586.62 2294.99 1583.62 2294.99H1583.42Z" fill="black"/>
<path d="M1458.13 2041.59C1454.73 2041.59 1451.53 2039.79 1449.83 2036.59C1447.43 2031.99 1449.23 2026.39 1453.83 2023.99C1462.53 2019.39 1552.43 1952.89 1579.83 1929.29C1615.13 1898.99 1650.03 1880.19 1686.33 1871.99C1726.03 1862.99 1755.83 1871.99 1775.63 1877.89C1777.93 1878.59 1780.03 1879.19 1782.03 1879.79C1786.43 1880.99 1793.13 1882.49 1800.23 1884.09C1835.03 1891.79 1856.53 1897.39 1860.73 1909.49C1863.43 1917.19 1862.13 1926.19 1857.13 1934.89C1850.53 1946.49 1838.43 1955.79 1827.23 1958.09C1822.13 1959.09 1817.23 1955.79 1816.23 1950.69C1815.23 1945.59 1818.53 1940.69 1823.63 1939.69C1829.43 1938.59 1837.03 1932.39 1840.83 1925.59C1842.83 1922.09 1843.63 1918.79 1843.13 1916.39C1837.53 1911.49 1809.63 1905.29 1796.03 1902.29C1788.33 1900.59 1781.73 1899.09 1776.73 1897.69C1774.63 1897.09 1772.33 1896.39 1769.93 1895.69C1751.03 1889.99 1725.13 1882.19 1690.23 1890.19C1656.93 1897.79 1624.73 1915.19 1591.73 1943.49C1565.13 1966.29 1472.93 2034.89 1462.13 2040.59C1460.73 2041.29 1459.23 2041.69 1457.83 2041.69L1458.13 2041.59Z" fill="black"/>
<path d="M1325.03 2678.09C1320.63 2684.19 1316.23 2690.19 1311.83 2696.29C1308.33 2701.09 1304.83 2705.89 1301.33 2710.69C1300.83 2711.29 1300.33 2711.99 1299.93 2712.59C1235.33 2801.39 1167.93 2891.49 1106.33 2968.89C1117.13 2963.19 1128.03 2957.49 1138.83 2951.89L1298.13 2730.39L1305.53 2720.09L1310.93 2712.69C1310.53 2718.89 1310.13 2724.99 1309.73 2731.19C1312.33 2727.59 1314.93 2723.99 1317.53 2720.39C1321.83 2714.49 1326.13 2708.59 1330.33 2702.69C1330.53 2699.29 1330.73 2695.89 1330.93 2692.59C1331.13 2688.89 1331.33 2685.29 1331.63 2681.59C1331.93 2676.99 1332.13 2672.49 1332.43 2667.89C1330.03 2671.29 1327.53 2674.59 1325.13 2677.99L1325.03 2678.09ZM1606.53 2295.29C1603.33 2292.99 1599.53 2289.49 1595.23 2284.89C1591.43 2280.79 1587.23 2275.69 1582.73 2269.89C1563.23 2244.69 1538.23 2204.79 1513.43 2158.79C1509.33 2151.19 1505.43 2143.69 1501.63 2136.19C1498.23 2129.69 1495.03 2123.19 1492.03 2116.99C1484.23 2100.99 1477.43 2085.99 1472.03 2072.79C1466.13 2058.29 1462.73 2048.19 1460.83 2041.19C1458.43 2032.19 1458.43 2028.29 1458.53 2026.99C1460.13 2024.89 1460.73 2022.19 1460.33 2019.69C1460.03 2017.99 1459.33 2016.39 1458.13 2015.09C1454.73 2011.29 1448.73 2010.89 1444.93 2014.39C1332.83 2115.09 1226.73 2205.49 1133.03 2285.29C961.225 2431.69 820.925 2551.19 724.325 2664.09C710.525 2680.19 697.625 2696.19 685.725 2712.09C679.725 2720.09 673.925 2727.99 668.425 2735.99C666.925 2738.19 665.425 2740.39 663.925 2742.59C659.425 2749.19 655.125 2755.79 650.925 2762.39C635.725 2786.49 622.725 2810.59 612.225 2834.79C598.025 2867.49 588.025 2900.39 582.725 2934.19C581.825 2939.59 581.125 2944.99 580.525 2950.39C578.925 2964.49 578.925 2978.59 580.525 2992.59C583.825 3022.39 594.225 3051.39 611.325 3078.19C634.125 3113.79 667.825 3144.39 708.825 3166.69C749.925 3189.09 796.425 3201.49 839.725 3201.79C840.225 3201.79 840.725 3201.79 841.225 3201.79C887.925 3201.79 929.425 3187.99 961.325 3161.79C961.425 3161.69 961.625 3161.59 961.725 3161.49C1003.13 3123.49 1058.13 3059.89 1118.83 2983.89C1128.13 2972.19 1137.63 2960.19 1147.23 2947.89C1195.93 2885.59 1247.33 2816.99 1297.43 2748.39C1301.63 2742.69 1305.73 2736.99 1309.93 2731.29C1312.53 2727.69 1315.13 2724.09 1317.73 2720.49C1322.03 2714.59 1326.33 2708.69 1330.53 2702.79C1341.93 2686.99 1353.33 2671.29 1364.43 2655.69C1371.33 2645.99 1378.23 2636.49 1385.03 2626.89C1458.53 2523.99 1523.43 2430.49 1565.13 2370.39C1587.13 2338.69 1604.63 2313.49 1607.83 2309.49C1608.93 2308.39 1609.83 2307.09 1610.33 2305.49C1611.53 2301.59 1610.13 2297.39 1606.73 2295.09L1606.53 2295.29ZM1581.43 2314.09C1573.93 2324.79 1563.13 2340.29 1549.53 2359.89C1511.13 2415.19 1453.03 2498.89 1386.73 2592.09C1385.03 2594.49 1383.33 2596.89 1381.63 2599.29C1376.63 2606.39 1371.53 2613.49 1366.43 2620.59C1365.13 2622.39 1363.83 2624.19 1362.53 2625.99C1352.63 2639.89 1342.53 2653.89 1332.33 2668.09C1329.93 2671.49 1327.43 2674.79 1325.03 2678.19C1320.63 2684.29 1316.23 2690.29 1311.83 2696.39C1308.33 2701.19 1304.83 2705.99 1301.33 2710.79C1300.83 2711.39 1300.33 2712.09 1299.93 2712.69C1235.33 2801.49 1167.93 2891.59 1106.33 2968.99C1103.83 2972.19 1101.33 2975.29 1098.83 2978.39C1091.33 2987.79 1083.83 2996.99 1076.53 3005.89C1027.53 3065.89 983.325 3115.69 948.825 3147.39C892.325 3193.59 799.325 3194.79 717.325 3150.19C653.125 3115.29 588.325 3044.99 598.825 2952.59C599.325 2948.09 599.925 2943.69 600.625 2939.19C608.725 2885.89 629.025 2834.59 660.025 2782.99C663.825 2776.79 667.725 2770.49 671.825 2764.19C676.025 2757.69 680.525 2751.09 685.025 2744.59C777.625 2612.39 938.225 2475.59 1145.03 2299.49C1234.43 2223.39 1335.13 2137.49 1441.73 2042.19C1447.13 2064.89 1462.63 2100.29 1479.83 2134.59C1483.03 2140.99 1486.33 2147.39 1489.53 2153.69C1493.63 2161.49 1497.73 2169.09 1501.63 2176.39C1514.73 2200.29 1557.33 2275.69 1588.13 2304.39C1586.33 2306.89 1584.13 2310.09 1581.33 2313.99L1581.43 2314.09ZM1325.03 2678.09C1320.63 2684.19 1316.23 2690.19 1311.83 2696.29C1308.33 2701.09 1304.83 2705.89 1301.33 2710.69C1300.83 2711.29 1300.33 2711.99 1299.93 2712.59C1235.33 2801.39 1167.93 2891.49 1106.33 2968.89C1117.13 2963.19 1128.03 2957.49 1138.83 2951.89L1298.13 2730.39L1305.53 2720.09L1310.93 2712.69C1310.53 2718.89 1310.13 2724.99 1309.73 2731.19C1312.33 2727.59 1314.93 2723.99 1317.53 2720.39C1321.83 2714.49 1326.13 2708.59 1330.33 2702.69C1330.53 2699.29 1330.73 2695.89 1330.93 2692.59C1331.13 2688.89 1331.33 2685.29 1331.63 2681.59C1331.93 2676.99 1332.13 2672.49 1332.43 2667.89C1330.03 2671.29 1327.53 2674.59 1325.13 2677.99L1325.03 2678.09Z" fill="black"/>
</svg>
