<svg width="3981" height="4177" viewBox="0 0 3981 4177" fill="none" xmlns="http://www.w3.org/2000/svg">
<rect width="3981" height="4177" fill="white"/>
<path d="M3263.98 3238.89C3260.28 3356.19 3259.78 3502.19 3263.68 3612.89H1270.88C1276.48 3546.99 1286.08 3432.49 1295.68 3311.89C1295.68 3311.89 1295.68 3311.69 1295.68 3311.59C1295.78 3310.19 1296.08 3308.29 1296.28 3305.79C1296.88 3300.19 1297.78 3291.89 1298.98 3281.19C1306.88 3208.99 1326.18 3028.29 1342.08 2852.69C1342.38 2849.19 1342.68 2845.69 1342.98 2842.19C1343.28 2838.39 1343.68 2834.59 1343.98 2830.79C1350.48 2757.39 1355.48 2693.99 1358.98 2641.39C1359.78 2630.29 1360.38 2619.59 1360.98 2609.49L952.184 2844.29C920.984 2869.59 881.384 2882.29 840.484 2882.29C799.584 2882.29 754.684 2868.89 717.784 2841.99C693.384 2824.29 673.484 2801.89 658.784 2775.89C657.484 2773.49 656.184 2771.09 654.884 2768.69C653.584 2766.09 652.284 2763.49 650.984 2760.79C649.984 2758.59 648.984 2756.29 647.984 2754.09C647.084 2752.09 646.284 2750.09 645.484 2748.09C643.984 2744.29 642.684 2740.49 641.384 2736.59C639.184 2730.09 637.384 2723.39 635.784 2716.49C621.784 2656.69 629.484 2588.79 658.584 2514.49C718.084 2362.79 981.384 2099.39 1314.78 1765.89C1375.08 1705.59 1437.38 1643.29 1501.28 1578.79C1503.08 1576.99 1505.38 1576.09 1507.68 1575.99C1522.78 1561.79 1594.28 1494.89 1626.48 1472.59C1662.88 1447.39 1742.98 1447.39 1790.88 1447.49H1795.58C1824.78 1447.49 1841.78 1451.89 1855.28 1455.79C1835.28 1409.29 1820.48 1328.89 1815.38 1298.59C1798.68 1304.49 1784.58 1304.39 1772.58 1298.09C1743.48 1282.99 1733.68 1235.59 1723.78 1175.19C1715.48 1124.09 1729.68 1098.19 1743.08 1085.39C1755.08 1073.99 1771.28 1068.29 1788.88 1069.09C1788.88 1069.09 1788.88 1069.09 1788.88 1068.99C1788.68 1066.59 1788.38 1064.19 1788.18 1061.69C1787.98 1059.39 1787.68 1056.99 1787.48 1054.59C1782.38 1002.39 1776.78 928.788 1779.78 882.788C1780.48 871.688 1781.38 860.388 1782.58 848.888C1785.58 820.888 1791.08 791.988 1803.18 762.788C1822.38 716.488 1855.38 677.388 1904.08 643.288C1908.98 639.888 1914.18 636.588 1919.58 633.388C1919.58 624.788 1923.88 616.688 1941.28 606.388C2049.68 542.288 2219.68 568.188 2312.58 613.388C2314.28 614.188 2315.98 615.088 2317.68 615.888C2318.28 616.188 2318.78 616.488 2319.28 616.688C2322.08 618.188 2324.88 619.688 2327.58 621.188C2327.58 621.188 2327.78 621.188 2327.88 621.288C2366.18 642.888 2399.28 675.288 2423.48 715.088C2425.08 717.788 2426.68 720.388 2428.18 723.088C2449.58 760.888 2463.18 804.688 2467.88 850.388C2476.38 934.388 2478.78 996.088 2466.88 1066.69C2466.38 1069.79 2465.78 1072.99 2465.18 1076.19C2465.68 1077.79 2465.78 1079.39 2465.38 1081.09V1081.49L2465.28 1081.59C2484.48 1080.79 2505.38 1086.69 2517.58 1103.19C2534.18 1125.49 2530.48 1177.29 2528.88 1192.59C2524.88 1233.09 2513.88 1268.99 2499.48 1288.69C2477.98 1318.09 2448.88 1320.19 2430.08 1315.89C2415.48 1385.99 2395.08 1441.09 2369.38 1479.69C2367.58 1482.49 2365.18 1485.59 2362.48 1488.89L2358.58 1595.89C2362.38 1596.79 2367.08 1598.29 2371.88 1600.59C2372.18 1600.79 2372.48 1600.89 2372.88 1601.09C2373.58 1601.49 2374.38 1601.89 2375.08 1602.29C2375.38 1602.49 2375.68 1602.59 2375.98 1602.79C2380.48 1605.49 2385.08 1608.99 2389.28 1613.59C2395.18 1620.09 2403.38 1633.89 2412.88 1651.39C2420.68 1665.89 2429.38 1682.99 2438.18 1700.69C2438.58 1701.59 2439.08 1702.49 2439.48 1703.29C2442.38 1708.99 2444.88 1714.09 2446.98 1718.19C2489.08 1729.89 2542.48 1750.99 2601.08 1778.79C2602.78 1779.59 2604.48 1780.39 2606.18 1781.19C2611.18 1783.59 2616.18 1785.99 2621.28 1788.49C2621.28 1788.49 2621.48 1788.49 2621.58 1788.59C2630.18 1792.79 2638.78 1797.09 2647.58 1801.59C2675.48 1815.79 2704.08 1831.19 2732.98 1847.69C2738.48 1850.79 2743.98 1853.99 2749.58 1857.19C2882.18 1934.19 2999.48 2021.09 3079.98 2101.79C3093.18 2114.99 3105.68 2129.59 3117.48 2145.39C3117.68 2145.59 3117.78 2145.79 3117.98 2145.99C3134.08 2167.69 3148.78 2191.89 3162.28 2218.49C3182.18 2257.99 3199.28 2302.99 3213.58 2353.69C3213.58 2353.69 3213.58 2353.79 3213.58 2353.89C3233.28 2423.99 3247.78 2504.89 3257.08 2597.29C3277.78 2802.59 3270.58 3034.19 3264.08 3238.49L3263.98 3238.89Z" fill="white"/>
<path d="M2369.08 1068.29C2368.58 1067.69 2368.08 1067.19 2367.58 1066.59C2367.18 1066.29 2366.88 1065.89 2366.48 1065.59C2365.78 1062.79 2364.98 1060.19 2363.98 1057.69C2363.68 1056.99 2363.38 1056.39 2363.08 1055.69C2363.08 1055.59 2362.88 1055.39 2362.78 1055.29C2361.08 1052.89 2359.08 1050.79 2356.68 1048.89C2355.68 1048.09 2354.58 1047.29 2353.48 1046.59C2353.18 1046.59 2352.78 1046.49 2352.48 1046.39C2353.38 1046.89 2354.18 1047.59 2354.98 1048.19C2358.28 1050.99 2360.98 1054.79 2363.08 1059.59C2363.68 1060.89 2364.18 1062.39 2364.68 1063.79C2358.48 1058.89 2349.88 1055.49 2338.98 1053.69C2337.68 1053.49 2336.58 1053.29 2335.48 1053.19C2335.28 1053.19 2335.08 1053.19 2334.88 1053.09C2341.78 1054.79 2348.78 1056.79 2355.98 1059.29C2359.38 1060.49 2362.48 1062.49 2364.98 1065.19C2365.68 1065.89 2366.38 1066.69 2366.98 1067.59C2367.38 1068.09 2367.68 1068.59 2367.98 1069.09C2368.48 1069.79 2368.88 1070.49 2369.28 1071.19C2369.28 1070.29 2369.28 1069.29 2369.08 1068.19V1068.29ZM2393.98 1092.39C2393.78 1089.99 2393.58 1087.69 2393.18 1085.49C2393.08 1084.89 2392.98 1084.29 2392.88 1083.59C2392.48 1081.09 2391.88 1078.59 2391.28 1076.19C2391.18 1075.59 2390.98 1074.99 2390.78 1074.39C2390.08 1071.99 2389.28 1069.69 2388.38 1067.49C2388.38 1067.39 2388.28 1067.19 2388.18 1067.09C2387.48 1065.49 2386.78 1063.99 2385.98 1062.49C2385.48 1061.59 2385.08 1060.79 2384.58 1059.99C2383.68 1058.59 2382.88 1057.29 2381.88 1056.09C2380.28 1054.09 2378.68 1052.19 2376.78 1050.49C2374.38 1048.29 2371.78 1046.29 2368.98 1044.79C2367.18 1043.79 2365.28 1042.89 2363.38 1042.19C2362.98 1041.99 2362.58 1041.89 2362.18 1041.79C2354.18 1039.09 2346.38 1036.79 2338.78 1034.99C2332.98 1033.59 2327.28 1032.39 2321.68 1031.49C2321.08 1031.39 2320.48 1031.29 2319.88 1031.19C2281.48 1024.99 2248.48 1028.99 2225.28 1034.29C2207.38 1038.39 2191.68 1044.29 2179.58 1050.29C2168.38 1055.89 2160.08 1061.79 2155.78 1066.79C2155.38 1067.19 2155.08 1067.59 2154.78 1067.99C2154.78 1067.99 2154.68 1068.19 2154.58 1068.29C2153.48 1069.79 2152.38 1071.49 2151.48 1073.39C2150.08 1076.09 2148.98 1079.19 2148.08 1082.59C2147.88 1083.29 2147.68 1083.89 2147.58 1084.59C2146.98 1087.19 2146.48 1089.89 2146.18 1092.89C2144.58 1108.29 2147.08 1128.29 2155.58 1151.49C2157.98 1158.29 2160.98 1165.29 2164.48 1172.59C2166.38 1176.39 2168.38 1180.39 2170.48 1184.39C2186.38 1213.59 2221.08 1230.69 2264.08 1230.69C2307.08 1230.69 2267.28 1230.69 2268.98 1230.69C2309.98 1229.49 2359.28 1211.49 2376.88 1173.99C2388.18 1149.79 2394.28 1124.39 2394.38 1102.29C2394.38 1098.89 2394.38 1095.59 2394.08 1092.39H2393.98ZM2268.28 1211.79C2230.28 1212.89 2199.88 1199.29 2186.88 1175.39C2184.68 1171.29 2182.68 1167.29 2180.78 1163.49C2177.58 1156.69 2174.78 1150.19 2172.58 1144.09C2164.58 1121.89 2163.08 1104.49 2164.78 1092.69C2164.78 1092.09 2164.98 1091.59 2165.08 1091.09C2165.98 1085.89 2167.68 1081.89 2169.58 1079.29C2173.68 1073.79 2195.48 1060.29 2229.38 1052.49C2254.28 1046.69 2291.28 1042.79 2334.28 1053.09C2334.48 1053.09 2334.68 1053.09 2334.88 1053.19C2341.78 1054.89 2348.78 1056.89 2355.98 1059.39C2359.38 1060.59 2362.48 1062.59 2364.98 1065.29C2365.68 1065.99 2366.38 1066.79 2366.98 1067.69C2367.38 1068.19 2367.68 1068.69 2367.98 1069.19C2368.48 1069.89 2368.88 1070.59 2369.28 1071.29C2369.88 1072.39 2370.48 1073.59 2370.98 1074.89C2372.88 1079.29 2374.18 1084.49 2374.88 1090.09C2374.88 1090.89 2375.08 1091.59 2375.08 1092.39C2377.08 1113.29 2371.58 1140.59 2359.68 1165.99C2347.58 1191.79 2309.98 1210.69 2268.18 1211.89L2268.28 1211.79ZM2369.08 1068.29C2368.58 1067.69 2368.08 1067.19 2367.58 1066.59C2367.18 1066.29 2366.88 1065.89 2366.48 1065.59C2365.78 1062.79 2364.98 1060.19 2363.98 1057.69C2363.68 1056.99 2363.38 1056.39 2363.08 1055.69C2363.08 1055.59 2362.88 1055.39 2362.78 1055.29C2361.08 1052.89 2359.08 1050.79 2356.68 1048.89C2355.68 1048.09 2354.58 1047.29 2353.48 1046.59C2353.18 1046.59 2352.78 1046.49 2352.48 1046.39C2353.38 1046.89 2354.18 1047.59 2354.98 1048.19C2358.28 1050.99 2360.98 1054.79 2363.08 1059.59C2363.68 1060.89 2364.18 1062.39 2364.68 1063.79C2358.48 1058.89 2349.88 1055.49 2338.98 1053.69C2337.68 1053.49 2336.58 1053.29 2335.48 1053.19C2335.28 1053.19 2335.08 1053.19 2334.88 1053.09C2341.78 1054.79 2348.78 1056.79 2355.98 1059.29C2359.38 1060.49 2362.48 1062.49 2364.98 1065.19C2365.68 1065.89 2366.38 1066.69 2366.98 1067.59C2367.38 1068.09 2367.68 1068.59 2367.98 1069.09C2368.48 1069.79 2368.88 1070.49 2369.28 1071.19C2369.28 1070.29 2369.28 1069.29 2369.08 1068.19V1068.29Z" fill="black"/>
<path d="M2336.78 1044.09C2336.78 1044.09 2391.48 1051.99 2405.78 1056.89C2419.98 1061.89 2456.18 1078.99 2456.18 1078.99L2453.08 1092.69H2419.58C2419.58 1092.59 2393.08 1086.49 2384.88 1098.29C2384.88 1098.29 2396.08 1051.79 2336.78 1044.09Z" fill="black"/>
<path d="M2433.78 1077.59C2433.18 1075.29 2432.58 1072.89 2431.88 1070.39C2431.68 1069.69 2431.48 1068.99 2431.28 1068.29H2429.58H2425.38H2422.28L2421.38 1068.09L2414.48 1066.49C2412.18 1065.99 2405.68 1064.59 2398.08 1064.59C2399.88 1065.09 2401.38 1065.49 2402.48 1065.89C2403.48 1066.29 2404.68 1066.69 2405.88 1067.19C2410.58 1068.99 2416.78 1071.59 2422.98 1074.39C2424.48 1075.09 2425.98 1075.69 2427.48 1076.39C2428.48 1076.79 2429.48 1077.29 2430.38 1077.69C2430.68 1077.79 2430.88 1077.89 2431.18 1078.09C2432.08 1078.49 2433.08 1078.89 2433.98 1079.29C2433.88 1078.79 2433.68 1078.19 2433.58 1077.69L2433.78 1077.59ZM2465.18 1076.19C2465.18 1075.99 2465.08 1075.79 2464.98 1075.69C2464.08 1073.49 2462.48 1071.69 2460.28 1070.59C2460.28 1070.59 2460.28 1070.59 2460.08 1070.59C2459.68 1070.39 2458.58 1069.89 2456.98 1069.09C2456.98 1069.09 2456.88 1069.09 2456.78 1069.09C2456.48 1068.99 2456.18 1068.79 2455.88 1068.69C2454.88 1068.29 2453.78 1067.69 2452.58 1067.19C2451.78 1066.79 2450.88 1066.39 2449.98 1065.99C2449.38 1065.79 2448.88 1065.49 2448.28 1065.19C2447.98 1064.99 2447.58 1064.89 2447.28 1064.69C2446.08 1064.19 2444.98 1063.59 2443.68 1063.09C2441.88 1062.29 2439.88 1061.39 2437.98 1060.49C2436.18 1059.69 2434.38 1058.89 2432.58 1058.09C2431.18 1057.49 2429.78 1056.79 2428.28 1056.19C2427.98 1056.09 2427.78 1055.99 2427.48 1055.89C2425.38 1054.99 2423.28 1054.09 2421.38 1053.29C2419.98 1052.69 2418.58 1052.09 2417.28 1051.59C2414.18 1050.39 2411.48 1049.29 2409.18 1048.49C2402.78 1046.29 2389.58 1043.59 2376.28 1041.29C2375.38 1041.09 2374.48 1040.99 2373.58 1040.79C2369.78 1040.09 2365.88 1039.49 2362.28 1038.89C2360.48 1038.59 2358.68 1038.29 2356.98 1038.09C2350.78 1037.09 2345.48 1036.29 2341.98 1035.79C2340.98 1035.59 2339.88 1035.49 2338.88 1035.29C2338.68 1035.29 2338.48 1035.29 2338.28 1035.29C2335.68 1034.99 2333.28 1035.69 2331.38 1037.19C2331.28 1037.19 2331.18 1037.39 2331.08 1037.39C2330.48 1037.89 2329.98 1038.39 2329.58 1038.99C2329.58 1038.99 2329.58 1039.09 2329.48 1039.19C2328.68 1040.39 2328.08 1041.79 2327.88 1043.29C2327.28 1047.99 2330.18 1052.39 2334.68 1053.59C2334.88 1053.59 2335.08 1053.59 2335.28 1053.69C2335.48 1053.69 2335.68 1053.69 2335.88 1053.79C2336.88 1053.89 2338.08 1054.09 2339.38 1054.29C2350.28 1056.09 2358.88 1059.49 2365.08 1064.39C2365.78 1064.89 2366.38 1065.49 2366.98 1066.09C2367.38 1066.39 2367.68 1066.79 2368.08 1067.09C2368.58 1067.59 2369.08 1068.19 2369.58 1068.79C2370.18 1069.49 2370.68 1070.19 2371.28 1070.99C2376.18 1077.99 2376.98 1085.79 2376.88 1090.89C2376.88 1091.69 2376.88 1092.39 2376.78 1092.99C2376.58 1095.19 2376.38 1096.59 2376.28 1096.59C2375.28 1100.99 2377.48 1105.49 2381.58 1107.39C2382.68 1107.89 2383.88 1108.19 2385.08 1108.19C2385.18 1108.19 2385.28 1108.19 2385.38 1108.19C2385.48 1108.19 2385.58 1108.19 2385.68 1108.19C2388.58 1108.19 2391.38 1106.69 2393.08 1104.19C2393.48 1103.69 2393.98 1103.19 2394.68 1102.79C2399.08 1100.39 2409.58 1100.39 2417.88 1102.29C2418.58 1102.49 2419.28 1102.49 2419.98 1102.49H2430.68H2434.88H2435.98H2444.58H2445.48H2448.68H2453.48C2453.68 1102.49 2453.88 1102.49 2454.08 1102.49C2454.28 1102.49 2454.58 1102.49 2454.88 1102.49C2455.08 1102.49 2455.38 1102.49 2455.68 1102.39C2455.68 1102.39 2455.88 1102.39 2455.98 1102.39C2456.48 1102.29 2456.88 1102.09 2457.28 1101.89C2458.58 1101.29 2459.78 1100.49 2460.68 1099.39C2460.78 1099.19 2460.98 1099.09 2461.08 1098.89C2461.38 1098.39 2461.78 1097.89 2461.98 1097.39C2462.28 1096.79 2462.48 1096.09 2462.68 1095.39L2464.78 1085.99L2465.58 1082.29C2465.58 1082.19 2465.58 1081.69 2465.58 1081.69C2465.98 1079.99 2465.88 1078.29 2465.38 1076.79L2465.18 1076.19ZM2437.68 1083.29H2432.38H2429.58H2425.58H2420.68C2416.28 1082.39 2405.18 1080.49 2394.78 1082.59C2394.58 1080.49 2394.18 1078.39 2393.58 1076.09C2393.48 1075.49 2393.28 1074.89 2393.08 1074.19C2392.38 1071.79 2391.48 1069.39 2390.28 1066.89C2389.98 1066.29 2389.78 1065.69 2389.48 1065.19C2388.98 1064.19 2388.38 1063.19 2387.78 1062.19C2391.78 1062.99 2395.48 1063.79 2398.38 1064.59C2400.18 1065.09 2401.68 1065.49 2402.78 1065.89C2403.78 1066.29 2404.98 1066.69 2406.18 1067.19C2410.88 1068.99 2417.08 1071.59 2423.28 1074.39C2424.78 1075.09 2426.28 1075.69 2427.78 1076.39C2428.78 1076.79 2429.78 1077.29 2430.68 1077.69C2430.98 1077.79 2431.18 1077.89 2431.48 1078.09C2432.38 1078.49 2433.38 1078.89 2434.28 1079.29C2434.88 1079.59 2435.58 1079.89 2436.18 1080.19C2437.08 1080.59 2437.98 1080.99 2438.78 1081.39C2439.18 1081.59 2439.58 1081.79 2439.98 1081.99C2440.58 1082.29 2441.18 1082.59 2441.78 1082.79C2442.18 1082.99 2442.68 1083.19 2443.08 1083.39C2443.08 1083.39 2443.08 1083.39 2443.18 1083.39H2439.28H2437.68V1083.29ZM2433.78 1077.59C2433.18 1075.29 2432.58 1072.89 2431.88 1070.39C2431.68 1069.69 2431.48 1068.99 2431.28 1068.29H2429.58H2425.38H2422.28L2421.38 1068.09L2414.48 1066.49C2412.18 1065.99 2405.68 1064.59 2398.08 1064.59C2399.88 1065.09 2401.38 1065.49 2402.48 1065.89C2403.48 1066.29 2404.68 1066.69 2405.88 1067.19C2410.58 1068.99 2416.78 1071.59 2422.98 1074.39C2424.48 1075.09 2425.98 1075.69 2427.48 1076.39C2428.48 1076.79 2429.48 1077.29 2430.38 1077.69C2430.68 1077.79 2430.88 1077.89 2431.18 1078.09C2432.08 1078.49 2433.08 1078.89 2433.98 1079.29C2433.88 1078.79 2433.68 1078.19 2433.58 1077.69L2433.78 1077.59Z" fill="black"/>
<path d="M1898.68 1037.99C1898.18 1038.09 1897.68 1038.19 1897.18 1038.39C1896.68 1038.59 1896.78 1038.39 1896.58 1038.49C1896.58 1038.49 1896.58 1038.49 1896.68 1038.49C1896.78 1038.49 1896.88 1038.49 1896.98 1038.49C1897.28 1038.49 1897.58 1038.49 1897.78 1038.39C1897.98 1038.39 1898.18 1038.39 1898.38 1038.39C1898.78 1038.39 1899.08 1038.39 1899.48 1038.39C1900.78 1038.39 1902.08 1038.79 1903.18 1039.39C1920.18 1035.89 1935.88 1034.59 1949.88 1034.59C1963.88 1034.59 1982.58 1036.69 1994.48 1039.29C2010.98 1042.89 2023.98 1047.89 2033.28 1052.69C2042.58 1057.49 2048.28 1061.89 2050.08 1064.29C2052.08 1066.89 2053.68 1070.89 2054.58 1076.09C2054.98 1076.39 2055.28 1076.69 2055.58 1076.89C2055.68 1076.99 2055.88 1077.09 2055.98 1077.19C2056.58 1077.69 2056.98 1078.19 2057.38 1078.59C2057.38 1078.39 2057.28 1078.29 2057.18 1078.09C2057.18 1077.89 2057.08 1077.79 2056.98 1077.59C2056.98 1077.39 2056.88 1077.29 2056.78 1077.09C2056.78 1076.89 2056.78 1076.79 2056.68 1076.69C2056.68 1076.69 2056.68 1076.69 2056.68 1076.59C2056.68 1076.49 2056.68 1076.29 2056.68 1076.19C2056.68 1075.89 2056.58 1075.59 2056.58 1075.19C2056.58 1074.09 2056.58 1072.89 2056.98 1071.79C2056.98 1071.59 2056.98 1071.49 2057.18 1071.39C2057.18 1071.19 2057.28 1071.09 2057.38 1070.89C2057.58 1070.39 2057.78 1069.99 2058.08 1069.59C2058.48 1068.99 2058.88 1068.49 2059.28 1067.89C2059.48 1067.59 2059.78 1067.19 2060.08 1066.89C2060.18 1066.69 2060.28 1066.59 2060.48 1066.39C2060.78 1065.99 2061.08 1065.59 2061.48 1065.19C2061.68 1064.99 2061.88 1064.69 2062.18 1064.49C2062.38 1064.29 2062.48 1064.19 2062.68 1063.99C2063.08 1063.59 2063.38 1063.29 2063.78 1062.99C2064.08 1062.69 2064.48 1062.39 2064.78 1062.09C2065.18 1061.79 2065.48 1061.49 2065.88 1061.19C2042.18 1042.49 1978.08 1019.19 1898.48 1038.29L1898.68 1037.99ZM2082.08 1095.39C2081.58 1088.19 2080.18 1081.89 2078.08 1076.69C2077.98 1076.39 2077.78 1076.09 2077.68 1075.69C2077.58 1075.49 2077.48 1075.29 2077.38 1074.99C2076.28 1072.59 2075.08 1070.39 2073.68 1068.49C2073.58 1068.29 2073.38 1068.09 2073.28 1067.99C2072.78 1067.29 2072.28 1066.69 2071.58 1065.99C2070.28 1064.59 2068.68 1063.09 2066.88 1061.59C2066.58 1061.39 2066.38 1061.19 2066.08 1060.99C2042.38 1042.29 1978.28 1018.99 1898.68 1038.09C1898.18 1038.19 1897.68 1038.29 1897.18 1038.49C1896.68 1038.69 1896.78 1038.49 1896.58 1038.59C1894.28 1039.19 1891.88 1039.79 1889.58 1040.49C1884.38 1041.89 1879.18 1043.49 1873.88 1045.29C1871.88 1045.99 1869.98 1046.79 1868.18 1047.79C1865.18 1049.39 1862.38 1051.29 1859.88 1053.59C1854.78 1058.09 1850.68 1064.09 1847.68 1071.19C1846.08 1075.09 1844.78 1079.29 1843.78 1083.69C1843.78 1083.89 1843.78 1084.09 1843.68 1084.29C1842.98 1087.39 1842.58 1090.59 1842.28 1093.99C1842.28 1094.19 1842.28 1094.39 1842.28 1094.49C1842.28 1094.99 1842.28 1095.49 1842.18 1096.09C1841.98 1099.09 1841.88 1102.19 1841.88 1105.39C1841.88 1122.29 1845.48 1141.29 1852.28 1160.19C1853.68 1164.19 1855.28 1168.19 1857.08 1172.19C1857.88 1173.99 1858.68 1175.79 1859.48 1177.49C1874.48 1209.39 1913.88 1230.79 1959.98 1232.19C1961.48 1232.19 1962.98 1232.19 1964.58 1232.19C1984.68 1232.19 2002.98 1228.19 2018.48 1220.79C2018.88 1220.59 2019.18 1220.49 2019.58 1220.29C2022.28 1218.89 2024.98 1217.49 2027.48 1215.89C2030.88 1213.79 2034.18 1211.49 2037.18 1208.99C2037.48 1208.79 2037.68 1208.59 2037.98 1208.29C2046.08 1201.59 2052.88 1193.49 2057.88 1184.29C2057.88 1184.19 2057.98 1184.09 2058.08 1183.99C2075.58 1151.59 2082.68 1123.39 2082.68 1101.99C2082.68 1080.59 2082.68 1097.49 2082.48 1095.39H2082.08ZM2055.88 1076.79C2055.98 1076.89 2056.18 1076.99 2056.28 1077.09C2056.88 1077.59 2057.28 1078.09 2057.68 1078.49C2057.88 1078.79 2058.18 1078.99 2058.28 1079.29C2058.68 1079.89 2059.18 1080.49 2059.48 1081.19C2060.08 1082.29 2060.68 1083.59 2061.18 1084.99C2065.68 1097.69 2065.18 1122.89 2049.88 1157.39C2049.58 1158.09 2049.28 1158.69 2048.98 1159.39C2046.68 1164.49 2043.98 1169.79 2041.08 1175.29C2041.08 1175.29 2041.08 1175.29 2041.08 1175.39C2036.18 1184.39 2029.08 1191.99 2020.28 1197.99C2020.08 1198.09 2019.88 1198.29 2019.68 1198.39C2004.18 1208.69 1983.58 1213.99 1960.28 1213.39C1921.78 1212.29 1887.98 1194.59 1876.18 1169.49C1875.18 1167.29 1874.18 1165.09 1873.28 1162.89C1871.88 1159.59 1870.58 1156.29 1869.48 1152.99C1859.48 1124.59 1857.48 1096.09 1864.98 1078.39C1868.38 1070.39 1873.38 1065.29 1880.08 1062.99C1886.98 1060.59 1893.68 1058.59 1900.28 1056.99C1901.08 1056.79 1901.88 1056.59 1902.68 1056.39C1923.08 1051.39 1941.68 1049.59 1958.18 1049.59C1974.68 1049.59 1990.88 1051.69 2002.78 1054.29C2029.88 1060.19 2047.58 1069.99 2054.98 1075.99C2055.38 1076.29 2055.68 1076.59 2055.98 1076.79H2055.88ZM1898.68 1037.99C1898.18 1038.09 1897.68 1038.19 1897.18 1038.39C1896.68 1038.59 1896.78 1038.39 1896.58 1038.49C1896.58 1038.49 1896.58 1038.49 1896.68 1038.49C1896.78 1038.49 1896.88 1038.49 1896.98 1038.49C1897.28 1038.49 1897.58 1038.49 1897.78 1038.39C1897.98 1038.39 1898.18 1038.39 1898.38 1038.39C1898.78 1038.39 1899.08 1038.39 1899.48 1038.39C1900.78 1038.39 1902.08 1038.79 1903.18 1039.39C1920.18 1035.89 1935.88 1034.59 1949.88 1034.59C1963.88 1034.59 1982.58 1036.69 1994.48 1039.29C2010.98 1042.89 2023.98 1047.89 2033.28 1052.69C2042.58 1057.49 2048.28 1061.89 2050.08 1064.29C2052.08 1066.89 2053.68 1070.89 2054.58 1076.09C2054.98 1076.39 2055.28 1076.69 2055.58 1076.89C2055.68 1076.99 2055.88 1077.09 2055.98 1077.19C2056.58 1077.69 2056.98 1078.19 2057.38 1078.59C2057.38 1078.39 2057.28 1078.29 2057.18 1078.09C2057.18 1077.89 2057.08 1077.79 2056.98 1077.59C2056.98 1077.39 2056.88 1077.29 2056.78 1077.09C2056.78 1076.99 2056.78 1076.79 2056.68 1076.69C2056.68 1076.69 2056.68 1076.69 2056.68 1076.59C2056.68 1076.49 2056.68 1076.29 2056.68 1076.19C2056.68 1075.89 2056.68 1075.59 2056.58 1075.19C2056.58 1074.09 2056.58 1072.89 2056.98 1071.79C2056.98 1071.59 2056.98 1071.49 2057.18 1071.39C2057.18 1071.19 2057.28 1071.09 2057.38 1070.89C2057.58 1070.39 2057.78 1069.99 2058.08 1069.59C2058.48 1068.99 2058.88 1068.49 2059.28 1067.89C2059.48 1067.59 2059.78 1067.19 2060.08 1066.89C2060.18 1066.69 2060.28 1066.59 2060.48 1066.39C2060.78 1065.99 2061.08 1065.59 2061.48 1065.19C2061.68 1064.99 2061.88 1064.69 2062.18 1064.49C2062.38 1064.29 2062.48 1064.19 2062.68 1063.99C2063.08 1063.59 2063.38 1063.29 2063.78 1062.99C2064.08 1062.69 2064.48 1062.39 2064.78 1062.09C2065.18 1061.79 2065.48 1061.49 2065.88 1061.19C2042.18 1042.49 1978.08 1019.19 1898.48 1038.29L1898.68 1037.99Z" fill="black"/>
<path d="M1898.99 1047.69C1898.99 1047.69 1841.29 1055.39 1827.09 1060.39C1812.89 1065.39 1805.29 1078.39 1805.29 1078.39L1806.89 1091.79L1823.09 1090.39C1823.09 1090.39 1842.79 1090.19 1850.89 1101.99C1850.89 1101.99 1839.69 1055.49 1898.99 1047.79V1047.69Z" fill="black"/>
<path d="M1844.18 1046.79C1835.58 1048.39 1828.18 1050.09 1823.98 1051.59C1822.08 1052.29 1820.18 1053.09 1818.48 1053.99C1818.28 1053.99 1818.18 1054.19 1817.98 1054.19C1817.98 1054.29 1817.98 1054.49 1817.98 1054.69C1817.98 1055.19 1817.88 1055.69 1817.78 1056.29C1817.98 1056.19 1818.08 1056.09 1818.28 1055.99C1817.98 1058.59 1817.58 1061.19 1817.28 1063.99C1817.28 1064.59 1817.08 1065.29 1817.08 1065.89C1816.78 1068.29 1816.58 1070.69 1816.28 1073.19C1816.28 1073.89 1816.18 1074.49 1816.08 1075.19C1815.88 1076.79 1815.78 1078.49 1815.58 1080.19C1816.68 1078.89 1818.18 1077.19 1819.98 1075.49C1820.68 1074.89 1821.38 1074.29 1822.18 1073.69C1824.48 1071.89 1827.18 1070.29 1830.28 1069.29C1830.88 1069.09 1831.58 1068.89 1832.38 1068.69C1832.78 1068.59 1833.28 1068.49 1833.68 1068.29C1834.38 1068.09 1835.18 1067.89 1835.98 1067.69C1836.18 1067.69 1836.28 1067.69 1836.48 1067.59C1837.18 1063.99 1838.08 1060.59 1839.28 1057.39C1839.68 1056.29 1840.08 1055.19 1840.58 1054.09C1840.58 1053.89 1840.78 1053.69 1840.88 1053.49C1842.08 1051.09 1843.28 1048.89 1844.68 1046.79C1844.58 1046.79 1844.38 1046.79 1844.28 1046.79H1844.18ZM1908.28 1046.49C1907.88 1043.29 1905.88 1040.69 1903.18 1039.39C1902.08 1038.79 1900.78 1038.49 1899.48 1038.39C1899.08 1038.39 1898.78 1038.39 1898.38 1038.39C1898.18 1038.39 1897.98 1038.39 1897.78 1038.39C1897.48 1038.39 1897.18 1038.39 1896.98 1038.49C1896.88 1038.49 1896.78 1038.49 1896.68 1038.49C1896.68 1038.49 1896.68 1038.49 1896.58 1038.49C1891.18 1039.19 1874.78 1041.49 1858.58 1044.19C1857.98 1044.29 1857.28 1044.39 1856.68 1044.49C1852.58 1045.19 1848.48 1045.89 1844.68 1046.59C1844.58 1046.59 1844.38 1046.59 1844.28 1046.59C1835.68 1048.19 1828.28 1049.89 1824.08 1051.39C1822.18 1052.09 1820.28 1052.89 1818.58 1053.79C1818.38 1053.79 1818.28 1053.99 1818.08 1053.99C1814.28 1055.99 1810.98 1058.29 1808.28 1060.79C1808.28 1060.79 1808.08 1060.99 1807.98 1060.99C1807.98 1060.99 1807.88 1060.99 1807.88 1061.09C1804.08 1064.39 1801.28 1067.79 1799.58 1070.19C1799.28 1070.59 1798.98 1070.99 1798.78 1071.39C1798.78 1071.39 1798.68 1071.59 1798.58 1071.59C1798.08 1072.29 1797.78 1072.79 1797.58 1073.09C1797.58 1073.19 1797.58 1073.29 1797.48 1073.29C1796.48 1075.09 1795.98 1077.09 1796.28 1079.19L1796.78 1083.09V1083.29L1797.08 1085.49L1797.48 1088.69L1797.98 1092.59C1798.28 1095.19 1799.68 1097.39 1801.58 1098.89C1801.58 1098.89 1801.78 1098.99 1801.88 1099.09C1802.68 1099.59 1803.48 1100.09 1804.38 1100.39C1804.38 1100.39 1804.58 1100.39 1804.68 1100.39C1804.78 1100.39 1804.88 1100.39 1804.98 1100.39C1805.98 1100.59 1807.08 1100.69 1808.18 1100.59L1813.88 1100.09H1814.18L1823.98 1099.19C1826.18 1099.19 1830.48 1099.69 1834.58 1100.99C1834.98 1101.09 1835.38 1101.19 1835.78 1101.39C1838.08 1102.19 1840.38 1103.39 1842.08 1104.89C1842.68 1105.49 1843.28 1106.09 1843.68 1106.69C1845.48 1109.29 1848.38 1110.69 1851.38 1110.69C1854.38 1110.69 1853.58 1110.49 1854.68 1110.09C1854.88 1110.09 1855.08 1109.89 1855.28 1109.89C1855.48 1109.89 1855.68 1109.69 1855.88 1109.59C1859.58 1107.59 1861.58 1103.29 1860.58 1099.19C1860.58 1099.09 1857.58 1085.29 1865.48 1073.79C1871.68 1064.69 1883.18 1058.99 1899.68 1056.69C1899.98 1056.69 1900.28 1056.69 1900.58 1056.59H1900.78C1901.58 1056.49 1902.28 1056.29 1902.98 1055.99C1906.88 1054.39 1909.38 1050.39 1908.78 1046.09L1908.28 1046.49ZM1844.18 1065.89C1845.58 1065.59 1847.08 1065.29 1848.58 1064.99C1845.98 1068.99 1844.28 1073.09 1843.08 1077.09C1842.78 1078.19 1842.48 1079.29 1842.18 1080.39C1842.08 1080.99 1841.88 1081.59 1841.78 1082.19C1841.68 1082.79 1841.58 1083.39 1841.48 1084.09C1841.08 1083.99 1840.78 1083.79 1840.38 1083.69C1838.38 1082.99 1836.48 1082.59 1834.68 1082.19C1834.38 1082.19 1834.18 1082.09 1833.88 1081.99C1828.78 1080.99 1824.68 1080.89 1823.28 1080.89H1823.08C1822.88 1080.89 1822.58 1080.89 1822.38 1080.89L1815.38 1081.49H1815.18V1081.09V1080.69C1815.18 1080.69 1815.18 1080.69 1815.18 1080.59C1815.28 1080.39 1815.38 1080.29 1815.58 1080.09C1816.68 1078.79 1818.18 1077.09 1819.98 1075.39C1820.68 1074.79 1821.38 1074.19 1822.18 1073.59C1824.48 1071.79 1827.18 1070.19 1830.28 1069.19C1830.88 1068.99 1831.58 1068.79 1832.38 1068.59C1832.78 1068.49 1833.28 1068.39 1833.68 1068.19C1834.38 1067.99 1835.18 1067.79 1835.98 1067.59C1836.18 1067.59 1836.28 1067.59 1836.48 1067.49C1838.58 1066.99 1841.08 1066.49 1843.68 1065.99C1843.88 1065.99 1843.98 1065.99 1844.18 1065.99V1065.89ZM1844.18 1046.79C1835.58 1048.39 1828.18 1050.09 1823.98 1051.59C1822.08 1052.29 1820.18 1053.09 1818.48 1053.99C1818.28 1053.99 1818.18 1054.19 1817.98 1054.19C1817.98 1054.29 1817.98 1054.49 1817.98 1054.69C1817.98 1055.19 1817.88 1055.69 1817.78 1056.29C1817.98 1056.19 1818.08 1056.09 1818.28 1055.99C1817.98 1058.59 1817.58 1061.19 1817.28 1063.99C1817.28 1064.59 1817.08 1065.29 1817.08 1065.89C1816.78 1068.29 1816.58 1070.69 1816.28 1073.19C1816.28 1073.89 1816.18 1074.49 1816.08 1075.19C1815.88 1076.79 1815.78 1078.49 1815.58 1080.19C1816.68 1078.89 1818.18 1077.19 1819.98 1075.49C1820.68 1074.89 1821.38 1074.29 1822.18 1073.69C1824.48 1071.89 1827.18 1070.29 1830.28 1069.29C1830.88 1069.09 1831.58 1068.89 1832.38 1068.69C1832.78 1068.59 1833.28 1068.49 1833.68 1068.29C1834.38 1068.09 1835.18 1067.89 1835.98 1067.69C1836.18 1067.69 1836.28 1067.69 1836.48 1067.59C1837.18 1063.99 1838.08 1060.59 1839.28 1057.39C1839.68 1056.29 1840.08 1055.19 1840.58 1054.09C1840.58 1053.89 1840.78 1053.69 1840.88 1053.49C1842.08 1051.09 1843.28 1048.89 1844.68 1046.79C1844.58 1046.79 1844.38 1046.79 1844.28 1046.79H1844.18Z" fill="black"/>
<path d="M2073.18 1100.99C2071.38 1100.99 2069.58 1100.49 2068.08 1099.49C2063.78 1096.69 2062.58 1090.79 2065.38 1086.49C2076.48 1069.59 2101.48 1064.39 2119.48 1064.99C2140.48 1065.79 2157.08 1073.49 2163.88 1085.79C2166.38 1090.29 2164.78 1095.99 2160.28 1098.59C2155.78 1101.09 2150.08 1099.49 2147.48 1094.99C2143.98 1088.79 2132.48 1084.29 2118.78 1083.79C2101.98 1083.19 2086.38 1088.59 2080.98 1096.79C2079.18 1099.49 2076.18 1100.99 2073.18 1100.99Z" fill="black"/>
<path d="M2228.68 1132.59C2226.88 1132.59 2225.08 1132.09 2223.58 1131.09C2219.28 1128.29 2218.08 1122.39 2220.88 1118.09C2231.98 1101.19 2256.98 1095.99 2274.98 1096.59C2295.98 1097.39 2312.58 1105.09 2319.38 1117.39C2321.88 1121.89 2320.28 1127.59 2315.78 1130.19C2311.28 1132.69 2305.58 1131.09 2302.98 1126.59C2299.48 1120.39 2287.98 1115.89 2274.28 1115.39C2257.48 1114.79 2241.88 1120.19 2236.48 1128.39C2234.68 1131.09 2231.68 1132.59 2228.68 1132.59Z" fill="black"/>
<path d="M1926.18 1132.59C1924.38 1132.59 1922.58 1132.09 1921.08 1131.09C1916.78 1128.29 1915.58 1122.39 1918.38 1118.09C1929.48 1101.19 1954.48 1095.99 1972.48 1096.59C1993.48 1097.39 2010.08 1105.09 2016.88 1117.39C2019.38 1121.89 2017.78 1127.59 2013.28 1130.19C2008.78 1132.69 2003.08 1131.09 2000.48 1126.59C1996.98 1120.39 1985.48 1115.89 1971.78 1115.39C1954.98 1114.79 1939.38 1120.19 1933.98 1128.39C1932.18 1131.09 1929.18 1132.59 1926.18 1132.59Z" fill="black"/>
<path d="M2095.18 1284.49C2094.98 1284.49 2094.78 1284.49 2094.58 1284.49C2063.48 1282.59 2042.58 1273.09 2032.58 1256.39C2016.58 1229.89 2032.88 1193.49 2040.78 1176.09C2042.88 1171.39 2048.48 1169.29 2053.18 1171.39C2057.88 1173.49 2059.98 1179.09 2057.88 1183.79C2051.38 1198.39 2037.68 1228.69 2048.68 1246.79C2055.38 1257.89 2071.28 1264.29 2095.88 1265.89C2101.08 1266.19 2104.98 1270.69 2104.68 1275.79C2104.38 1280.79 2100.28 1284.59 2095.38 1284.59L2095.18 1284.49Z" fill="black"/>
<path d="M2030.88 1001.49C2037.68 1002.29 2041.88 998.588 2047.08 994.588C2048.68 993.288 2048.78 991.088 2046.98 990.188C2009.18 972.088 1911.88 963.688 1886.18 1019.09C1923.78 989.688 1983.08 992.988 2030.88 1001.49Z" fill="black"/>
<path d="M2057.58 990.988C2057.18 986.988 2054.68 983.488 2050.98 981.688C2049.48 980.988 2047.98 980.288 2046.38 979.688C2032.78 973.988 2014.68 969.788 1995.48 968.088C1991.98 967.788 1988.48 967.588 1984.88 967.388C1969.28 966.788 1953.38 967.788 1938.78 971.088C1933.68 972.188 1928.88 973.588 1924.18 975.288C1912.78 979.388 1903.18 984.888 1895.28 991.688C1894.08 992.688 1892.98 993.788 1891.88 994.888C1887.38 999.388 1883.58 1004.29 1880.48 1009.79C1880.38 1009.99 1880.28 1010.19 1880.18 1010.39C1879.28 1011.89 1878.48 1013.49 1877.78 1015.19C1876.58 1017.79 1876.68 1020.69 1877.78 1023.19C1877.98 1023.69 1878.28 1024.09 1878.58 1024.49C1878.58 1024.59 1878.78 1024.69 1878.88 1024.89C1879.18 1025.29 1879.48 1025.59 1879.78 1025.89C1879.98 1026.09 1880.18 1026.29 1880.38 1026.49C1882.08 1027.89 1884.18 1028.49 1886.18 1028.49C1888.18 1028.49 1890.28 1027.79 1891.98 1026.49C1892.98 1025.69 1894.08 1024.89 1895.18 1024.09C1895.88 1023.59 1896.48 1023.19 1897.18 1022.69C1898.18 1022.09 1899.08 1021.49 1900.08 1020.89C1901.68 1019.89 1903.38 1018.99 1905.08 1018.09C1926.18 1007.29 1954.78 1003.09 1990.38 1005.69C2002.48 1006.59 2015.48 1008.19 2029.28 1010.69C2029.48 1010.69 2029.68 1010.69 2029.78 1010.69C2032.28 1010.99 2034.48 1010.89 2036.48 1010.59C2042.98 1009.49 2047.68 1005.79 2051.68 1002.69L2052.68 1001.89C2056.18 999.188 2057.98 995.088 2057.48 990.888L2057.58 990.988ZM1981.98 986.388C1977.88 986.188 1973.88 986.088 1969.98 986.088C1966.08 986.088 1967.68 986.088 1966.58 986.088C1970.58 985.888 1974.48 985.788 1978.48 985.888C1982.48 985.888 1986.58 986.088 1990.58 986.388C1991.18 986.388 1991.68 986.388 1992.28 986.488C1997.78 986.988 2003.08 987.688 2008.18 988.488C2003.48 987.888 1998.88 987.488 1994.38 987.088C1993.98 987.088 1993.58 987.088 1993.18 986.988C1989.38 986.688 1985.58 986.488 1981.98 986.288V986.388Z" fill="black"/>
<path d="M2206.18 1008.69C2199.48 1009.99 2194.98 1006.59 2189.58 1002.89C2184.18 999.188 2187.58 999.488 2189.38 998.488C2225.88 977.788 2322.28 962.588 2351.88 1016.09C2312.28 989.388 2253.48 996.888 2206.28 1008.69H2206.18Z" fill="black"/>
<path d="M2359.98 1011.59C2359.08 1009.99 2358.18 1008.39 2357.18 1006.89C2356.58 1006.09 2356.08 1005.19 2355.48 1004.39C2352.08 999.588 2348.08 995.388 2343.48 991.588C2334.68 984.288 2323.68 978.688 2310.78 975.088C2269.88 963.588 2213.48 973.988 2184.68 990.388C2184.58 990.388 2184.48 990.488 2184.38 990.588C2181.48 992.388 2179.48 995.288 2178.88 998.588C2178.88 999.088 2178.78 999.588 2178.68 1000.19C2178.58 1002.89 2179.38 1005.49 2180.98 1007.69C2181.88 1008.89 2182.98 1009.89 2184.28 1010.79L2185.38 1011.49C2190.88 1015.19 2197.78 1019.79 2207.88 1017.99C2208.08 1017.99 2208.28 1017.99 2208.38 1017.89C2264.78 1003.69 2308.18 1004.09 2337.58 1018.79C2338.48 1019.19 2339.28 1019.69 2340.18 1020.09C2341.08 1020.59 2342.08 1021.19 2342.98 1021.69C2344.18 1022.39 2345.38 1023.19 2346.48 1023.89C2346.78 1024.09 2347.18 1024.29 2347.48 1024.49C2348.38 1024.99 2349.38 1025.29 2350.38 1025.39C2350.78 1025.39 2351.28 1025.39 2351.78 1025.39C2352.98 1025.39 2354.28 1025.19 2355.38 1024.69C2355.98 1024.49 2356.48 1024.19 2356.98 1023.79C2357.38 1023.59 2357.78 1023.29 2358.08 1022.99C2358.38 1022.69 2358.68 1022.39 2358.98 1021.99C2361.38 1019.09 2361.88 1014.89 2359.98 1011.49V1011.59ZM2269.18 988.888C2256.38 989.588 2242.58 991.388 2227.88 994.288C2240.68 991.188 2254.98 989.188 2269.18 988.888Z" fill="black"/>
<path d="M1803.28 1114.59C1803.28 1114.59 1784.08 959.188 1788.98 883.488C1793.88 807.788 1804.48 724.288 1909.28 650.888C1914.78 647.088 1920.48 643.488 1926.58 640.088C1932.68 636.688 1918.78 630.488 1945.88 614.388C2056.18 549.188 2235.38 579.988 2323.18 629.488C2410.98 678.988 2448.68 754.388 2458.48 851.388C2468.28 948.388 2470.88 1018.59 2447.18 1114.59C2447.18 1114.59 2432.08 1051.29 2417.18 1010.89C2402.28 970.488 2392.28 947.288 2389.88 897.588C2387.48 847.888 2385.88 842.888 2366.48 814.088C2352.38 792.988 2331.88 761.188 2302.68 767.288C2273.48 773.388 2217.98 798.188 2113.38 796.488C2008.78 794.788 2000.48 768.588 1975.68 763.388C1946.08 757.088 1893.38 791.088 1871.48 828.288C1849.58 865.488 1860.28 921.888 1847.78 941.488C1835.28 961.088 1811.98 978.488 1803.18 1114.69L1803.28 1114.59Z" fill="black"/>
<path d="M2443.08 1061.49C2442.78 1060.59 2442.58 1059.59 2442.28 1058.69C2441.48 1055.99 2440.78 1053.39 2439.98 1050.69C2439.88 1050.29 2439.78 1049.99 2439.68 1049.59C2439.38 1048.69 2439.18 1047.79 2438.88 1046.79C2434.88 1033.29 2430.58 1019.69 2426.18 1007.79C2426.18 1007.79 2426.18 1007.69 2426.18 1007.59C2424.98 1004.29 2423.78 1001.19 2422.68 998.088C2416.28 980.888 2410.98 966.588 2406.98 950.988C2403.08 935.688 2400.48 919.088 2399.38 897.188C2397.68 861.488 2396.18 847.588 2388.48 831.888C2386.88 828.588 2384.98 825.288 2382.68 821.588C2380.28 817.788 2377.58 813.588 2374.38 808.888L2373.28 807.288C2366.98 797.888 2359.28 786.488 2349.98 776.888C2353.18 781.388 2356.28 785.888 2359.08 790.088L2360.18 791.788C2372.28 809.788 2376.88 817.188 2379.38 834.888C2380.58 843.488 2381.28 854.588 2381.98 870.588C2383.78 906.388 2389.48 929.388 2397.78 953.488C2397.78 953.488 2397.78 953.588 2397.78 953.688C2397.98 954.388 2398.18 955.188 2398.38 955.888C2398.38 955.988 2398.38 956.188 2398.48 956.288C2398.58 956.788 2398.78 957.288 2398.88 957.888C2398.98 958.288 2399.08 958.788 2399.28 959.188C2399.38 959.588 2399.48 960.088 2399.68 960.488C2399.98 961.588 2400.38 962.788 2400.68 963.888C2401.08 965.188 2401.48 966.488 2401.88 967.788C2402.18 968.688 2402.38 969.488 2402.68 970.388C2403.18 972.088 2403.78 973.688 2404.28 975.388C2404.58 976.088 2404.78 976.888 2405.08 977.588C2405.68 979.288 2406.28 980.988 2406.88 982.588C2407.18 983.388 2407.48 984.188 2407.68 984.888C2408.68 987.688 2409.78 990.588 2410.78 993.488C2411.18 994.488 2411.58 995.588 2411.98 996.588C2412.18 997.188 2412.38 997.788 2412.58 998.288C2412.78 998.888 2412.98 999.488 2413.28 1000.09C2414.08 1002.29 2414.88 1004.49 2415.78 1006.79C2416.28 1008.09 2416.78 1009.49 2417.28 1010.79C2419.68 1020.09 2422.08 1030.19 2424.18 1040.39C2424.38 1041.29 2424.58 1042.19 2424.78 1042.99C2425.08 1044.39 2425.38 1045.79 2425.68 1047.19C2426.08 1048.79 2426.58 1050.29 2426.98 1051.79C2426.98 1052.09 2427.18 1052.49 2427.28 1052.79C2427.48 1053.39 2427.58 1053.99 2427.78 1054.59C2427.78 1054.59 2427.68 1054.59 2427.58 1054.49C2427.48 1054.49 2427.28 1054.39 2427.18 1054.29C2427.18 1054.79 2427.38 1055.29 2427.48 1055.69C2427.68 1055.79 2427.98 1055.89 2428.28 1055.99C2429.68 1056.59 2431.08 1057.19 2432.58 1057.89C2434.38 1058.69 2436.28 1059.49 2437.98 1060.29C2439.98 1061.19 2441.88 1062.09 2443.68 1062.89C2443.58 1062.49 2443.48 1062.09 2443.28 1061.59L2443.08 1061.49ZM1846.28 899.288C1846.08 901.488 1845.98 903.688 1845.78 905.788C1845.98 904.588 1846.08 903.388 1846.18 902.188C1846.28 901.088 1846.38 899.988 1846.48 898.788C1846.68 896.988 1846.78 895.188 1846.98 893.288C1847.08 891.588 1847.28 889.888 1847.38 888.188C1847.58 885.388 1847.78 882.488 1847.98 879.488C1847.98 878.788 1847.98 878.088 1848.18 877.488C1848.18 876.888 1848.18 876.188 1848.28 875.588C1847.28 883.788 1846.78 891.888 1846.18 899.288H1846.28ZM2467.88 850.388C2463.28 804.688 2449.58 760.888 2428.18 723.088C2426.68 720.388 2425.08 717.688 2423.48 715.088C2399.28 675.288 2366.18 642.888 2327.88 621.288C2327.88 621.288 2327.68 621.288 2327.58 621.188C2324.88 619.688 2322.18 618.188 2319.28 616.688C2318.78 616.388 2318.18 616.088 2317.68 615.888C2315.98 615.088 2314.38 614.188 2312.58 613.388C2219.68 568.288 2049.68 542.288 1941.28 606.388C1923.88 616.688 1919.58 624.788 1919.58 633.388C1914.18 636.488 1908.88 639.888 1904.08 643.288C1855.38 677.388 1822.38 716.488 1803.18 762.788C1791.08 791.988 1785.68 820.888 1782.58 848.888C1781.38 860.388 1780.48 871.688 1779.78 882.788C1776.78 928.688 1782.48 1002.29 1787.48 1054.59C1787.68 1056.99 1787.98 1059.39 1788.18 1061.69C1788.38 1064.19 1788.68 1066.59 1788.88 1068.99C1788.88 1068.99 1788.88 1068.99 1788.88 1069.09C1789.08 1070.69 1789.18 1072.29 1789.38 1073.89C1789.58 1075.49 1789.68 1077.09 1789.88 1078.59C1790.28 1081.89 1790.58 1084.99 1790.88 1087.89C1790.88 1087.89 1790.88 1087.89 1790.88 1087.99C1791.88 1096.69 1792.68 1103.69 1793.18 1108.49C1793.68 1112.39 1793.98 1114.89 1794.08 1115.59C1794.48 1118.69 1796.28 1121.29 1798.88 1122.69C1799.08 1122.69 1799.18 1122.89 1799.38 1122.89C1800.58 1123.49 1801.98 1123.79 1803.38 1123.79H1803.68C1808.48 1123.69 1812.48 1119.89 1812.78 1114.99C1813.08 1109.99 1813.48 1105.09 1813.78 1100.39C1813.98 1097.19 1814.28 1093.99 1814.58 1090.89C1814.78 1088.69 1814.98 1086.49 1815.18 1084.39C1815.18 1083.69 1815.28 1083.09 1815.38 1082.49C1815.38 1082.09 1815.38 1081.79 1815.38 1081.39C1815.38 1080.89 1815.38 1080.49 1815.48 1079.99C1815.68 1078.29 1815.78 1076.69 1815.98 1074.99C1815.98 1074.29 1816.08 1073.69 1816.18 1072.99C1816.48 1070.49 1816.68 1067.99 1816.98 1065.69C1816.98 1064.99 1817.18 1064.39 1817.18 1063.79C1817.48 1061.09 1817.88 1058.39 1818.18 1055.79C1818.18 1055.29 1818.28 1054.79 1818.38 1054.19C1818.38 1054.09 1818.38 1053.89 1818.38 1053.79C1818.78 1050.79 1819.18 1047.79 1819.68 1044.99C1819.68 1044.39 1819.88 1043.79 1819.98 1043.19C1820.38 1040.29 1820.88 1037.49 1821.38 1034.79C1821.48 1034.19 1821.58 1033.59 1821.68 1032.99C1830.58 982.288 1842.38 965.588 1850.98 953.388C1852.68 950.988 1854.28 948.788 1855.78 946.388C1862.48 935.888 1863.58 919.588 1864.88 900.588C1866.48 877.888 1868.28 852.188 1879.58 832.888C1899.68 798.788 1948.98 767.188 1973.78 772.388C1979.38 773.588 1984.08 776.188 1990.68 779.788C2008.58 789.588 2035.68 804.488 2113.38 805.788C2199.28 807.188 2257.18 790.088 2288.28 780.988C2295.28 778.888 2300.88 777.288 2304.78 776.488C2326.98 771.788 2344.78 798.288 2357.68 817.688L2358.78 819.288C2361.48 823.288 2363.78 826.688 2365.78 829.888C2377.28 848.088 2378.58 856.488 2380.58 898.088C2382.88 945.188 2392.18 970.088 2404.98 1004.59C2406.08 1007.69 2407.28 1010.79 2408.48 1014.09C2411.08 1021.09 2413.68 1028.79 2416.18 1036.69C2416.48 1037.59 2416.78 1038.49 2417.08 1039.49C2417.98 1042.49 2418.98 1045.49 2419.88 1048.49C2420.18 1049.39 2420.48 1050.29 2420.68 1051.29C2420.88 1051.79 2420.98 1052.39 2421.18 1052.99C2421.88 1055.49 2422.58 1057.89 2423.28 1060.39C2423.58 1061.29 2423.78 1062.29 2424.08 1063.19C2424.18 1063.69 2424.38 1064.19 2424.48 1064.69C2424.78 1065.89 2425.18 1067.09 2425.48 1068.29C2425.48 1068.49 2425.58 1068.79 2425.68 1068.99C2426.38 1071.49 2427.08 1073.89 2427.68 1076.29L2428.08 1077.59C2428.28 1078.09 2428.38 1078.69 2428.48 1079.19C2428.88 1080.59 2429.18 1081.99 2429.58 1083.29C2429.88 1084.49 2430.28 1085.79 2430.58 1086.99C2430.78 1087.79 2430.98 1088.69 2431.28 1089.49C2431.58 1090.59 2431.88 1091.69 2432.08 1092.69C2432.98 1096.09 2433.78 1099.19 2434.48 1102.09C2435.08 1104.39 2435.58 1106.49 2436.08 1108.39C2436.68 1110.59 2437.08 1112.49 2437.48 1113.89C2437.88 1115.69 2438.18 1116.79 2438.18 1116.89C2438.78 1119.49 2440.48 1121.59 2442.68 1122.89C2443.98 1123.59 2445.58 1124.09 2447.18 1124.09C2451.48 1124.09 2455.28 1121.19 2456.28 1116.99C2456.48 1115.99 2456.78 1115.09 2456.98 1114.09C2458.08 1109.69 2459.08 1105.39 2459.98 1101.09C2459.98 1101.09 2459.98 1100.99 2459.98 1100.89C2460.18 1100.09 2460.38 1099.19 2460.58 1098.39C2460.68 1097.89 2460.78 1097.39 2460.88 1096.89C2461.68 1092.99 2462.48 1089.19 2463.28 1085.39C2463.48 1084.19 2463.78 1082.99 2463.98 1081.79C2463.98 1081.79 2463.98 1081.79 2463.98 1081.69C2464.38 1079.89 2464.68 1078.09 2464.98 1076.29C2465.58 1073.09 2466.08 1069.99 2466.68 1066.79C2478.58 996.288 2476.28 934.588 2467.68 850.488L2467.88 850.388ZM2325.88 759.988C2320.98 758.188 2315.88 757.088 2310.28 757.088C2304.68 757.088 2304.08 757.388 2300.88 758.088C2296.28 759.088 2290.38 760.788 2282.98 762.988C2252.88 771.888 2196.78 788.488 2113.68 787.088C2040.58 785.888 2016.98 772.888 1999.68 763.388C1992.68 759.488 1985.98 755.888 1977.68 754.088C1953.18 748.888 1919.68 765.188 1893.68 787.988C1881.38 798.788 1870.78 810.988 1863.68 822.988C1863.68 823.088 1863.48 823.188 1863.48 823.388C1854.28 839.088 1850.38 857.688 1848.28 875.388C1848.28 875.388 1848.28 875.388 1848.28 875.488C1847.28 883.688 1846.78 891.788 1846.18 899.188C1845.98 901.388 1845.88 903.588 1845.68 905.688C1845.28 911.688 1844.78 917.288 1843.98 922.188C1843.08 928.188 1841.88 933.088 1839.88 936.188C1838.58 938.188 1837.18 940.288 1835.58 942.488C1834.58 943.888 1833.58 945.388 1832.48 946.988C1823.38 960.188 1812.18 979.888 1803.58 1027.39C1803.48 1026.29 1803.38 1025.19 1803.28 1023.99C1803.28 1023.69 1803.28 1023.39 1803.28 1023.09C1802.38 1011.99 1801.48 1000.49 1800.58 988.788C1797.98 950.788 1796.38 911.788 1798.18 883.988C1803.28 804.488 1816.08 727.388 1914.48 658.488C1919.58 654.888 1925.18 651.388 1930.98 648.188C1938.78 643.788 1938.28 636.788 1938.08 634.188C1938.02 633.255 1938.12 632.554 1938.38 632.088C1939.28 630.688 1942.08 627.488 1950.48 622.488C2051.98 562.488 2211.38 586.288 2300.68 628.488C2301.48 628.888 2302.28 629.288 2303.08 629.588C2303.08 629.588 2303.28 629.588 2303.38 629.688C2305.18 630.588 2306.88 631.388 2308.58 632.288C2311.88 633.988 2315.08 635.688 2318.18 637.388C2318.18 637.388 2318.38 637.388 2318.48 637.488C2356.98 659.188 2388.78 692.088 2411.58 732.188C2431.58 767.488 2444.68 808.288 2449.08 852.188C2455.48 915.388 2458.38 965.688 2454.08 1016.79C2453.08 1028.49 2451.78 1040.09 2449.98 1051.89C2449.88 1052.69 2449.78 1053.39 2449.68 1054.09C2449.28 1056.59 2448.88 1058.99 2448.48 1061.49C2448.28 1062.59 2448.08 1063.59 2447.98 1064.69C2447.88 1065.59 2447.68 1066.49 2447.48 1067.39C2447.08 1069.49 2446.78 1071.59 2446.38 1073.69C2446.38 1073.39 2446.18 1072.99 2446.08 1072.69C2445.88 1071.99 2445.68 1071.39 2445.58 1070.79C2445.28 1069.79 2445.08 1068.89 2444.78 1067.89C2444.28 1066.19 2443.78 1064.39 2443.28 1062.59C2443.18 1062.19 2443.08 1061.79 2442.88 1061.29C2442.58 1060.39 2442.38 1059.39 2442.08 1058.49C2441.28 1055.79 2440.58 1053.19 2439.78 1050.49C2439.68 1050.09 2439.58 1049.79 2439.48 1049.39C2439.18 1048.49 2438.98 1047.59 2438.68 1046.59C2434.68 1033.09 2430.38 1019.49 2425.98 1007.59C2425.98 1007.59 2425.98 1007.49 2425.98 1007.39C2424.78 1004.09 2423.58 1000.99 2422.48 997.888C2416.08 980.688 2410.78 966.388 2406.78 950.788C2402.88 935.488 2400.28 918.888 2399.18 896.988C2397.48 861.288 2395.98 847.388 2388.28 831.688C2386.68 828.388 2384.78 825.088 2382.48 821.388C2380.08 817.588 2377.38 813.388 2374.18 808.688L2373.08 807.088C2366.78 797.688 2359.08 786.288 2349.78 776.688C2342.78 769.488 2334.78 763.288 2325.68 759.888L2325.88 759.988ZM2443.08 1061.49C2442.78 1060.59 2442.58 1059.59 2442.28 1058.69C2441.48 1055.99 2440.78 1053.39 2439.98 1050.69C2439.88 1050.29 2439.78 1049.99 2439.68 1049.59C2439.38 1048.69 2439.18 1047.79 2438.88 1046.79C2434.88 1033.29 2430.58 1019.69 2426.18 1007.79C2426.18 1007.79 2426.18 1007.69 2426.18 1007.59C2424.98 1004.29 2423.78 1001.19 2422.68 998.088C2416.28 980.888 2410.98 966.588 2406.98 950.988C2403.08 935.688 2400.48 919.088 2399.38 897.188C2397.68 861.488 2396.18 847.588 2388.48 831.888C2386.88 828.588 2384.98 825.288 2382.68 821.588C2388.48 835.588 2389.88 850.088 2391.38 882.088C2393.58 926.288 2401.88 948.888 2414.58 982.988C2415.78 986.088 2416.88 989.188 2418.08 992.488C2423.88 1008.19 2429.68 1027.19 2434.58 1044.69C2434.58 1044.69 2434.58 1044.79 2434.58 1044.89C2434.78 1045.79 2434.98 1046.69 2435.08 1047.49C2435.68 1050.39 2436.28 1053.29 2436.78 1056.19C2434.98 1055.39 2432.98 1054.39 2430.88 1053.49C2429.98 1053.09 2429.08 1052.69 2428.08 1052.19C2427.58 1051.99 2427.08 1051.79 2426.68 1051.59C2426.68 1051.89 2426.88 1052.29 2426.98 1052.59C2427.18 1053.19 2427.28 1053.79 2427.48 1054.39C2427.48 1054.39 2427.38 1054.39 2427.28 1054.29C2427.18 1054.29 2426.98 1054.19 2426.88 1054.09C2426.88 1054.59 2427.08 1055.09 2427.18 1055.49C2427.38 1055.59 2427.68 1055.69 2427.98 1055.79C2429.38 1056.39 2430.78 1056.99 2432.28 1057.69C2434.08 1058.49 2435.98 1059.29 2437.68 1060.09C2439.68 1060.99 2441.58 1061.89 2443.38 1062.69C2443.28 1062.29 2443.18 1061.89 2442.98 1061.39L2443.08 1061.49Z" fill="black"/>
<path d="M2528.88 1192.59C2524.88 1233.09 2513.88 1268.99 2499.48 1288.69C2477.98 1318.09 2448.88 1320.19 2430.08 1315.89C2415.48 1385.99 2395.08 1441.09 2369.38 1479.69C2367.58 1482.49 2365.18 1485.59 2362.48 1488.89C2357.38 1494.99 2350.78 1501.99 2342.98 1509.29C2327.78 1523.49 2307.88 1539.29 2284.88 1553.59C2283.48 1554.39 2282.18 1555.29 2280.78 1556.09C2279.28 1556.99 2277.58 1557.39 2275.98 1557.39C2272.78 1557.39 2269.68 1555.79 2267.98 1552.89C2266.98 1551.19 2266.58 1549.29 2266.68 1547.49C2266.88 1544.49 2268.48 1541.69 2271.18 1540.09C2276.68 1536.79 2281.98 1533.39 2286.98 1530.09C2324.48 1504.89 2346.78 1479.99 2353.88 1469.39C2379.58 1430.89 2399.78 1374.59 2413.88 1301.89C2414.48 1299.09 2416.28 1296.59 2418.88 1295.29C2421.48 1293.99 2424.48 1293.89 2427.08 1295.19C2428.38 1295.79 2460.68 1310.09 2484.48 1277.69C2496.78 1260.89 2506.68 1227.59 2510.38 1190.79C2513.88 1155.99 2510.68 1125.39 2502.58 1114.39C2493.38 1101.99 2475.08 1098.79 2460.18 1100.89C2458.58 1101.09 2457.08 1101.39 2455.58 1101.69C2455.58 1101.69 2455.38 1101.69 2455.28 1101.69C2454.98 1101.69 2454.78 1101.79 2454.48 1101.79C2454.18 1101.79 2453.98 1101.79 2453.68 1101.79C2453.48 1101.79 2453.28 1101.79 2453.08 1101.79C2452.08 1101.79 2451.18 1101.59 2450.28 1101.39C2447.18 1100.39 2444.78 1097.89 2443.98 1094.59C2443.78 1093.89 2443.78 1093.19 2443.78 1092.39C2443.78 1088.19 2446.68 1084.29 2450.98 1083.29C2452.08 1083.09 2453.18 1082.79 2454.28 1082.59C2454.68 1082.59 2454.98 1082.49 2455.38 1082.39C2458.18 1081.89 2461.08 1081.59 2464.08 1081.39C2464.48 1081.39 2464.88 1081.39 2465.18 1081.39C2484.38 1080.59 2505.28 1086.49 2517.48 1102.99C2534.08 1125.29 2530.38 1177.09 2528.78 1192.39L2528.88 1192.59Z" fill="black"/>
<path d="M1880.38 1475.29C1879.68 1476.19 1878.88 1476.99 1877.88 1477.59C1877.08 1478.09 1876.18 1478.49 1875.28 1478.69C1874.48 1478.89 1873.68 1478.99 1872.88 1478.99C1869.78 1478.99 1866.78 1477.49 1864.98 1474.69C1864.68 1474.19 1864.28 1473.59 1863.98 1473.09C1860.98 1468.09 1858.08 1462.29 1855.18 1455.69C1835.18 1409.19 1820.38 1328.79 1815.28 1298.49C1798.58 1304.39 1784.48 1304.29 1772.48 1297.99C1743.38 1282.89 1733.58 1235.49 1723.68 1175.09C1715.38 1123.99 1729.58 1098.09 1742.98 1085.29C1754.98 1073.89 1771.18 1068.19 1788.78 1068.99C1791.98 1069.09 1795.08 1069.49 1798.38 1070.09C1798.68 1070.09 1799.08 1070.19 1799.38 1070.29C1800.08 1070.39 1800.68 1070.59 1801.38 1070.69C1803.58 1071.19 1805.38 1072.39 1806.68 1073.99C1806.98 1074.39 1807.28 1074.69 1807.48 1075.09C1808.58 1077.09 1809.08 1079.39 1808.58 1081.79C1808.18 1083.49 1807.38 1084.99 1806.28 1086.19C1805.98 1086.49 1805.78 1086.69 1805.48 1086.99C1804.08 1088.19 1802.28 1088.99 1800.48 1089.19C1799.48 1089.29 1798.48 1089.19 1797.48 1088.99C1797.48 1088.99 1797.28 1088.99 1797.18 1088.99C1795.08 1088.49 1792.98 1088.19 1790.88 1087.99C1777.38 1086.69 1764.88 1090.49 1756.08 1098.89C1741.58 1112.69 1736.88 1137.99 1742.38 1172.09C1750.78 1223.39 1760.08 1270.39 1781.28 1281.39C1790.38 1286.09 1802.58 1284.59 1818.68 1276.79C1821.38 1275.49 1824.48 1275.59 1827.08 1276.89C1829.68 1278.29 1831.58 1280.79 1831.98 1283.79C1832.18 1285.09 1852.18 1413.89 1878.58 1460.89C1879.08 1461.79 1879.58 1462.59 1880.08 1463.39C1880.28 1463.79 1880.58 1464.19 1880.78 1464.49C1882.98 1467.89 1882.68 1472.09 1880.38 1475.09V1475.29Z" fill="black"/>
<path d="M1957.78 1561.69C1956.08 1561.69 1954.38 1561.19 1952.78 1560.29C1939.88 1552.19 1927.38 1542.99 1915.78 1532.89C1914.58 1531.89 1913.38 1530.79 1912.28 1529.79C1908.48 1526.29 1908.08 1520.39 1911.58 1516.59C1915.08 1512.79 1920.98 1512.39 1924.78 1515.89C1925.88 1516.89 1926.98 1517.79 1928.08 1518.79C1938.98 1528.19 1950.68 1536.89 1962.78 1544.49C1967.18 1547.29 1968.48 1552.99 1965.78 1557.39C1963.98 1560.19 1960.98 1561.79 1957.88 1561.79L1957.78 1561.69Z" fill="black"/>
<path d="M1895.78 1509.39C1893.18 1509.39 1890.58 1508.29 1888.78 1506.29C1886.08 1503.19 1883.28 1499.99 1880.68 1496.69C1878.68 1494.29 1876.98 1491.99 1875.38 1489.89C1872.28 1485.69 1873.18 1479.89 1877.28 1476.79C1881.38 1473.69 1887.28 1474.59 1890.38 1478.69C1891.78 1480.59 1893.38 1482.69 1895.28 1484.89C1897.78 1487.99 1900.28 1490.99 1902.78 1493.79C1906.18 1497.69 1905.88 1503.59 1901.98 1506.99C1900.18 1508.59 1897.98 1509.39 1895.78 1509.39Z" fill="black"/>
<path d="M1796.98 1251.59C1787.58 1251.59 1772.28 1247.29 1758.48 1223.89C1755.88 1219.49 1757.28 1213.69 1761.78 1211.09C1766.18 1208.49 1771.98 1209.89 1774.58 1214.39C1782.28 1227.39 1791.38 1234.29 1798.78 1232.79C1801.48 1232.19 1803.08 1230.69 1803.58 1229.69C1803.28 1229.49 1802.78 1229.29 1802.18 1229.19C1788.48 1225.19 1779.58 1212.39 1778.38 1194.79C1777.28 1178.19 1783.38 1158.19 1797.18 1152.09C1801.88 1149.99 1807.48 1152.09 1809.58 1156.89C1811.68 1161.59 1809.58 1167.19 1804.78 1169.29C1801.18 1170.89 1796.28 1181.39 1797.08 1193.59C1797.38 1198.09 1798.98 1208.79 1807.38 1211.19C1818.68 1214.39 1822.58 1222.69 1822.58 1229.39C1822.58 1238.89 1814.78 1247.89 1804.28 1250.79C1802.78 1251.19 1800.28 1251.69 1797.08 1251.69L1796.98 1251.59Z" fill="black"/>
<path d="M1762.28 1172.29C1757.28 1172.29 1753.08 1168.29 1752.88 1163.29C1751.78 1134.49 1757.48 1125.29 1772.78 1108.29C1776.28 1104.49 1782.18 1104.09 1785.98 1107.59C1789.78 1111.09 1790.18 1116.99 1786.68 1120.79C1773.98 1134.89 1770.78 1139.49 1771.58 1162.49C1771.78 1167.69 1767.78 1171.99 1762.58 1172.19C1762.48 1172.19 1762.38 1172.19 1762.18 1172.19L1762.28 1172.29Z" fill="black"/>
<path d="M2496.18 1212.89C2495.48 1211.39 2494.28 1210.09 2492.88 1209.09C2492.68 1208.99 2492.48 1208.79 2492.28 1208.69C2491.68 1208.39 2490.98 1208.09 2490.28 1207.89C2489.48 1207.69 2488.78 1207.59 2487.98 1207.59C2483.78 1207.59 2479.98 1210.29 2478.88 1214.59C2476.68 1222.99 2471.68 1229.19 2463.88 1232.99C2462.18 1233.79 2460.58 1234.49 2458.98 1234.99C2458.98 1234.99 2459.08 1234.79 2459.18 1234.69C2463.68 1227.49 2465.98 1218.49 2466.48 1209.19C2467.08 1195.89 2463.98 1181.79 2457.58 1170.79C2456.88 1169.59 2455.98 1168.69 2454.98 1167.89C2454.78 1167.79 2454.58 1167.69 2454.48 1167.59C2454.28 1167.49 2454.08 1167.29 2453.88 1167.19C2453.78 1167.19 2453.68 1167.09 2453.58 1166.99C2450.88 1165.69 2447.68 1165.79 2444.88 1167.39C2440.38 1169.99 2438.88 1175.69 2441.48 1180.19C2451.28 1197.09 2449.68 1223.09 2438.48 1229.89C2434.08 1232.59 2431.98 1235.59 2431.08 1238.29C2430.18 1241.09 2430.58 1243.59 2430.98 1244.99C2431.88 1248.09 2433.88 1250.49 2436.78 1252.19C2437.08 1252.39 2437.38 1252.59 2437.78 1252.69C2440.98 1254.29 2445.18 1255.19 2450.08 1255.19H2450.48C2464.88 1255.09 2481.08 1248.39 2490.68 1234.09C2493.48 1229.89 2495.78 1224.99 2497.18 1219.49C2497.78 1217.29 2497.48 1214.99 2496.58 1213.09L2496.18 1212.89Z" fill="black"/>
<path d="M2487.08 1160.29C2486.48 1160.29 2485.88 1160.29 2485.28 1160.09C2480.18 1159.09 2476.88 1154.19 2477.88 1149.09C2480.88 1133.89 2467.98 1130.19 2467.88 1130.19C2462.88 1128.89 2459.78 1123.89 2461.08 1118.79C2462.38 1113.79 2467.38 1110.69 2472.48 1111.99C2484.18 1114.89 2500.98 1128.59 2496.28 1152.69C2495.38 1157.19 2491.48 1160.29 2487.08 1160.29Z" fill="black"/>
<path d="M2362.48 1485.69V1488.89C2362.38 1488.89 2358.48 1595.89 2358.48 1595.89L2357.78 1615.09V1618.69C2357.68 1618.69 2357.58 1620.19 2357.58 1620.19C2357.38 1625.29 2353.28 1629.19 2348.18 1629.19C2343.08 1629.19 2347.98 1629.19 2347.88 1629.19C2343.88 1629.09 2340.68 1626.49 2339.38 1622.99C2339.38 1622.79 2339.18 1622.59 2339.18 1622.29C2339.08 1621.79 2338.98 1621.29 2338.88 1620.79C2338.88 1620.79 2338.88 1620.59 2338.88 1620.49C2338.88 1620.29 2338.88 1620.09 2338.88 1619.89C2338.88 1619.69 2338.88 1619.69 2338.88 1619.59L2342.88 1509.29L2343.78 1484.99C2343.98 1479.79 2348.38 1475.79 2353.48 1475.99C2358.68 1476.19 2362.68 1480.49 2362.48 1485.69Z" fill="black"/>
<path d="M1887.98 1500.19C1882.78 1500.19 1878.58 1495.99 1878.58 1490.79C1878.58 1485.59 1882.78 1481.39 1887.98 1481.39C1893.18 1481.39 1897.38 1485.59 1897.38 1490.79C1897.38 1495.99 1893.18 1500.19 1887.98 1500.19Z" fill="black"/>
<path d="M2450.38 1726.59C2450.38 1726.39 2450.38 1726.29 2450.38 1726.19C2450.18 1724.69 2449.68 1723.29 2448.98 1721.99C2448.38 1720.89 2447.78 1719.69 2447.08 1718.39C2444.98 1714.29 2442.38 1709.19 2439.58 1703.49C2439.18 1702.59 2438.68 1701.69 2438.28 1700.89C2429.38 1683.19 2420.78 1666.09 2412.98 1651.59C2403.58 1633.99 2395.28 1620.29 2389.38 1613.79C2385.18 1609.19 2380.58 1605.69 2376.08 1602.99C2375.78 1602.79 2375.48 1602.69 2375.18 1602.49C2374.38 1602.09 2373.68 1601.69 2372.98 1601.29C2372.68 1601.09 2372.38 1600.99 2371.98 1600.79C2367.08 1598.39 2362.48 1596.99 2358.68 1596.09C2358.68 1596.09 2358.48 1596.09 2358.38 1596.09C2354.58 1595.19 2351.58 1594.89 2350.18 1594.79C2349.68 1594.79 2349.38 1594.79 2349.28 1594.79C2347.28 1594.79 2345.38 1595.29 2343.78 1596.39C2342.88 1596.99 2342.18 1597.69 2341.58 1598.49C2340.48 1599.99 2339.78 1601.79 2339.68 1603.79C2339.58 1607.09 2341.18 1610.09 2343.68 1611.79C2343.68 1611.79 2343.78 1611.79 2343.88 1611.99C2344.18 1612.19 2344.48 1612.39 2344.88 1612.59C2344.98 1612.59 2345.08 1612.59 2345.18 1612.69C2345.28 1612.69 2345.38 1612.79 2345.58 1612.89C2346.48 1613.29 2347.48 1613.49 2348.58 1613.49C2348.58 1613.49 2349.38 1613.49 2350.68 1613.69C2351.98 1613.89 2353.78 1614.19 2355.88 1614.79C2355.88 1614.79 2355.98 1614.79 2356.08 1614.79C2356.58 1614.89 2357.08 1615.09 2357.68 1615.29C2357.68 1615.29 2357.88 1615.29 2357.98 1615.29C2360.28 1616.09 2362.88 1617.09 2365.58 1618.59C2365.88 1618.79 2366.18 1618.89 2366.48 1619.09C2366.88 1619.29 2367.28 1619.49 2367.58 1619.79C2370.28 1621.49 2372.98 1623.69 2375.48 1626.39C2380.28 1631.69 2388.08 1644.99 2396.38 1660.39C2396.38 1660.39 2396.38 1660.49 2396.48 1660.59C2405.28 1676.89 2414.58 1695.49 2421.48 1709.29C2422.18 1710.79 2422.88 1712.19 2423.58 1713.59C2424.28 1714.89 2424.88 1716.19 2425.48 1717.39C2427.78 1721.89 2429.78 1725.89 2431.48 1729.09C2431.58 1729.29 2431.68 1729.59 2431.88 1729.79C2431.88 1729.79 2431.88 1729.89 2431.88 1729.99C2430.48 1738.59 2410.88 1772.49 2366.98 1816.39C2362.98 1820.39 2358.68 1824.49 2354.28 1828.69C2347.78 1834.89 2339.88 1841.89 2330.88 1849.49C2330.88 1849.49 2330.88 1849.49 2330.78 1849.59C2312.48 1865.09 2289.28 1882.79 2262.28 1899.59C2255.88 1903.49 2249.38 1907.39 2242.58 1911.19C2220.48 1923.59 2196.28 1934.99 2170.38 1943.99C2169.08 1944.39 2167.88 1944.89 2166.58 1945.29C2166.58 1933.99 2166.38 1916.79 2165.18 1898.59C2162.28 1855.09 2155.98 1835.89 2149.88 1826.59C2147.78 1823.39 2145.78 1821.39 2143.98 1819.89C2143.98 1819.89 2143.98 1819.89 2143.88 1819.89C2138.98 1815.99 2132.98 1814.69 2127.08 1816.29C2125.68 1816.69 2124.38 1817.39 2123.38 1818.29C2120.78 1820.59 2119.48 1824.19 2120.48 1827.79C2121.48 1831.69 2124.88 1834.39 2128.68 1834.79C2129.78 1834.79 2130.88 1834.79 2131.98 1834.49C2131.98 1834.49 2131.98 1834.49 2132.08 1834.49C2132.18 1834.49 2132.48 1834.79 2132.98 1835.19C2135.58 1837.79 2142.98 1849.29 2146.48 1896.19C2148.78 1927.29 2147.98 1957.79 2147.98 1958.09C2147.98 1961.09 2149.28 1963.99 2151.68 1965.79C2153.28 1966.99 2155.28 1967.69 2157.28 1967.69C2159.28 1967.69 2159.08 1967.59 2159.98 1967.29C2189.08 1958.59 2216.18 1946.89 2240.98 1933.79C2247.78 1930.19 2254.28 1926.59 2260.68 1922.79C2293.58 1903.49 2321.78 1882.29 2343.98 1863.39L2344.18 1863.19C2347.58 1860.29 2350.78 1857.49 2353.88 1854.79C2363.38 1846.39 2372.28 1837.99 2380.48 1829.69C2416.48 1793.59 2440.08 1760.49 2447.68 1742.29C2448.28 1740.99 2448.68 1739.69 2449.08 1738.49C2450.58 1733.89 2451.18 1730.09 2450.68 1726.79L2450.38 1726.59Z" fill="black"/>
<path d="M2056.38 2012.19C2056.18 2012.19 2055.88 2012.19 2055.68 2012.19C2050.48 2011.79 2046.68 2007.29 2047.08 2002.09C2049.68 1969.29 2045.48 1928.19 2035.78 1892.29C2026.38 1857.29 2012.88 1831.99 2000.48 1826.29C1965.48 1809.99 1902.58 1770.59 1872.68 1728.59C1869.68 1724.39 1870.68 1718.49 1874.88 1715.49C1879.08 1712.49 1884.98 1713.49 1887.98 1717.69C1912.58 1752.19 1968.38 1790.69 2008.48 1809.29C2032.88 1820.59 2047.48 1863.09 2053.98 1887.49C2064.18 1925.39 2068.58 1968.79 2065.88 2003.59C2065.48 2008.49 2061.38 2012.19 2056.58 2012.19H2056.38Z" fill="black"/>
<path d="M1778.28 1801.89C1775.08 1801.89 1771.98 1800.29 1770.18 1797.29C1768.98 1795.29 1767.88 1793.29 1766.68 1791.09C1764.18 1786.59 1765.78 1780.89 1770.38 1778.39C1774.88 1775.89 1780.58 1777.49 1783.08 1782.09C1784.18 1784.09 1785.28 1785.99 1786.38 1787.79C1788.98 1792.29 1787.58 1797.99 1783.08 1800.59C1781.58 1801.49 1779.98 1801.89 1778.28 1801.89Z" fill="black"/>
<path d="M1967.48 1958.79C1966.38 1958.79 1965.28 1958.59 1964.18 1958.19C1894.38 1931.89 1809.68 1858.39 1777.38 1808.69C1774.58 1804.39 1775.78 1798.59 1780.08 1795.69C1784.38 1792.89 1790.18 1794.09 1793.08 1798.39C1822.28 1843.19 1896.38 1908.59 1960.68 1936.39C1963.08 1925.49 1967.28 1907.89 1972.48 1889.79C1988.68 1834.29 2000.88 1824.09 2009.68 1821.29C2013.28 1820.19 2020.38 1819.29 2027.28 1826.09C2030.98 1829.69 2031.08 1835.59 2027.48 1839.39C2023.98 1842.99 2018.18 1843.19 2014.48 1839.79C2011.88 1841.89 2002.98 1851.79 1990.28 1895.99C1982.18 1923.89 1976.78 1950.99 1976.78 1951.19C1976.28 1953.89 1974.58 1956.19 1972.18 1957.59C1970.78 1958.39 1969.18 1958.79 1967.58 1958.79H1967.48Z" fill="black"/>
<path d="M3263.98 3238.89C3260.28 3356.19 3259.78 3502.19 3263.68 3612.89H3244.88C3240.98 3501.69 3241.58 3355.69 3245.28 3238.29C3245.48 3230.89 3245.78 3223.39 3245.98 3215.89C3248.18 3145.69 3250.38 3072.79 3251.38 2999.09V2998.89C3254.58 2765.29 3246.08 2524.49 3189.88 2340.09C3189.88 2340.09 3189.88 2340.09 3189.88 2339.99C3177.38 2298.99 3162.48 2260.79 3144.88 2225.99C3131.88 2200.39 3117.38 2176.59 3101.18 2155.09C3099.98 2153.59 3098.78 2151.99 3097.68 2150.49C3096.88 2149.39 3095.98 2148.29 3095.18 2147.29C3086.18 2135.99 3076.78 2125.29 3066.78 2115.29C2973.48 2021.69 2844.58 1932.39 2722.58 1863.09C2695.38 1847.59 2668.48 1833.19 2642.38 1819.89C2568.48 1782.19 2501.08 1753.89 2450.98 1738.99C2450.38 1738.79 2449.68 1738.59 2449.08 1738.39C2446.18 1737.59 2443.38 1736.69 2440.58 1735.99C2439.88 1735.79 2439.18 1735.59 2438.48 1735.39C2437.68 1735.19 2436.98 1734.89 2436.28 1734.49C2432.68 1732.39 2430.78 1728.19 2431.88 1723.99C2432.18 1722.89 2432.58 1721.99 2433.18 1721.09C2435.38 1717.89 2439.38 1716.29 2443.28 1717.39H2443.48C2444.68 1717.69 2445.88 1717.99 2446.98 1718.39H2447.18C2489.28 1730.09 2542.68 1751.19 2601.28 1778.99C2602.98 1779.79 2604.68 1780.59 2606.38 1781.39C2611.38 1783.79 2616.38 1786.19 2621.48 1788.69C2621.48 1788.69 2621.68 1788.69 2621.78 1788.79C2630.38 1792.99 2638.98 1797.29 2647.78 1801.79C2675.68 1815.99 2704.28 1831.39 2733.18 1847.89C2738.68 1850.99 2744.18 1854.19 2749.78 1857.39C2882.38 1934.39 2999.68 2021.29 3080.18 2101.99C3093.38 2115.19 3105.88 2129.79 3117.68 2145.59C3117.88 2145.79 3117.98 2145.99 3118.18 2146.19C3134.28 2167.89 3148.98 2192.09 3162.48 2218.69C3182.38 2258.19 3199.48 2303.19 3213.78 2353.89C3213.78 2353.89 3213.78 2353.99 3213.78 2354.09C3233.48 2424.19 3247.98 2505.09 3257.28 2597.49C3277.98 2802.79 3270.78 3034.39 3264.28 3238.69L3263.98 3238.89Z" fill="black"/>
<path d="M2837.18 2264.79C2798.38 2298.39 2772.38 2380.99 2757.68 2517.19C2744.48 2639.59 2741.98 2789.69 2739.48 2934.79L2738.98 2964.59C2737.28 3061.09 2732.28 3160.59 2727.48 3256.79C2720.78 3388.49 2714.48 3514.09 2717.98 3612.89H2699.18C2695.78 3513.29 2702.08 3387.59 2708.78 3255.89C2713.58 3159.79 2718.68 3060.49 2720.28 2964.29L2720.78 2934.49C2723.18 2788.99 2725.78 2638.49 2739.08 2515.29C2754.48 2372.19 2781.78 2288.19 2824.88 2250.79C2826.48 2249.39 2828.48 2248.69 2830.38 2248.49C2831.88 2248.39 2833.38 2248.69 2834.78 2249.29C2834.88 2249.29 2834.98 2249.39 2835.08 2249.49C2835.08 2249.49 2835.28 2249.49 2835.38 2249.69C2836.38 2250.19 2837.28 2250.89 2837.98 2251.79C2841.38 2255.69 2840.98 2261.59 2837.08 2264.99L2837.18 2264.79Z" fill="black"/>
<path d="M1946.68 1430.09C1941.98 1430.09 1937.98 1426.59 1937.38 1421.79C1937.18 1419.89 1937.08 1417.89 1937.08 1415.89C1937.08 1382.19 1969.48 1352.09 2023.78 1335.19C2051.68 1326.59 2083.78 1321.99 2116.58 1321.99C2149.38 1321.99 2166.38 1324.59 2189.38 1329.89C2189.68 1329.89 2189.88 1329.99 2190.18 1330.09C2255.58 1345.09 2296.18 1377.99 2296.18 1415.89V1416.19C2296.18 1417.99 2296.08 1419.69 2295.88 1421.39C2295.88 1421.49 2295.88 1421.69 2295.88 1421.79V1421.89C2295.18 1426.99 2290.48 1430.59 2285.38 1429.89C2280.28 1429.19 2276.68 1424.49 2277.38 1419.39C2277.48 1418.29 2277.58 1417.19 2277.58 1416.09V1415.89C2277.58 1387.99 2240.78 1360.89 2185.98 1348.29H2185.78C2164.08 1343.29 2140.88 1340.79 2116.78 1340.79C2092.68 1340.79 2055.58 1345.09 2029.48 1353.19C1984.08 1367.29 1955.88 1391.29 1955.88 1415.99C1955.88 1440.69 1955.88 1418.49 1956.08 1419.69C1956.68 1424.79 1952.98 1429.49 1947.88 1430.09C1947.48 1430.09 1947.18 1430.09 1946.78 1430.09H1946.68Z" fill="black"/>
<path d="M2268.98 1724.59C2268.68 1723.09 2268.38 1721.59 2267.88 1720.09C2265.58 1712.19 2260.88 1704.69 2253.98 1697.69C2246.08 1689.69 2235.48 1682.49 2222.18 1676.19C2193.78 1662.99 2156.38 1655.59 2116.68 1655.59C2076.98 1655.59 2039.48 1662.89 2011.18 1676.19C1997.88 1682.39 1987.18 1689.69 1979.38 1697.69C1977.18 1699.89 1975.18 1702.29 1973.48 1704.59C1969.28 1710.29 1966.38 1716.19 1964.88 1722.39C1964.08 1725.59 1963.78 1728.89 1963.78 1732.19C1963.78 1733.99 1963.88 1735.69 1964.08 1737.39C1966.58 1757.09 1983.08 1774.99 2011.18 1788.09C2012.38 1788.69 2013.58 1789.19 2014.78 1789.69C2028.68 1795.79 2044.68 1800.49 2061.88 1803.69C2079.08 1806.89 2097.58 1808.59 2116.58 1808.59C2135.58 1808.59 2121.08 1808.59 2123.38 1808.59C2131.58 1808.39 2139.58 1807.99 2147.48 1807.19C2148.98 1807.09 2150.38 1806.89 2151.88 1806.69C2154.88 1806.39 2157.88 1805.99 2160.78 1805.59C2167.38 1804.69 2173.88 1803.49 2180.08 1802.09C2183.58 1801.29 2186.98 1800.49 2190.28 1799.59C2192.18 1799.09 2194.08 1798.49 2195.98 1797.99C2205.28 1795.19 2213.98 1791.99 2221.98 1788.19C2242.68 1778.49 2257.18 1766.29 2264.28 1752.59C2265.18 1750.79 2266.08 1748.99 2266.68 1747.09C2267.28 1745.39 2267.78 1743.79 2268.18 1742.09C2268.58 1740.59 2268.78 1738.99 2268.98 1737.49C2269.18 1735.79 2269.28 1733.99 2269.28 1732.29C2269.28 1729.79 2269.08 1727.19 2268.58 1724.69L2268.98 1724.59ZM2019.08 1771.09C1995.78 1760.19 1982.38 1745.99 1982.38 1732.09C1982.38 1718.19 1995.78 1703.99 2019.08 1693.09C2044.98 1680.99 2079.68 1674.29 2116.68 1674.29C2153.68 1674.29 2188.38 1680.99 2214.28 1693.09C2237.58 1703.99 2250.98 1718.19 2250.98 1732.09C2250.98 1745.99 2250.78 1735.29 2250.48 1736.79C2247.88 1749.09 2234.98 1761.39 2214.38 1770.99C2205.68 1775.09 2195.98 1778.49 2185.48 1781.29C2185.08 1781.39 2184.68 1781.49 2184.28 1781.59C2181.28 1782.39 2178.18 1783.09 2174.98 1783.79C2166.38 1785.69 2157.28 1787.09 2147.98 1788.09C2137.88 1789.19 2127.48 1789.69 2116.78 1789.69C2098.08 1789.69 2079.98 1787.99 2063.28 1784.69C2046.98 1781.49 2032.08 1776.89 2019.18 1770.89L2019.08 1771.09Z" fill="black"/>
<path d="M1968.38 1688.39C1963.18 1688.39 1958.98 1684.19 1958.98 1678.99C1958.98 1677.29 1959.38 1675.69 1960.28 1674.29C1980.28 1639.89 2043.18 1616.69 2116.68 1616.69C2190.18 1616.69 2252.98 1639.79 2273.08 1674.29C2275.68 1678.79 2274.18 1684.49 2269.68 1687.09C2265.18 1689.69 2259.48 1688.19 2256.88 1683.69C2240.58 1655.69 2181.68 1635.39 2116.68 1635.39C2051.68 1635.39 1992.98 1655.59 1976.58 1683.49C1974.98 1686.39 1971.88 1688.29 1968.38 1688.29V1688.39Z" fill="black"/>
<path d="M2260.28 1744.29C2259.98 1744.29 2259.78 1744.29 2259.48 1744.29C2254.28 1743.89 2250.48 1739.29 2250.88 1734.19L2277.48 1416.89C2277.78 1411.69 2282.28 1407.79 2287.48 1408.19C2292.68 1408.49 2296.58 1412.99 2296.18 1418.19V1418.39C2296.18 1418.39 2296.18 1418.49 2296.18 1418.59L2291.38 1476.29L2269.68 1735.89C2269.28 1740.79 2265.18 1744.49 2260.38 1744.49L2260.28 1744.29Z" fill="black"/>
<path d="M1973.08 1744.29C1968.28 1744.29 1964.18 1740.59 1963.78 1735.69L1937.18 1418.19C1936.78 1412.99 1940.58 1408.49 1945.78 1408.09C1950.88 1407.69 1955.48 1411.49 1955.88 1416.69L1982.48 1734.19C1982.88 1739.39 1979.08 1743.89 1973.88 1744.29C1973.58 1744.29 1973.38 1744.29 1973.08 1744.29Z" fill="black"/>
<path d="M1881.08 1505.39C1878.38 1505.39 1875.68 1504.19 1873.78 1501.89C1870.48 1497.89 1871.18 1491.99 1875.18 1488.69C1877.48 1486.79 1879.78 1485.09 1882.18 1483.39C1882.38 1483.19 1882.68 1483.09 1882.88 1482.89C1897.58 1472.69 1921.28 1460.59 1950.78 1460.59C1980.28 1460.59 1960.18 1464.79 1960.18 1469.99C1960.18 1475.19 1955.98 1479.39 1950.78 1479.39C1926.08 1479.39 1905.98 1489.69 1893.48 1498.49C1893.48 1498.49 1893.38 1498.49 1893.28 1498.59C1891.18 1500.09 1889.08 1501.59 1886.98 1503.29C1885.28 1504.69 1883.18 1505.39 1881.08 1505.39Z" fill="black"/>
<path d="M1919.38 1536.09C1915.68 1536.09 1912.18 1533.89 1910.68 1530.29C1908.68 1525.49 1910.98 1519.99 1915.78 1518.09C1916.68 1517.69 1917.58 1517.39 1918.48 1516.99C1927.88 1513.39 1945.48 1507.89 1957.08 1510.69C1962.08 1511.89 1965.18 1516.89 1964.08 1521.99C1962.98 1527.09 1957.88 1530.19 1952.78 1528.99C1948.88 1528.09 1938.78 1529.39 1925.08 1534.59C1924.38 1534.89 1923.58 1535.19 1922.88 1535.49C1921.68 1535.99 1920.48 1536.19 1919.38 1536.19V1536.09Z" fill="black"/>
<path d="M1958.98 1677.79C1936.68 1677.79 1920.18 1668.79 1909.88 1660.69C1905.78 1657.49 1905.08 1651.59 1908.28 1647.49C1911.48 1643.39 1917.38 1642.69 1921.48 1645.89C1930.48 1652.99 1945.58 1660.89 1966.48 1658.59C1971.58 1657.99 1976.28 1661.69 1976.78 1666.89C1977.38 1671.99 1973.68 1676.69 1968.48 1677.19C1965.18 1677.59 1961.98 1677.69 1958.98 1677.69V1677.79Z" fill="black"/>
<path d="M1970.08 1722.69C1969.88 1722.69 1969.78 1722.69 1969.58 1722.69C1963.68 1722.39 1933.08 1720.19 1907.68 1708.19C1902.98 1705.99 1900.98 1700.39 1903.18 1695.69C1905.38 1690.99 1910.98 1688.99 1915.68 1691.19C1932.88 1699.29 1955.98 1703.09 1970.58 1703.89C1975.78 1704.19 1979.68 1708.59 1979.48 1713.79C1979.18 1718.79 1975.08 1722.69 1970.18 1722.69H1970.08Z" fill="black"/>
<path d="M2256.98 1755.79C2254.18 1755.79 2251.38 1754.49 2249.58 1752.19C2246.38 1748.09 2247.18 1742.19 2251.28 1739.09C2317.68 1687.79 2343.98 1636.19 2339.48 1622.99C2337.78 1618.09 2340.38 1612.79 2345.28 1611.09C2350.18 1609.39 2355.48 1611.99 2357.18 1616.89C2366.88 1645.29 2325.48 1705.39 2262.78 1753.89C2261.08 1755.19 2259.08 1755.89 2257.08 1755.89L2256.98 1755.79Z" fill="black"/>
<path d="M2196.18 1793.29C2195.88 1794.19 2195.48 1795.09 2194.98 1795.89C2194.68 1796.39 2194.28 1796.79 2193.88 1797.19C2193.18 1797.89 2192.38 1798.49 2191.48 1798.99C2191.18 1799.19 2190.78 1799.29 2190.48 1799.49C2182.88 1803.29 2175.18 1806.99 2167.38 1810.39C2161.38 1812.99 2155.38 1815.49 2149.38 1817.79C2147.48 1818.49 2145.58 1819.19 2143.68 1819.89C2140.98 1820.89 2138.28 1821.89 2135.68 1822.79C2134.88 1823.49 2133.68 1824.89 2131.88 1827.99C2130.88 1829.69 2129.68 1831.79 2128.28 1834.59C2124.78 1841.39 2119.98 1852.09 2113.38 1868.49C2105.08 1889.39 2093.88 1919.79 2079.08 1963.79C2074.58 1977.29 2069.98 1991.29 2065.38 2005.29C2065.38 2005.49 2065.38 2005.59 2065.28 2005.79C2057.48 2029.89 2049.68 2054.39 2042.28 2077.99C2040.18 2084.59 2038.18 2091.09 2036.18 2097.59C2033.88 2104.89 2031.68 2112.09 2029.48 2119.09C2027.38 2125.89 2025.28 2132.59 2023.38 2139.09C2018.98 2153.39 2014.88 2166.79 2011.18 2178.79L2008.48 2187.69C2006.68 2193.39 2005.08 2199.19 2003.38 2204.99C2001.68 2210.99 2000.08 2217.09 1998.48 2223.09C1994.28 2239.39 1990.58 2255.69 1987.38 2271.89C1987.38 2271.89 1987.38 2271.99 1987.38 2272.09C1987.38 2272.19 1987.38 2272.39 1987.38 2272.49C1986.68 2276.19 1985.98 2279.89 1985.28 2283.59C1979.38 2314.79 1973.98 2346.29 1969.18 2377.89C1960.68 2433.69 1953.98 2490.09 1948.98 2546.79C1948.38 2553.49 1947.78 2560.09 1947.28 2566.79C1946.58 2575.19 1945.98 2583.59 1945.38 2591.99C1945.18 2595.29 1944.88 2598.59 1944.68 2601.99C1944.48 2605.29 1944.18 2608.69 1943.98 2611.99C1943.48 2619.69 1943.08 2627.29 1942.58 2634.99C1942.38 2638.19 1942.18 2641.39 1942.08 2644.59C1941.88 2647.79 1941.78 2650.99 1941.58 2654.19C1941.18 2662.39 1940.78 2670.69 1940.48 2678.89C1940.48 2680.49 1936.08 2811.79 1932.38 2893.89C1932.08 2901.29 1931.68 2908.19 1931.38 2914.69C1930.98 2921.89 1930.68 2928.39 1930.38 2934.09C1930.38 2935.49 1930.18 2936.79 1930.18 2938.09C1929.78 2943.89 1929.48 2949.89 1929.08 2956.09C1919.48 3121.39 1905.38 3435.39 1904.78 3612.79H1885.98C1886.48 3430.09 1901.38 3106.79 1911.18 2940.79C1911.18 2939.49 1911.38 2938.19 1911.38 2936.99C1911.38 2936.19 1911.38 2935.49 1911.48 2934.69C1911.48 2933.89 1911.48 2932.99 1911.58 2932.09C1911.88 2926.69 1912.18 2920.59 1912.58 2913.89C1912.58 2912.79 1912.58 2911.69 1912.78 2910.59C1912.88 2908.19 1912.98 2905.69 1913.08 2903.19C1913.28 2899.59 1913.38 2895.99 1913.58 2892.19C1913.78 2887.79 1913.98 2883.29 1914.18 2878.59C1914.38 2873.29 1914.68 2867.89 1914.88 2862.29C1915.08 2857.79 1915.28 2853.29 1915.48 2848.59C1915.68 2842.69 1915.98 2836.79 1916.18 2830.79C1919.08 2757.59 1921.68 2679.39 1921.68 2678.19C1922.08 2667.99 1922.58 2657.69 1923.08 2647.49C1923.28 2644.19 1923.38 2640.89 1923.58 2637.59C1923.78 2634.29 1923.98 2630.89 1924.18 2627.59C1924.38 2624.89 1924.48 2622.19 1924.68 2619.39C1924.88 2615.89 1925.08 2612.39 1925.38 2608.89C1925.58 2605.39 1925.78 2601.99 1926.08 2598.49C1926.68 2590.29 1927.28 2582.09 1927.88 2573.89C1928.08 2571.49 1928.28 2569.09 1928.48 2566.79C1928.88 2562.19 1929.28 2557.59 1929.68 2552.89C1937.88 2456.79 1951.08 2361.59 1969.08 2268.69C1969.08 2268.69 1969.08 2268.59 1969.08 2268.49C1969.08 2268.39 1969.08 2268.19 1969.08 2268.09C1972.38 2251.29 1976.18 2234.39 1980.58 2217.49C1982.08 2211.59 1983.78 2205.59 1985.38 2199.69C1985.38 2199.59 1985.38 2199.49 1985.38 2199.39C1986.98 2193.59 1988.68 2187.89 1990.48 2182.09L1993.18 2173.19C1995.98 2163.99 1999.08 2153.99 2002.28 2143.49C2004.38 2136.79 2006.48 2129.89 2008.68 2122.69C2010.88 2115.59 2013.18 2108.19 2015.48 2100.69C2017.58 2094.09 2019.58 2087.39 2021.78 2080.59C2029.88 2054.79 2038.38 2027.59 2047.08 2000.89C2048.68 1996.09 2050.18 1991.19 2051.78 1986.39C2055.58 1974.79 2059.38 1963.39 2063.18 1952.19C2063.68 1950.69 2064.18 1949.19 2064.68 1947.69C2065.78 1944.49 2066.88 1941.29 2067.88 1938.19C2078.78 1906.29 2088.38 1880.09 2096.38 1860.09C2097.18 1858.09 2097.98 1856.19 2098.68 1854.29C2110.98 1824.29 2118.18 1813.09 2123.28 1808.49C2125.28 1806.69 2126.98 1805.89 2128.58 1805.29C2128.88 1805.29 2129.18 1805.09 2129.48 1804.99C2135.68 1802.79 2141.88 1800.49 2148.08 1797.99C2153.68 1795.69 2159.38 1793.29 2164.88 1790.79C2170.88 1788.09 2176.88 1785.19 2182.78 1782.19C2183.18 1781.99 2183.58 1781.79 2184.08 1781.69C2184.48 1781.59 2184.88 1781.49 2185.28 1781.39C2189.28 1780.59 2193.48 1782.49 2195.38 1786.29C2196.48 1788.49 2196.68 1790.99 2195.98 1793.19L2196.18 1793.29Z" fill="black"/>
<path d="M1383.58 2490.69C1382.78 2459.69 1379.58 2451.19 1374.28 2447.19C1370.18 2443.99 1364.28 2444.79 1361.18 2448.89C1358.28 2452.59 1358.68 2457.79 1361.88 2461.09C1363.58 2464.99 1367.78 2485.09 1362.48 2586.09C1362.48 2586.49 1362.48 2586.79 1362.48 2587.19C1362.18 2593.29 1361.78 2599.69 1361.38 2606.19C1361.38 2607.29 1361.28 2608.39 1361.18 2609.49C1360.58 2619.69 1359.88 2630.29 1359.18 2641.39C1355.68 2693.99 1350.68 2757.39 1344.18 2830.79C1343.88 2834.59 1343.48 2838.39 1343.18 2842.19C1342.88 2845.69 1342.58 2849.19 1342.28 2852.69C1326.48 3028.29 1307.08 3208.89 1299.18 3281.19C1297.98 3291.89 1297.08 3300.29 1296.48 3305.79C1296.18 3308.29 1295.98 3310.19 1295.88 3311.59C1295.88 3311.59 1295.88 3311.79 1295.88 3311.89C1286.28 3432.49 1276.68 3546.99 1271.08 3612.89H1289.88C1295.48 3546.79 1305.08 3433.09 1314.58 3313.49C1314.98 3309.89 1315.78 3302.39 1316.98 3291.69C1317.78 3284.79 1318.68 3276.49 1319.68 3266.99C1328.68 3184.39 1347.08 3010.29 1362.08 2842.89C1362.38 2839.79 1362.58 2836.69 1362.88 2833.69C1363.28 2829.39 1363.68 2825.19 1363.98 2820.99C1371.28 2737.89 1376.58 2668.09 1379.88 2612.59C1380.28 2605.99 1380.68 2599.49 1380.98 2593.29C1381.28 2587.89 1381.58 2582.69 1381.78 2577.69C1381.78 2577.09 1381.78 2576.49 1381.78 2575.79C1383.58 2539.49 1384.18 2510.79 1383.68 2490.69H1383.58Z" fill="black"/>
<path d="M1486.78 2102.49C1482.78 2108.39 1478.78 2114.29 1474.68 2120.29C1305.58 2367.59 1054.58 2724.79 940.884 2829.39C940.884 2829.39 941.084 2829.19 941.184 2829.19C941.184 2829.19 941.384 2829.09 941.484 2828.99C941.784 2828.79 942.084 2828.59 942.384 2828.39L1000.58 2794.99C1126.58 2655.19 1333.48 2360.39 1484.58 2139.39C1488.68 2133.49 1492.68 2127.59 1496.58 2121.79C1493.18 2115.29 1489.98 2108.79 1486.98 2102.59L1486.78 2102.49ZM1665.68 1861.69C1665.08 1860.79 1664.28 1859.99 1663.38 1859.39C1659.38 1856.59 1654.58 1851.89 1649.18 1845.69C1645.08 1840.99 1640.58 1835.29 1635.78 1828.89C1626.38 1816.19 1615.78 1800.49 1604.68 1782.49C1601.78 1777.79 1598.88 1772.99 1595.88 1767.99C1595.58 1767.39 1595.18 1766.89 1594.88 1766.29C1592.08 1761.49 1589.18 1756.69 1586.38 1751.69C1581.08 1742.39 1575.68 1732.79 1570.38 1722.79C1553.58 1691.59 1538.98 1660.99 1528.98 1636.79C1518.48 1610.99 1515.98 1598.99 1515.58 1593.89C1515.48 1592.39 1515.58 1591.49 1515.58 1590.99C1518.18 1587.29 1517.88 1582.19 1514.58 1578.89C1512.68 1576.99 1510.18 1576.09 1507.68 1576.19C1505.38 1576.19 1503.08 1577.19 1501.28 1578.99C1437.38 1643.49 1375.08 1705.79 1314.78 1766.09C981.384 2099.59 718.084 2362.99 658.584 2514.69C629.484 2588.89 621.784 2656.89 635.784 2716.69C637.384 2723.49 639.284 2730.19 641.384 2736.79C642.684 2740.69 644.084 2744.49 645.484 2748.29C646.284 2750.29 647.084 2752.39 647.984 2754.29C648.984 2756.59 649.984 2758.79 650.984 2760.99C652.184 2763.69 653.484 2766.29 654.884 2768.89C656.184 2771.29 657.484 2773.79 658.784 2776.09C673.484 2802.09 693.384 2824.39 717.784 2842.19C754.684 2868.99 798.284 2882.49 840.484 2882.49C882.684 2882.49 921.084 2869.89 952.184 2844.49C952.384 2844.29 952.584 2844.19 952.784 2843.99C952.884 2843.89 953.084 2843.79 953.184 2843.69C967.084 2830.89 982.984 2814.59 1000.38 2795.29C1126.38 2655.49 1333.28 2360.69 1484.38 2139.69C1488.48 2133.79 1492.48 2127.89 1496.38 2122.09C1544.88 2050.99 1586.98 1988.49 1617.88 1942.59C1634.28 1918.29 1648.38 1897.39 1656.78 1885.09C1660.78 1879.19 1663.58 1875.29 1664.58 1873.89C1665.68 1872.79 1666.48 1871.49 1666.88 1869.99C1667.78 1867.19 1667.18 1864.19 1665.68 1861.89V1861.69ZM1644.48 1869.59C1642.58 1872.39 1640.18 1875.89 1637.18 1880.29C1632.98 1886.49 1627.88 1893.99 1621.88 1902.89C1616.18 1911.39 1609.68 1921.09 1602.38 1931.79C1574.58 1973.09 1534.28 2032.89 1486.78 2102.49C1482.78 2108.39 1478.78 2114.29 1474.68 2120.29C1305.58 2367.59 1054.58 2724.79 940.884 2829.39C940.884 2829.39 940.884 2829.39 940.784 2829.49C883.984 2875.89 794.984 2874.79 728.984 2826.79C702.484 2807.49 682.384 2782.99 668.784 2754.29C668.084 2752.79 667.384 2751.29 666.784 2749.79C664.984 2745.79 663.384 2741.59 661.784 2737.49C660.884 2734.99 659.984 2732.49 659.184 2729.99C658.984 2729.39 658.784 2728.79 658.584 2728.19C656.684 2722.29 655.084 2716.19 653.784 2709.99C641.784 2655.39 648.884 2590.59 676.084 2521.29C734.084 2373.19 996.184 2111.09 1328.08 1779.09C1383.48 1723.69 1440.68 1666.49 1499.18 1607.49C1507.38 1640.29 1535.48 1697.99 1559.28 1741.49C1561.58 1745.79 1564.88 1751.69 1568.88 1758.69C1571.38 1763.19 1574.28 1768.09 1577.38 1773.29C1577.68 1773.89 1577.98 1774.39 1578.38 1774.99C1581.18 1779.69 1584.08 1784.49 1587.08 1789.49C1604.88 1818.59 1627.08 1851.59 1645.18 1868.39C1644.98 1868.69 1644.68 1869.09 1644.48 1869.49V1869.59ZM1486.78 2102.49C1482.78 2108.39 1478.78 2114.29 1474.68 2120.29C1305.58 2367.59 1054.58 2724.79 940.884 2829.39C940.884 2829.39 941.084 2829.19 941.184 2829.19C941.184 2829.19 941.384 2829.09 941.484 2828.99C941.784 2828.79 942.084 2828.59 942.384 2828.39L1000.58 2794.99C1126.58 2655.19 1333.48 2360.39 1484.58 2139.39C1488.68 2133.49 1492.68 2127.59 1496.58 2121.79C1493.18 2115.29 1489.98 2108.79 1486.98 2102.59L1486.78 2102.49Z" fill="black"/>
<path d="M1891.88 1581.09C1887.48 1581.09 1883.58 1577.99 1882.68 1573.59C1881.68 1568.49 1884.98 1563.59 1890.08 1562.59C1901.18 1560.39 1910.48 1547.09 1910.38 1533.69C1910.28 1518.99 1899.58 1508.89 1880.18 1505.39C1823.08 1494.99 1744.58 1505.09 1717.68 1520.39C1713.18 1522.99 1707.48 1521.39 1704.88 1516.89C1702.28 1512.39 1703.88 1506.69 1708.38 1504.09C1742.58 1484.69 1826.08 1476.49 1883.48 1486.99C1911.78 1492.19 1928.78 1509.59 1928.98 1533.59C1929.18 1556.19 1913.58 1577.09 1893.58 1581.09C1892.98 1581.19 1892.38 1581.29 1891.78 1581.29L1891.88 1581.09Z" fill="black"/>
<path d="M1912.78 1663.69C1908.78 1663.69 1905.08 1661.09 1903.78 1657.09C1902.28 1652.19 1905.08 1646.89 1909.98 1645.39C1919.58 1642.49 1926.48 1634.59 1928.38 1624.29C1930.78 1611.69 1925.38 1598.69 1913.88 1589.49C1895.78 1574.89 1791.98 1569.19 1736.48 1583.49C1731.48 1584.79 1726.38 1581.79 1725.08 1576.79C1723.78 1571.79 1726.78 1566.69 1731.78 1565.39C1757.78 1558.69 1798.78 1555.39 1838.68 1556.89C1863.88 1557.79 1908.78 1561.39 1925.58 1574.99C1942.58 1588.59 1950.48 1608.39 1946.68 1627.99C1943.38 1645.19 1931.68 1658.49 1915.28 1663.49C1914.38 1663.79 1913.48 1663.89 1912.58 1663.89L1912.78 1663.69Z" fill="black"/>
<path d="M1874.68 1733.29C1874.48 1733.29 1874.28 1733.29 1873.98 1733.29C1868.78 1733.19 1864.68 1728.89 1864.88 1723.69C1865.08 1718.49 1869.38 1714.49 1874.48 1714.59C1875.08 1714.59 1876.18 1714.59 1877.78 1714.09C1887.78 1711.49 1902.38 1699.49 1908.08 1685.69C1911.18 1678.19 1911.18 1671.59 1908.08 1666.09C1901.28 1654.29 1870.48 1643.99 1831.38 1640.29C1811.38 1638.39 1790.98 1638.49 1775.48 1640.39C1770.38 1640.99 1765.68 1637.39 1764.98 1632.29C1764.38 1627.19 1767.98 1622.49 1773.08 1621.79C1789.88 1619.69 1811.78 1619.59 1833.08 1621.59C1855.58 1623.69 1909.58 1631.29 1924.18 1656.59C1930.38 1667.29 1930.78 1679.79 1925.38 1692.79C1917.88 1710.79 1899.38 1727.69 1882.48 1732.09C1879.78 1732.79 1877.18 1733.19 1874.68 1733.19V1733.29Z" fill="black"/>
<path d="M1891.98 1728.59C1889.48 1723.99 1885.38 1719.49 1878.88 1715.79C1878.08 1715.39 1877.28 1714.89 1876.48 1714.59C1876.48 1714.59 1876.38 1714.59 1876.28 1714.49C1871.98 1712.39 1867.08 1710.69 1861.68 1709.39C1861.58 1709.39 1861.38 1709.39 1861.28 1709.29C1849.48 1706.39 1835.68 1705.09 1822.08 1704.09C1816.98 1703.79 1812.48 1707.69 1812.08 1712.79C1811.78 1717.99 1815.68 1722.39 1820.78 1722.79C1838.98 1723.99 1858.98 1726.09 1869.58 1732.19C1875.88 1735.79 1876.88 1739.49 1876.38 1743.99C1875.78 1749.99 1865.18 1762.39 1843.58 1775.49C1825.48 1786.39 1805.18 1794.29 1793.08 1795.09C1792.58 1795.09 1791.98 1795.09 1791.48 1795.09C1791.18 1795.09 1790.88 1795.09 1790.58 1795.09C1789.28 1795.09 1788.38 1794.89 1787.88 1794.69C1787.88 1794.69 1787.88 1794.69 1787.78 1794.69C1787.68 1794.69 1787.48 1794.69 1787.48 1794.59C1787.48 1794.39 1787.48 1794.09 1787.48 1793.79C1787.48 1793.29 1787.68 1792.39 1788.18 1791.19C1788.38 1790.69 1788.68 1789.99 1788.98 1789.29C1789.58 1788.09 1790.38 1786.79 1791.48 1785.19C1791.58 1785.09 1791.68 1784.89 1791.78 1784.79C1796.78 1777.99 1806.58 1769.49 1819.48 1765.89C1824.48 1764.49 1827.38 1759.39 1825.98 1754.39C1824.58 1749.39 1819.48 1746.49 1814.48 1747.89C1800.38 1751.79 1786.88 1760.69 1777.98 1771.99C1777.98 1772.09 1777.78 1772.19 1777.78 1772.29C1777.48 1772.59 1777.28 1772.99 1776.98 1773.29C1776.78 1773.49 1776.58 1773.79 1776.38 1774.09C1775.58 1775.09 1774.88 1776.19 1774.28 1777.19C1771.28 1781.99 1769.48 1786.79 1768.88 1791.19C1768.88 1791.79 1768.78 1792.39 1768.68 1792.99C1768.68 1793.59 1768.68 1794.19 1768.68 1794.79C1768.68 1794.99 1768.68 1795.19 1768.68 1795.29C1768.68 1797.19 1769.08 1798.99 1769.58 1800.69C1770.98 1805.09 1774.08 1808.69 1778.38 1810.89C1778.58 1810.89 1778.68 1811.09 1778.88 1811.09C1779.98 1811.59 1781.08 1812.09 1782.38 1812.49C1782.38 1812.49 1782.38 1812.49 1782.48 1812.49C1785.08 1813.29 1787.98 1813.69 1791.18 1813.69H1791.78C1794.98 1813.69 1798.68 1813.19 1802.58 1812.39C1802.68 1812.39 1802.78 1812.39 1802.98 1812.39C1803.98 1812.19 1804.98 1811.99 1805.98 1811.69C1819.98 1808.39 1837.18 1801.09 1853.28 1791.29C1866.18 1783.49 1887.08 1768.79 1893.28 1752.59C1894.08 1750.59 1894.58 1748.59 1894.88 1746.49C1894.88 1746.29 1894.88 1745.99 1894.88 1745.79C1895.38 1740.69 1894.98 1734.49 1891.78 1728.49L1891.98 1728.59Z" fill="black"/>
<path d="M1631.48 1848.09C1626.78 1848.09 1622.68 1844.49 1622.18 1839.69C1621.68 1834.59 1625.38 1829.89 1630.48 1829.39C1681.18 1824.09 1743.58 1795.99 1769.78 1778.79C1774.48 1775.69 1776.68 1773.79 1777.58 1772.89C1781.28 1769.29 1787.28 1769.39 1790.78 1773.09C1794.38 1776.79 1794.28 1782.69 1790.58 1786.29C1788.18 1788.69 1784.58 1791.39 1779.98 1794.39C1752.28 1812.69 1686.18 1842.39 1632.38 1847.99C1632.08 1847.99 1631.68 1847.99 1631.38 1847.99L1631.48 1848.09Z" fill="black"/>
<path d="M1893.48 1482.69C1893.48 1482.89 1893.48 1482.99 1893.38 1483.19C1892.88 1485.09 1892.18 1486.89 1891.18 1488.69C1890.58 1489.89 1889.78 1490.99 1888.98 1492.09C1887.08 1494.59 1884.78 1496.69 1882.28 1498.39C1882.28 1498.39 1882.18 1498.49 1882.08 1498.59C1879.58 1500.29 1876.88 1501.49 1873.98 1502.29C1870.98 1503.09 1867.78 1503.49 1864.58 1503.19C1864.08 1503.19 1863.48 1503.09 1862.98 1502.99C1857.88 1502.19 1854.38 1497.49 1855.08 1492.39C1855.78 1487.29 1860.58 1483.69 1865.68 1484.39C1865.88 1484.39 1866.18 1484.39 1866.38 1484.39C1869.38 1484.59 1871.58 1483.09 1872.68 1482.19C1873.58 1481.49 1874.18 1480.69 1874.58 1479.99C1874.58 1479.89 1874.68 1479.79 1874.78 1479.69C1874.78 1479.69 1874.78 1479.59 1874.88 1479.49C1874.68 1479.49 1874.38 1479.49 1874.08 1479.49C1866.68 1478.79 1859.88 1476.79 1852.78 1474.79C1839.98 1471.09 1824.08 1466.49 1795.58 1466.49H1790.88C1748.18 1466.49 1668.78 1466.49 1637.18 1488.29C1602.98 1511.99 1518.68 1591.59 1517.88 1592.49C1517.18 1593.09 1516.48 1593.69 1515.68 1594.09C1514.38 1594.79 1512.88 1595.09 1511.48 1595.09C1508.98 1595.09 1506.48 1594.09 1504.68 1592.19C1501.08 1588.39 1501.28 1582.49 1505.08 1578.99C1505.38 1578.69 1506.28 1577.79 1507.78 1576.39C1522.88 1562.19 1594.38 1495.29 1626.58 1472.99C1662.98 1447.79 1743.08 1447.79 1790.98 1447.89H1795.68C1824.88 1447.89 1841.88 1452.29 1855.38 1456.19C1856.28 1456.49 1857.18 1456.69 1858.08 1456.99C1864.88 1458.99 1870.28 1460.49 1875.98 1461.09C1876.88 1461.09 1877.88 1461.29 1878.68 1461.49C1887.58 1463.19 1891.18 1468.59 1892.58 1471.79C1893.28 1473.29 1893.68 1474.89 1893.88 1476.49C1894.18 1478.69 1894.08 1480.89 1893.58 1483.09L1893.48 1482.69Z" fill="black"/>
<path d="M1380.78 2593.29C1380.58 2596.29 1378.88 2599.19 1376.08 2600.79L1361.08 2609.39L952.284 2844.19L951.584 2844.59C950.084 2845.39 948.484 2845.79 946.984 2845.79C943.784 2845.79 940.584 2844.09 938.884 2841.09C936.684 2837.19 937.484 2832.29 940.784 2829.39C940.784 2829.39 940.784 2829.39 940.884 2829.29C940.884 2829.29 941.084 2829.09 941.184 2829.09C941.184 2829.09 941.384 2828.99 941.484 2828.89C941.784 2828.69 942.084 2828.49 942.384 2828.29L1000.58 2794.89L1362.48 2587.09L1366.88 2584.59C1371.38 2581.99 1377.08 2583.59 1379.68 2588.09C1380.68 2589.79 1380.98 2591.59 1380.88 2593.39L1380.78 2593.29Z" fill="black"/>
</svg>
