<svg width="3981" height="4177" viewBox="0 0 3981 4177" fill="none" xmlns="http://www.w3.org/2000/svg">
<rect width="3981" height="4177" fill="white"/>
<path d="M3261.25 3611.09H1234.25C1239.05 3547.99 1247.15 3442.49 1256.05 3330.29C1170.55 3388.79 1069.55 3456.39 952.246 3532.29C909.646 3559.89 861.346 3574.29 811.446 3574.29C761.546 3574.29 797.346 3573.99 790.346 3573.39C735.346 3568.99 681.846 3547.59 635.546 3511.59C576.546 3465.69 534.446 3400.69 513.846 3323.59C490.946 3237.99 496.546 3140.59 529.946 3041.89C590.746 2862.09 684.046 2657.29 792.646 2465.29C894.246 2285.69 1000.15 2133.49 1083.25 2047.89C1153.85 1975.19 1323.35 1887.99 1418.05 1842.39C1545.35 1781.19 1681.65 1725.99 1745.95 1709.39C1749.85 1701.39 1756.75 1690.59 1768.65 1676.09C1784.75 1656.49 1805.05 1636.09 1820.45 1624.29C1835.55 1612.69 1861.75 1605.49 1873.25 1602.79L1876.25 1492.09C1869.45 1483.39 1864.65 1476.09 1861.75 1471.39C1837.35 1431.19 1818.95 1331.39 1813.05 1296.69C1796.35 1302.69 1782.25 1302.49 1770.25 1296.19C1741.15 1281.09 1731.35 1233.69 1721.45 1173.29C1713.15 1122.19 1727.35 1096.29 1740.75 1083.49C1752.75 1072.09 1768.95 1066.39 1786.55 1067.19C1786.55 1066.99 1786.55 1066.79 1786.55 1066.59C1786.35 1064.79 1786.15 1062.99 1786.05 1061.19C1785.75 1058.49 1785.45 1055.69 1785.25 1052.79C1780.15 1000.59 1774.55 926.891 1777.55 880.891C1778.45 866.391 1779.65 851.591 1781.65 836.491C1784.85 811.791 1790.35 786.391 1800.95 760.791C1820.15 714.491 1853.15 675.391 1901.85 641.291C1906.75 637.891 1911.95 634.591 1917.35 631.391C1917.35 622.791 1921.65 614.691 1939.05 604.391C2047.55 540.191 2217.75 566.291 2310.65 611.491C2312.35 612.291 2314.05 613.191 2315.75 613.991C2316.35 614.291 2316.85 614.591 2317.35 614.791C2320.15 616.291 2322.95 617.791 2325.65 619.291C2363.95 640.891 2397.05 673.391 2421.25 713.091C2423.35 716.591 2425.45 720.091 2427.45 723.691C2447.95 760.891 2461.15 803.691 2465.65 848.391C2474.15 932.491 2476.55 994.191 2464.55 1064.79C2464.05 1067.79 2463.55 1070.69 2462.95 1073.69C2462.55 1075.69 2462.25 1077.69 2461.85 1079.59C2481.35 1078.49 2502.85 1084.29 2515.25 1101.09C2531.85 1123.49 2528.15 1175.19 2526.55 1190.49C2522.55 1230.99 2511.55 1266.89 2497.15 1286.59C2475.65 1315.99 2446.55 1318.09 2427.75 1313.79C2413.25 1383.89 2392.75 1438.99 2367.05 1477.59C2365.25 1480.29 2362.95 1483.39 2360.15 1486.79L2356.25 1593.79C2356.25 1593.79 2356.45 1593.79 2356.55 1593.79C2360.35 1594.69 2365.05 1596.19 2369.85 1598.59C2370.15 1598.79 2370.45 1598.89 2370.85 1599.09C2371.55 1599.49 2372.35 1599.89 2373.05 1600.29C2373.35 1600.49 2373.65 1600.59 2373.95 1600.79C2378.35 1603.39 2382.85 1606.89 2386.95 1611.39C2393.95 1619.19 2404.35 1637.39 2416.25 1660.09C2416.35 1660.29 2416.45 1660.49 2416.55 1660.59C2422.65 1672.29 2429.15 1685.19 2435.85 1698.49C2436.35 1699.39 2436.75 1700.29 2437.25 1701.19C2440.15 1706.89 2442.65 1711.99 2444.75 1716.09H2444.95C2487.05 1727.79 2540.45 1748.99 2599.15 1776.79C2600.85 1777.59 2602.55 1778.39 2604.25 1779.19C2609.25 1781.59 2614.25 1783.99 2619.35 1786.49C2619.35 1786.49 2619.55 1786.49 2619.65 1786.59C2628.25 1790.79 2636.85 1795.09 2645.65 1799.59C2673.55 1813.79 2702.15 1829.19 2731.05 1845.69C2736.45 1848.79 2741.95 1851.89 2747.35 1855.09C2879.95 1932.19 2997.25 2018.99 3077.75 2099.69C3091.05 2112.99 3103.65 2127.59 3115.45 2143.49C3115.65 2143.69 3115.75 2143.89 3115.95 2144.09C3117.05 2145.49 3118.05 2146.99 3119.15 2148.49C3132.05 2166.29 3144.15 2185.59 3155.25 2206.29C3169.05 2232.09 3181.35 2260.09 3192.25 2290.19C3199.25 2309.79 3205.75 2330.29 3211.65 2351.79C3211.65 2351.79 3211.65 2351.89 3211.65 2351.99C3226.75 2407.09 3237.95 2468.89 3245.85 2538.99C3266.05 2718.39 3260.15 2918.69 3254.35 3112.39C3249.55 3273.69 3249.15 3473.89 3261.55 3610.69L3261.25 3611.09Z" fill="white"/>
<path d="M2366.59 1068.04C2366.49 1067.24 2366.29 1066.34 2366.19 1065.54C2365.79 1065.24 2365.49 1064.84 2365.09 1064.54C2365.29 1065.24 2365.39 1065.94 2365.59 1066.64C2366.19 1069.74 2366.69 1072.94 2366.89 1076.44C2367.09 1074.34 2367.09 1071.44 2366.69 1068.14L2366.59 1068.04ZM2326.99 1035.14C2326.69 1035.14 2326.49 1035.14 2326.19 1035.04C2327.29 1035.34 2328.29 1035.54 2329.39 1035.84C2329.49 1035.84 2329.59 1035.64 2329.69 1035.64C2328.69 1035.54 2327.79 1035.34 2326.99 1035.24V1035.14ZM2385.49 1075.84C2385.49 1075.24 2385.49 1074.74 2385.39 1074.14C2384.99 1068.74 2384.19 1063.64 2382.99 1058.94C2382.19 1055.94 2381.29 1053.04 2380.19 1050.34C2380.09 1050.04 2379.89 1049.74 2379.79 1049.34C2378.29 1045.84 2376.59 1042.64 2374.59 1039.74C2373.39 1038.04 2372.19 1036.44 2370.79 1034.94C2369.99 1034.04 2369.09 1033.14 2368.19 1032.34C2364.09 1028.44 2359.29 1025.54 2353.89 1023.64C2353.79 1023.64 2353.69 1023.64 2353.49 1023.54C2351.29 1022.84 2349.19 1022.14 2347.09 1021.44C2344.29 1020.54 2341.49 1019.74 2338.69 1018.94C2335.79 1018.14 2332.89 1017.44 2330.09 1016.74C2283.69 1005.64 2243.59 1009.84 2216.69 1016.04C2198.79 1020.14 2183.09 1026.04 2170.99 1032.04C2158.79 1038.14 2150.19 1044.54 2146.19 1049.74C2144.99 1051.34 2143.89 1053.14 2142.89 1055.14C2142.59 1055.84 2142.29 1056.44 2141.99 1057.14C2141.99 1057.14 2141.99 1057.14 2141.99 1057.24C2140.69 1060.24 2139.59 1063.54 2138.89 1067.24C2138.39 1069.54 2137.99 1072.04 2137.69 1074.64C2137.69 1075.54 2137.49 1076.44 2137.49 1077.44C2137.29 1080.34 2137.19 1083.44 2137.29 1086.64C2137.79 1104.14 2142.79 1125.74 2154.09 1150.34C2156.39 1155.44 2159.09 1160.74 2161.99 1166.04C2177.89 1195.24 2212.69 1212.34 2255.59 1212.34C2257.19 1212.34 2258.79 1212.34 2260.49 1212.34C2301.29 1211.14 2350.39 1193.24 2368.19 1156.14C2368.19 1155.94 2368.39 1155.84 2368.39 1155.64C2375.99 1139.34 2381.29 1122.54 2383.89 1106.44C2384.49 1102.64 2384.99 1098.84 2385.39 1095.04C2385.69 1091.84 2385.89 1088.64 2385.89 1085.44C2385.89 1084.94 2385.89 1084.44 2385.89 1083.84C2385.89 1081.04 2385.89 1078.34 2385.69 1075.64L2385.49 1075.84ZM2366.99 1085.94C2366.49 1104.74 2360.99 1126.74 2351.29 1147.54C2351.29 1147.54 2351.29 1147.54 2351.29 1147.64C2339.19 1173.44 2301.59 1192.24 2259.89 1193.54C2221.89 1194.64 2191.49 1181.04 2178.39 1157.14C2175.69 1152.24 2173.29 1147.44 2171.19 1142.84C2163.19 1125.64 2158.79 1110.64 2156.89 1098.14C2156.09 1092.84 2155.69 1088.04 2155.69 1083.64C2155.69 1079.24 2155.79 1078.74 2156.09 1076.64C2156.09 1075.84 2156.29 1075.14 2156.39 1074.44C2156.39 1073.94 2156.59 1073.34 2156.69 1072.84C2157.19 1070.04 2157.89 1067.64 2158.79 1065.54C2159.49 1063.84 2160.29 1062.34 2161.19 1061.14C2165.29 1055.64 2187.09 1042.14 2220.99 1034.34C2234.69 1031.14 2251.99 1028.54 2271.99 1028.54C2291.99 1028.54 2302.89 1029.94 2320.09 1033.64C2322.09 1034.04 2324.09 1034.54 2326.09 1035.04C2326.09 1035.04 2326.19 1035.04 2326.29 1035.04C2327.39 1035.34 2328.39 1035.54 2329.49 1035.84C2335.39 1037.34 2341.49 1039.14 2347.59 1041.24C2350.59 1042.24 2353.19 1043.84 2355.59 1046.04C2356.59 1046.94 2357.49 1047.94 2358.29 1049.04C2359.59 1050.74 2360.79 1052.54 2361.79 1054.64C2362.09 1055.24 2362.39 1055.94 2362.69 1056.64C2363.69 1059.04 2364.59 1061.64 2365.19 1064.54C2365.39 1065.24 2365.49 1065.94 2365.69 1066.64C2366.29 1069.74 2366.79 1072.94 2366.99 1076.44C2367.19 1079.54 2367.29 1082.84 2367.19 1086.14L2366.99 1085.94ZM2326.99 1035.14C2326.69 1035.14 2326.49 1035.14 2326.19 1035.04C2327.29 1035.34 2328.29 1035.54 2329.39 1035.84C2329.49 1035.84 2329.59 1035.64 2329.69 1035.64C2328.69 1035.54 2327.79 1035.34 2326.99 1035.24V1035.14ZM2366.59 1068.04C2366.49 1067.24 2366.29 1066.34 2366.19 1065.54C2365.79 1065.24 2365.49 1064.84 2365.09 1064.54C2365.29 1065.24 2365.39 1065.94 2365.59 1066.64C2366.19 1069.74 2366.69 1072.94 2366.89 1076.44C2367.09 1074.34 2367.09 1071.44 2366.69 1068.14L2366.59 1068.04Z" fill="black"/>
<path d="M2328.29 1025.84C2328.29 1025.84 2382.99 1033.74 2397.29 1038.64C2411.49 1043.64 2447.69 1060.74 2447.69 1060.74L2451.39 1083.54L2411.09 1074.34C2411.09 1074.34 2384.59 1068.24 2376.39 1080.04C2376.39 1080.04 2387.59 1033.54 2328.29 1025.84Z" fill="black"/>
<path d="M2460.69 1082.04L2460.49 1080.64V1080.44L2458.69 1069.24L2458.09 1065.24L2457.09 1059.14C2457.09 1059.14 2457.09 1058.94 2457.09 1058.84C2457.09 1058.64 2456.99 1058.34 2456.89 1058.14C2456.79 1057.64 2456.59 1057.24 2456.39 1056.74C2455.49 1054.74 2453.89 1053.04 2451.89 1052.14C2451.69 1052.04 2450.59 1051.54 2448.89 1050.74C2448.89 1050.74 2448.69 1050.74 2448.69 1050.64C2448.49 1050.64 2448.29 1050.44 2448.09 1050.34C2446.89 1049.84 2445.59 1049.14 2443.99 1048.44C2442.59 1047.74 2440.99 1047.04 2439.29 1046.24C2438.79 1046.04 2438.19 1045.74 2437.59 1045.44C2436.29 1044.84 2434.89 1044.24 2433.39 1043.54C2431.09 1042.44 2428.69 1041.44 2426.19 1040.34C2425.09 1039.84 2423.89 1039.34 2422.79 1038.84C2422.59 1038.84 2422.39 1038.64 2422.19 1038.54C2419.69 1037.44 2417.29 1036.34 2414.89 1035.34C2413.59 1034.74 2412.29 1034.24 2410.99 1033.74C2406.99 1032.04 2403.39 1030.64 2400.49 1029.64C2392.49 1026.84 2373.89 1023.44 2357.69 1020.74C2349.29 1019.34 2341.59 1018.14 2336.29 1017.34C2335.19 1017.14 2334.29 1017.04 2333.39 1016.94C2332.39 1016.74 2331.29 1016.64 2330.19 1016.44C2329.99 1016.44 2329.79 1016.44 2329.59 1016.44C2327.69 1016.24 2325.79 1016.54 2324.19 1017.34C2321.99 1018.44 2320.29 1020.34 2319.49 1022.84C2319.29 1023.34 2319.19 1023.94 2319.09 1024.44C2318.79 1026.44 2319.19 1028.44 2320.09 1030.14C2321.29 1032.44 2323.39 1034.14 2326.09 1034.84C2326.09 1034.84 2326.19 1034.84 2326.29 1034.84C2326.59 1034.84 2326.79 1034.94 2327.09 1034.94C2327.89 1035.04 2328.79 1035.14 2329.79 1035.34C2330.09 1035.34 2330.29 1035.34 2330.59 1035.44C2341.89 1037.24 2350.69 1040.84 2356.89 1046.04C2358.39 1047.24 2359.69 1048.64 2360.89 1050.04C2361.49 1050.74 2361.99 1051.34 2362.49 1052.04C2365.99 1057.04 2367.39 1062.44 2367.89 1066.94C2367.99 1067.94 2368.09 1068.94 2368.09 1069.94C2368.19 1074.44 2367.59 1077.54 2367.59 1077.64C2366.49 1082.04 2368.79 1086.54 2372.89 1088.44C2373.19 1088.54 2373.49 1088.64 2373.79 1088.74C2374.29 1088.94 2374.79 1089.04 2375.19 1089.04C2378.69 1089.64 2382.29 1088.14 2384.39 1085.14C2384.59 1084.94 2384.79 1084.64 2384.99 1084.44C2385.29 1084.24 2385.59 1084.04 2385.89 1083.84C2387.29 1083.14 2389.19 1082.64 2391.49 1082.34C2396.59 1081.74 2403.39 1082.14 2409.09 1083.44L2418.89 1085.64L2425.49 1087.14L2429.79 1088.14L2432.09 1088.64L2435.69 1089.44L2439.69 1090.34H2440.09L2441.99 1090.84H2442.29L2443.99 1091.24L2448.79 1092.34H2449.29C2449.59 1092.54 2449.89 1092.54 2450.19 1092.64C2450.19 1092.64 2450.39 1092.64 2450.49 1092.64C2450.79 1092.64 2451.09 1092.64 2451.39 1092.64C2453.79 1092.64 2455.99 1091.74 2457.79 1090.14C2459.59 1088.44 2460.59 1086.14 2460.69 1083.74C2460.69 1083.04 2460.69 1082.44 2460.59 1081.74L2460.69 1082.04ZM2438.49 1071.04L2436.39 1070.54L2434.59 1070.14L2430.39 1069.14L2428.49 1068.74L2424.19 1067.74L2420.89 1066.94L2419.99 1066.74L2413.09 1065.14C2410.79 1064.64 2404.29 1063.24 2396.69 1063.24H2396.39C2393.59 1063.24 2390.69 1063.44 2387.79 1063.84C2387.19 1063.84 2386.59 1064.04 2385.99 1064.14C2385.49 1059.94 2384.39 1055.34 2382.49 1050.64C2381.89 1049.14 2381.19 1047.74 2380.39 1046.24C2379.99 1045.44 2379.49 1044.64 2378.99 1043.74C2385.49 1045.04 2390.89 1046.34 2393.99 1047.44C2399.49 1049.34 2408.49 1053.24 2417.29 1057.14C2418.69 1057.74 2420.19 1058.44 2421.59 1059.04C2423.39 1059.84 2425.29 1060.74 2426.99 1061.54C2427.49 1061.74 2427.89 1061.94 2428.39 1062.14C2429.89 1062.84 2431.39 1063.54 2432.79 1064.14C2434.49 1064.94 2436.09 1065.64 2437.39 1066.24C2437.99 1066.54 2438.49 1066.74 2438.99 1067.04V1067.94C2439.09 1067.94 2439.59 1070.74 2439.59 1070.74V1071.14L2438.09 1070.84L2438.49 1071.04Z" fill="black"/>
<path d="M1897.19 1036.84C1896.69 1036.94 1896.19 1037.04 1895.69 1037.24C1895.19 1037.44 1895.29 1037.24 1895.09 1037.34C1895.09 1037.34 1895.09 1037.34 1895.19 1037.34C1895.29 1037.34 1895.39 1037.34 1895.49 1037.34C1894.99 1037.64 1894.49 1037.94 1893.99 1038.14C1894.89 1037.94 1895.79 1037.74 1896.69 1037.54C1897.19 1037.44 1897.59 1037.34 1898.09 1037.24C1916.89 1033.04 1934.09 1031.44 1949.49 1031.44C1964.89 1031.44 1982.19 1033.54 1994.09 1036.14C2010.59 1039.74 2023.59 1044.74 2032.99 1049.54C2042.29 1054.34 2047.99 1058.74 2049.79 1061.14C2051.89 1063.94 2053.59 1068.24 2054.49 1074.04C2054.69 1072.84 2055.09 1071.64 2055.79 1070.64C2055.79 1070.54 2055.79 1070.44 2055.89 1070.24C2055.89 1070.04 2055.99 1069.84 2056.09 1069.74C2056.29 1069.24 2056.59 1068.84 2056.79 1068.44C2056.99 1068.14 2057.29 1067.74 2057.49 1067.44C2057.69 1067.24 2057.79 1067.04 2057.99 1066.74C2057.99 1066.74 2057.99 1066.74 2057.99 1066.64C2058.19 1066.34 2058.39 1066.14 2058.59 1065.84C2058.69 1065.64 2058.79 1065.54 2058.99 1065.34C2059.59 1064.54 2060.29 1063.84 2060.89 1063.14L2061.09 1062.94C2061.59 1062.44 2062.19 1061.84 2062.69 1061.34C2062.69 1061.34 2062.89 1061.14 2062.99 1061.14C2062.99 1061.14 2063.09 1061.04 2063.19 1060.94C2063.59 1060.64 2063.89 1060.34 2064.29 1060.04C2040.59 1041.34 1976.49 1018.04 1896.89 1037.14L1897.19 1036.84ZM1860.99 1051.94C1860.99 1051.94 1861.09 1051.94 1861.19 1051.94C1861.29 1051.74 1861.39 1051.64 1861.59 1051.54C1861.39 1051.64 1861.19 1051.84 1860.99 1052.04V1051.94ZM2073.59 1078.04C2073.59 1077.74 2073.59 1077.44 2073.59 1077.14C2073.59 1076.64 2073.59 1076.04 2073.49 1075.54C2073.19 1072.64 2072.79 1069.94 2072.29 1067.34C2071.59 1063.84 2070.59 1060.74 2069.39 1057.84C2069.19 1057.44 2069.09 1057.04 2068.89 1056.74C2067.69 1054.14 2066.29 1051.74 2064.79 1049.74C2051.29 1031.84 1987.19 1001.44 1903.59 1016.94C1898.49 1017.84 1893.39 1018.94 1888.19 1020.24C1884.49 1021.14 1880.79 1022.14 1877.09 1023.24C1876.29 1023.44 1875.39 1023.74 1874.59 1024.04C1871.59 1024.94 1868.49 1025.94 1865.39 1027.04C1860.19 1028.84 1855.39 1031.64 1851.29 1035.34C1850.49 1036.04 1849.79 1036.74 1848.99 1037.54C1846.69 1039.94 1844.59 1042.64 1842.79 1045.64C1841.49 1047.74 1840.39 1049.94 1839.39 1052.24C1839.39 1052.44 1839.19 1052.64 1839.09 1052.84C1838.59 1053.94 1838.19 1055.04 1837.79 1056.14C1836.59 1059.34 1835.69 1062.74 1834.99 1066.34C1834.29 1069.54 1833.89 1072.84 1833.59 1076.24C1833.59 1077.04 1833.39 1077.84 1833.39 1078.64C1833.39 1079.44 1833.29 1080.24 1833.29 1081.04C1833.19 1083.04 1833.19 1085.04 1833.19 1087.14C1833.19 1088.14 1833.19 1089.14 1833.19 1090.14C1833.19 1090.34 1833.19 1090.54 1833.19 1090.74C1833.29 1094.04 1833.49 1097.34 1833.89 1100.74C1835.79 1119.34 1841.49 1139.64 1850.59 1159.04C1850.59 1159.04 1850.59 1159.24 1850.69 1159.24C1865.69 1191.04 1905.09 1212.54 1951.19 1213.94C1952.69 1213.94 1954.19 1213.94 1955.79 1213.94C1979.59 1213.94 2000.99 1208.34 2018.09 1198.04C2018.29 1197.94 2018.49 1197.74 2018.69 1197.64C2024.69 1193.94 2030.19 1189.64 2034.99 1184.84C2039.69 1180.14 2043.79 1175.04 2047.19 1169.44C2047.79 1168.54 2048.29 1167.64 2048.79 1166.64C2048.79 1166.44 2048.99 1166.34 2049.09 1166.14C2049.09 1166.04 2049.19 1165.94 2049.29 1165.84C2051.79 1161.24 2054.09 1156.74 2056.09 1152.34C2065.29 1132.84 2070.49 1115.14 2072.69 1099.84C2073.79 1091.94 2074.09 1084.64 2073.69 1078.04H2073.59ZM2039.99 1142.24C2039.79 1142.74 2039.59 1143.14 2039.29 1143.64C2037.29 1147.94 2034.99 1152.44 2032.49 1157.14C2018.89 1182.04 1988.69 1196.24 1951.59 1195.14C1913.39 1194.04 1879.89 1176.64 1867.79 1151.84C1867.79 1151.64 1867.59 1151.44 1867.49 1151.24C1860.89 1137.24 1856.29 1122.64 1853.79 1108.94C1852.19 1100.04 1851.49 1091.54 1851.69 1083.64C1851.79 1079.94 1852.09 1076.34 1852.69 1072.94C1853.39 1068.24 1854.59 1063.94 1856.19 1060.14V1059.94C1857.59 1056.84 1859.09 1054.14 1860.99 1051.94C1861.09 1051.74 1861.19 1051.64 1861.39 1051.54C1864.09 1048.34 1867.39 1046.14 1871.19 1044.84C1878.09 1042.44 1884.79 1040.54 1891.29 1038.84C1892.09 1038.64 1892.99 1038.44 1893.79 1038.24C1894.69 1038.04 1895.59 1037.84 1896.49 1037.64C1896.99 1037.54 1897.39 1037.44 1897.89 1037.34C1916.69 1033.14 1933.89 1031.54 1949.29 1031.54C1964.69 1031.54 1981.99 1033.64 1993.89 1036.24C2010.39 1039.84 2023.39 1044.84 2032.79 1049.64C2042.09 1054.44 2047.79 1058.84 2049.59 1061.24C2051.69 1064.04 2053.39 1068.34 2054.29 1074.14C2054.39 1074.84 2054.49 1075.44 2054.59 1076.24C2054.59 1077.14 2054.79 1078.04 2054.89 1079.04C2055.89 1093.64 2052.39 1115.24 2039.89 1142.54L2039.99 1142.24ZM2063.79 1051.74C2049.99 1033.54 1984.09 1002.44 1898.49 1019.74C1896.99 1020.04 1895.39 1020.34 1893.89 1020.74C1891.69 1021.24 1889.39 1021.74 1887.19 1022.34C1887.59 1022.34 1887.99 1022.24 1888.39 1022.14C1890.29 1021.94 1891.99 1022.14 1893.59 1022.94C1896.39 1024.24 1898.49 1026.94 1898.89 1030.14C1899.09 1031.54 1898.89 1033.04 1898.49 1034.34C1897.79 1035.54 1896.79 1036.54 1895.69 1037.24C1895.49 1037.24 1895.29 1037.24 1895.09 1037.34C1895.09 1037.34 1895.09 1037.34 1895.19 1037.34C1895.29 1037.34 1895.39 1037.34 1895.49 1037.34C1894.99 1037.64 1894.49 1037.94 1893.99 1038.14C1894.89 1037.94 1895.79 1037.74 1896.69 1037.54C1897.19 1037.44 1897.59 1037.34 1898.09 1037.24C1916.89 1033.04 1934.09 1031.44 1949.49 1031.44C1964.89 1031.44 1982.19 1033.54 1994.09 1036.14C2010.59 1039.74 2023.59 1044.74 2032.99 1049.54C2042.29 1054.34 2047.99 1058.74 2049.79 1061.14C2051.89 1063.94 2053.59 1068.24 2054.49 1074.04C2054.69 1072.84 2055.09 1071.64 2055.79 1070.64C2055.79 1070.54 2055.79 1070.44 2055.89 1070.24C2055.89 1070.04 2055.99 1069.84 2056.09 1069.74C2056.29 1069.24 2056.59 1068.84 2056.79 1068.44C2056.99 1068.14 2057.29 1067.74 2057.49 1067.44C2057.69 1067.24 2057.79 1067.04 2057.99 1066.74C2057.99 1066.74 2057.99 1066.74 2057.99 1066.64C2058.19 1066.34 2058.39 1066.14 2058.59 1065.84C2058.69 1065.64 2058.79 1065.54 2058.99 1065.34C2059.59 1064.54 2060.29 1063.84 2060.89 1063.14L2061.09 1062.94C2061.59 1062.44 2062.19 1061.84 2062.69 1061.34C2062.69 1061.34 2062.89 1061.14 2062.99 1061.14C2062.99 1061.14 2063.09 1061.04 2063.19 1060.94C2063.59 1060.64 2063.89 1060.34 2064.29 1060.04C2064.49 1059.84 2064.69 1059.64 2064.89 1059.54C2065.09 1059.34 2065.29 1059.24 2065.49 1059.04C2065.99 1058.64 2066.49 1058.24 2066.99 1057.94C2065.89 1055.74 2064.69 1053.74 2063.39 1051.94L2063.79 1051.74Z" fill="black"/>
<path d="M1890.49 1029.44C1890.49 1029.44 1832.79 1037.14 1818.59 1042.14C1804.39 1047.14 1796.79 1060.14 1796.79 1060.14L1798.39 1073.54L1814.59 1072.14C1814.59 1072.14 1834.29 1071.94 1842.39 1083.74C1842.39 1083.74 1831.19 1037.24 1890.49 1029.54V1029.44Z" fill="black"/>
<path d="M1899.79 1028.24C1899.39 1025.44 1897.79 1023.04 1895.59 1021.64C1895.09 1021.34 1894.49 1021.04 1893.89 1020.74C1892.49 1020.14 1890.89 1019.94 1889.29 1020.14C1888.89 1020.14 1888.49 1020.24 1888.09 1020.34C1885.89 1020.64 1881.59 1021.24 1876.19 1022.04C1860.09 1024.34 1833.69 1028.44 1820.29 1031.94C1819.99 1031.94 1819.69 1032.04 1819.49 1032.14C1817.99 1032.54 1816.59 1032.94 1815.49 1033.34C1813.59 1034.04 1811.79 1034.74 1810.09 1035.64C1809.89 1035.74 1809.59 1035.84 1809.39 1035.94C1809.39 1035.94 1809.29 1035.94 1809.19 1035.94C1805.09 1038.04 1801.69 1040.64 1798.79 1043.24C1797.19 1044.64 1795.89 1046.04 1794.69 1047.34C1794.69 1047.34 1794.59 1047.54 1794.49 1047.54C1792.09 1050.24 1790.39 1052.54 1789.49 1053.94C1789.29 1054.24 1789.09 1054.54 1788.99 1054.74C1788.79 1055.04 1788.69 1055.24 1788.59 1055.34C1788.29 1055.94 1787.99 1056.54 1787.79 1057.14C1787.39 1058.44 1787.19 1059.84 1787.39 1061.24L1788.19 1067.94C1788.19 1068.04 1788.79 1073.04 1788.79 1073.04L1788.99 1074.64C1789.29 1076.74 1790.19 1078.64 1791.59 1080.04C1792.49 1080.94 1793.59 1081.74 1794.79 1082.24C1795.79 1082.64 1796.79 1082.84 1797.89 1082.84H1798.09C1798.39 1082.84 1798.69 1082.84 1798.99 1082.84L1803.79 1082.44H1804.09H1804.19L1806.09 1082.24H1806.39L1813.19 1081.64H1813.49L1814.69 1081.54C1818.19 1081.54 1826.69 1082.64 1831.89 1086.44C1832.19 1086.64 1832.49 1086.94 1832.79 1087.24C1833.39 1087.84 1833.99 1088.44 1834.39 1089.04C1835.79 1091.14 1837.99 1092.44 1840.29 1092.94C1840.89 1093.04 1841.49 1093.14 1842.09 1093.14C1843.39 1093.14 1844.69 1092.84 1845.89 1092.34C1846.79 1091.94 1847.59 1091.44 1848.29 1090.84C1848.99 1090.24 1849.59 1089.54 1850.09 1088.74C1850.29 1088.44 1850.39 1088.24 1850.49 1087.94C1851.09 1086.64 1851.49 1085.24 1851.49 1083.84C1851.49 1082.44 1851.49 1082.34 1851.19 1081.64C1851.19 1081.64 1850.99 1080.94 1850.89 1079.84C1850.89 1079.14 1850.69 1078.34 1850.69 1077.44C1850.49 1073.54 1850.69 1067.44 1853.29 1061.44C1854.09 1059.64 1854.99 1057.84 1856.29 1056.04C1857.19 1054.74 1858.19 1053.54 1859.29 1052.44C1861.29 1050.34 1863.69 1048.44 1866.39 1046.84C1871.99 1043.44 1879.19 1040.94 1887.79 1039.54C1888.69 1039.34 1889.59 1039.24 1890.49 1039.14C1890.79 1039.14 1891.09 1039.14 1891.29 1039.04H1891.49C1892.29 1038.94 1893.09 1038.74 1893.79 1038.44C1894.29 1038.24 1894.79 1037.94 1895.29 1037.64C1895.29 1037.64 1895.29 1037.64 1895.39 1037.64C1896.59 1036.84 1897.49 1035.84 1898.19 1034.74C1899.29 1032.94 1899.79 1030.84 1899.49 1028.64L1899.79 1028.24ZM1832.39 1065.64C1826.89 1063.74 1821.59 1063.04 1818.19 1062.84C1817.19 1062.84 1816.39 1062.74 1815.79 1062.74H1815.39C1815.19 1062.74 1814.99 1062.74 1814.79 1062.74H1814.49C1814.29 1062.74 1813.99 1062.74 1813.79 1062.74L1806.59 1063.34C1806.59 1063.24 1806.59 1062.54 1806.59 1062.54C1808.49 1060.14 1811.89 1056.34 1816.59 1053.44C1816.79 1053.34 1816.89 1053.24 1817.09 1053.14C1818.49 1052.34 1820.09 1051.54 1821.79 1050.94C1825.29 1049.74 1832.09 1048.24 1840.19 1046.74C1839.79 1047.44 1839.39 1048.14 1838.99 1048.74C1838.19 1050.24 1837.39 1051.74 1836.79 1053.24C1836.29 1054.34 1835.89 1055.54 1835.49 1056.64C1834.39 1059.84 1833.59 1062.84 1833.19 1065.74C1832.99 1065.74 1832.79 1065.64 1832.69 1065.54L1832.39 1065.64Z" fill="black"/>
<path d="M2064.59 1082.74C2062.79 1082.74 2060.99 1082.24 2059.49 1081.24C2055.19 1078.44 2053.99 1072.54 2056.79 1068.24C2067.89 1051.34 2092.89 1046.14 2110.89 1046.74C2131.89 1047.54 2148.49 1055.24 2155.29 1067.54C2157.79 1072.04 2156.19 1077.74 2151.69 1080.34C2147.19 1082.84 2141.49 1081.24 2138.89 1076.74C2135.39 1070.54 2123.89 1066.04 2110.19 1065.54C2093.39 1064.94 2077.79 1070.34 2072.39 1078.54C2070.59 1081.24 2067.59 1082.74 2064.59 1082.74Z" fill="black"/>
<path d="M2259.59 1104.14C2268.1 1104.14 2274.99 1094.92 2274.99 1083.54C2274.99 1072.16 2268.1 1062.94 2259.59 1062.94C2251.09 1062.94 2244.19 1072.16 2244.19 1083.54C2244.19 1094.92 2251.09 1104.14 2259.59 1104.14Z" fill="black"/>
<path d="M2259.59 1053.54C2245.69 1053.54 2234.79 1066.74 2234.79 1083.54C2234.79 1100.34 2234.89 1086.94 2235.19 1088.64C2235.79 1093.34 2237.29 1097.54 2239.49 1101.24C2241.09 1103.84 2242.99 1106.14 2245.09 1108.04C2249.19 1111.54 2254.09 1113.54 2259.59 1113.54C2265.09 1113.54 2267.79 1112.34 2271.29 1110.14C2276.09 1107.04 2279.89 1102.14 2282.19 1096.14C2282.59 1095.24 2282.89 1094.24 2283.09 1093.24C2283.89 1090.24 2284.39 1086.94 2284.39 1083.54C2284.39 1066.74 2273.49 1053.54 2259.59 1053.54ZM2263.49 1091.84C2262.29 1093.74 2260.79 1094.84 2259.59 1094.84C2258.39 1094.84 2256.09 1093.04 2254.79 1090.04C2253.99 1088.24 2253.59 1086.04 2253.59 1083.54C2253.59 1081.04 2253.89 1079.94 2254.29 1078.44C2255.49 1074.54 2257.89 1072.24 2259.59 1072.24C2261.29 1072.24 2264.19 1075.04 2265.19 1079.54C2265.49 1080.74 2265.59 1082.04 2265.59 1083.54C2265.59 1086.94 2264.69 1089.84 2263.39 1091.84H2263.49Z" fill="black"/>
<path d="M1974.09 1104.14C1982.6 1104.14 1989.49 1094.92 1989.49 1083.54C1989.49 1072.16 1982.6 1062.94 1974.09 1062.94C1965.59 1062.94 1958.69 1072.16 1958.69 1083.54C1958.69 1094.92 1965.59 1104.14 1974.09 1104.14Z" fill="black"/>
<path d="M1974.09 1053.54C1960.19 1053.54 1949.29 1066.74 1949.29 1083.54C1949.29 1100.34 1949.39 1086.94 1949.59 1088.64C1949.99 1091.54 1950.69 1094.34 1951.69 1096.84C1953.49 1101.34 1956.19 1105.14 1959.49 1107.94C1963.59 1111.44 1968.49 1113.44 1973.99 1113.44C1979.49 1113.44 1982.19 1112.24 1985.69 1110.04C1989.49 1107.64 1992.59 1104.14 1994.89 1099.84C1995.99 1097.74 1996.89 1095.44 1997.59 1093.04C1998.39 1090.04 1998.89 1086.84 1998.89 1083.44C1998.89 1066.64 1987.99 1053.44 1974.09 1053.44V1053.54ZM1977.89 1091.84C1976.69 1093.74 1975.19 1094.84 1973.99 1094.84C1972.79 1094.84 1970.49 1093.04 1969.19 1090.04C1968.39 1088.24 1967.99 1086.04 1967.99 1083.54C1967.99 1081.04 1968.29 1079.94 1968.69 1078.44C1969.89 1074.54 1972.29 1072.24 1973.99 1072.24C1975.69 1072.24 1978.59 1075.04 1979.59 1079.54C1979.89 1080.74 1979.99 1082.04 1979.99 1083.54C1979.99 1086.94 1979.09 1089.84 1977.79 1091.84H1977.89Z" fill="black"/>
<path d="M2086.59 1266.24C2086.39 1266.24 2086.19 1266.24 2085.99 1266.24C2054.89 1264.34 2033.99 1254.84 2023.99 1238.14C2007.99 1211.64 2024.29 1175.24 2032.19 1157.84C2034.29 1153.14 2039.89 1151.04 2044.59 1153.14C2049.29 1155.24 2051.39 1160.84 2049.29 1165.54C2042.79 1180.14 2029.09 1210.44 2040.09 1228.54C2046.79 1239.64 2062.69 1246.04 2087.29 1247.64C2092.49 1247.94 2096.39 1252.44 2096.09 1257.54C2095.79 1262.54 2091.69 1266.34 2086.79 1266.34L2086.59 1266.24Z" fill="black"/>
<path d="M2018.59 1003.14C2025.19 1004.84 2029.89 1001.64 2035.59 998.339C2041.29 995.039 2037.79 995.039 2036.09 993.939C2000.89 971.039 1905.59 949.939 1872.89 1001.64C1913.99 977.439 1972.29 988.439 2018.69 1003.04L2018.59 1003.14Z" fill="black"/>
<path d="M2046.09 992.939C2045.89 992.139 2045.59 991.339 2045.19 990.639C2044.69 989.639 2044.09 988.839 2043.29 988.039C2042.69 987.339 2041.89 986.739 2041.09 986.239C2039.79 985.439 2038.49 984.539 2037.09 983.739C2032.39 981.039 2027.09 978.439 2021.39 975.939C2021.39 975.939 2021.29 975.939 2021.19 975.939C2012.89 972.439 2003.69 969.439 1993.99 966.939C1968.69 960.539 1940.09 958.039 1916.19 963.339C1895.09 967.939 1878.79 977.639 1867.89 992.339C1866.79 993.739 1865.79 995.239 1864.79 996.739C1862.49 1000.44 1862.99 1005.14 1865.99 1008.24C1868.99 1011.34 1873.79 1012.04 1877.49 1009.84C1877.79 1009.64 1878.19 1009.44 1878.49 1009.24C1883.69 1006.24 1889.29 1003.84 1895.39 1002.04C1907.09 998.439 1920.49 996.739 1935.49 997.039C1951.39 997.339 1969.19 999.839 1988.69 1004.64C1997.29 1006.74 2006.29 1009.24 2015.59 1012.24C2015.79 1012.24 2015.89 1012.34 2016.09 1012.34C2018.19 1012.84 2020.19 1013.14 2021.99 1013.14C2026.99 1013.14 2031.19 1011.54 2034.79 1009.64C2036.19 1008.84 2037.59 1008.04 2038.89 1007.34L2039.99 1006.64C2043.79 1004.44 2046.09 1000.64 2046.19 996.339C2046.19 995.139 2046.09 994.039 2045.79 993.039L2046.09 992.939ZM1991.69 985.939C1990.79 985.739 1989.89 985.539 1988.99 985.339C1977.69 982.739 1966.99 980.839 1956.79 979.639C1968.39 980.539 1979.99 982.639 1990.69 985.439C1991.39 985.639 1992.19 985.839 1992.89 986.039C1994.49 986.539 1996.09 986.939 1997.69 987.439C1995.69 986.939 1993.69 986.439 1991.69 985.939Z" fill="black"/>
<path d="M2201.39 1003.14C2194.79 1004.84 2190.09 1001.64 2184.39 998.339C2178.69 995.039 2182.19 995.039 2183.89 993.939C2219.09 971.039 2314.39 949.939 2347.09 1001.64C2305.99 977.439 2247.69 988.439 2201.29 1003.04L2201.39 1003.14Z" fill="black"/>
<path d="M2355.99 998.739C2355.79 998.039 2355.49 997.339 2354.99 996.739C2344.09 979.639 2326.89 968.339 2303.69 963.339C2262.19 954.339 2206.49 968.239 2178.79 986.239C2176.49 987.739 2174.79 990.039 2173.99 992.539C2173.59 993.739 2173.39 995.039 2173.49 996.339C2173.59 1000.54 2175.89 1004.34 2179.59 1006.54C2179.59 1006.54 2179.69 1006.54 2179.79 1006.54L2180.89 1007.24C2185.39 1009.94 2190.79 1013.04 2197.79 1013.04C2204.79 1013.04 2201.59 1012.84 2203.69 1012.24C2203.89 1012.24 2204.09 1012.24 2204.19 1012.14C2236.19 1002.04 2264.19 996.939 2287.99 996.939C2309.69 996.939 2327.89 1001.24 2342.39 1009.84C2344.09 1010.84 2345.99 1011.24 2347.89 1011.14C2350.09 1010.94 2352.29 1010.04 2353.89 1008.34C2354.59 1007.54 2355.19 1006.74 2355.69 1005.84C2356.69 1003.64 2356.89 1001.14 2356.09 998.839L2355.99 998.739ZM2263.09 979.539C2250.29 981.039 2236.69 983.639 2222.19 987.339C2234.69 983.539 2248.89 980.539 2263.09 979.539Z" fill="black"/>
<path d="M2111.29 1376.84C2060.89 1376.84 2016.39 1366.64 1985.39 1351.44C1980.79 1349.14 1978.79 1343.54 1981.09 1338.94C1983.39 1334.34 1988.99 1332.34 1993.59 1334.64C2047.19 1360.94 2144.39 1371.04 2240.79 1334.34C2245.59 1332.54 2251.09 1334.94 2252.89 1339.74C2254.69 1344.54 2252.29 1350.04 2247.49 1351.84C2200.89 1369.64 2153.99 1376.94 2111.29 1376.94V1376.84Z" fill="black"/>
<path d="M1801.49 1113.24C1801.49 1113.24 1782.29 957.839 1787.19 882.139C1792.09 806.439 1802.69 722.939 1907.49 649.539C1912.99 645.739 1918.69 642.139 1924.79 638.739C1930.89 635.339 1916.99 629.139 1944.09 613.039C2054.39 547.839 2233.59 578.639 2321.39 628.139C2396.79 670.639 2446.89 753.039 2456.69 850.039C2466.49 947.039 2469.09 1017.24 2445.39 1113.24C2445.39 1113.24 2431.89 1022.34 2417.09 982.039C2402.19 941.639 2392.19 918.439 2389.79 868.739C2387.39 819.039 2385.79 814.039 2366.39 785.239C2352.29 764.139 2331.79 732.339 2302.59 738.439C2280.59 743.039 2217.89 769.339 2113.29 767.639C2008.69 765.939 2000.39 739.739 1975.59 734.539C1945.99 728.239 1893.29 762.239 1871.39 799.439C1849.49 836.639 1860.19 893.039 1847.69 912.639C1835.19 932.239 1810.29 977.139 1801.39 1113.34L1801.49 1113.24Z" fill="black"/>
<path d="M2444.29 1051.24C2444.09 1050.34 2443.99 1049.44 2443.79 1048.54C2442.89 1043.94 2441.89 1039.24 2440.89 1034.54C2436.49 1013.84 2431.39 993.239 2425.99 978.739C2424.79 975.439 2423.59 972.239 2422.49 969.239C2409.79 935.039 2401.39 912.539 2399.29 868.239C2396.79 817.239 2394.89 810.639 2374.39 779.939L2373.29 778.239C2359.69 757.939 2339.69 728.139 2310.39 728.139C2281.09 728.139 2304.19 728.439 2300.89 729.139C2296.29 730.139 2290.49 731.839 2282.99 734.039C2252.89 742.939 2196.79 759.439 2113.69 758.139C2040.69 756.939 2016.99 743.939 1999.69 734.439C1992.69 730.539 1985.99 726.939 1977.69 725.139C1942.89 717.739 1889.79 753.839 1866.09 790.139C1886.39 765.939 1917.59 744.139 1944.99 738.239C1953.29 736.439 1961.19 736.139 1968.29 737.639C1976.59 739.439 1983.19 743.039 1990.29 746.939C2007.59 756.439 2031.19 769.439 2104.29 770.639C2187.39 772.039 2243.39 755.439 2273.59 746.539C2280.99 744.339 2286.89 742.639 2291.49 741.639C2294.69 740.939 2297.89 740.639 2300.89 740.639C2330.19 740.639 2350.19 770.439 2363.79 790.739L2364.89 792.439C2372.59 803.839 2377.69 811.939 2381.09 820.239C2386.89 834.239 2388.29 848.739 2389.79 880.739C2391.99 924.939 2400.29 947.539 2412.99 981.639C2414.19 984.739 2415.29 987.839 2416.49 991.139C2422.29 1006.84 2428.09 1025.84 2432.99 1043.34C2432.99 1043.34 2432.99 1043.44 2432.99 1043.54C2433.19 1044.44 2433.39 1045.34 2433.49 1046.14C2433.49 1046.14 2433.69 1046.14 2433.69 1046.24C2434.59 1049.34 2435.39 1052.34 2436.19 1055.34C2436.49 1055.44 2436.79 1055.64 2437.09 1055.74C2438.29 1056.34 2439.49 1056.84 2440.49 1057.34C2440.89 1057.54 2441.19 1057.64 2441.49 1057.84C2441.89 1058.04 2442.19 1058.14 2442.59 1058.34C2442.89 1058.44 2443.19 1058.64 2443.49 1058.74C2443.69 1058.74 2443.79 1058.94 2443.99 1058.94C2444.59 1059.24 2445.19 1059.54 2445.69 1059.74C2445.19 1056.84 2444.59 1053.94 2443.99 1051.04L2444.29 1051.24ZM2466.09 849.139C2461.59 804.439 2448.39 761.639 2427.89 724.439C2425.89 720.839 2423.89 717.339 2421.69 713.839C2397.49 674.039 2364.39 641.639 2326.09 620.039C2323.39 618.539 2320.69 617.039 2317.79 615.539C2317.29 615.239 2316.69 614.939 2316.19 614.739C2314.49 613.939 2312.89 613.039 2311.09 612.239C2218.19 567.039 2047.99 541.039 1939.49 605.139C1922.09 615.439 1917.79 623.539 1917.79 632.139C1912.39 635.239 1907.09 638.539 1902.29 642.039C1853.59 676.139 1820.59 715.239 1801.39 761.539C1790.79 787.139 1785.29 812.539 1782.09 837.239C1780.09 852.339 1778.99 867.139 1777.99 881.639C1774.99 927.639 1780.69 1001.24 1785.69 1053.54C1785.99 1056.44 1786.29 1059.24 1786.49 1061.94C1786.69 1063.74 1786.89 1065.54 1786.99 1067.34C1786.99 1067.54 1786.99 1067.74 1786.99 1067.94C1786.99 1067.94 1786.99 1067.94 1786.99 1068.04C1787.19 1069.64 1787.29 1071.24 1787.49 1072.84C1787.99 1077.84 1788.49 1082.54 1788.99 1086.84C1788.99 1086.84 1788.99 1086.84 1788.99 1086.94C1789.89 1095.64 1790.79 1102.64 1791.29 1107.44C1791.79 1111.34 1792.09 1113.84 1792.19 1114.54C1792.59 1117.74 1794.59 1120.34 1797.29 1121.74C1797.49 1121.74 1797.59 1121.94 1797.79 1121.94C1798.99 1122.44 1800.19 1122.74 1801.59 1122.74C1802.99 1122.74 1801.79 1122.74 1801.89 1122.74C1806.69 1122.64 1810.69 1118.84 1810.99 1113.94C1811.29 1108.94 1811.69 1104.14 1811.99 1099.44C1812.19 1096.24 1812.49 1093.04 1812.79 1089.94C1812.99 1087.74 1813.19 1085.64 1813.39 1083.44C1813.39 1082.84 1813.49 1082.14 1813.59 1081.54C1813.59 1081.04 1813.59 1080.54 1813.69 1080.04C1813.69 1079.84 1813.69 1079.64 1813.69 1079.44C1813.89 1077.64 1814.09 1075.74 1814.19 1074.04C1814.19 1073.34 1814.29 1072.74 1814.39 1072.04C1814.59 1069.64 1814.89 1067.24 1815.19 1064.94V1064.74C1815.19 1064.04 1815.39 1063.44 1815.39 1062.74C1815.69 1060.14 1815.99 1057.54 1816.29 1055.04C1816.29 1054.54 1816.39 1054.04 1816.49 1053.44C1816.49 1053.24 1816.49 1053.14 1816.49 1052.94C1816.89 1049.94 1817.29 1046.94 1817.69 1044.04C1817.69 1043.44 1817.89 1042.84 1817.89 1042.34C1818.29 1039.44 1818.69 1036.64 1819.09 1033.84C1819.09 1033.24 1819.29 1032.64 1819.39 1032.04C1825.09 994.839 1832.29 968.939 1839.49 950.239C1843.59 939.539 1847.69 931.139 1851.59 924.339C1852.99 921.839 1854.39 919.639 1855.69 917.539C1862.29 907.139 1863.49 890.739 1864.79 871.739C1865.89 856.739 1866.99 840.439 1870.89 825.539C1872.89 817.839 1875.69 810.539 1879.49 804.039C1880.09 803.039 1880.69 802.139 1881.29 801.139C1884.39 796.239 1888.09 791.439 1892.29 786.739C1907.59 769.439 1928.69 754.539 1947.19 747.439C1957.19 743.639 1966.49 742.039 1973.69 743.539C1979.29 744.739 1983.99 747.339 1990.49 750.939C2008.39 760.739 2035.49 775.639 2113.19 776.939C2199.19 778.339 2256.99 761.239 2288.09 752.139C2295.09 750.039 2300.69 748.439 2304.59 747.639C2321.99 743.939 2336.69 759.439 2348.39 775.639C2351.59 780.139 2354.69 784.639 2357.49 788.839L2358.59 790.539C2370.69 808.539 2375.29 815.939 2377.79 833.639C2378.99 842.239 2379.69 853.339 2380.39 869.339C2382.19 905.139 2387.89 928.139 2396.19 952.239C2398.79 959.839 2401.69 967.639 2404.79 975.939C2405.89 979.039 2407.09 982.139 2408.29 985.439C2410.79 992.239 2413.19 1000.44 2415.59 1009.54C2417.99 1018.84 2420.39 1028.94 2422.49 1039.14C2422.69 1040.04 2422.89 1040.94 2423.09 1041.74C2423.39 1043.14 2423.69 1044.54 2423.99 1045.94C2424.29 1047.44 2424.59 1048.94 2424.89 1050.34C2425.09 1051.24 2425.19 1052.14 2425.39 1052.94C2425.39 1053.44 2425.59 1053.94 2425.69 1054.34C2426.19 1056.74 2426.59 1059.14 2427.09 1061.54C2427.29 1062.44 2427.39 1063.34 2427.59 1064.14C2427.59 1064.54 2427.79 1065.04 2427.79 1065.44C2427.89 1065.94 2427.99 1066.44 2428.09 1066.94C2428.09 1067.54 2428.29 1068.04 2428.39 1068.64C2428.89 1071.24 2429.29 1073.84 2429.79 1076.34C2429.79 1076.44 2429.79 1076.54 2429.79 1076.74C2429.89 1077.44 2429.99 1078.04 2430.19 1078.74C2430.39 1079.84 2430.59 1080.94 2430.79 1082.14C2430.99 1083.34 2431.19 1084.64 2431.39 1085.84C2431.59 1086.84 2431.69 1087.84 2431.89 1088.84C2432.09 1089.74 2432.19 1090.64 2432.39 1091.54C2432.99 1094.94 2433.49 1098.14 2433.89 1100.94C2434.29 1103.34 2434.69 1105.54 2434.89 1107.34C2435.29 1109.64 2435.49 1111.44 2435.69 1112.64C2435.89 1113.84 2435.99 1114.64 2435.99 1114.64C2436.39 1117.64 2438.29 1120.24 2440.89 1121.54C2442.09 1122.14 2443.39 1122.54 2444.69 1122.54C2449.19 1122.74 2453.19 1119.74 2454.19 1115.44C2454.39 1114.44 2454.69 1113.44 2454.89 1112.54C2455.99 1108.24 2456.99 1103.94 2457.89 1099.74C2457.89 1099.74 2457.89 1099.64 2457.89 1099.54C2458.09 1098.84 2458.19 1098.14 2458.29 1097.54C2458.39 1096.84 2458.59 1096.24 2458.69 1095.64C2459.49 1091.74 2460.29 1087.84 2461.09 1084.04C2461.29 1082.84 2461.59 1081.64 2461.79 1080.54V1080.34C2462.19 1078.34 2462.59 1076.34 2462.89 1074.44C2463.39 1071.44 2463.99 1068.44 2464.49 1065.54C2476.39 994.939 2474.09 933.239 2465.59 849.139H2466.09ZM1846.19 870.439C1845.09 886.139 1843.99 901.039 1839.99 907.439C1830.39 922.439 1818.69 945.439 1808.89 987.639C1808.89 987.839 1808.89 987.939 1808.79 988.139C1806.39 998.439 1804.09 1010.04 1801.99 1022.84C1801.99 1023.14 1801.89 1023.54 1801.79 1023.84C1801.79 1023.54 1801.79 1023.34 1801.79 1023.04C1800.79 1011.84 1799.89 1000.24 1799.09 988.539C1796.39 950.239 1794.89 910.739 1796.69 882.839C1801.79 803.339 1814.59 726.239 1912.99 657.339C1918.09 653.739 1923.69 650.239 1929.49 647.039C1937.29 642.639 1936.79 635.639 1936.59 633.039C1936.52 632.106 1936.63 631.406 1936.89 630.939C1937.79 629.539 1940.59 626.339 1948.99 621.339C2050.59 561.239 2210.19 585.239 2299.49 627.539C2300.29 627.939 2301.09 628.339 2301.89 628.639C2301.89 628.639 2302.09 628.639 2302.19 628.739C2303.99 629.639 2305.69 630.439 2307.39 631.339C2310.69 633.039 2313.89 634.739 2316.99 636.439C2356.29 658.539 2388.59 692.439 2411.49 733.739C2430.69 768.439 2443.29 808.339 2447.59 851.139C2454.49 918.739 2457.19 971.539 2451.59 1026.34C2451.59 1026.34 2451.59 1026.54 2451.59 1026.64C2450.79 1034.74 2449.69 1042.74 2448.49 1050.94C2448.39 1051.74 2448.29 1052.44 2448.09 1053.24C2447.69 1055.74 2447.29 1058.14 2446.89 1060.64C2446.79 1061.44 2446.69 1062.14 2446.49 1062.94C2446.49 1062.94 2446.49 1063.04 2446.49 1063.14C2446.49 1063.14 2446.49 1062.94 2446.49 1062.84C2446.39 1062.14 2446.19 1061.44 2446.09 1060.74C2446.09 1060.54 2446.09 1060.34 2445.99 1060.24C2445.49 1057.34 2444.89 1054.44 2444.29 1051.54C2444.09 1050.64 2443.99 1049.74 2443.79 1048.84C2442.89 1044.24 2441.89 1039.54 2440.89 1034.84C2436.49 1014.14 2431.39 993.539 2425.99 979.039C2424.79 975.739 2423.59 972.539 2422.49 969.539C2409.79 935.339 2401.39 912.839 2399.29 868.539C2396.79 817.539 2394.89 810.939 2374.39 780.239L2373.29 778.539C2359.69 758.239 2339.69 728.439 2310.39 728.439C2281.09 728.439 2304.19 728.739 2300.89 729.439C2296.29 730.439 2290.49 732.139 2282.99 734.339C2252.89 743.239 2196.79 759.739 2113.69 758.439C2040.69 757.239 2016.99 744.239 1999.69 734.739C1992.69 730.839 1985.99 727.239 1977.69 725.439C1942.89 718.039 1889.79 754.139 1866.09 790.439C1865.19 791.839 1864.29 793.339 1863.39 794.739C1849.79 817.739 1847.79 847.039 1846.09 870.639L1846.19 870.439ZM2444.29 1051.24C2444.09 1050.34 2443.99 1049.44 2443.79 1048.54C2442.89 1043.94 2441.89 1039.24 2440.89 1034.54C2436.49 1013.84 2431.39 993.239 2425.99 978.739C2424.79 975.439 2423.59 972.239 2422.49 969.239C2409.79 935.039 2401.39 912.539 2399.29 868.239C2396.79 817.239 2394.89 810.639 2374.39 779.939L2373.29 778.239C2359.69 757.939 2339.69 728.139 2310.39 728.139C2281.09 728.139 2304.19 728.439 2300.89 729.139C2296.29 730.139 2290.49 731.839 2282.99 734.039C2252.89 742.939 2196.79 759.439 2113.69 758.139C2040.69 756.939 2016.99 743.939 1999.69 734.439C1992.69 730.539 1985.99 726.939 1977.69 725.139C1942.89 717.739 1889.79 753.839 1866.09 790.139C1865.19 791.539 1864.29 793.039 1863.39 794.439C1849.79 817.439 1847.79 846.739 1846.09 870.339C1844.99 886.039 1843.89 900.939 1839.89 907.339C1830.29 922.339 1818.59 945.339 1808.79 987.539C1809.19 985.839 1809.69 984.239 1810.09 982.639C1810.29 981.839 1810.59 980.939 1810.79 980.139C1811.19 978.739 1811.59 977.339 1811.99 976.039C1812.19 975.539 1812.29 975.039 1812.49 974.439C1812.69 973.939 1812.79 973.439 1812.99 972.939C1813.19 972.439 1813.29 971.939 1813.49 971.439C1813.99 969.839 1814.59 968.239 1815.09 966.739C1815.39 966.039 1815.59 965.239 1815.89 964.539C1816.09 964.039 1816.19 963.639 1816.39 963.139C1816.69 962.339 1817.09 961.439 1817.39 960.639C1817.39 960.439 1817.49 960.339 1817.59 960.139C1817.79 959.639 1817.99 959.039 1818.29 958.539C1818.69 957.539 1819.09 956.639 1819.49 955.739C1819.69 955.139 1819.99 954.639 1820.29 954.039C1821.19 952.239 1821.99 950.439 1822.89 948.839C1822.99 948.539 1823.19 948.239 1823.39 947.939C1825.19 944.639 1826.89 941.839 1828.59 939.239C1828.69 939.039 1828.79 938.839 1828.99 938.639C1829.79 937.539 1830.49 936.439 1831.19 935.339C1831.29 935.139 1831.39 934.939 1831.59 934.839C1833.69 931.839 1835.59 929.139 1837.39 926.539C1837.49 926.339 1837.69 926.139 1837.79 925.939C1837.79 925.939 1837.79 925.739 1837.89 925.739C1838.09 925.439 1838.29 925.139 1838.49 924.839C1840.19 922.139 1841.49 918.639 1842.49 914.639C1842.59 914.239 1842.69 913.739 1842.79 913.239C1842.79 912.739 1842.99 912.339 1843.09 911.839C1843.09 911.539 1843.19 911.339 1843.29 911.039C1843.29 910.739 1843.39 910.539 1843.49 910.239C1843.79 908.339 1844.09 906.439 1844.39 904.339C1844.59 903.139 1844.69 901.939 1844.79 900.739C1844.89 899.639 1844.99 898.539 1845.09 897.339C1845.29 895.539 1845.39 893.739 1845.59 891.839C1845.69 890.139 1845.89 888.439 1845.99 886.739C1846.19 883.939 1846.39 881.039 1846.59 878.039C1846.59 877.339 1846.59 876.639 1846.79 876.039C1846.79 875.439 1846.79 874.739 1846.89 874.139C1846.89 874.139 1846.89 874.139 1846.89 874.039C1848.99 856.339 1852.89 837.739 1862.09 822.039C1862.09 821.939 1862.29 821.839 1862.29 821.639C1862.59 820.539 1862.89 819.439 1863.29 818.239C1863.39 817.939 1863.49 817.539 1863.59 817.139C1863.79 816.439 1863.99 815.839 1864.29 815.139C1864.29 815.139 1864.29 815.039 1864.29 814.939C1864.29 814.839 1864.29 814.739 1864.39 814.539C1864.59 813.939 1864.79 813.339 1864.99 812.739C1865.19 812.239 1865.39 811.739 1865.49 811.339C1865.89 810.439 1866.19 809.439 1866.59 808.539C1866.79 808.039 1866.99 807.639 1867.19 807.139C1867.29 806.839 1867.49 806.539 1867.59 806.239C1867.79 805.739 1867.99 805.339 1868.19 804.839C1868.29 804.539 1868.49 804.239 1868.69 803.939C1868.89 803.539 1869.09 803.139 1869.29 802.739C1869.59 802.139 1869.99 801.439 1870.29 800.839C1870.59 800.239 1870.99 799.639 1871.29 799.039C1871.69 798.439 1872.09 797.739 1872.49 797.139C1872.89 796.539 1873.29 795.839 1873.69 795.239C1874.29 794.539 1874.89 793.839 1875.49 793.139C1876.19 792.339 1876.89 791.539 1877.69 790.739C1878.19 790.139 1878.79 789.539 1879.29 789.039C1879.89 788.339 1880.59 787.739 1881.19 787.039C1881.59 786.639 1881.99 786.139 1882.49 785.739C1882.89 785.339 1883.19 785.039 1883.59 784.639C1884.29 783.939 1884.89 783.339 1885.59 782.739C1887.59 780.839 1889.59 779.039 1891.69 777.239C1892.09 776.939 1892.39 776.639 1892.79 776.339C1893.39 775.839 1893.89 775.439 1894.49 774.939C1894.99 774.539 1895.49 774.139 1895.99 773.739C1896.19 773.639 1896.29 773.439 1896.49 773.339C1896.79 773.139 1897.09 772.839 1897.39 772.639C1897.89 772.239 1898.49 771.839 1898.99 771.339C1903.29 768.039 1907.79 764.939 1912.19 762.239C1912.99 761.739 1913.79 761.239 1914.59 760.739C1914.59 760.739 1914.59 760.739 1914.69 760.739C1915.29 760.439 1915.79 760.139 1916.29 759.739C1916.89 759.439 1917.39 759.139 1917.99 758.739C1920.79 757.139 1923.69 755.739 1926.49 754.339C1926.99 754.139 1927.49 753.839 1927.89 753.639C1928.79 753.239 1929.69 752.839 1930.59 752.439C1931.29 752.139 1931.99 751.839 1932.59 751.639C1932.59 751.639 1932.59 751.639 1932.69 751.639C1933.09 751.539 1933.49 751.339 1933.89 751.139C1935.49 750.539 1937.09 749.939 1938.69 749.439C1939.39 749.239 1940.19 748.939 1940.89 748.739C1942.49 748.239 1943.99 747.839 1945.49 747.539C1945.89 747.539 1946.29 747.339 1946.59 747.339C1956.59 743.539 1965.89 741.939 1973.09 743.439C1978.69 744.639 1983.39 747.239 1989.89 750.839C2007.79 760.639 2034.89 775.539 2112.59 776.839C2198.59 778.239 2256.39 761.139 2287.49 752.039C2294.49 749.939 2300.09 748.339 2303.99 747.539C2321.39 743.839 2336.09 759.339 2347.79 775.539C2350.99 780.039 2354.09 784.539 2356.89 788.739L2357.99 790.439C2370.09 808.439 2374.69 815.839 2377.19 833.539C2378.39 842.139 2379.09 853.239 2379.79 869.239C2381.59 905.039 2387.29 928.039 2395.59 952.139C2398.19 959.739 2401.09 967.539 2404.19 975.839C2405.29 978.939 2406.49 982.039 2407.69 985.339C2410.19 992.139 2412.59 1000.34 2414.99 1009.44C2417.39 1018.74 2419.79 1028.84 2421.89 1039.04C2422.09 1039.94 2422.29 1040.84 2422.49 1041.64C2422.79 1043.04 2423.09 1044.44 2423.39 1045.84C2423.79 1047.44 2424.29 1048.94 2424.69 1050.44C2425.19 1050.64 2425.69 1050.84 2426.09 1051.04C2426.99 1051.44 2427.99 1051.84 2428.89 1052.34C2430.99 1053.24 2432.89 1054.14 2434.79 1055.04C2434.19 1052.14 2433.69 1049.24 2433.09 1046.34C2433.09 1046.34 2433.29 1046.34 2433.29 1046.44C2434.19 1049.54 2434.99 1052.54 2435.79 1055.54C2436.09 1055.64 2436.39 1055.84 2436.69 1055.94C2437.89 1056.54 2439.09 1057.04 2440.09 1057.54C2440.49 1057.74 2440.79 1057.84 2441.09 1058.04C2441.49 1058.24 2441.79 1058.34 2442.19 1058.54C2442.49 1058.64 2442.79 1058.84 2443.09 1058.94C2443.29 1058.94 2443.39 1059.14 2443.59 1059.14C2444.19 1059.44 2444.79 1059.74 2445.29 1059.94C2444.79 1057.04 2444.19 1054.14 2443.59 1051.24H2444.29Z" fill="black"/>
<path d="M2527.09 1191.34C2523.09 1231.84 2512.09 1267.74 2497.69 1287.44C2476.19 1316.84 2447.09 1318.94 2428.29 1314.64C2413.79 1384.74 2393.29 1439.84 2367.59 1478.44C2365.79 1481.14 2363.49 1484.24 2360.69 1487.64C2355.69 1493.64 2349.19 1500.64 2341.19 1508.14C2297.99 1548.84 2213.39 1604.64 2111.49 1604.64H2111.19C2051.29 1604.64 1996.09 1588.44 1947.09 1556.54C1925.39 1542.44 1908.19 1527.34 1894.99 1513.64C1887.79 1506.14 1881.79 1499.04 1876.79 1492.74C1869.99 1484.04 1865.19 1476.74 1862.29 1472.04C1837.89 1431.84 1819.49 1332.04 1813.59 1297.34C1796.89 1303.34 1782.79 1303.14 1770.79 1296.84C1741.69 1281.74 1731.89 1234.34 1721.99 1173.94C1713.69 1122.84 1727.89 1096.94 1741.29 1084.14C1753.29 1072.74 1769.49 1067.04 1787.09 1067.84C1787.49 1067.84 1787.89 1067.84 1788.29 1067.84C1791.09 1068.04 1793.89 1068.34 1796.69 1068.84C1797.09 1068.84 1797.49 1068.94 1797.89 1069.04C1798.49 1069.04 1799.09 1069.24 1799.69 1069.34C1801.89 1069.84 1803.69 1071.04 1804.99 1072.54C1804.99 1072.54 1804.99 1072.64 1805.09 1072.74C1806.79 1074.84 1807.49 1077.64 1806.89 1080.44C1806.79 1081.04 1806.59 1081.54 1806.39 1082.04C1805.79 1083.44 1804.89 1084.74 1803.69 1085.64C1802.29 1086.84 1800.49 1087.54 1798.69 1087.74C1797.69 1087.84 1796.69 1087.74 1795.69 1087.54C1793.49 1087.04 1791.29 1086.74 1789.09 1086.54C1775.59 1085.24 1763.09 1089.04 1754.29 1097.44C1739.79 1111.24 1734.99 1136.54 1740.59 1170.64C1748.99 1221.94 1758.29 1268.94 1779.49 1279.94C1788.59 1284.64 1800.79 1283.14 1816.89 1275.34C1819.59 1274.04 1822.69 1274.14 1825.29 1275.44C1827.89 1276.84 1829.79 1279.34 1830.19 1282.34C1830.39 1283.64 1851.19 1417.14 1878.29 1461.94C1881.19 1466.74 1886.09 1474.14 1893.19 1483.04C1893.39 1483.24 1893.59 1483.44 1893.79 1483.74C1906.99 1500.04 1927.49 1521.14 1957.29 1540.54C2003.19 1570.34 2054.99 1585.54 2111.19 1585.64H2111.39C2221.69 1585.64 2312.49 1514.24 2343.89 1478.14C2344.09 1477.94 2344.29 1477.74 2344.49 1477.44C2347.59 1473.84 2350.09 1470.64 2351.89 1467.84C2377.49 1429.34 2397.69 1373.04 2411.89 1300.34C2412.49 1297.54 2414.29 1295.04 2416.89 1293.74C2419.49 1292.44 2422.49 1292.44 2425.09 1293.64C2426.39 1294.24 2458.69 1308.54 2482.49 1276.14C2494.79 1259.34 2504.69 1226.04 2508.39 1189.34C2511.89 1154.54 2508.69 1123.84 2500.59 1112.94C2491.39 1100.54 2473.09 1097.34 2458.19 1099.54C2456.59 1099.74 2454.89 1100.04 2453.39 1100.44C2451.69 1100.84 2449.99 1100.74 2448.49 1100.24C2445.69 1099.34 2443.39 1097.14 2442.39 1094.24C2442.39 1093.94 2442.19 1093.64 2442.19 1093.44C2441.99 1092.74 2441.99 1092.04 2441.99 1091.34C2441.99 1090.64 2441.99 1091.04 2441.99 1090.94C2442.09 1087.34 2444.39 1084.04 2447.79 1082.64C2448.29 1082.44 2448.79 1082.24 2449.29 1082.14C2449.89 1082.04 2450.49 1081.84 2451.09 1081.74C2451.59 1081.64 2452.09 1081.54 2452.49 1081.44C2454.99 1080.94 2457.69 1080.64 2460.29 1080.34C2460.89 1080.34 2461.59 1080.34 2462.29 1080.24C2481.79 1079.14 2503.29 1084.94 2515.69 1101.74C2532.29 1124.14 2528.59 1175.84 2526.99 1191.14L2527.09 1191.34Z" fill="black"/>
<path d="M1795.29 1250.24C1785.89 1250.24 1770.59 1245.94 1756.79 1222.54C1754.19 1218.14 1755.59 1212.34 1760.09 1209.74C1764.59 1207.14 1770.29 1208.54 1772.89 1213.04C1780.59 1226.04 1789.69 1232.94 1797.09 1231.44C1799.79 1230.84 1801.39 1229.34 1801.89 1228.34C1801.59 1228.14 1801.09 1227.94 1800.49 1227.84C1786.79 1223.84 1777.89 1211.04 1776.69 1193.44C1775.59 1176.84 1781.69 1156.84 1795.49 1150.74C1800.19 1148.64 1805.79 1150.74 1807.89 1155.54C1809.99 1160.24 1807.89 1165.84 1803.09 1167.94C1799.49 1169.54 1794.59 1180.04 1795.39 1192.24C1795.69 1196.74 1797.29 1207.44 1805.69 1209.84C1816.99 1213.04 1820.89 1221.34 1820.89 1228.04C1820.89 1237.54 1813.09 1246.54 1802.59 1249.44C1801.09 1249.84 1798.59 1250.34 1795.39 1250.34L1795.29 1250.24Z" fill="black"/>
<path d="M1760.49 1170.94C1755.49 1170.94 1751.29 1166.94 1751.09 1161.94C1749.99 1133.14 1755.69 1123.94 1770.99 1106.94C1774.49 1103.04 1780.39 1102.74 1784.19 1106.24C1787.99 1109.74 1788.39 1115.64 1784.89 1119.44C1772.19 1133.54 1768.99 1138.14 1769.79 1161.14C1769.99 1166.34 1765.99 1170.64 1760.79 1170.84C1760.69 1170.84 1760.59 1170.84 1760.39 1170.84L1760.49 1170.94Z" fill="black"/>
<path d="M2494.59 1212.04C2493.89 1210.44 2492.79 1208.94 2491.39 1207.94C2491.19 1207.84 2490.99 1207.64 2490.79 1207.54C2490.09 1207.14 2489.29 1206.84 2488.49 1206.64C2487.79 1206.44 2487.19 1206.34 2486.49 1206.34C2482.19 1206.14 2478.19 1208.94 2477.09 1213.34C2474.89 1221.74 2469.89 1227.94 2462.09 1231.74C2460.59 1232.54 2459.09 1233.04 2457.59 1233.54C2457.39 1233.54 2457.29 1233.54 2457.19 1233.64C2461.69 1226.54 2464.09 1217.64 2464.59 1208.34C2465.39 1194.94 2462.19 1180.54 2455.69 1169.44C2455.09 1168.34 2454.29 1167.54 2453.39 1166.74C2453.19 1166.64 2452.99 1166.44 2452.89 1166.34C2452.69 1166.24 2452.49 1166.04 2452.29 1165.94C2452.19 1165.94 2452.09 1165.84 2451.99 1165.74C2449.29 1164.34 2445.89 1164.34 2442.99 1165.94C2438.49 1168.54 2436.99 1174.24 2439.59 1178.74C2449.39 1195.64 2447.79 1221.64 2436.59 1228.44C2432.19 1231.14 2430.09 1234.14 2429.19 1236.84C2428.29 1239.64 2428.69 1242.14 2429.09 1243.54C2429.99 1246.64 2432.09 1249.14 2435.09 1250.94C2435.39 1251.14 2435.69 1251.34 2436.09 1251.44C2439.29 1252.94 2443.29 1253.74 2448.09 1253.74H2448.49C2463.19 1253.64 2479.79 1246.64 2489.29 1231.64C2491.79 1227.64 2493.89 1223.14 2495.19 1217.94C2495.69 1215.84 2495.59 1213.84 2494.79 1211.94L2494.59 1212.04Z" fill="black"/>
<path d="M2485.29 1159.04C2484.69 1159.04 2484.09 1159.04 2483.49 1158.84C2478.39 1157.84 2475.09 1152.94 2476.09 1147.84C2479.09 1132.64 2466.19 1128.94 2466.09 1128.94C2461.09 1127.64 2457.99 1122.64 2459.29 1117.54C2460.59 1112.54 2465.59 1109.44 2470.69 1110.74C2482.39 1113.64 2499.19 1127.34 2494.49 1151.44C2493.59 1155.94 2489.69 1159.04 2485.29 1159.04Z" fill="black"/>
<path d="M2360.79 1484.34V1487.54C2360.69 1487.54 2356.79 1594.54 2356.79 1594.54L2356.09 1613.74V1617.34C2355.99 1617.34 2355.89 1618.84 2355.89 1618.84C2355.69 1623.94 2351.59 1627.84 2346.49 1627.84C2341.39 1627.84 2346.29 1627.84 2346.19 1627.84C2342.29 1627.74 2339.09 1625.24 2337.79 1621.94C2337.79 1621.94 2337.79 1621.94 2337.79 1621.84V1621.64C2337.79 1621.44 2337.59 1621.14 2337.59 1620.94C2337.59 1620.64 2337.49 1620.44 2337.39 1620.14C2337.39 1619.94 2337.39 1619.64 2337.39 1619.34C2337.39 1618.94 2337.39 1618.64 2337.39 1618.24L2337.99 1602.54C2337.99 1602.44 2337.99 1602.34 2337.99 1602.24L2341.39 1508.04L2342.29 1483.64C2342.29 1481.64 2343.09 1479.74 2344.19 1478.24C2344.39 1478.04 2344.59 1477.84 2344.79 1477.54C2346.59 1475.64 2349.09 1474.54 2351.89 1474.64C2357.09 1474.84 2361.09 1479.14 2360.89 1484.34H2360.79Z" fill="black"/>
<path d="M1895.59 1489.74L1894.99 1513.54L1891.19 1656.84C1891.19 1657.44 1891.19 1658.04 1890.99 1658.64C1890.99 1658.84 1890.89 1659.14 1890.79 1659.34C1890.79 1659.44 1890.79 1659.64 1890.69 1659.74C1890.69 1659.94 1890.59 1660.14 1890.49 1660.34C1890.49 1660.44 1890.49 1660.54 1890.29 1660.64C1890.09 1661.04 1889.89 1661.44 1889.59 1661.74C1889.59 1661.84 1889.39 1661.94 1889.39 1662.04C1889.29 1662.24 1889.19 1662.34 1888.99 1662.54C1888.99 1662.54 1888.79 1662.74 1888.69 1662.84C1888.49 1663.04 1888.29 1663.24 1887.99 1663.44C1887.79 1663.64 1887.49 1663.84 1887.29 1664.04C1885.79 1665.14 1883.79 1665.84 1881.79 1665.84H1881.59C1876.39 1665.74 1872.29 1661.44 1872.49 1656.24V1651.74C1872.59 1651.74 1873.39 1622.74 1873.39 1622.74L1873.89 1603.34L1876.89 1492.64V1489.24C1877.09 1484.04 1881.49 1480.04 1886.59 1480.14C1889.29 1480.14 1891.69 1481.44 1893.39 1483.34C1893.59 1483.54 1893.79 1483.74 1893.99 1484.04C1895.19 1485.64 1895.89 1487.64 1895.79 1489.84L1895.59 1489.74Z" fill="black"/>
<path d="M2448.89 1725.44C2448.89 1725.24 2448.89 1725.14 2448.79 1724.94C2448.39 1723.44 2447.89 1721.94 2447.19 1720.64C2446.59 1719.54 2445.99 1718.44 2445.39 1717.14C2443.29 1713.04 2440.69 1707.94 2437.89 1702.24C2437.49 1701.34 2436.99 1700.44 2436.49 1699.54C2429.79 1686.34 2423.29 1673.34 2417.19 1661.64C2417.19 1661.44 2416.99 1661.34 2416.89 1661.14C2404.99 1638.44 2394.59 1620.24 2387.59 1612.44C2383.49 1607.94 2378.99 1604.44 2374.59 1601.84C2374.29 1601.64 2373.99 1601.54 2373.69 1601.34C2372.89 1600.94 2372.19 1600.54 2371.49 1600.14C2371.19 1599.94 2370.89 1599.84 2370.49 1599.64C2365.59 1597.24 2360.99 1595.74 2357.19 1594.84C2357.19 1594.84 2356.99 1594.84 2356.89 1594.84C2353.19 1593.94 2350.19 1593.64 2348.69 1593.54C2347.99 1593.54 2347.59 1593.54 2347.49 1593.54C2345.39 1593.54 2343.49 1594.04 2341.99 1595.14C2341.09 1595.74 2340.29 1596.44 2339.69 1597.34C2338.99 1598.24 2338.49 1599.24 2338.19 1600.34C2337.99 1601.04 2337.89 1601.84 2337.89 1602.64C2337.89 1602.74 2337.89 1602.84 2337.89 1602.94C2337.89 1603.54 2337.89 1604.24 2338.09 1604.84C2338.59 1607.34 2340.09 1609.44 2342.19 1610.84C2342.19 1610.84 2342.39 1610.84 2342.39 1610.94C2342.69 1611.14 2343.09 1611.34 2343.39 1611.44C2343.49 1611.44 2343.59 1611.44 2343.69 1611.54C2343.79 1611.54 2343.99 1611.64 2344.09 1611.64C2344.99 1611.94 2345.89 1612.14 2346.89 1612.14C2346.89 1612.14 2347.79 1612.14 2349.19 1612.34C2350.49 1612.54 2352.29 1612.84 2354.29 1613.44C2354.29 1613.44 2354.39 1613.44 2354.49 1613.44C2354.99 1613.54 2355.59 1613.74 2356.09 1613.94C2356.09 1613.94 2356.29 1613.94 2356.39 1613.94C2358.69 1614.74 2361.29 1615.74 2363.99 1617.24C2364.29 1617.44 2364.59 1617.54 2364.89 1617.74C2365.29 1617.94 2365.69 1618.24 2365.99 1618.44C2368.59 1620.14 2371.29 1622.24 2373.69 1624.94C2379.79 1631.64 2390.49 1650.94 2400.99 1671.14C2400.99 1671.34 2401.19 1671.44 2401.29 1671.64C2407.99 1684.44 2414.49 1697.44 2419.69 1707.84C2420.59 1709.74 2421.49 1711.54 2422.39 1713.24C2422.79 1713.94 2423.09 1714.54 2423.39 1715.24C2426.09 1720.54 2428.39 1725.14 2430.29 1728.74C2430.39 1728.94 2430.49 1729.14 2430.59 1729.34C2431.29 1731.24 2431.49 1742.24 2420.59 1764.44C2397.69 1811.14 2344.89 1868.84 2259.49 1913.54C2255.89 1915.44 2252.19 1917.34 2248.49 1919.14C2245.69 1920.54 2242.79 1921.94 2239.89 1923.24C2218.09 1933.54 2194.39 1942.94 2168.79 1951.24C2168.79 1948.74 2168.79 1945.94 2168.79 1942.84C2168.79 1931.54 2168.49 1916.74 2167.59 1901.14C2165.39 1864.64 2160.69 1839.34 2153.19 1824.64C2151.59 1821.44 2149.89 1818.84 2147.99 1816.64C2147.49 1816.04 2147.09 1815.54 2146.59 1815.04C2140.99 1809.34 2135.09 1808.04 2131.09 1808.04H2130.99C2130.79 1808.04 2130.59 1808.04 2130.49 1808.04C2130.29 1808.04 2130.09 1808.04 2129.99 1808.04C2129.79 1808.04 2129.49 1808.04 2129.29 1808.04C2129.09 1808.04 2128.89 1808.04 2128.69 1808.24C2128.49 1808.24 2128.29 1808.34 2128.09 1808.44C2127.89 1808.44 2127.59 1808.64 2127.39 1808.74C2127.09 1808.84 2126.89 1808.94 2126.59 1809.14C2126.39 1809.24 2126.19 1809.34 2125.99 1809.54C2125.79 1809.64 2125.69 1809.74 2125.49 1809.94C2125.29 1810.14 2125.09 1810.34 2124.79 1810.54C2124.39 1810.94 2123.99 1811.44 2123.59 1811.84C2121.79 1814.24 2111.09 1828.54 2095.29 1858.84C2086.89 1874.94 2077.09 1895.44 2066.29 1921.04C2064.79 1924.54 2063.29 1928.24 2061.79 1931.94C2056.79 1944.14 2051.69 1957.44 2046.39 1971.94C2046.39 1972.14 2046.29 1972.34 2046.19 1972.54C2045.99 1973.24 2045.69 1973.84 2045.49 1974.54C2034.89 2003.64 2023.29 2039.04 2011.39 2081.04C2009.49 2087.64 2007.69 2094.44 2005.79 2101.34C2003.89 2108.44 2001.89 2115.74 1999.99 2123.24C1998.19 2130.04 1996.49 2136.94 1994.69 2144.04C1990.49 2160.94 1986.29 2178.74 1982.09 2197.34C1980.69 2203.44 1979.39 2209.54 1978.09 2215.84C1958.39 2307.44 1939.69 2418.94 1925.49 2552.74C1925.29 2554.64 1925.09 2556.54 1924.89 2558.44C1924.59 2561.14 1925.49 2563.64 1927.09 2565.54C1928.59 2567.24 1930.79 2568.44 1933.19 2568.74C1933.49 2568.74 1933.89 2568.74 1934.19 2568.74C1934.99 2568.74 1935.79 2568.74 1936.49 2568.44C1940.19 2567.54 1943.09 2564.34 1943.49 2560.34C1943.99 2555.54 1944.49 2550.84 1944.99 2546.14C1951.69 2484.54 1959.29 2427.84 1967.49 2375.74C1972.69 2342.84 1978.09 2311.74 1983.69 2282.44C1987.69 2261.14 1991.89 2240.74 1995.99 2221.34C1997.29 2215.14 1998.69 2209.04 1999.99 2203.04C2004.99 2180.44 2010.09 2159.04 2015.19 2138.94C2016.89 2132.14 2018.59 2125.44 2020.39 2118.94C2022.29 2111.54 2024.29 2104.44 2026.19 2097.44C2028.09 2090.74 2029.89 2084.14 2031.79 2077.74C2038.99 2052.94 2045.99 2030.54 2052.69 2010.54C2056.29 1999.84 2059.79 1989.94 2063.19 1980.54C2063.19 1980.34 2063.39 1980.04 2063.49 1979.84C2064.09 1978.24 2064.69 1976.64 2065.19 1975.04C2082.99 1926.84 2099.29 1891.54 2112.09 1867.14C2120.09 1851.84 2126.69 1840.84 2131.29 1833.64C2132.39 1831.84 2133.39 1830.34 2134.29 1829.04C2138.29 1834.24 2145.99 1850.74 2148.99 1901.94C2150.89 1933.74 2149.99 1963.24 2149.99 1963.54C2149.99 1963.84 2149.99 1964.04 2149.99 1964.34C2150.09 1967.04 2151.39 1969.64 2153.59 1971.34C2155.99 1973.14 2159.09 1973.74 2161.99 1972.94C2188.79 1964.94 2214.29 1955.54 2238.19 1944.84C2244.79 1941.84 2251.39 1938.84 2257.79 1935.64C2295.39 1917.14 2328.99 1895.14 2358.49 1869.84C2396.89 1836.84 2427.29 1798.04 2441.89 1763.24C2445.09 1755.54 2448.29 1746.24 2449.39 1737.64C2449.99 1733.24 2449.99 1729.04 2449.09 1725.34L2448.89 1725.44Z" fill="black"/>
<path d="M2130.89 1826.84C2125.89 1826.84 2121.69 1822.84 2121.49 1817.74C2121.29 1812.54 2125.39 1808.24 2130.59 1808.04C2203.89 1805.84 2270.39 1746.64 2308.09 1692.04C2334.29 1654.14 2340.19 1628.74 2337.69 1621.54C2335.99 1616.64 2338.59 1611.34 2343.49 1609.64C2348.39 1607.94 2353.69 1610.54 2355.39 1615.44C2362.29 1635.64 2343.49 1673.74 2323.49 1702.64C2283.19 1761.04 2211.49 1824.24 2131.09 1826.64C2131.09 1826.64 2130.89 1826.64 2130.79 1826.64L2130.89 1826.84Z" fill="black"/>
<path d="M2054.29 1986.34C2053.79 1986.34 2053.39 1986.34 2052.89 1986.24C2047.79 1985.44 2044.29 1980.74 2044.99 1975.54C2055.19 1907.94 2035.39 1838.84 2017.99 1833.04C1993.39 1824.74 1954.59 1802.44 1923.69 1778.94C1894.99 1757.14 1859.89 1724.44 1855.39 1692.94C1853.69 1680.64 1855.89 1663.04 1876.29 1648.84C1880.49 1645.84 1886.39 1646.94 1889.29 1651.14C1892.29 1655.34 1891.19 1661.24 1886.99 1664.14C1876.59 1671.34 1872.49 1679.64 1873.99 1690.14C1876.79 1709.54 1898.99 1736.44 1935.09 1763.84C1969.49 1790.04 2005.29 1808.74 2023.99 1815.04C2057.79 1826.44 2073.19 1913.54 2063.49 1978.14C2062.79 1982.74 2058.79 1986.14 2054.19 1986.14L2054.29 1986.34Z" fill="black"/>
<path d="M2026.39 1831.84C2024.19 1833.44 2021.49 1833.84 2018.99 1833.24C2013.49 1838.24 2000.79 1855.34 1987.09 1883.64C1972.39 1914.04 1964.39 1941.74 1966.29 1955.94C1966.69 1959.44 1965.19 1962.94 1962.29 1964.84C1960.69 1965.94 1958.89 1966.44 1956.99 1966.44C1955.09 1966.44 1953.89 1966.04 1952.49 1965.24C1950.69 1964.24 1906.99 1939.94 1858.99 1899.04C1793.99 1843.64 1754.69 1787.04 1742.09 1730.74C1742.09 1730.74 1742.09 1730.54 1742.09 1730.44C1741.49 1727.74 1740.59 1722.04 1746.59 1709.84C1750.49 1701.84 1757.39 1691.04 1769.29 1676.54C1785.39 1656.94 1805.69 1636.54 1821.09 1624.74C1836.19 1613.14 1862.39 1605.94 1873.89 1603.24C1877.09 1602.44 1879.19 1602.04 1879.49 1601.94C1884.59 1600.94 1889.49 1604.24 1890.49 1609.24C1891.49 1614.34 1888.19 1619.24 1883.09 1620.24C1880.79 1620.74 1877.29 1621.54 1873.29 1622.54C1860.69 1625.84 1842.29 1631.84 1832.39 1639.54C1818.39 1650.34 1799.59 1669.14 1784.49 1687.44C1770.89 1703.94 1764.59 1714.74 1761.99 1720.94C1761.99 1720.94 1761.99 1720.94 1761.99 1721.04C1761.89 1721.24 1761.79 1721.54 1761.69 1721.74C1760.59 1724.34 1760.29 1726.04 1760.39 1726.74C1774.89 1791.54 1828.49 1848.34 1870.89 1884.54C1901.89 1910.94 1931.59 1930.54 1948.09 1940.84C1951.39 1916.34 1964.39 1887.34 1970.89 1874.14C1974.09 1867.54 1987.29 1841.34 2000.59 1825.64C2005.19 1820.14 2009.79 1815.94 2014.09 1814.34C2015.99 1813.64 2017.89 1813.34 2019.69 1813.44C2022.19 1813.54 2024.49 1814.44 2026.49 1815.94C2027.39 1816.64 2028.29 1817.54 2028.99 1818.64C2031.99 1822.84 2030.89 1828.74 2026.69 1831.64L2026.39 1831.84Z" fill="black"/>
<path d="M3261.79 3611.64H3242.99C3230.69 3473.84 3231.09 3274.04 3235.89 3112.84C3241.69 2919.74 3247.59 2720.14 3227.49 2542.04C3218.89 2465.74 3205.89 2398.14 3188.29 2338.94C3188.29 2338.94 3188.29 2338.94 3188.29 2338.84C3174.59 2292.64 3157.99 2251.54 3138.69 2215.34C3125.79 2191.14 3111.49 2169.14 3095.99 2149.24C3095.19 2148.14 3094.29 2147.04 3093.49 2146.04C3084.39 2134.64 3074.89 2123.84 3064.89 2113.84C2971.69 2020.34 2842.89 1931.04 2720.89 1861.84C2693.69 1846.34 2666.79 1831.94 2640.69 1818.64C2566.79 1780.94 2499.39 1752.64 2449.29 1737.64C2448.69 1737.44 2447.99 1737.24 2447.39 1737.04C2444.49 1736.14 2441.69 1735.34 2438.89 1734.64C2438.09 1734.44 2437.29 1734.24 2436.59 1734.04C2435.89 1733.84 2435.29 1733.64 2434.69 1733.24C2434.49 1733.14 2434.29 1732.94 2433.99 1732.84C2432.59 1731.94 2431.49 1730.74 2430.79 1729.34C2430.69 1729.14 2430.59 1728.94 2430.49 1728.64C2430.39 1728.34 2430.29 1728.04 2430.19 1727.74C2429.69 1726.14 2429.59 1724.34 2430.19 1722.64C2430.49 1721.64 2430.89 1720.64 2431.49 1719.84C2433.69 1716.64 2437.69 1715.04 2441.69 1716.04C2441.89 1716.04 2441.99 1716.04 2442.19 1716.14C2443.39 1716.44 2444.49 1716.74 2445.69 1717.14H2445.89C2487.99 1728.84 2541.39 1750.04 2600.09 1777.84C2601.79 1778.64 2603.49 1779.44 2605.19 1780.24C2610.19 1782.64 2615.19 1785.04 2620.29 1787.54C2620.29 1787.54 2620.49 1787.54 2620.59 1787.64C2629.19 1791.84 2637.79 1796.14 2646.59 1800.64C2674.49 1814.84 2703.09 1830.24 2731.99 1846.74C2737.39 1849.84 2742.89 1852.94 2748.29 1856.14C2880.89 1933.24 2998.19 2020.04 3078.69 2100.74C3091.99 2114.04 3104.59 2128.64 3116.39 2144.54C3116.59 2144.74 3116.69 2144.94 3116.89 2145.14C3117.99 2146.54 3118.99 2148.04 3120.09 2149.54C3132.99 2167.34 3145.09 2186.64 3156.19 2207.34C3169.99 2233.14 3182.29 2261.14 3193.19 2291.24C3200.19 2310.84 3206.69 2331.34 3212.59 2352.84C3212.59 2352.84 3212.59 2352.94 3212.59 2353.04C3227.69 2408.14 3238.89 2469.94 3246.79 2540.04C3266.99 2719.44 3261.09 2919.74 3255.29 3113.44C3250.49 3274.74 3250.09 3474.94 3262.49 3611.74L3261.79 3611.64Z" fill="black"/>
<path d="M2835.39 2263.54C2796.59 2297.14 2770.59 2379.74 2755.89 2515.94C2742.69 2638.34 2740.19 2788.44 2737.69 2933.54L2737.19 2963.34C2735.49 3059.84 2730.49 3159.34 2725.69 3255.54C2718.99 3387.24 2712.69 3512.94 2716.19 3611.74H2697.39C2693.99 3512.14 2700.29 3386.34 2706.99 3254.54C2711.79 3158.44 2716.89 3059.14 2718.49 2962.94L2718.99 2933.14C2721.39 2787.64 2723.99 2637.14 2737.29 2513.84C2752.69 2370.74 2779.99 2286.74 2823.09 2249.34C2824.79 2247.84 2826.89 2247.14 2828.99 2247.04C2830.49 2247.04 2831.89 2247.34 2833.29 2247.94C2833.39 2247.94 2833.49 2248.04 2833.59 2248.14C2833.59 2248.14 2833.79 2248.14 2833.89 2248.34C2834.79 2248.84 2835.59 2249.54 2836.29 2250.34C2839.69 2254.24 2839.29 2260.14 2835.39 2263.54Z" fill="black"/>
<path d="M2214.19 2622.54C2188.89 2644.04 2127.79 2659.24 2056.49 2659.24C1985.19 2659.24 1923.99 2644.04 1898.69 2622.54C1923.99 2601.04 1985.09 2585.84 2056.49 2585.84C2127.89 2585.84 2188.99 2601.04 2214.19 2622.54Z" fill="black"/>
<path d="M2220.19 2615.34C2218.89 2614.24 2217.59 2613.24 2216.19 2612.14C2215.29 2611.44 2214.29 2610.74 2213.19 2610.04C2212.99 2609.94 2212.79 2609.84 2212.69 2609.64C2212.29 2609.34 2211.89 2609.14 2211.49 2608.84C2210.99 2608.44 2210.39 2608.14 2209.89 2607.84C2209.39 2607.54 2208.79 2607.14 2208.19 2606.84C2207.39 2606.34 2206.49 2605.84 2205.69 2605.34C2204.79 2604.84 2203.99 2604.44 2203.09 2603.94C2202.39 2603.54 2201.69 2603.24 2200.99 2602.94C2200.39 2602.64 2199.69 2602.34 2199.09 2602.04C2198.09 2601.54 2197.19 2601.14 2196.19 2600.64C2195.19 2600.14 2194.19 2599.74 2193.19 2599.34C2191.99 2598.84 2190.69 2598.24 2189.39 2597.74C2189.29 2597.74 2189.09 2597.64 2188.99 2597.54C2188.29 2597.24 2187.59 2596.94 2186.79 2596.64C2185.89 2596.34 2185.09 2595.94 2184.19 2595.64C2183.59 2595.44 2182.99 2595.14 2182.29 2594.94C2180.79 2594.34 2179.19 2593.84 2177.69 2593.34C2176.99 2593.14 2176.29 2592.94 2175.59 2592.64C2174.49 2592.34 2173.49 2591.94 2172.39 2591.64C2169.29 2590.74 2166.09 2589.74 2162.89 2588.94C2160.29 2588.24 2157.69 2587.54 2154.99 2586.94C2154.19 2586.74 2153.29 2586.54 2152.39 2586.34C2145.99 2584.84 2139.39 2583.54 2132.59 2582.44C2131.59 2582.24 2130.69 2582.14 2129.69 2581.94C2127.99 2581.64 2126.29 2581.44 2124.49 2581.14C2124.09 2581.14 2123.69 2581.04 2123.39 2580.94C2122.49 2580.84 2121.69 2580.74 2120.79 2580.54C2119.79 2580.44 2118.79 2580.24 2117.79 2580.14C2116.99 2580.04 2116.09 2579.94 2115.29 2579.84C2114.09 2579.74 2112.89 2579.54 2111.69 2579.44C2110.69 2579.34 2109.59 2579.24 2108.59 2579.14C2106.39 2578.94 2104.19 2578.64 2101.89 2578.44C2100.29 2578.34 2098.59 2578.14 2096.99 2578.04C2094.19 2577.84 2091.49 2577.64 2088.69 2577.44C2087.89 2577.44 2087.19 2577.34 2086.49 2577.34C2085.79 2577.34 2084.99 2577.34 2084.29 2577.24C2083.49 2577.24 2082.69 2577.24 2081.89 2577.14C2081.19 2577.14 2080.49 2577.14 2079.79 2577.14C2078.79 2577.14 2077.69 2577.14 2076.69 2577.04C2074.49 2577.04 2072.29 2576.84 2070.09 2576.84C2069.39 2576.84 2068.59 2576.84 2067.89 2576.84C2067.29 2576.84 2066.69 2576.84 2065.99 2576.84C2064.99 2576.84 2063.89 2576.84 2062.89 2576.84C2060.89 2576.84 2058.79 2576.84 2056.69 2576.84C2054.59 2576.84 2052.59 2576.84 2050.49 2576.84C2049.49 2576.84 2048.39 2576.84 2047.39 2576.84C2046.79 2576.84 2046.19 2576.84 2045.59 2576.84C2044.79 2576.84 2044.09 2576.84 2043.39 2576.84C2041.19 2576.84 2038.99 2576.94 2036.79 2577.04C2035.79 2577.04 2034.79 2577.04 2033.79 2577.14C2033.09 2577.14 2032.39 2577.14 2031.59 2577.14C2030.79 2577.14 2029.99 2577.14 2029.19 2577.24C2028.39 2577.24 2027.69 2577.24 2026.99 2577.34C2026.19 2577.34 2025.39 2577.34 2024.69 2577.44C2021.99 2577.64 2019.29 2577.84 2016.69 2578.04C2014.99 2578.14 2013.29 2578.34 2011.49 2578.44C2009.29 2578.64 2006.99 2578.84 2004.79 2579.14C2003.79 2579.24 2002.69 2579.34 2001.69 2579.44C2000.49 2579.54 1999.29 2579.74 1997.99 2579.84C1997.19 2579.94 1996.39 2580.04 1995.59 2580.14C1994.59 2580.24 1993.59 2580.44 1992.49 2580.54C1991.69 2580.64 1990.99 2580.74 1990.19 2580.84C1989.69 2580.84 1989.19 2580.94 1988.79 2581.04C1987.09 2581.34 1985.29 2581.54 1983.59 2581.84C1982.79 2581.94 1981.99 2582.04 1981.29 2582.24C1974.19 2583.44 1967.39 2584.74 1960.89 2586.24C1959.99 2586.44 1959.19 2586.64 1958.29 2586.84C1955.59 2587.44 1952.99 2588.14 1950.39 2588.84C1949.29 2589.14 1948.19 2589.44 1947.09 2589.74C1946.59 2589.84 1945.99 2590.04 1945.49 2590.24C1944.99 2590.34 1944.39 2590.54 1943.89 2590.74C1942.89 2591.04 1941.79 2591.34 1940.79 2591.64C1939.69 2591.94 1938.69 2592.34 1937.59 2592.64C1936.89 2592.84 1936.19 2593.04 1935.49 2593.34C1935.19 2593.34 1934.89 2593.54 1934.59 2593.64C1933.29 2594.04 1932.09 2594.54 1930.79 2594.94C1930.19 2595.14 1929.59 2595.34 1928.89 2595.64C1927.99 2595.94 1927.09 2596.24 1926.29 2596.64C1925.69 2596.84 1925.09 2597.14 1924.49 2597.34C1924.49 2597.34 1924.39 2597.34 1924.29 2597.34H1924.09C1923.99 2597.34 1923.79 2597.44 1923.69 2597.54C1922.39 2598.04 1921.09 2598.54 1919.89 2599.14C1919.09 2599.44 1918.39 2599.84 1917.59 2600.14C1916.79 2600.44 1916.09 2600.84 1915.39 2601.14C1914.89 2601.34 1914.49 2601.54 1913.99 2601.84C1913.29 2602.14 1912.69 2602.44 1912.09 2602.74C1911.39 2603.04 1910.69 2603.44 1909.99 2603.74C1909.09 2604.24 1908.19 2604.64 1907.39 2605.14C1906.49 2605.64 1905.69 2606.14 1904.89 2606.64C1904.29 2606.94 1903.79 2607.34 1903.19 2607.64C1902.59 2607.94 1902.09 2608.34 1901.59 2608.64C1901.19 2608.94 1900.79 2609.14 1900.39 2609.44C1900.19 2609.54 1899.99 2609.64 1899.89 2609.84C1898.89 2610.54 1897.89 2611.24 1896.89 2611.94C1895.49 2612.94 1894.09 2614.04 1892.89 2615.14C1890.79 2616.94 1889.59 2619.54 1889.59 2622.24C1889.59 2624.84 1890.59 2627.24 1892.49 2629.04C1892.59 2629.14 1892.69 2629.24 1892.89 2629.34C1894.69 2630.84 1896.59 2632.34 1898.69 2633.84C1902.99 2636.84 1907.89 2639.64 1913.29 2642.24C1915.99 2643.54 1918.89 2644.84 1921.79 2646.14C1924.89 2647.44 1928.19 2648.74 1931.69 2649.94C1934.49 2650.94 1937.29 2651.84 1940.29 2652.74C1971.89 2662.54 2012.99 2668.24 2056.79 2668.24C2123.89 2668.24 2184.49 2654.84 2214.79 2633.74C2216.89 2632.34 2218.79 2630.84 2220.59 2629.24C2220.69 2629.14 2220.79 2629.04 2220.99 2628.94C2222.89 2627.14 2223.89 2624.74 2223.89 2622.14C2223.89 2619.54 2222.69 2616.74 2220.59 2615.04L2220.19 2615.34ZM2056.39 2649.84C2012.49 2649.84 1970.99 2643.84 1940.89 2633.74C1937.89 2632.74 1934.99 2631.74 1932.29 2630.64C1928.89 2629.34 1925.59 2627.94 1922.59 2626.44C1919.89 2625.14 1917.39 2623.84 1914.99 2622.44C1916.19 2621.74 1917.39 2621.04 1918.69 2620.44C1919.19 2620.14 1919.79 2619.84 1920.29 2619.64C1920.69 2619.44 1921.09 2619.24 1921.49 2619.04C1921.99 2618.74 1922.49 2618.54 1923.09 2618.24C1924.59 2617.54 1926.09 2616.84 1927.59 2616.24C1928.19 2616.04 1928.69 2615.74 1929.29 2615.54C1929.89 2615.24 1930.59 2615.04 1931.19 2614.74C1931.79 2614.44 1932.49 2614.24 1933.09 2613.94C1935.09 2613.14 1937.09 2612.44 1939.19 2611.74C1939.89 2611.54 1940.59 2611.24 1941.29 2611.04C1941.59 2611.04 1941.89 2610.84 1942.19 2610.74C1942.59 2610.64 1943.09 2610.44 1943.49 2610.34C1944.19 2610.14 1944.99 2609.84 1945.69 2609.64C1946.39 2609.44 1947.19 2609.14 1947.89 2608.94C1950.89 2608.04 1953.99 2607.24 1957.19 2606.44C1957.99 2606.24 1958.79 2606.04 1959.59 2605.84C1961.99 2605.24 1964.49 2604.64 1967.09 2604.14C1967.89 2603.94 1968.69 2603.74 1969.49 2603.64C1970.39 2603.44 1971.29 2603.24 1972.19 2603.04C1973.09 2602.84 1973.89 2602.74 1974.79 2602.54C1975.69 2602.34 1976.49 2602.24 1977.39 2602.04C1978.29 2601.84 1979.09 2601.74 1979.99 2601.54C1982.69 2601.04 1985.39 2600.64 1988.19 2600.24C1988.79 2600.14 1989.39 2600.04 1989.99 2599.94C1991.09 2599.74 1992.29 2599.64 1993.39 2599.44C1994.19 2599.34 1994.99 2599.24 1995.89 2599.14C1996.29 2599.14 1996.79 2599.04 1997.19 2598.94C1997.89 2598.94 1998.69 2598.74 1999.39 2598.64C2005.69 2597.84 2012.19 2597.14 2018.79 2596.64C2019.69 2596.64 2020.49 2596.54 2021.39 2596.44C2022.19 2596.44 2022.99 2596.34 2023.79 2596.24C2024.69 2596.24 2025.69 2596.14 2026.59 2596.04C2027.49 2596.04 2028.39 2595.94 2029.19 2595.84C2033.09 2595.64 2037.09 2595.44 2041.19 2595.34C2042.09 2595.34 2042.99 2595.34 2043.89 2595.34C2044.89 2595.34 2045.89 2595.34 2046.89 2595.34C2049.99 2595.34 2053.19 2595.34 2056.29 2595.34C2059.39 2595.34 2062.59 2595.34 2065.69 2595.34C2066.69 2595.34 2067.69 2595.34 2068.69 2595.34C2069.59 2595.34 2070.49 2595.34 2071.39 2595.34C2073.59 2595.34 2075.79 2595.54 2077.89 2595.54C2078.59 2595.54 2079.39 2595.54 2080.09 2595.64C2081.19 2595.64 2082.29 2595.74 2083.29 2595.84C2084.19 2595.84 2085.09 2595.84 2085.89 2596.04C2086.89 2596.04 2087.79 2596.14 2088.69 2596.24C2089.49 2596.24 2090.29 2596.34 2091.09 2596.44C2091.99 2596.44 2092.79 2596.54 2093.69 2596.64C2098.49 2597.04 2103.19 2597.44 2107.79 2598.04C2108.59 2598.04 2109.49 2598.24 2110.29 2598.34C2111.29 2598.44 2112.19 2598.54 2113.09 2598.74C2113.79 2598.74 2114.49 2598.94 2115.29 2599.04C2115.69 2599.04 2116.19 2599.14 2116.59 2599.24C2117.39 2599.34 2118.29 2599.44 2119.09 2599.54C2120.29 2599.74 2121.39 2599.84 2122.49 2600.04C2123.09 2600.04 2123.69 2600.24 2124.29 2600.34C2133.09 2601.64 2141.39 2603.24 2149.29 2605.14C2149.99 2605.34 2150.69 2605.44 2151.39 2605.64C2156.79 2606.94 2161.89 2608.34 2166.79 2609.84C2167.49 2610.04 2168.29 2610.34 2168.99 2610.54C2169.69 2610.74 2170.39 2611.04 2171.19 2611.24C2171.89 2611.44 2172.59 2611.74 2173.29 2611.94C2176.09 2612.94 2178.79 2613.94 2181.39 2614.94C2181.99 2615.24 2182.69 2615.44 2183.29 2615.74C2183.89 2615.94 2184.39 2616.24 2184.99 2616.44C2187.09 2617.34 2189.09 2618.24 2191.09 2619.24C2191.49 2619.44 2191.89 2619.64 2192.29 2619.84C2192.79 2620.14 2193.39 2620.44 2193.89 2620.64C2195.19 2621.34 2196.39 2621.94 2197.59 2622.64C2168.89 2639.24 2114.69 2649.94 2056.19 2649.94L2056.39 2649.84Z" fill="black"/>
<path d="M1943.69 2590.84C1944.19 2590.64 1944.79 2590.54 1945.29 2590.44C1944.79 2590.54 1944.19 2590.74 1943.69 2590.84ZM1924.19 2597.44C1924.19 2597.44 1924.29 2597.44 1924.39 2597.44C1924.39 2597.44 1924.29 2597.44 1924.19 2597.44ZM1915.19 2601.34C1914.69 2601.54 1914.29 2601.74 1913.79 2602.04C1913.09 2602.34 1912.49 2602.64 1911.89 2602.94C1911.19 2603.24 1910.49 2603.64 1909.79 2603.94C1908.89 2604.44 1907.99 2604.84 1907.19 2605.34C1906.29 2605.84 1905.49 2606.34 1904.69 2606.84C1904.09 2607.14 1903.59 2607.54 1902.99 2607.84C1902.39 2608.14 1901.89 2608.54 1901.39 2608.84C1900.99 2609.14 1900.59 2609.34 1900.19 2609.64C1899.99 2609.74 1899.79 2609.84 1899.69 2610.04C1897.69 2607.44 1896.39 2604.94 1895.89 2602.54L1896.59 2611.34V2612.14L1898.29 2631.74C1900.59 2631.84 1902.89 2631.14 1904.79 2629.54C1905.39 2629.04 1905.89 2628.54 1906.49 2628.14C1908.69 2626.34 1911.19 2624.64 1913.99 2623.04C1914.19 2619.34 1914.39 2615.64 1914.59 2612.04C1914.79 2608.44 1914.99 2604.84 1915.19 2601.34C1915.89 2600.94 1916.69 2600.64 1917.39 2600.34C1916.59 2600.64 1915.89 2601.04 1915.19 2601.34ZM1943.69 2590.84C1944.19 2590.64 1944.79 2590.54 1945.29 2590.34C1944.79 2590.44 1944.19 2590.64 1943.69 2590.74V2590.84ZM1924.39 2597.44C1924.39 2597.44 1924.29 2597.44 1924.19 2597.44C1924.19 2597.44 1924.29 2597.44 1924.39 2597.44ZM1913.79 2602.04C1914.29 2601.84 1914.69 2601.64 1915.19 2601.34C1915.89 2600.94 1916.69 2600.64 1917.39 2600.34C1916.59 2600.64 1915.89 2601.04 1915.19 2601.34C1914.69 2601.54 1914.29 2601.74 1913.79 2602.04ZM1896.49 2611.44V2612.24C1897.49 2611.54 1898.49 2610.84 1899.49 2610.14C1897.49 2607.54 1896.19 2605.04 1895.69 2602.64L1896.39 2611.44H1896.49ZM2235.99 2599.94C2235.39 2555.94 2143.19 2532.24 2056.39 2532.24C1969.59 2532.24 1979.19 2536.84 1947.29 2545.64C1946.39 2545.84 1945.59 2546.14 1944.69 2546.34C1942.29 2547.04 1939.99 2547.74 1937.69 2548.44C1934.29 2549.54 1930.99 2550.64 1927.89 2551.84C1926.99 2552.24 1925.99 2552.54 1925.09 2552.94C1922.79 2553.84 1920.49 2554.74 1918.29 2555.74C1892.99 2566.84 1876.69 2581.84 1876.69 2600.44C1876.69 2619.04 1876.79 2603.54 1877.09 2605.14C1878.39 2613.74 1883.49 2621.94 1892.09 2629.34C1892.19 2629.44 1892.29 2629.54 1892.49 2629.64C1894.09 2631.04 1896.09 2631.74 1898.09 2631.84C1900.39 2631.94 1902.69 2631.24 1904.59 2629.64C1905.19 2629.14 1905.69 2628.64 1906.29 2628.24C1908.49 2626.44 1910.99 2624.74 1913.79 2623.14C1914.19 2622.94 1914.49 2622.74 1914.89 2622.54C1916.09 2621.84 1917.29 2621.14 1918.59 2620.54C1919.09 2620.24 1919.69 2619.94 1920.19 2619.74C1920.59 2619.54 1920.99 2619.34 1921.39 2619.14C1921.89 2618.84 1922.39 2618.64 1922.99 2618.34C1924.49 2617.64 1925.99 2616.94 1927.49 2616.34C1928.09 2616.14 1928.59 2615.84 1929.19 2615.64C1929.79 2615.34 1930.49 2615.14 1931.09 2614.84C1931.69 2614.54 1932.39 2614.34 1932.99 2614.04C1934.99 2613.24 1936.99 2612.54 1939.09 2611.84C1939.79 2611.64 1940.49 2611.34 1941.19 2611.14C1941.49 2611.14 1941.79 2610.94 1942.09 2610.84C1942.49 2610.74 1942.99 2610.54 1943.39 2610.44C1944.09 2610.24 1944.89 2609.94 1945.59 2609.74C1946.29 2609.54 1947.09 2609.24 1947.79 2609.04C1950.79 2608.14 1953.89 2607.34 1957.09 2606.54C1957.89 2606.34 1958.69 2606.14 1959.49 2605.94C1961.89 2605.34 1964.39 2604.74 1966.99 2604.24C1967.79 2604.04 1968.59 2603.84 1969.39 2603.74C1970.29 2603.54 1971.19 2603.34 1972.09 2603.14C1972.99 2602.94 1973.79 2602.84 1974.69 2602.64C1975.59 2602.44 1976.39 2602.34 1977.29 2602.14C1978.19 2601.94 1978.99 2601.84 1979.89 2601.64C1982.59 2601.14 1985.29 2600.74 1988.09 2600.34C1988.69 2600.24 1989.29 2600.14 1989.89 2600.04C1990.99 2599.84 1992.19 2599.74 1993.29 2599.54C1994.09 2599.44 1994.89 2599.34 1995.79 2599.24C1996.19 2599.24 1996.69 2599.14 1997.09 2599.04C1997.79 2599.04 1998.59 2598.84 1999.29 2598.74C2005.59 2597.94 2012.09 2597.24 2018.69 2596.74C2019.59 2596.74 2020.39 2596.64 2021.29 2596.54C2022.09 2596.54 2022.89 2596.44 2023.69 2596.34C2024.59 2596.34 2025.59 2596.24 2026.49 2596.14C2027.39 2596.14 2028.29 2596.04 2029.09 2595.94C2032.99 2595.74 2036.99 2595.54 2041.09 2595.44C2041.99 2595.44 2042.89 2595.44 2043.79 2595.44C2044.79 2595.44 2045.79 2595.44 2046.79 2595.44C2049.89 2595.44 2053.09 2595.44 2056.19 2595.44C2059.29 2595.44 2062.49 2595.44 2065.59 2595.44C2066.59 2595.44 2067.59 2595.44 2068.59 2595.44C2069.49 2595.44 2070.39 2595.44 2071.29 2595.44C2073.49 2595.44 2075.69 2595.64 2077.79 2595.64C2078.49 2595.64 2079.29 2595.64 2079.99 2595.74C2081.09 2595.74 2082.19 2595.84 2083.19 2595.94C2084.09 2595.94 2084.99 2595.94 2085.79 2596.14C2086.79 2596.14 2087.69 2596.24 2088.59 2596.34C2089.39 2596.34 2090.19 2596.44 2090.99 2596.54C2091.89 2596.54 2092.69 2596.64 2093.59 2596.74C2098.39 2597.14 2103.09 2597.54 2107.69 2598.14C2108.49 2598.14 2109.39 2598.34 2110.19 2598.44C2111.19 2598.54 2112.09 2598.64 2112.99 2598.84C2113.69 2598.84 2114.39 2599.04 2115.19 2599.14C2115.59 2599.14 2116.09 2599.24 2116.49 2599.34C2117.29 2599.44 2118.19 2599.54 2118.99 2599.64C2120.19 2599.84 2121.29 2599.94 2122.39 2600.14C2122.99 2600.14 2123.59 2600.34 2124.19 2600.44C2132.99 2601.74 2141.29 2603.34 2149.19 2605.24C2149.89 2605.44 2150.59 2605.54 2151.29 2605.74C2156.69 2607.04 2161.79 2608.44 2166.69 2609.94C2167.39 2610.14 2168.19 2610.34 2168.89 2610.64C2169.59 2610.84 2170.29 2611.14 2171.09 2611.34C2171.79 2611.54 2172.49 2611.84 2173.19 2612.04C2175.99 2613.04 2178.69 2614.04 2181.29 2615.04C2181.89 2615.34 2182.59 2615.54 2183.19 2615.84C2183.79 2616.04 2184.29 2616.34 2184.89 2616.54C2186.99 2617.44 2188.99 2618.34 2190.99 2619.34C2191.39 2619.54 2191.79 2619.74 2192.19 2619.94C2192.69 2620.24 2193.29 2620.54 2193.79 2620.74C2195.09 2621.44 2196.29 2622.04 2197.49 2622.74C2200.69 2624.54 2203.49 2626.44 2205.99 2628.44C2206.59 2628.94 2207.19 2629.34 2207.69 2629.84C2209.49 2631.34 2211.59 2632.04 2213.79 2632.04C2215.99 2632.04 2214.09 2632.04 2214.19 2632.04C2216.19 2632.04 2218.19 2631.24 2219.79 2629.84C2219.89 2629.74 2219.99 2629.64 2220.19 2629.54C2228.89 2622.04 2233.89 2613.94 2235.19 2605.24C2235.39 2603.64 2235.49 2602.14 2235.49 2600.64C2235.49 2599.14 2235.49 2600.34 2235.49 2600.14L2235.99 2599.94ZM1916.79 2577.44C1919.69 2575.84 1922.79 2574.34 1926.29 2572.84C1929.39 2571.44 1932.69 2570.14 1936.29 2568.84C1939.29 2567.74 1942.39 2566.64 1945.69 2565.64C1973.09 2557.04 2010.69 2550.94 2056.49 2550.94C2155.59 2550.94 2216.69 2579.44 2217.29 2600.04C2217.29 2600.14 2217.29 2600.24 2217.29 2600.34C2217.29 2601.04 2217.29 2601.74 2217.09 2602.54C2216.59 2605.04 2215.39 2607.54 2213.29 2610.04C2213.09 2609.94 2212.89 2609.84 2212.79 2609.64C2212.39 2609.34 2211.99 2609.14 2211.59 2608.84C2211.09 2608.44 2210.49 2608.14 2209.99 2607.84C2209.49 2607.54 2208.89 2607.14 2208.29 2606.84C2207.49 2606.34 2206.59 2605.84 2205.79 2605.34C2204.89 2604.84 2204.09 2604.34 2203.19 2603.94C2202.49 2603.54 2201.79 2603.24 2201.09 2602.94C2200.49 2602.64 2199.79 2602.34 2199.19 2602.04C2198.19 2601.54 2197.29 2601.14 2196.29 2600.64C2195.29 2600.14 2194.29 2599.74 2193.29 2599.34C2192.09 2598.84 2190.79 2598.24 2189.49 2597.74C2189.39 2597.74 2189.19 2597.64 2189.09 2597.54C2188.39 2597.24 2187.69 2596.94 2186.89 2596.64C2185.99 2596.34 2185.19 2595.94 2184.29 2595.64C2183.69 2595.44 2183.09 2595.14 2182.39 2594.94C2180.89 2594.34 2179.29 2593.84 2177.79 2593.34C2177.09 2593.14 2176.39 2592.94 2175.69 2592.64C2174.59 2592.34 2173.59 2591.94 2172.49 2591.64C2169.39 2590.74 2166.19 2589.74 2162.99 2588.94C2160.39 2588.24 2157.79 2587.54 2155.09 2586.94C2154.29 2586.74 2153.39 2586.54 2152.49 2586.34C2146.09 2584.84 2139.49 2583.54 2132.69 2582.44C2131.69 2582.24 2130.79 2582.14 2129.79 2581.94C2128.09 2581.64 2126.39 2581.44 2124.59 2581.14C2124.19 2581.14 2123.79 2581.04 2123.49 2580.94C2122.59 2580.84 2121.79 2580.74 2120.89 2580.54C2119.89 2580.44 2118.89 2580.24 2117.89 2580.14C2117.09 2580.04 2116.19 2579.94 2115.39 2579.84C2114.19 2579.74 2112.99 2579.54 2111.79 2579.44C2110.79 2579.34 2109.69 2579.24 2108.69 2579.14C2106.49 2578.94 2104.29 2578.64 2101.99 2578.44C2100.39 2578.34 2098.69 2578.14 2097.09 2578.04C2094.29 2577.84 2091.59 2577.64 2088.79 2577.44C2087.99 2577.44 2087.29 2577.34 2086.59 2577.34C2085.89 2577.34 2085.09 2577.34 2084.39 2577.24C2083.59 2577.24 2082.79 2577.24 2081.99 2577.14C2081.29 2577.14 2080.59 2577.14 2079.89 2577.14C2078.89 2577.14 2077.79 2577.14 2076.79 2577.04C2074.59 2577.04 2072.39 2576.84 2070.19 2576.84C2069.49 2576.84 2068.69 2576.84 2067.99 2576.84C2067.39 2576.84 2066.79 2576.84 2066.09 2576.84C2065.09 2576.84 2063.99 2576.84 2062.99 2576.84C2060.99 2576.84 2058.89 2576.84 2056.79 2576.84C2054.69 2576.84 2052.69 2576.84 2050.59 2576.84C2049.59 2576.84 2048.49 2576.84 2047.49 2576.84C2046.89 2576.84 2046.29 2576.84 2045.69 2576.84C2044.89 2576.84 2044.19 2576.84 2043.49 2576.84C2041.29 2576.84 2039.09 2576.94 2036.89 2577.04C2035.89 2577.04 2034.89 2577.04 2033.89 2577.14C2033.19 2577.14 2032.49 2577.14 2031.69 2577.14C2030.89 2577.14 2030.09 2577.14 2029.29 2577.24C2028.49 2577.24 2027.79 2577.24 2027.09 2577.34C2026.29 2577.34 2025.49 2577.34 2024.79 2577.44C2022.09 2577.64 2019.39 2577.84 2016.79 2578.04C2015.09 2578.14 2013.39 2578.34 2011.59 2578.44C2009.39 2578.64 2007.09 2578.84 2004.89 2579.14C2003.89 2579.24 2002.79 2579.34 2001.79 2579.44C2000.59 2579.54 1999.39 2579.74 1998.09 2579.84C1997.29 2579.94 1996.49 2580.04 1995.69 2580.14C1994.69 2580.24 1993.69 2580.44 1992.59 2580.54C1991.79 2580.64 1991.09 2580.74 1990.29 2580.84C1989.79 2580.84 1989.29 2580.94 1988.89 2581.04C1987.19 2581.34 1985.39 2581.54 1983.69 2581.84C1982.89 2581.94 1982.09 2582.04 1981.39 2582.24C1974.29 2583.44 1967.49 2584.74 1960.99 2586.24C1960.09 2586.44 1959.29 2586.64 1958.39 2586.84C1955.69 2587.44 1953.09 2588.14 1950.49 2588.84C1949.39 2589.14 1948.29 2589.44 1947.19 2589.74C1946.69 2589.84 1946.09 2590.04 1945.59 2590.24C1945.09 2590.34 1944.49 2590.54 1943.99 2590.64C1942.99 2590.94 1941.89 2591.24 1940.89 2591.54C1939.79 2591.84 1938.79 2592.24 1937.69 2592.54C1936.99 2592.74 1936.29 2592.94 1935.59 2593.24C1935.29 2593.24 1934.99 2593.44 1934.69 2593.54C1933.39 2593.94 1932.19 2594.44 1930.89 2594.84C1930.29 2595.04 1929.69 2595.24 1928.99 2595.54C1928.09 2595.84 1927.19 2596.14 1926.39 2596.54C1925.79 2596.74 1925.19 2597.04 1924.59 2597.24C1924.59 2597.24 1924.49 2597.24 1924.39 2597.24H1924.19C1924.09 2597.24 1923.89 2597.34 1923.79 2597.44C1922.49 2597.94 1921.19 2598.44 1919.99 2599.04C1919.19 2599.34 1918.49 2599.74 1917.69 2600.04C1916.89 2600.34 1916.19 2600.74 1915.49 2601.04C1914.99 2601.24 1914.59 2601.44 1914.09 2601.74C1913.39 2602.04 1912.79 2602.34 1912.19 2602.64C1911.49 2602.94 1910.79 2603.34 1910.09 2603.64C1909.19 2604.14 1908.29 2604.54 1907.49 2605.04C1906.59 2605.54 1905.79 2606.04 1904.99 2606.54C1904.39 2606.84 1903.89 2607.24 1903.29 2607.54C1902.69 2607.84 1902.19 2608.24 1901.69 2608.54C1901.29 2608.84 1900.89 2609.04 1900.49 2609.34C1900.29 2609.44 1900.09 2609.54 1899.99 2609.74C1897.99 2607.14 1896.69 2604.64 1896.19 2602.24C1896.09 2601.44 1895.99 2600.74 1895.99 2600.04C1895.99 2599.34 1895.99 2599.84 1895.99 2599.74C1896.19 2592.64 1903.59 2584.64 1917.19 2577.14L1916.79 2577.44ZM1895.79 2602.64L1896.49 2611.44V2612.24C1897.49 2611.54 1898.49 2610.84 1899.49 2610.14C1897.49 2607.54 1896.19 2605.04 1895.69 2602.64H1895.79ZM1915.19 2601.34C1914.69 2601.54 1914.29 2601.74 1913.79 2602.04C1914.29 2601.84 1914.69 2601.64 1915.19 2601.34C1915.89 2600.94 1916.69 2600.64 1917.39 2600.34C1916.59 2600.64 1915.89 2601.04 1915.19 2601.34ZM1924.19 2597.44C1924.19 2597.44 1924.29 2597.44 1924.39 2597.44C1924.39 2597.44 1924.29 2597.44 1924.19 2597.44ZM1943.69 2590.84C1944.19 2590.64 1944.79 2590.54 1945.29 2590.44C1944.79 2590.54 1944.19 2590.74 1943.69 2590.84ZM1915.19 2601.34C1914.69 2601.54 1914.29 2601.74 1913.79 2602.04C1913.09 2602.34 1912.49 2602.64 1911.89 2602.94C1911.19 2603.24 1910.49 2603.64 1909.79 2603.94C1908.89 2604.44 1907.99 2604.84 1907.19 2605.34C1906.29 2605.84 1905.49 2606.34 1904.69 2606.84C1904.09 2607.14 1903.59 2607.54 1902.99 2607.84C1902.39 2608.14 1901.89 2608.54 1901.39 2608.84C1900.99 2609.14 1900.59 2609.34 1900.19 2609.64C1899.99 2609.74 1899.79 2609.84 1899.69 2610.04C1897.69 2607.44 1896.39 2604.94 1895.89 2602.54L1896.59 2611.34V2612.14L1898.29 2631.74C1900.59 2631.84 1902.89 2631.14 1904.79 2629.54C1905.39 2629.04 1905.89 2628.54 1906.49 2628.14C1908.69 2626.34 1911.19 2624.64 1913.99 2623.04C1914.19 2619.34 1914.39 2615.64 1914.59 2612.04C1914.79 2608.44 1914.99 2604.84 1915.19 2601.34C1915.89 2600.94 1916.69 2600.64 1917.39 2600.34C1916.59 2600.64 1915.89 2601.04 1915.19 2601.34ZM1924.19 2597.44C1924.19 2597.44 1924.29 2597.44 1924.39 2597.44C1924.39 2597.44 1924.29 2597.44 1924.19 2597.44ZM1943.69 2590.84C1944.19 2590.64 1944.79 2590.54 1945.29 2590.44C1944.79 2590.54 1944.19 2590.74 1943.69 2590.84Z" fill="black"/>
<path d="M2056.39 2980.94C2016.99 2980.94 1979.89 2975.64 1951.79 2965.94C1911.79 2952.14 1903.39 2934.44 1903.39 2922.04C1903.39 2909.64 1907.59 2912.64 1912.79 2912.64C1917.99 2912.64 1922.19 2916.84 1922.19 2922.04C1922.19 2927.24 1931.59 2939.14 1957.99 2948.24C1984.19 2957.24 2019.09 2962.24 2056.49 2962.24C2093.89 2962.24 2128.79 2957.24 2154.99 2948.24C2181.39 2939.14 2190.79 2928.74 2190.79 2922.04C2190.79 2915.34 2194.99 2912.64 2200.19 2912.64C2205.39 2912.64 2209.59 2916.84 2209.59 2922.04C2209.59 2934.44 2201.19 2952.14 2161.19 2965.94C2133.09 2975.64 2095.99 2980.94 2056.59 2980.94H2056.39Z" fill="black"/>
<path d="M2056.39 2936.44C1981.19 2936.44 1919.09 2918.34 1901.89 2891.44C1899.09 2887.04 1900.39 2881.24 1904.79 2878.54C1909.19 2875.74 1914.99 2877.04 1917.69 2881.44C1928.89 2899.04 1981.29 2917.74 2056.39 2917.74C2131.49 2917.74 2183.79 2899.04 2195.09 2881.44C2197.89 2877.04 2203.69 2875.74 2207.99 2878.54C2212.39 2881.34 2213.59 2887.14 2210.89 2891.44C2193.79 2918.34 2131.69 2936.44 2056.39 2936.44Z" fill="black"/>
<path d="M2199.99 2931.34C2199.69 2931.34 2199.49 2931.34 2199.19 2931.34C2193.99 2930.94 2190.19 2926.34 2190.59 2921.24L2217.19 2599.64C2217.59 2594.44 2222.19 2590.64 2227.29 2591.04C2232.49 2591.44 2236.29 2596.04 2235.89 2601.14L2209.29 2922.74C2208.89 2927.64 2204.79 2931.34 2199.99 2931.34Z" fill="black"/>
<path d="M1912.79 2931.34C1907.99 2931.34 1903.89 2927.64 1903.49 2922.74L1876.89 2601.14C1876.49 2595.94 1880.29 2591.44 1885.49 2591.04C1890.69 2590.64 1895.19 2594.44 1895.59 2599.64L1922.19 2921.24C1922.59 2926.44 1918.79 2930.94 1913.59 2931.34C1913.29 2931.34 1913.09 2931.34 1912.79 2931.34Z" fill="black"/>
<path d="M1809.49 2796.94C1804.89 2796.94 1800.89 2793.54 1800.19 2788.84C1799.49 2783.74 1803.09 2778.94 1808.19 2778.24C1818.29 2776.84 1824.79 2773.24 1827.49 2767.44C1831.49 2758.84 1827.49 2745.94 1824.39 2740.94C1820.79 2735.14 1813.39 2723.04 1772.19 2726.14C1708.89 2730.94 1662.79 2739.84 1656.39 2745.44C1652.49 2748.84 1646.59 2748.44 1643.19 2744.54C1639.79 2740.64 1640.19 2734.74 1644.09 2731.34C1660.69 2716.84 1745.29 2709.44 1770.79 2707.44C1817.39 2703.94 1832.39 2718.24 1840.39 2731.04C1846.09 2740.24 1851.89 2759.64 1844.49 2775.34C1840.69 2783.54 1831.69 2793.84 1810.79 2796.74C1810.39 2796.74 1809.89 2796.74 1809.49 2796.74V2796.94Z" fill="black"/>
<path d="M1831.49 2871.74C1827.59 2871.74 1823.89 2869.24 1822.59 2865.34C1820.99 2860.44 1823.59 2855.14 1828.49 2853.54C1833.09 2852.04 1836.49 2848.24 1839.29 2845.24C1839.69 2844.84 1840.09 2844.44 1840.39 2844.04C1846.79 2837.14 1849.99 2826.54 1848.29 2816.94C1847.59 2812.54 1845.19 2804.64 1837.19 2800.44C1836.29 2799.94 1826.79 2795.74 1773.79 2796.64C1742.19 2797.14 1703.79 2799.34 1671.29 2802.54C1666.19 2803.04 1661.59 2799.24 1661.09 2794.14C1660.59 2788.94 1664.39 2784.44 1669.49 2783.94C1718.09 2779.24 1825.19 2772.94 1845.99 2783.94C1856.99 2789.74 1864.59 2800.64 1866.79 2813.84C1869.39 2829.24 1864.49 2845.74 1853.99 2856.84C1853.69 2857.14 1853.39 2857.54 1852.99 2857.94C1849.39 2861.84 1843.49 2868.24 1834.29 2871.34C1833.29 2871.64 1832.29 2871.84 1831.29 2871.84L1831.49 2871.74Z" fill="black"/>
<path d="M1737.79 2950.54C1733.39 2950.54 1729.49 2947.44 1728.59 2943.04C1727.59 2937.94 1730.89 2933.04 1735.89 2932.04C1736.39 2931.94 1786.59 2921.74 1815.29 2909.04C1828.39 2903.24 1834.09 2891.74 1835.09 2882.74C1835.79 2876.84 1834.29 2873.54 1833.59 2872.84C1825.19 2871.64 1791.29 2869.24 1700.49 2887.94C1695.39 2889.04 1690.49 2885.74 1689.39 2880.64C1688.39 2875.54 1691.59 2870.64 1696.69 2869.54C1761.39 2856.24 1812.29 2850.64 1836.59 2854.24C1845.69 2855.64 1852.29 2863.44 1853.79 2874.64C1856.19 2892.34 1846.39 2915.74 1822.99 2926.04C1792.39 2939.54 1741.89 2949.84 1739.69 2950.24C1739.09 2950.34 1738.39 2950.44 1737.79 2950.44V2950.54Z" fill="black"/>
<path d="M1614.49 3054.94C1610.09 3054.94 1606.19 3051.84 1605.29 3047.34C1604.29 3042.24 1607.59 3037.34 1612.69 3036.34C1650.49 3028.94 1686.99 3015.24 1720.89 3001.44C1738.59 2994.24 1763.09 2978.04 1781.79 2961.24C1803.59 2941.54 1811.69 2926.34 1809.99 2919.94C1808.69 2914.94 1811.69 2909.84 1816.69 2908.54C1821.69 2907.24 1826.79 2910.24 1828.09 2915.24C1837.29 2950.54 1762.99 3004.54 1727.89 3018.84C1693.19 3032.94 1655.59 3047.14 1616.19 3054.74C1615.59 3054.84 1614.99 3054.94 1614.39 3054.94H1614.49Z" fill="black"/>
<path d="M1477.89 2796.54C1475.49 2796.54 1473.09 2795.64 1471.19 2793.74C1467.59 2790.04 1467.59 2784.14 1471.19 2780.44C1498.19 2753.74 1556.79 2679.54 1586.99 2638.44C1620.29 2593.14 1668.59 2590.14 1711.29 2590.94C1739.99 2591.54 1759.29 2605.14 1774.79 2616.14C1782.29 2621.44 1788.69 2626.04 1794.09 2627.44C1796.69 2628.14 1799.39 2628.84 1802.09 2629.54C1819.29 2633.84 1838.79 2638.74 1846.19 2652.14C1848.49 2656.34 1850.59 2663.34 1847.49 2672.74C1840.29 2694.44 1811.79 2716.54 1764.39 2716.94C1735.79 2717.24 1717.29 2710.14 1706.39 2703.84C1703.59 2712.74 1699.29 2724.24 1693.49 2732.64C1690.59 2736.94 1684.79 2738.04 1680.49 2735.14C1676.19 2732.24 1675.09 2726.44 1677.99 2722.14C1685.09 2711.64 1690.39 2692.54 1691.79 2686.04C1692.59 2682.54 1695.29 2679.64 1698.79 2678.84C1702.29 2678.04 1705.89 2679.24 1708.09 2682.04C1708.99 2683.04 1723.99 2698.24 1762.79 2698.24C1801.59 2698.24 1763.69 2698.24 1764.19 2698.24C1807.89 2697.84 1826.09 2677.54 1829.69 2666.94C1830.89 2663.34 1830.09 2661.84 1829.69 2661.34C1826.29 2655.04 1809.59 2650.94 1797.49 2647.94C1794.59 2647.24 1791.79 2646.54 1789.09 2645.84C1780.49 2643.54 1772.39 2637.74 1763.79 2631.74C1749.69 2621.74 1733.79 2610.44 1710.79 2610.04C1671.09 2609.24 1629.99 2611.74 1601.99 2649.84C1570.69 2692.54 1512.39 2766.34 1484.29 2794.04C1482.49 2795.84 1480.09 2796.74 1477.69 2796.74L1477.89 2796.54Z" fill="black"/>
<path d="M1838.69 2679.14C1835.39 2679.14 1832.19 2677.34 1830.49 2674.24C1827.99 2669.74 1829.69 2664.04 1834.19 2661.54C1835.39 2660.94 1862.69 2646.04 1889.99 2644.24C1895.19 2643.84 1899.59 2647.84 1899.99 2652.94C1900.39 2658.04 1896.39 2662.54 1891.29 2662.94C1868.09 2664.54 1843.49 2677.84 1843.19 2677.94C1841.79 2678.74 1840.19 2679.14 1838.69 2679.14Z" fill="black"/>
<path d="M1828.39 2739.84C1826.79 2739.84 1825.09 2739.44 1823.59 2738.54C1819.19 2735.94 1817.69 2730.24 1820.29 2725.74C1826.39 2715.34 1846.19 2706.34 1854.39 2702.94C1862.79 2699.44 1883.69 2691.74 1896.99 2695.04C1901.99 2696.24 1905.09 2701.34 1903.89 2706.34C1902.69 2711.34 1897.59 2714.44 1892.59 2713.24C1888.39 2712.24 1876.89 2713.94 1861.69 2720.24C1846.49 2726.54 1837.79 2733.04 1836.49 2735.24C1834.69 2738.14 1831.59 2739.84 1828.39 2739.84Z" fill="black"/>
<path d="M1906.99 2863.44C1882.19 2863.44 1851.39 2850.04 1850.09 2849.44C1845.39 2847.34 1843.19 2841.84 1845.29 2837.14C1847.39 2832.44 1852.89 2830.24 1857.69 2832.34C1857.99 2832.44 1886.19 2844.74 1907.09 2844.74C1927.99 2844.74 1907.09 2844.74 1907.19 2844.74C1912.39 2844.74 1916.59 2848.94 1916.59 2854.04C1916.59 2859.24 1912.39 2863.44 1907.29 2863.44H1907.09H1906.99Z" fill="black"/>
<path d="M1909.89 2909.54C1909.69 2909.54 1909.59 2909.54 1909.39 2909.54C1887.59 2908.34 1857.59 2898.44 1840.39 2889.64C1835.79 2887.34 1833.99 2881.64 1836.29 2877.04C1838.59 2872.44 1844.29 2870.64 1848.89 2872.94C1864.59 2880.94 1891.89 2889.84 1910.39 2890.84C1915.59 2891.14 1919.49 2895.54 1919.19 2900.74C1918.89 2905.74 1914.79 2909.64 1909.89 2909.64V2909.54Z" fill="black"/>
<path d="M1928.19 2937.04C1927.69 2942.74 1927.29 2948.64 1926.79 2954.64C1914.19 3123.74 1902.29 3435.24 1902.49 3611.64H1883.79C1883.59 3429.54 1896.19 3104.84 1909.19 2939.24C1909.19 2938.04 1909.39 2936.74 1909.49 2935.54C1909.49 2934.84 1909.69 2934.14 1909.89 2933.54C1910.09 2932.74 1910.49 2931.94 1910.99 2931.14C1912.79 2928.34 1916.09 2926.64 1919.59 2926.94C1919.79 2926.94 1919.99 2926.94 1920.19 2926.94C1920.29 2926.94 1920.49 2926.94 1920.59 2926.94C1922.59 2927.34 1924.29 2928.34 1925.59 2929.64C1925.79 2929.84 1925.89 2930.04 1926.09 2930.24C1926.09 2930.24 1926.09 2930.24 1926.19 2930.34C1927.59 2932.14 1928.29 2934.34 1928.09 2936.74L1928.19 2937.04Z" fill="black"/>
<path d="M1761.99 1721.14C1761.99 1721.14 1761.99 1721.14 1761.99 1721.24C1761.89 1721.44 1761.79 1721.74 1761.69 1721.94C1760.49 1724.44 1758.29 1726.44 1755.39 1727.14C1751.29 1728.14 1746.79 1729.34 1741.99 1730.64C1607.59 1768.84 1207.29 1948.24 1097.19 2061.54C937.692 2225.84 678.992 2661.64 548.192 3048.44C474.792 3265.34 551.492 3422.54 647.592 3497.34C697.392 3536.04 755.092 3555.74 811.892 3555.74C857.592 3555.74 902.792 3542.94 942.592 3517.14C1352.49 3251.64 1563.69 3089.04 1606.49 3055.44C1531.49 2979.64 1497.99 2908.54 1482.99 2861.64C1472.69 2829.44 1469.49 2804.24 1468.59 2788.94C1468.59 2788.74 1468.59 2788.54 1468.59 2788.34C1401.49 2820.94 1097.29 2969.74 910.992 3078.24C906.492 3080.84 900.792 3079.34 898.192 3074.84C895.592 3070.34 897.092 3064.64 901.592 3062.04C958.492 3028.84 1026.39 2991.94 1095.19 2955.74C1107.49 2949.24 1119.89 2942.84 1132.19 2936.34C1188.19 2907.14 1243.59 2879.04 1292.99 2854.24C1299.59 2850.94 1306.09 2847.64 1312.39 2844.54C1405.09 2798.14 1472.29 2765.74 1473.79 2765.04C1476.79 2763.64 1480.39 2763.84 1483.09 2765.74C1483.49 2766.04 1483.89 2766.34 1484.19 2766.64C1486.19 2768.54 1487.29 2771.34 1487.09 2774.14C1487.09 2774.24 1486.69 2780.14 1487.49 2790.54C1488.59 2804.94 1491.79 2828.04 1501.09 2856.94C1515.09 2900.34 1545.99 2965.54 1613.69 3035.94C1617.99 3040.44 1622.39 3044.84 1626.99 3049.34C1627.69 3050.04 1628.29 3050.94 1628.79 3051.84C1629.49 3053.24 1629.89 3054.84 1629.79 3056.54C1629.69 3059.24 1628.39 3061.74 1626.29 3063.34C1624.79 3064.54 1513.59 3153.84 1276.29 3317.04C1269.79 3321.54 1263.09 3326.04 1256.39 3330.64C1170.89 3389.24 1069.89 3456.74 952.592 3532.74C909.992 3560.34 861.692 3574.74 811.792 3574.74C761.892 3574.74 797.692 3574.44 790.692 3573.84C735.692 3569.44 682.192 3548.04 635.892 3512.04C576.892 3466.14 534.792 3401.14 514.192 3324.04C491.292 3238.44 496.892 3141.04 530.292 3042.34C591.092 2862.54 684.392 2657.74 792.992 2465.74C894.592 2286.14 1000.49 2133.94 1083.59 2048.34C1154.19 1975.64 1323.69 1888.44 1418.39 1842.84C1545.69 1781.64 1681.99 1726.44 1746.29 1709.84C1747.79 1709.44 1749.29 1709.04 1750.69 1708.74C1755.69 1707.54 1760.79 1710.64 1761.99 1715.64C1762.39 1717.44 1762.29 1719.24 1761.79 1720.94L1761.99 1721.14Z" fill="black"/>
<path d="M1276.89 3312.84C1276.79 3314.34 1276.69 3315.74 1276.59 3317.24C1267.29 3434.14 1258.69 3545.64 1253.69 3611.74H1234.89C1239.69 3548.64 1247.79 3443.14 1256.69 3330.94C1257.19 3324.44 1257.69 3317.94 1258.29 3311.44C1258.69 3306.24 1263.19 3302.44 1268.39 3302.84C1268.59 3302.84 1268.69 3302.84 1268.89 3302.84C1273.79 3303.44 1277.39 3307.84 1276.99 3312.84H1276.89Z" fill="black"/>
<path d="M1301.99 2869.64C1301.79 2869.64 1301.59 2869.64 1301.39 2869.64C1296.19 2869.34 1292.29 2864.84 1292.59 2859.74C1293.99 2836.54 1295.99 2809.34 1298.19 2780.54C1307.09 2661.54 1319.19 2498.54 1298.79 2446.54C1296.89 2441.74 1299.29 2436.24 1304.09 2434.44C1308.89 2432.54 1314.39 2434.94 1316.19 2439.74C1338.19 2495.64 1326.39 2654.44 1316.89 2781.94C1314.79 2810.64 1312.69 2837.74 1311.29 2860.84C1310.99 2865.84 1306.89 2869.64 1301.99 2869.64Z" fill="black"/>
<path d="M1101.49 2972.44C1099.59 2972.44 1097.69 2971.84 1095.99 2970.64C1091.79 2967.64 1090.79 2961.74 1093.89 2957.54L1304.79 2664.24C1307.79 2660.04 1313.69 2659.04 1317.89 2662.14C1322.09 2665.14 1323.09 2671.04 1319.99 2675.24L1109.09 2968.54C1107.29 2971.04 1104.39 2972.44 1101.49 2972.44Z" fill="black"/>
<path d="M2053.19 2496.24C2051.39 2496.24 2049.59 2495.74 2047.99 2494.64C2043.69 2491.74 2042.49 2485.94 2045.39 2481.64C2062.59 2455.64 2076.59 2401.64 2053.49 2363.24C2041.09 2342.54 2036.29 2313.44 2040.19 2283.14C2044.29 2251.84 2057.49 2224.24 2076.49 2207.44C2080.39 2204.04 2086.29 2204.34 2089.69 2208.24C2093.09 2212.14 2092.79 2218.04 2088.89 2221.44C2054.29 2252.24 2049.29 2319.84 2069.49 2353.54C2098.19 2401.44 2079.49 2463.84 2060.89 2491.84C2059.09 2494.54 2056.09 2496.04 2053.09 2496.04L2053.19 2496.24Z" fill="black"/>
<path d="M2128.79 2511.94C2126.69 2511.94 2124.49 2511.24 2122.69 2509.74C2118.79 2506.34 2118.29 2500.44 2121.59 2496.54C2136.99 2478.44 2152.79 2438.54 2129.69 2408.64C2116.99 2392.24 2111.89 2369.04 2115.69 2345.04C2119.69 2319.44 2133.29 2296.94 2152.99 2283.34C2157.29 2280.44 2163.09 2281.44 2165.99 2285.74C2168.89 2290.04 2167.89 2295.84 2163.59 2298.74C2148.09 2309.44 2137.39 2327.34 2134.19 2347.84C2131.29 2366.54 2135.19 2384.94 2144.49 2397.14C2174.39 2435.94 2155.09 2486.14 2135.79 2508.64C2133.89 2510.84 2131.29 2511.94 2128.69 2511.94H2128.79Z" fill="black"/>
<path d="M1975.79 2496.24C1973.69 2496.24 1971.49 2495.54 1969.69 2494.04C1965.79 2490.64 1965.29 2484.74 1968.59 2480.84C1983.99 2462.74 1999.79 2422.84 1976.69 2392.94C1963.99 2376.54 1958.89 2353.34 1962.69 2329.34C1966.69 2303.74 1980.29 2281.24 1999.99 2267.64C2004.29 2264.74 2010.09 2265.74 2012.99 2270.04C2015.89 2274.34 2014.89 2280.14 2010.59 2283.04C1995.09 2293.74 1984.39 2311.64 1981.19 2332.14C1978.29 2350.84 1982.19 2369.24 1991.49 2381.44C2021.39 2420.24 2002.09 2470.44 1982.79 2492.94C1980.89 2495.14 1978.29 2496.24 1975.69 2496.24H1975.79Z" fill="black"/>
</svg>
